<?xml version="1.0" standalone="no"?>
<!DOCTYPE svg PUBLIC "-//W3C//DTD SVG 20010904//EN"
 "http://www.w3.org/TR/2001/REC-SVG-20010904/DTD/svg10.dtd">
<svg version="1.0" xmlns="http://www.w3.org/2000/svg"
 width="896.000000pt" height="1280.000000pt" viewBox="0 0 896.000000 1280.000000"
 preserveAspectRatio="xMidYMid meet">

<g transform="translate(0.000000,1280.000000) scale(0.100000,-0.100000)"
fill="#000000" stroke="none">
<path d="M848 12589 c-33 -13 -39 -37 -40 -174 -1 -155 18 -459 31 -483 6 -12
11 -68 11 -131 l0 -111 -44 0 c-26 0 -48 -6 -56 -15 -7 -8 -25 -15 -41 -15
-15 0 -30 -4 -34 -9 -3 -6 -26 -13 -50 -17 -25 -3 -48 -10 -51 -15 -3 -5 -18
-9 -34 -9 -16 0 -35 -7 -44 -15 -8 -8 -25 -15 -38 -15 -13 0 -32 -7 -42 -15
-11 -8 -33 -15 -48 -15 l-28 0 2 -182 3 -183 80 -5 c44 -3 87 -10 95 -15 8 -6
51 -12 94 -15 44 -3 81 -10 83 -15 5 -15 -50 -45 -82 -45 -32 0 -106 -20 -119
-32 -6 -4 -19 -8 -31 -8 -12 0 -30 -7 -41 -15 -10 -8 -27 -15 -36 -15 -16 0
-18 -13 -18 -129 0 -76 4 -132 10 -136 6 -3 10 -20 10 -36 0 -22 7 -32 25 -41
14 -6 25 -14 25 -18 0 -4 38 -9 84 -12 47 -2 91 -9 98 -15 7 -7 31 -13 52 -15
56 -4 60 -28 4 -28 -23 0 -52 -7 -62 -15 -11 -8 -30 -15 -43 -15 -13 0 -23 -4
-23 -9 0 -5 -18 -12 -40 -16 -22 -4 -42 -11 -46 -16 -3 -5 -16 -9 -30 -9 l-25
0 3 -168 c4 -206 2 -203 121 -210 45 -2 87 -8 92 -12 6 -4 49 -11 97 -15 49
-4 90 -11 94 -16 3 -5 40 -9 84 -9 l78 0 7 -49 c5 -38 16 -59 52 -100 24 -28
65 -63 89 -77 51 -30 114 -106 114 -138 1 -28 21 -53 54 -66 33 -12 32 -43 -2
-48 -17 -3 -22 -10 -22 -31 0 -15 -3 -62 -6 -104 l-7 -77 27 0 c15 0 29 -7 32
-15 4 -8 17 -15 30 -15 24 0 24 -1 24 -98 0 -65 4 -102 13 -110 7 -8 15 -55
19 -110 7 -91 19 -200 34 -300 4 -27 2 -48 -5 -55 -6 -6 -11 -32 -11 -58 0
-36 6 -55 25 -77 23 -28 25 -37 25 -145 0 -79 5 -126 15 -150 10 -24 15 -69
15 -130 0 -51 4 -97 9 -102 5 -6 11 -58 13 -117 2 -67 8 -112 16 -120 8 -8 12
-50 12 -129 0 -81 5 -128 15 -152 10 -24 15 -69 15 -130 0 -51 4 -97 9 -102 5
-6 14 -104 20 -220 6 -115 18 -239 26 -275 9 -36 15 -93 15 -127 0 -36 7 -81
17 -105 18 -45 98 -138 118 -138 7 0 52 -40 101 -90 49 -49 95 -90 102 -90 6
0 44 -34 83 -75 40 -42 82 -78 94 -81 13 -3 38 -24 56 -47 51 -63 127 -134
161 -152 37 -18 115 -20 120 -3 7 21 28 -2 28 -31 0 -15 3 -31 8 -35 8 -9 29
-221 40 -406 4 -69 13 -135 20 -147 7 -13 12 -63 12 -130 0 -68 4 -113 11
-120 7 -7 16 -106 24 -265 7 -139 18 -266 24 -281 6 -16 11 -71 11 -123 l0
-94 -31 0 c-17 0 -37 -7 -45 -15 -9 -8 -29 -15 -45 -15 -16 0 -29 -4 -29 -10
0 -5 -12 -10 -26 -10 -14 0 -38 -6 -52 -14 -40 -20 -95 -36 -125 -36 l-27 0 0
-159 0 -159 73 -7 c39 -4 77 -11 82 -15 6 -4 25 -11 43 -15 36 -7 44 -25 10
-25 -25 0 -76 -15 -130 -39 -33 -14 -39 -22 -48 -64 -14 -68 -12 -142 5 -184
8 -19 15 -45 15 -58 0 -21 5 -22 95 -28 110 -6 124 -12 93 -36 -21 -17 -42
-23 -125 -38 l-33 -5 0 -164 0 -164 74 0 c41 0 77 -4 80 -8 3 -5 72 -14 153
-21 88 -8 157 -19 170 -27 12 -8 29 -14 36 -14 11 0 16 -21 19 -85 2 -47 10
-91 16 -97 8 -8 12 -52 12 -126 0 -92 4 -121 20 -158 11 -24 27 -44 35 -44 8
0 18 -6 22 -14 10 -17 124 -96 140 -96 6 0 20 -11 31 -25 11 -14 26 -25 34
-25 7 0 26 -12 43 -27 30 -29 38 -35 95 -68 49 -29 79 -60 84 -87 10 -54 38
-186 48 -228 6 -25 13 -65 16 -90 2 -25 8 -49 13 -54 5 -6 9 -33 9 -60 0 -28
7 -64 15 -80 8 -15 15 -45 15 -65 0 -20 7 -45 15 -55 9 -12 15 -42 15 -72 0
-75 16 -84 150 -84 l106 0 17 -227 c10 -126 21 -283 27 -350 5 -67 14 -131 19
-142 6 -11 11 -33 11 -50 l0 -31 190 0 190 0 0 520 c0 340 -3 520 -10 520 -6
0 -10 26 -10 58 0 33 -5 63 -12 70 -10 10 -13 222 -13 991 0 1008 -1 980 36
1053 5 10 9 260 9 557 l0 540 28 3 c25 3 27 7 30 56 l3 52 114 0 114 0 3 -52
c3 -45 6 -53 24 -56 l21 -3 8 -542 c4 -298 11 -547 16 -552 25 -32 29 -182 29
-1069 0 -882 -5 -1081 -29 -1126 -5 -9 -12 -242 -16 -518 l-7 -502 195 0 195
0 6 43 c4 23 9 98 12 167 3 70 11 131 17 139 7 8 13 70 15 152 3 77 8 139 13
139 5 0 9 36 9 80 l0 80 108 0 c139 0 152 8 152 89 0 40 5 63 15 71 10 8 15
31 15 69 1 33 7 64 15 75 8 11 15 39 15 62 0 24 4 45 9 48 9 6 17 62 29 198 4
42 13 83 20 90 6 6 12 36 12 65 0 50 1 53 36 69 20 9 38 23 41 31 3 7 11 13
19 13 7 0 29 14 47 30 19 17 39 30 44 30 6 0 19 11 29 25 10 14 24 25 31 25 6
0 25 11 41 25 17 14 37 25 46 25 8 0 25 13 38 30 12 16 29 30 38 30 9 0 37 21
61 47 l44 47 3 126 c2 69 7 130 12 135 4 6 11 48 15 94 5 52 13 90 22 99 9 10
50 18 111 24 94 8 145 15 320 39 l82 12 0 158 0 159 -24 0 c-14 0 -28 5 -31
10 -3 6 -18 10 -33 10 -15 0 -36 7 -46 15 -11 8 -29 15 -40 15 -10 0 -16 3
-12 7 4 4 45 11 92 14 97 8 124 24 124 73 0 17 7 40 15 50 17 23 20 104 5 157
-15 52 -62 79 -167 96 -18 3 -33 8 -33 12 0 12 102 40 159 44 30 3 57 10 62
18 5 8 9 80 9 162 l0 147 -24 0 c-14 0 -28 5 -31 10 -3 6 -20 10 -36 10 -17 0
-37 7 -45 15 -9 8 -26 15 -39 15 -13 0 -27 4 -30 10 -3 6 -24 10 -45 10 -21 0
-45 7 -54 15 -8 8 -29 15 -47 15 l-32 0 7 133 c4 72 11 182 16 242 5 61 14
170 18 243 5 76 14 138 20 144 8 8 12 55 12 134 0 85 4 132 15 157 10 25 15
71 15 146 0 60 4 112 9 115 5 3 12 64 16 136 4 72 11 133 16 136 5 3 9 53 9
112 0 59 4 113 9 120 14 23 21 -12 21 -109 l0 -89 48 0 c42 0 53 5 101 48 30
26 84 76 120 112 36 36 84 79 106 95 22 16 58 48 80 71 22 23 49 44 60 46 11
2 21 12 23 23 1 11 19 31 40 45 20 14 69 57 107 96 39 39 81 75 93 78 36 12
54 62 59 161 3 49 11 107 19 128 9 24 14 77 14 147 0 60 4 111 9 114 5 3 12
60 16 126 4 66 11 123 16 126 5 3 9 58 9 123 0 88 4 122 15 137 10 14 14 48
15 124 0 66 4 110 11 117 11 11 18 82 37 378 5 66 13 130 20 142 7 12 12 62
12 117 0 89 12 146 32 146 12 0 10 148 -2 155 -12 8 -13 52 -1 59 5 3 12 46
16 96 4 49 11 90 16 90 5 0 9 44 9 98 1 69 5 103 15 116 10 14 15 45 15 103 0
75 2 83 19 83 11 0 23 5 26 11 4 5 18 14 31 19 23 9 24 13 24 110 0 91 -2 100
-19 100 -10 0 -21 6 -24 14 -7 17 29 66 47 66 8 0 16 17 20 38 4 27 20 50 58
88 29 28 61 55 70 60 9 5 42 33 72 62 49 48 55 58 58 100 l3 47 70 3 c38 2 74
7 80 12 5 4 46 11 90 15 44 4 85 11 90 15 6 4 47 10 93 12 45 3 88 10 94 16 7
7 20 12 30 12 16 0 18 11 18 113 1 83 4 117 15 131 24 32 17 106 -10 106 -7 0
-26 7 -41 15 -16 8 -37 15 -46 15 -9 0 -20 5 -23 10 -3 6 -24 10 -45 10 -21 0
-45 7 -54 15 -8 8 -21 15 -29 15 -23 0 -47 11 -47 21 0 5 15 9 34 9 19 0 36 5
38 12 2 6 37 13 88 16 111 6 150 28 150 82 0 22 5 42 10 45 6 4 10 56 10 124
l0 119 -34 16 c-19 9 -45 16 -59 16 -14 0 -28 4 -31 8 -3 5 -31 14 -63 21 -32
7 -71 19 -86 27 -16 8 -40 14 -55 14 -18 0 -23 3 -16 10 6 6 50 15 97 20 47 5
95 13 106 19 11 6 45 11 77 11 90 0 94 8 94 207 l0 163 -24 0 c-13 0 -26 7
-30 15 -3 10 -19 15 -46 15 -24 0 -48 7 -56 15 -9 8 -26 15 -39 15 -12 0 -36
7 -51 15 -16 8 -37 15 -46 15 -9 0 -20 5 -23 10 -3 6 -21 10 -38 10 -18 1 -43
7 -57 15 -14 8 -42 14 -64 15 l-38 0 6 143 c3 78 9 207 12 287 3 80 10 149 15
155 5 5 9 79 9 165 l0 156 -37 -4 c-21 -2 -48 -7 -60 -13 -13 -5 -35 -14 -50
-20 -16 -6 -35 -15 -43 -20 -8 -5 -25 -13 -37 -18 -11 -6 -24 -15 -28 -20 -3
-6 -15 -11 -25 -11 -10 0 -20 -3 -22 -7 -1 -5 -21 -17 -43 -28 -22 -11 -55
-34 -72 -52 -30 -29 -33 -38 -33 -90 0 -32 -7 -71 -15 -87 -11 -21 -15 -63
-15 -161 0 -95 -4 -143 -15 -168 -11 -26 -15 -73 -15 -162 l0 -125 -39 0 c-22
0 -46 -7 -55 -15 -10 -11 -36 -15 -89 -15 -54 0 -78 -4 -87 -15 -9 -11 -33
-15 -84 -15 -44 0 -77 -5 -84 -12 -7 -7 -52 -16 -100 -20 -48 -4 -123 -10
-167 -14 -44 -3 -84 -10 -90 -14 -5 -4 -24 -11 -41 -14 l-31 -7 -7 -107 c-3
-59 -11 -147 -17 -197 -6 -49 -13 -109 -15 -132 -3 -27 -10 -43 -18 -43 -8 0
-19 -7 -26 -15 -7 -8 -28 -15 -46 -15 -19 0 -34 -4 -34 -9 0 -5 -14 -12 -30
-16 -36 -8 -87 -32 -95 -46 -4 -5 -21 -9 -40 -9 -19 0 -37 -4 -40 -10 -3 -5
-22 -10 -41 -10 -19 0 -34 -4 -34 -10 0 -5 -12 -12 -27 -16 -34 -7 -97 -36
-101 -46 -2 -5 -16 -8 -31 -8 -15 0 -36 -7 -47 -15 -10 -8 -31 -15 -45 -15
-15 0 -29 -7 -33 -15 -3 -9 -18 -15 -39 -15 -19 0 -40 -7 -47 -15 -7 -8 -21
-15 -31 -15 -11 0 -19 -4 -19 -9 0 -5 -26 -15 -57 -21 -32 -6 -71 -18 -86 -26
-16 -8 -37 -14 -47 -14 -9 0 -23 -7 -30 -15 -7 -8 -23 -15 -36 -15 -24 0 -24
0 -24 123 0 68 -4 127 -9 133 -5 5 -11 66 -13 136 -2 82 -8 132 -16 140 -7 7
-12 39 -12 76 0 48 -6 73 -24 106 -20 36 -25 63 -31 170 -4 69 -11 129 -16
132 -5 3 -9 57 -9 120 0 72 -5 123 -12 137 -7 12 -16 81 -20 152 -14 244 -18
274 -41 286 -29 16 -86 4 -112 -26 -13 -14 -33 -25 -43 -25 -11 0 -22 -7 -26
-15 -3 -8 -14 -15 -24 -15 -11 0 -25 -7 -32 -15 -7 -8 -20 -15 -29 -15 -9 0
-29 -15 -45 -34 -15 -19 -39 -37 -52 -40 l-24 -6 0 -240 0 -240 -90 0 -90 0
-4 -767 c-2 -558 -7 -804 -17 -898 l-14 -130 -30 3 c-16 2 -34 8 -40 13 -5 5
-17 9 -27 9 -10 0 -21 7 -24 15 -4 8 -16 15 -29 15 -12 0 -39 7 -58 15 -49 20
-215 20 -264 0 -19 -8 -46 -15 -58 -15 -13 0 -25 -7 -29 -15 -3 -8 -14 -15
-24 -15 -10 0 -22 -4 -28 -10 -5 -5 -25 -11 -44 -12 l-35 -3 -7 155 c-7 125
-18 806 -27 1558 l-1 112 -38 0 c-21 0 -42 -4 -48 -9 -5 -5 -26 -13 -46 -16
l-38 -7 -2 243 c-3 244 -3 244 -25 247 -13 2 -37 19 -55 38 -18 19 -37 34 -43
34 -6 0 -24 14 -40 30 -16 17 -37 30 -47 30 -10 0 -21 7 -24 15 -4 8 -14 15
-23 15 -9 0 -25 7 -35 15 -23 17 -69 19 -97 5 -16 -9 -19 -22 -19 -74 0 -34
-7 -85 -15 -112 -8 -28 -15 -88 -15 -140 0 -56 -6 -108 -15 -134 -8 -23 -15
-75 -15 -114 0 -39 -5 -147 -12 -241 -11 -155 -14 -172 -35 -195 -20 -21 -23
-35 -23 -101 0 -49 -5 -87 -15 -105 -11 -21 -15 -61 -15 -141 0 -64 -4 -114
-10 -118 -6 -4 -10 -55 -10 -121 0 -113 0 -114 -24 -114 -13 0 -29 7 -36 15
-7 8 -21 15 -32 15 -10 0 -29 6 -41 14 -12 8 -46 19 -75 26 -28 7 -55 16 -58
21 -3 5 -15 9 -28 9 -12 0 -31 7 -42 15 -10 8 -32 15 -47 15 -15 0 -30 7 -33
15 -4 8 -15 15 -26 15 -11 0 -26 7 -34 15 -9 8 -26 15 -39 15 -13 0 -26 4 -29
9 -3 5 -22 12 -41 15 -19 4 -35 11 -35 16 0 6 -15 10 -34 10 -18 0 -39 7 -46
15 -7 8 -21 15 -31 15 -10 0 -21 5 -24 10 -3 6 -19 10 -34 10 -16 0 -34 7 -41
15 -7 8 -28 15 -46 15 -19 0 -34 4 -34 9 0 5 -16 12 -35 15 -19 4 -35 11 -35
16 0 6 -8 10 -18 10 -10 0 -27 6 -38 14 -11 8 -33 16 -49 18 -29 3 -30 5 -32
63 -1 33 -8 140 -14 237 l-12 177 -31 7 c-17 3 -35 10 -41 14 -5 4 -39 10 -75
14 -216 19 -252 24 -262 34 -7 7 -43 12 -88 12 -50 1 -81 6 -94 15 -13 10 -44
15 -94 15 -52 0 -78 4 -88 15 -9 8 -33 15 -54 15 l-38 0 -4 148 c-2 89 -8 156
-16 169 -8 14 -12 69 -12 156 0 97 -4 145 -15 170 -8 20 -15 64 -15 97 0 57
-1 60 -25 60 -14 0 -25 4 -25 10 0 5 -21 19 -46 31 -26 11 -55 28 -65 37 -23
22 -136 82 -154 82 -7 0 -15 4 -17 9 -5 15 -51 21 -80 10z m292 -256 c8 -7
-21 7 -65 32 -44 25 -83 45 -87 45 -5 0 -8 4 -8 9 0 11 135 -62 160 -86z
m6811 79 c-37 -26 -147 -86 -136 -74 11 11 146 91 155 91 3 0 -6 -8 -19 -17z
m-158 -97 c-3 -9 -8 -14 -10 -11 -3 3 -2 9 2 15 9 16 15 13 8 -4z m-6620 -19
c8 -19 -18 -42 -29 -25 -4 8 -3 9 4 5 8 -5 12 0 12 13 0 24 6 27 13 7z m2472
-136 c3 -6 -1 -7 -9 -4 -18 7 -21 14 -7 14 6 0 13 -4 16 -10z m1685 3 c-8 -3
-30 -14 -47 -25 -18 -11 -33 -17 -33 -15 0 9 65 47 80 46 13 -1 13 -1 0 -6z
m-1605 -53 c3 -5 -10 -1 -29 11 -20 12 -36 23 -36 25 0 7 58 -25 65 -36z
m-113 -34 c0 -26 -2 -50 -6 -53 -3 -4 -6 20 -6 52 0 69 10 69 12 1z m1737 -8
c-1 -47 -2 -50 -10 -23 -7 26 -3 75 7 75 2 0 4 -24 3 -52z m-1585 -15 c-7 -26
-6 -27 10 -10 10 9 14 22 10 29 -4 7 7 2 24 -11 36 -25 43 -37 11 -21 -11 7
-23 9 -26 6 -6 -6 -9 -101 -13 -411 -2 -115 -5 -195 -7 -177 -2 17 -8 32 -12
32 -5 0 -5 19 0 43 11 57 11 456 0 438 -5 -7 -10 -9 -13 -5 -8 16 4 114 13
114 5 0 6 -12 3 -27z m1401 17 c-3 -5 -2 -18 4 -27 11 -21 19 -555 8 -544 -4
4 -8 97 -8 207 0 242 -6 310 -27 331 -15 14 -14 17 3 29 22 16 28 18 20 4z
m34 -57 c-1 -78 -6 -74 -12 10 -2 31 0 57 5 57 4 0 8 -30 7 -67z m-85 15 c-3
-13 -8 -120 -11 -238 -2 -118 -6 -217 -9 -219 -2 -2 -4 95 -4 217 0 130 4 223
10 227 5 3 7 12 3 20 -3 8 0 15 5 15 6 0 8 -10 6 -22z m-1263 -159 c-8 -38 -9
-40 -10 -12 -1 17 2 39 5 48 11 29 14 10 5 -36z m4 -169 c-2 -3 -6 -338 -9
-745 -4 -407 -9 -1035 -13 -1395 -3 -360 -5 -698 -5 -750 1 -64 -2 -87 -7 -70
-5 14 -7 183 -5 375 6 418 24 2363 24 2514 0 68 4 101 9 91 6 -8 8 -17 6 -20z
m123 -137 c-10 -2 -26 -2 -35 0 -10 3 -2 5 17 5 19 0 27 -2 18 -5z m-65 -24
c-4 -16 -8 -17 -14 -7 -13 19 -11 28 5 28 9 0 12 -7 9 -21z m104 -671 c-1
-128 -2 -24 -2 232 0 256 1 360 2 233 2 -128 2 -338 0 -465z m-3434 635 c-7
-2 -21 -2 -30 0 -10 3 -4 5 12 5 17 0 24 -2 18 -5z m4354 -820 c-1 -153 -2
-28 -2 277 0 305 1 430 2 278 2 -153 2 -403 0 -555z m3466 820 c-7 -2 -21 -2
-30 0 -10 3 -4 5 12 5 17 0 24 -2 18 -5z m-7923 -22 c0 -5 -9 -11 -20 -14 -20
-5 -26 3 -13 16 9 10 33 8 33 -2z m803 -8 c-7 -2 -21 -2 -30 0 -10 3 -4 5 12
5 17 0 24 -2 18 -5z m6400 0 c-13 -2 -33 -2 -45 0 -13 2 -3 4 22 4 25 0 35 -2
23 -4z m824 1 c-3 -3 -12 -4 -19 -1 -8 3 -5 6 6 6 11 1 17 -2 13 -5z m-3330
-36 c-3 -7 -5 -2 -5 12 0 14 2 19 5 13 2 -7 2 -19 0 -25z m-3687 6 c0 -2 -21
-4 -46 -4 -25 0 -43 4 -40 8 4 7 86 4 86 -4z m-246 -10 c3 -8 2 -12 -4 -9 -6
3 -10 10 -10 16 0 14 7 11 14 -7z m6279 9 c-13 -2 -33 -2 -45 0 -13 2 -3 4 22
4 25 0 35 -2 23 -4z m-3626 -125 c-2 -24 -4 -7 -4 37 0 44 2 63 4 43 2 -21 2
-57 0 -80z m-2072 82 c7 -12 -2 -12 -30 0 -19 8 -19 9 2 9 12 1 25 -3 28 -9z
m5330 0 c-11 -5 -29 -9 -40 -9 l-20 0 20 9 c11 5 29 9 40 9 l20 0 -20 -9z
m-3388 -92 c-2 -18 -4 -4 -4 32 0 36 2 50 4 33 2 -18 2 -48 0 -65z m3262 68
c-9 -8 -99 -13 -99 -5 0 5 23 9 52 9 28 0 49 -2 47 -4z m-1822 -492 c1 -229 0
-414 -2 -412 -14 13 -15 828 -1 828 1 0 2 -187 3 -416z m-83 -559 c13 -1615
13 -1631 -31 -1666 -13 -11 -13 -8 3 16 18 28 19 53 17 700 -1 368 -4 947 -7
1285 -3 338 -2 604 3 590 4 -14 11 -430 15 -925z m-1561 915 c3 -11 1 -18 -4
-14 -5 3 -9 12 -9 20 0 20 7 17 13 -6z m337 -1445 c-6 -113 -21 473 -20 820 0
138 3 340 8 450 5 158 8 54 12 -490 3 -379 3 -730 0 -780z m-133 1398 c-3 -10
-5 -4 -5 12 0 17 2 24 5 18 2 -7 2 -21 0 -30z m1420 -20 c-3 -10 -5 -2 -5 17
0 19 2 27 5 18 2 -10 2 -26 0 -35z m-1436 -213 c1 -118 1 -264 -1 -325 l-4
-110 -5 90 c-6 95 -3 570 3 564 3 -2 5 -101 7 -219z m-270 168 c-3 -21 -6 -26
-9 -15 -3 17 3 47 11 47 2 0 1 -15 -2 -32z m1949 17 c-7 -8 -17 -15 -22 -15
-6 0 -5 7 2 15 7 8 17 15 22 15 6 0 5 -7 -2 -15z m-373 -217 c-2 -24 -4 -7 -4
37 0 44 2 63 4 43 2 -21 2 -57 0 -80z m-4497 48 c0 -2 -9 -6 -20 -9 -11 -3
-18 -1 -14 4 5 9 34 13 34 5z m7865 -6 c7 -12 -2 -12 -30 0 -19 8 -19 9 2 9
12 1 25 -3 28 -9z m-7906 -24 c-2 -2 -20 -6 -39 -10 -25 -4 -31 -3 -20 4 14 9
69 15 59 6z m7946 -6 c-18 -8 -18 -9 5 -10 18 -2 20 -4 7 -7 -24 -6 -50 4 -42
17 3 5 16 10 28 9 21 0 21 -1 2 -9z m-3408 -162 c-2 -13 -4 -5 -4 17 -1 22 1
32 4 23 2 -10 2 -28 0 -40z m-4253 -257 c3 -5 -5 -11 -19 -13 -28 -6 -35 8 -7
15 9 3 18 5 19 6 1 0 4 -3 7 -8z m2944 -47 c-3 -27 -4 -26 -9 8 -3 22 -1 34 4
29 5 -5 7 -21 5 -37z m-20 -599 c-5 -253 -10 -469 -12 -480 -3 -17 2 784 6
1010 l1 80 7 -75 c4 -41 3 -282 -2 -535z m4617 585 c3 -6 -1 -7 -9 -4 -18 7
-21 14 -7 14 6 0 13 -4 16 -10z m-3138 -52 c-2 -13 -4 -5 -4 17 -1 22 1 32 4
23 2 -10 2 -28 0 -40z m-4682 23 c-3 -6 -14 -11 -23 -11 -15 1 -15 2 2 15 21
16 32 13 21 -4z m7920 -1 c4 -6 -6 -7 -27 -3 -44 8 -48 13 -10 13 17 0 34 -4
37 -10z m-3518 -62 c-3 -8 -6 -5 -6 6 -1 11 2 17 5 13 3 -3 4 -12 1 -19z m302
-235 c1 -109 4 -232 7 -273 4 -49 2 -70 -4 -61 -20 28 -26 531 -7 531 2 0 4
-89 4 -197z m-1529 50 c0 -47 -3 -84 -6 -80 -3 3 -6 40 -5 81 0 90 0 86 6 86
3 0 5 -39 5 -87z m1562 -233 c-2 -135 -5 -249 -7 -255 -2 -5 -3 123 -3 285 1
162 4 277 7 255 4 -22 5 -150 3 -285z m-205 -133 c-1 -67 -3 -9 -3 128 0 138
2 192 3 122 2 -71 2 -183 0 -250z m-1040 291 c-3 -7 -5 -2 -5 12 0 14 2 19 5
13 2 -7 2 -19 0 -25z m-318 -110 c-1 -55 -5 -50 -11 15 -2 20 0 37 4 37 4 0 7
-24 7 -52z m318 -25 c-2 -16 -4 -5 -4 22 0 28 2 40 4 28 2 -13 2 -35 0 -50z
m910 -200 c-2 -37 -3 -9 -3 62 0 72 1 102 3 68 2 -34 2 -93 0 -130z m-900 95
c-2 -13 -4 -5 -4 17 -1 22 1 32 4 23 2 -10 2 -28 0 -40z m-330 -100 c-2 -29
-3 -8 -3 47 0 55 1 79 3 53 2 -26 2 -71 0 -100z m300 100 c-3 -8 -6 -5 -6 6
-1 11 2 17 5 13 3 -3 4 -12 1 -19z m1230 -180 c-2 -18 -4 -6 -4 27 0 33 2 48
4 33 2 -15 2 -42 0 -60z m2080 66 c-3 -3 -12 -4 -19 -1 -8 3 -5 6 6 6 11 1 17
-2 13 -5z m-5668 -49 c0 -5 -4 -3 -9 5 -5 8 -9 22 -9 30 0 16 17 -16 18 -35z
m4107 38 c-46 -7 -59 -27 -53 -81 4 -31 3 -40 -3 -27 -12 28 -12 73 0 96 8 14
20 19 48 18 32 -2 33 -3 8 -6z m1459 -28 c-38 -19 -79 -34 -89 -34 -23 -1 -16
8 10 13 11 3 44 16 74 30 30 13 60 25 65 25 6 -1 -21 -16 -60 -34z m-5448 10
c12 -2 28 -8 35 -14 7 -7 22 -18 33 -27 21 -15 -82 26 -112 46 -16 11 -16 11
2 5 11 -4 30 -9 42 -10z m1428 5 c3 -5 2 -10 -4 -10 -5 0 -17 -7 -25 -16 -13
-12 -16 -12 -16 -2 0 15 19 38 31 38 4 0 11 -4 14 -10z m75 -15 c0 -8 -2 -15
-4 -15 -2 0 -6 7 -10 15 -3 8 -1 15 4 15 6 0 10 -7 10 -15z m2559 -29 c-3 -3
-11 5 -18 17 -13 21 -12 21 5 5 10 -10 16 -20 13 -22z m-2129 -53 c-11 -17
-11 -17 -6 0 3 10 7 28 7 40 2 22 2 22 6 0 2 -12 -1 -30 -7 -40z m207 15 c-3
-7 -5 -2 -5 12 0 14 2 19 5 13 2 -7 2 -19 0 -25z m1919 -13 c-3 -8 -10 -15
-15 -15 -5 0 -4 11 2 25 12 25 23 16 13 -10z m1264 30 c0 -8 -122 -67 -127
-61 -3 3 23 18 58 35 76 35 69 32 69 26z m-5115 -43 c46 -24 71 -44 73 -57 3
-18 2 -17 -14 4 -9 13 -49 39 -88 57 -39 18 -64 33 -56 33 8 0 46 -16 85 -37z
m4668 31 c-7 -2 -21 -2 -30 0 -10 3 -4 5 12 5 17 0 24 -2 18 -5z m-3488 -23
c3 -5 1 -10 -4 -10 -6 0 -11 5 -11 10 0 6 2 10 4 10 3 0 8 -4 11 -10z m1223
-12 l-38 -22 -3 -310 -2 -311 -3 313 -2 312 33 20 c17 11 37 20 42 20 6 0 -7
-10 -27 -22z m130 15 c-15 -2 -42 -2 -60 0 -18 2 -6 4 27 4 33 0 48 -2 33 -4z
m2019 1 c-3 -3 -12 -4 -19 -1 -8 3 -5 6 6 6 11 1 17 -2 13 -5z m-1280 -231
c-1 -43 -3 -8 -3 77 0 85 2 120 3 78 2 -43 2 -113 0 -155z m-2060 185 c-3 -8
-6 -5 -6 6 -1 11 2 17 5 13 3 -3 4 -12 1 -19z m-65 -304 c-1 -163 -5 -295 -7
-292 -14 14 -6 588 8 588 1 0 1 -133 -1 -296z m132 179 c-9 -145 -20 -150 -16
-8 2 63 7 115 13 115 5 0 6 -43 3 -107z m2478 -31 c2 -56 0 -102 -4 -102 -5 0
-8 19 -8 43 0 23 -3 74 -6 112 -5 49 -3 67 4 60 6 -5 12 -56 14 -113z m130 9
c1 -56 -2 -104 -5 -108 -4 -3 -7 45 -7 107 0 62 2 111 5 108 3 -3 6 -51 7
-107z m-3712 89 c0 -5 -7 -7 -15 -4 -8 4 -15 8 -15 10 0 2 7 4 15 4 8 0 15 -4
15 -10z m4686 -2 c4 -6 3 -8 -4 -4 -12 7 -52 -39 -52 -61 0 -8 -5 -11 -11 -8
-11 7 13 51 40 72 20 15 18 15 27 1z m-4728 -32 c0 -18 -4 -39 -9 -47 -6 -9
-9 -1 -9 27 0 34 6 54 16 54 1 0 2 -15 2 -34z m79 9 c0 -8 -4 -12 -9 -9 -5 3
-6 10 -3 15 9 13 12 11 12 -6z m1490 -137 c-2 -24 -4 -7 -4 37 0 44 2 63 4 43
2 -21 2 -57 0 -80z m1630 -20 c-2 -18 -4 -4 -4 32 0 36 2 50 4 33 2 -18 2 -48
0 -65z m-3087 -10 c0 -34 -2 -59 -4 -57 -8 10 -13 129 -5 123 5 -3 9 -33 9
-66z m4539 -33 l-6 -90 -1 77 c-2 62 5 119 12 106 1 -2 -1 -43 -5 -93z m-3622
18 c-3 -10 -5 -4 -5 12 0 17 2 24 5 18 2 -7 2 -21 0 -30z m1500 -85 c-2 -18
-4 -4 -4 32 0 36 2 50 4 33 2 -18 2 -48 0 -65z m1223 -183 l-6 -250 -2 260
c-1 142 2 255 6 250 5 -6 6 -122 2 -260z m-2181 43 c-1 -117 -4 -200 -8 -184
-7 32 -3 396 4 396 3 0 4 -96 4 -212z m2074 67 c4 -68 3 -98 -2 -80 -12 40
-21 209 -11 198 4 -4 10 -57 13 -118z m-3523 48 c0 -45 -5 -40 -13 10 -3 22
-2 35 4 32 5 -4 9 -22 9 -42z m3209 -707 c-9 -8 -10 -6 -5 7 3 10 7 184 8 385
l3 367 2 -374 c3 -275 0 -378 -8 -385z m-2214 606 c-11 -75 -18 -37 -9 50 7
69 9 75 12 38 2 -25 1 -65 -3 -88z m1412 -134 c-1 -40 -3 -10 -3 67 0 77 1
110 3 73 2 -37 2 -100 0 -140z m2093 107 l-7 -60 -2 56 c0 31 2 59 6 62 11 12
11 4 3 -58z m103 -29 c-3 -42 -9 -72 -13 -66 -11 18 4 159 15 148 3 -3 2 -39
-2 -82z m-4583 27 c0 -43 -5 -41 -13 5 -4 18 -2 32 3 32 6 0 10 -16 10 -37z
m1653 -177 c3 -109 2 -174 -4 -165 -8 13 -14 358 -5 348 2 -2 6 -85 9 -183z
m-696 97 c-3 -10 -5 -4 -5 12 0 17 2 24 5 18 2 -7 2 -21 0 -30z m502 -35 c-1
-59 -3 -67 -9 -40 -7 31 -3 112 6 112 2 0 4 -33 3 -72z m-1572 15 c-3 -10 -5
-2 -5 17 0 19 2 27 5 18 2 -10 2 -26 0 -35z m122 7 c0 -10 -3 -8 -9 5 -12 27
-12 43 0 25 5 -8 9 -22 9 -30z m3520 -139 c1 -46 -1 -82 -3 -80 -2 2 -6 58 -9
124 -4 80 -3 107 3 80 5 -22 9 -78 9 -124z m-2531 -906 l47 -50 -52 50 -53 49
2 496 3 495 2 -495 3 -495 48 -50z m-130 548 c-1 -261 -5 -404 -8 -323 -6 165
-2 790 5 790 3 0 4 -210 3 -467z m-957 422 c5 3 6 -1 3 -9 -8 -22 -24 -10 -23
17 1 17 2 18 6 4 2 -9 9 -15 14 -12z m4569 -60 c0 -5 -7 3 -15 19 -8 15 -15
38 -15 50 1 13 6 7 15 -19 8 -22 15 -44 15 -50z m-4469 32 c-19 -19 -13 -92
10 -121 26 -33 20 -43 -9 -16 -17 16 -22 32 -22 67 0 51 23 129 28 98 2 -9 -1
-22 -7 -28z m3019 -154 c-9 -14 -10 -10 -6 22 3 22 7 56 8 75 1 19 3 10 5 -22
2 -32 -1 -66 -7 -75z m-1591 35 c1 -20 -3 -39 -8 -43 -15 -9 -18 6 -13 65 3
40 7 50 13 35 4 -11 8 -37 8 -57z m-1512 15 c-3 -10 -5 -4 -5 12 0 17 2 24 5
18 2 -7 2 -21 0 -30z m3290 -50 c-3 -10 -5 -2 -5 17 0 19 2 27 5 18 2 -10 2
-26 0 -35z m1239 19 c-17 -16 -18 -16 -5 5 7 12 15 20 18 17 3 -2 -3 -12 -13
-22z m101 -9 c-3 -10 -5 -4 -5 12 0 17 2 24 5 18 2 -7 2 -21 0 -30z m-1566
-52 c-6 -11 -11 -31 -11 -45 0 -14 -4 -26 -10 -26 -14 0 -12 22 5 63 8 20 16
49 17 64 1 26 1 26 5 -4 2 -18 -1 -41 -6 -52z m536 -323 c-1 -73 -3 -14 -3
132 0 146 2 205 3 133 2 -73 2 -193 0 -265z m-3610 350 c-3 -7 -5 -2 -5 12 0
14 2 19 5 13 2 -7 2 -19 0 -25z m1591 -63 c16 -20 16 -20 -6 0 -12 11 -24 36
-27 55 l-5 35 11 -35 c6 -19 18 -44 27 -55z m2926 60 c-4 -9 -1 -29 6 -46 7
-16 10 -32 7 -35 -8 -8 -29 65 -23 81 3 8 8 15 10 15 3 0 3 -7 0 -15z m-987
-17 c-3 -8 -6 -5 -6 6 -1 11 2 17 5 13 3 -3 4 -12 1 -19z m-3407 -19 c-7 -11
-14 -18 -17 -15 -3 3 0 12 7 21 18 21 23 19 10 -6z m-113 -31 c-3 -8 -6 -5 -6
6 -1 11 2 17 5 13 3 -3 4 -12 1 -19z m114 -94 c10 -9 19 -24 19 -32 0 -9 -11
-2 -25 18 -15 21 -24 46 -23 64 l1 31 4 -31 c2 -18 13 -40 24 -50z m2799 72
c0 -2 -8 -10 -17 -17 -16 -13 -17 -12 -4 4 13 16 21 21 21 13z m-1285 -16 c3
-5 -3 -10 -14 -10 -12 0 -21 5 -21 10 0 6 6 10 14 10 8 0 18 -4 21 -10z m1359
-14 c-3 -7 -17 -18 -32 -25 -27 -11 -27 -11 3 14 35 29 36 29 29 11z m-124 -9
c-26 -24 -126 -91 -110 -74 24 25 104 86 115 86 5 1 3 -5 -5 -12z m-1194 -12
c17 -13 16 -14 -15 -5 -41 11 -51 20 -25 20 11 0 29 -7 40 -15z m2833 -42
c-22 -28 -22 -21 3 29 8 18 14 23 16 13 2 -8 -7 -27 -19 -42z m-2584 -55 c5
-5 5 -8 -2 -8 -15 0 -103 69 -103 82 0 8 54 -29 105 -74z m475 66 c-8 -8 -23
-20 -34 -25 -13 -6 -10 0 9 15 34 29 43 33 25 10z m-121 -21 c2 -2 -3 -3 -11
-3 -9 0 -19 7 -22 16 -6 15 -4 15 11 3 10 -7 20 -15 22 -16z m-519 -19 c0 -20
-7 -17 -20 6 -9 16 -8 18 5 14 8 -4 15 -12 15 -20z m-1723 -6 c-3 -8 -6 -5 -6
6 -1 11 2 17 5 13 3 -3 4 -12 1 -19z m2293 2 c8 -5 11 -10 5 -10 -5 0 -17 5
-25 10 -8 5 -10 10 -5 10 6 0 17 -5 25 -10z m-2301 -50 l-1 -25 -8 25 c-4 14
-8 32 -9 40 -1 13 0 13 9 0 5 -8 9 -26 9 -40z m938 -22 c-2 -13 -4 -3 -4 22 0
25 2 35 4 23 2 -13 2 -33 0 -45z m1861 43 c-7 -11 -23 -25 -37 -31 -22 -9 -20
-6 9 19 41 36 44 37 28 12z m839 -43 c-2 -13 -4 -3 -4 22 0 25 2 35 4 23 2
-13 2 -33 0 -45z m-966 29 c-10 -9 -11 -8 -5 6 3 10 9 15 12 12 3 -3 0 -11 -7
-18z m1910 -4 c-8 -15 -10 -15 -11 -2 0 17 10 32 18 25 2 -3 -1 -13 -7 -23z
m518 -83 c0 -48 -3 -60 -10 -45 -8 17 -9 16 -6 -7 3 -16 0 -28 -4 -28 -10 0
-12 88 -2 145 9 56 22 19 22 -65z m-5607 65 c-2 -14 0 -31 4 -38 5 -6 6 -41 3
-77 l-6 -65 -2 65 c-3 55 -5 60 -12 35 -7 -26 -8 -25 -4 10 3 22 5 52 5 68 0
15 4 27 9 27 4 0 6 -11 3 -25z m2018 -102 c0 -9 -90 61 -121 95 -21 22 -4 11
44 -28 42 -34 77 -65 77 -67z m290 123 c0 -3 -4 -8 -10 -11 -5 -3 -10 -1 -10
4 0 6 5 11 10 11 6 0 10 -2 10 -4z m40 -38 c0 -17 -23 -3 -26 16 -2 14 0 15
12 5 8 -6 14 -16 14 -21z m1340 8 c0 -5 -126 -105 -170 -135 -57 -39 -21 -7
75 68 92 72 95 74 95 67z m-1306 -37 c-8 -13 -24 -1 -24 18 0 13 3 13 15 3 8
-7 12 -16 9 -21z m146 -10 l45 -41 -45 33 c-60 43 -66 49 -54 49 5 0 29 -18
54 -41z m590 38 c0 -2 -30 -27 -66 -56 -37 -30 -62 -46 -57 -36 16 28 123 108
123 92z m-2591 -119 c1 -56 0 -100 -2 -98 -9 10 -17 211 -8 206 5 -3 9 -52 10
-108z m68 80 c-3 -7 -5 -2 -5 12 0 14 2 19 5 13 2 -7 2 -19 0 -25z m4398 -12
c-4 -20 -11 -36 -15 -36 -4 0 -2 18 3 40 13 48 21 46 12 -4z m-4127 17 c-26
-2 -71 -2 -100 0 -29 2 -8 3 47 3 55 0 79 -1 53 -3z m2302 -18 c-7 -8 -18 -15
-24 -15 -6 0 -2 7 8 15 25 19 32 19 16 0z m-2556 -21 c3 -8 2 -12 -4 -9 -6 3
-10 10 -10 16 0 14 7 11 14 -7z m1876 -26 c1 -21 -21 -14 -33 12 l-15 30 24
-18 c13 -9 24 -20 24 -24z m111 5 c13 -16 12 -17 -3 -4 -10 7 -18 15 -18 17 0
8 8 3 21 -13z m1550 -454 l-10 -54 4 70 c3 39 6 156 7 260 l3 190 2 -206 c2
-113 -1 -230 -6 -260z m-1605 409 l29 -32 -32 25 c-18 13 -32 27 -32 32 -1 12
4 8 35 -25z m414 9 c-22 -19 -26 -30 -24 -67 l3 -45 -9 45 c-8 41 -6 47 18 67
35 30 45 29 12 0z m-783 -67 c18 -13 31 -25 29 -28 -4 -4 -126 88 -126 96 0 2
15 -7 33 -20 17 -13 47 -35 64 -48z m1800 8 c-2 -13 -4 -3 -4 22 0 25 2 35 4
23 2 -13 2 -33 0 -45z m-1302 -233 c3 -148 4 -267 0 -263 -4 3 -10 128 -13
277 -4 148 -4 267 -1 263 4 -4 10 -128 14 -277z m2963 185 l-1 -25 -5 25 c-5
19 -8 14 -13 -25 -5 -40 -6 -33 -6 40 -1 88 -1 89 12 50 8 -22 13 -51 13 -65z
m-4988 44 c-7 -8 -16 -29 -20 -47 l-8 -32 -1 31 c-1 17 6 37 14 44 8 7 16 22
16 34 1 17 2 18 6 3 3 -10 -1 -25 -7 -33z m2830 43 c0 -2 -22 -23 -50 -46 -27
-23 -50 -38 -50 -33 0 6 21 26 48 46 48 36 52 39 52 33z m-3498 -34 c1 -16 1
-41 1 -58 -3 -114 -8 -113 -17 3 -5 56 -4 82 3 82 6 0 12 -12 13 -27z m5085
-15 c-3 -7 -5 -2 -5 12 0 14 2 19 5 13 2 -7 2 -19 0 -25z m-2479 -323 l-2
-250 -6 165 c-10 239 -10 425 1 375 4 -22 7 -152 7 -290z m433 262 l6 -52 4
60 c1 33 6 -118 9 -335 3 -217 2 -404 -2 -415 -4 -11 -8 133 -9 320 -2 187 -5
291 -6 230 -3 -123 -9 -159 -24 -150 -6 4 -8 59 -5 148 2 78 5 169 5 201 1 70
13 66 22 -7z m1062 -168 c-4 -5 -6 42 -3 104 l5 112 3 -104 c1 -57 -1 -108 -5
-112z m-1526 -31 c-1 -40 -3 -8 -3 72 0 80 2 112 3 73 2 -40 2 -106 0 -145z
m364 -228 l-8 -125 -2 125 c0 69 2 197 7 285 l7 160 3 -160 c1 -88 -2 -216 -7
-285z m2054 407 c-4 -14 -20 -37 -35 -51 -17 -14 -31 -40 -34 -58 -3 -18 -10
-60 -15 -93 l-9 -60 -1 60 c-1 65 18 132 42 150 8 6 22 28 31 49 18 42 31 44
21 3z m73 -33 c-3 -27 -4 -26 -9 8 -3 22 -1 34 4 29 5 -5 7 -21 5 -37z m-1727
-20 l-9 -39 -1 41 c-1 22 2 44 6 48 12 12 14 -8 4 -50z m646 -11 c-2 -16 -4
-5 -4 22 0 28 2 40 4 28 2 -13 2 -35 0 -50z m-3420 20 c-3 -10 -5 -4 -5 12 0
17 2 24 5 18 2 -7 2 -21 0 -30z m152 -73 c12 -47 21 -201 11 -175 -5 11 -9 45
-9 76 -1 31 -10 82 -20 115 -14 42 -16 53 -5 39 8 -11 18 -35 23 -55z m1568
33 c-3 -10 -5 -4 -5 12 0 17 2 24 5 18 2 -7 2 -21 0 -30z m-2315 -64 l-10 -44
0 65 c-1 51 2 60 10 44 6 -14 6 -36 0 -65z m5697 19 c-1 -51 -1 -52 -10 -18
-7 32 -4 70 7 70 2 0 4 -24 3 -52z m-5089 -33 c-8 -40 -8 -40 -9 15 0 35 3 50
8 40 5 -8 5 -33 1 -55z m3481 -33 c-5 -10 -18 -25 -27 -33 -16 -12 -17 -12 -9
1 10 18 37 50 42 50 2 0 -1 -8 -6 -18z m-2604 -54 c-2 -13 -4 -3 -4 22 0 25 2
35 4 23 2 -13 2 -33 0 -45z m3590 0 c-3 -8 -6 -5 -6 6 -1 11 2 17 5 13 3 -3 4
-12 1 -19z m-4435 -108 c5 -52 4 -53 -8 -25 -7 17 -13 50 -13 75 0 59 14 26
21 -50z m3368 -47 c0 -75 -2 -134 -5 -131 -6 6 -14 240 -8 256 11 27 13 6 13
-125z m1059 100 c-1 -37 -1 -37 -8 -8 -7 28 -5 45 5 45 2 0 3 -17 3 -37z
m-3367 -187 c-1 -101 -5 -173 -11 -179 -8 -8 -11 54 -10 194 0 152 3 198 11
179 6 -14 10 -96 10 -194z m905 167 c-3 -10 -5 -2 -5 17 0 19 2 27 5 18 2 -10
2 -26 0 -35z m-1080 -35 c-3 -7 -5 -2 -5 12 0 14 2 19 5 13 2 -7 2 -19 0 -25z
m2653 -3 c0 -19 -4 -35 -10 -35 -11 0 -13 30 -4 54 10 25 14 19 14 -19z m731
-31 c-9 -38 -9 -38 -10 -7 -1 33 10 74 16 57 2 -6 -1 -28 -6 -50z m-4121 -18
c0 -51 -6 -43 -14 19 -4 34 -3 45 4 35 5 -8 10 -33 10 -54z m719 -13 c-2 -79
-6 -70 -11 25 -2 28 0 52 5 52 4 0 6 -35 6 -77z m1539 -145 c-3 -86 -1 -155 4
-152 14 9 9 -33 -6 -45 -11 -9 -16 -9 -22 0 -4 7 -3 9 2 6 6 -3 10 14 10 41
-1 127 7 345 11 327 3 -11 3 -91 1 -177z m-2248 65 c0 -25 -2 -44 -4 -42 -8
10 -13 89 -5 89 5 0 9 -21 9 -47z m4243 -45 c-3 -35 -10 -55 -16 -51 -7 4 -8
-6 -4 -28 5 -26 4 -30 -4 -19 -8 12 -9 9 -4 -13 5 -25 -2 -36 -52 -86 -32 -31
-42 -40 -23 -19 19 22 35 44 35 51 1 7 7 26 14 42 19 46 41 136 41 169 0 19 3
27 10 20 5 -5 6 -35 3 -66z m-4379 -5 c6 -49 4 -62 -6 -58 -9 4 -12 23 -10 66
2 33 5 59 7 57 1 -2 5 -31 9 -65z m3513 0 c-3 -10 -5 -2 -5 17 0 19 2 27 5 18
2 -10 2 -26 0 -35z m-1536 -103 c-8 -52 -9 -50 -9 35 0 69 2 82 8 55 5 -19 5
-60 1 -90z m2249 65 c-4 -25 -10 -49 -15 -53 -4 -4 -5 11 -2 33 4 22 7 46 7
53 0 6 4 12 8 12 5 0 6 -20 2 -45z m-4038 -103 c12 -15 11 -16 -4 -4 -17 14
-49 94 -47 121 0 9 9 -10 19 -42 10 -32 24 -65 32 -75z m3145 11 c-3 -10 -5
-2 -5 17 0 19 2 27 5 18 2 -10 2 -26 0 -35z m-1400 -10 c-3 -10 -5 -4 -5 12 0
17 2 24 5 18 2 -7 2 -21 0 -30z m2271 17 c-7 -11 -17 -20 -22 -20 -5 0 -1 9 9
20 10 11 20 20 22 20 2 0 -2 -9 -9 -20z m-1911 -57 c-2 -16 -4 -5 -4 22 0 28
2 40 4 28 2 -13 2 -35 0 -50z m1200 -86 c-2 -23 -3 -1 -3 48 0 50 1 68 3 42 2
-26 2 -67 0 -90z m-3374 39 c4 4 7 5 7 1 0 -22 -23 -9 -66 36 l-49 52 51 -48
c27 -26 53 -44 57 -41z m175 -2 c43 -27 36 -32 -11 -8 -39 20 -67 44 -67 57 0
6 9 2 20 -8 11 -10 37 -29 58 -41z m3841 27 c-13 -11 -28 -20 -34 -20 -5 0 3
11 20 24 16 13 31 22 34 20 2 -3 -7 -13 -20 -24z m-3089 -26 c0 -5 -5 -3 -10
5 -5 8 -10 20 -10 25 0 6 5 3 10 -5 5 -8 10 -19 10 -25z m888 10 c-3 -3 -9 2
-12 12 -6 14 -5 15 5 6 7 -7 10 -15 7 -18z m-879 -107 c-2 -80 -2 -81 -9 -28
-4 30 -6 62 -4 70 1 8 3 21 3 28 1 6 3 12 6 12 3 0 4 -37 4 -82z m2986 64
c-25 -22 -165 -101 -165 -93 0 10 148 100 165 101 6 0 6 -3 0 -8z m-3811 -35
c12 -9 14 -14 5 -13 -8 0 -25 11 -39 24 -19 19 -20 22 -5 14 11 -6 28 -17 39
-25z m-54 -13 c0 -2 -9 0 -20 6 -11 6 -20 13 -20 16 0 2 9 0 20 -6 11 -6 20
-13 20 -16z m4054 -33 c-16 -15 -16 -15 -9 4 4 11 10 29 13 40 6 18 7 18 10
-4 2 -13 -4 -31 -14 -40z m-4100 14 c5 -22 4 -26 -4 -15 -5 8 -10 24 -10 34 0
26 6 18 14 -19z m316 -1 c0 -2 -13 2 -30 11 -16 9 -30 18 -30 21 0 2 14 -2 30
-11 17 -9 30 -18 30 -21z m2872 -76 c-2 -62 -6 -116 -10 -120 -9 -9 -15 187
-7 213 14 44 20 12 17 -93z m869 92 c-13 -11 -28 -20 -35 -20 -6 0 3 9 19 19
39 25 46 25 16 1z m-3945 -31 c19 -11 34 -23 34 -26 0 -4 -62 30 -79 44 -16
12 18 -1 45 -18z m343 -61 c99 -59 96 -57 90 -62 -4 -4 -172 93 -186 108 -18
18 18 1 96 -46z m-272 27 c0 -17 -13 -20 -21 -6 -4 5 0 12 6 14 7 3 13 6 14 6
0 1 1 -6 1 -14z m3783 11 c0 -2 -12 -11 -27 -20 l-28 -17 24 20 c23 21 31 25
31 17z m-3710 -22 c0 -2 -9 -4 -21 -4 -11 0 -18 4 -14 10 5 8 35 3 35 -6z
m507 -91 c-2 -16 -4 -3 -4 27 0 30 2 43 4 28 2 -16 2 -40 0 -55z m2893 67 c0
-6 -8 -13 -17 -17 -10 -3 -30 -14 -44 -24 -14 -10 -29 -16 -33 -12 -3 3 15 19
42 34 55 33 52 32 52 19z m-3415 -10 c3 -6 -1 -7 -9 -4 -18 7 -21 14 -7 14 6
0 13 -4 16 -10z m694 -37 l-2 -48 -6 40 c-7 38 -5 55 5 55 2 0 3 -21 3 -47z
m2400 -35 c-2 -77 -6 -69 -11 20 -2 28 0 52 5 52 4 0 6 -33 6 -72z m460 49 c0
-9 -2 -8 -6 1 -2 6 -10 9 -15 6 -7 -4 -8 -2 -4 5 9 13 26 5 25 -12z m-3473 -2
c-11 -8 -16 -15 -10 -15 5 0 23 -11 39 -25 l30 -25 -38 21 c-47 26 -52 35 -30
48 26 15 31 13 9 -4z m3494 -10 c0 -2 -10 -9 -22 -15 -22 -11 -22 -10 -4 4 21
17 26 19 26 11z m-3213 -21 c-3 -3 -12 -4 -19 -1 -8 3 -5 6 6 6 11 1 17 -2 13
-5z m-137 -40 c0 -2 -9 0 -20 6 -11 6 -20 13 -20 16 0 2 9 0 20 -6 11 -6 20
-13 20 -16z m201 9 c13 -16 12 -17 -3 -4 -10 7 -18 15 -18 17 0 8 8 3 21 -13z
m2782 -13 c3 -11 3 -20 1 -20 -2 0 -8 9 -14 20 -6 11 -7 20 -2 20 6 0 12 -9
15 -20z m-3033 0 c8 -5 12 -11 10 -14 -3 -2 -14 2 -24 10 -22 15 -10 19 14 4z
m3290 0 c-8 -5 -19 -10 -25 -10 -5 0 -3 5 5 10 8 5 20 10 25 10 6 0 3 -5 -5
-10z m-285 -10 c3 -5 2 -10 -4 -10 -5 0 -13 5 -16 10 -3 6 -2 10 4 10 5 0 13
-4 16 -10z m-2910 -10 c3 -6 -1 -7 -9 -4 -18 7 -21 14 -7 14 6 0 13 -4 16 -10z
m-50 -10 c3 -6 -1 -7 -9 -4 -18 7 -21 14 -7 14 6 0 13 -4 16 -10z m3205 6 c0
-2 -7 -7 -16 -10 -8 -3 -12 -2 -9 4 6 10 25 14 25 6z m-2705 -154 c-9 -9 -13
3 -15 43 -4 87 3 109 11 36 5 -41 7 -77 4 -79z m1202 126 c-3 -8 -6 -5 -6 6
-1 11 2 17 5 13 3 -3 4 -12 1 -19z m1371 -18 c-12 -16 -23 -30 -25 -30 -7 0
13 37 26 47 24 18 24 16 -1 -17z m92 25 c0 -2 -10 -9 -22 -15 -22 -11 -22 -10
-4 4 21 17 26 19 26 11z m-227 -20 c-3 -9 -8 -14 -10 -11 -3 3 -2 9 2 15 9 16
15 13 8 -4z m-2829 -48 c33 -44 14 -36 -29 12 -29 33 -33 41 -15 30 13 -9 33
-28 44 -42z m2982 12 c-14 -17 -26 -35 -26 -41 0 -6 -3 -9 -6 -6 -13 13 28 71
54 77 2 1 -8 -13 -22 -30z m-2796 -57 c0 -3 -7 3 -15 14 -8 10 -14 26 -15 34
0 8 7 2 15 -14 8 -15 15 -31 15 -34z m7 36 c-3 -8 -6 -5 -6 6 -1 11 2 17 5 13
3 -3 4 -12 1 -19z m2397 -60 l-8 -73 -8 55 c-6 36 -5 56 2 58 5 2 10 13 10 25
0 11 3 18 6 15 3 -4 2 -39 -2 -80z m214 61 c3 -11 2 -11 -6 -1 -6 9 -7 -15 -4
-65 2 -43 1 -75 -3 -71 -13 12 -15 160 -3 156 7 -3 13 -11 16 -19z m1032 -69
c-7 -53 -8 -53 -9 -13 -1 38 7 78 14 71 2 -2 0 -28 -5 -58z m-3767 -12 c2 -27
1 -48 -3 -48 -9 0 -19 91 -11 105 6 11 8 3 14 -57z m2843 8 c-4 -19 -11 -38
-17 -41 -10 -7 -7 24 6 66 10 32 18 14 11 -25z m-2699 2 c-3 -7 -5 -2 -5 12 0
14 2 19 5 13 2 -7 2 -19 0 -25z m-1101 -30 c-4 -40 -3 -45 3 -23 8 28 9 27 9
-15 0 -25 -2 -39 -5 -32 -2 6 -9 12 -14 12 -11 0 -12 -72 -1 -85 4 -6 4 -55 1
-110 -3 -55 -6 -88 -7 -73 -1 15 -7 30 -13 34 -22 13 4 344 28 344 2 0 1 -24
-1 -52z m3641 20 c-3 -8 -6 -5 -6 6 -1 11 2 17 5 13 3 -3 4 -12 1 -19z m-2575
-13 c3 -13 1 -22 -3 -19 -9 5 -13 44 -5 44 2 0 6 -11 8 -25z m1578 17 c0 -5
-7 -17 -15 -28 -14 -18 -14 -17 -4 9 12 27 19 34 19 19z m-1730 -50 c0 -15 -2
-15 -10 -2 -13 20 -13 33 0 25 6 -3 10 -14 10 -23z m3680 -7 c-19 -14 -36 -25
-39 -25 -3 0 -19 -11 -35 -25 -16 -14 -32 -22 -35 -19 -3 3 2 10 11 15 9 5 36
25 60 43 24 19 49 35 57 35 8 1 0 -10 -19 -24z m-4390 -28 c57 -38 54 -36 48
-42 -3 -3 -12 0 -19 7 -8 7 -33 25 -56 41 -24 15 -43 30 -43 33 0 6 10 1 70
-39z m3623 30 c3 -8 1 -20 -4 -28 -6 -10 -9 -7 -9 14 0 29 5 35 13 14z m-3653
-54 c0 -7 -58 36 -66 49 -4 7 9 -1 29 -16 20 -16 37 -30 37 -33z m4595 -94 c2
-68 1 -113 -2 -99 l-6 25 -7 -25 c-4 -14 -7 34 -6 107 0 73 5 128 9 124 4 -4
10 -64 12 -132z m-1098 99 c-3 -8 -6 -5 -6 6 -1 11 2 17 5 13 3 -3 4 -12 1
-19z m-2530 -40 c-3 -8 -6 -5 -6 6 -1 11 2 17 5 13 3 -3 4 -12 1 -19z m144 -1
c-10 -9 -11 -8 -5 6 3 10 9 15 12 12 3 -3 0 -11 -7 -18z m2179 8 c0 -8 -2 -15
-4 -15 -2 0 -6 7 -10 15 -3 8 -1 15 4 15 6 0 10 -7 10 -15z m-2383 -27 c-3 -7
-5 -2 -5 12 0 14 2 19 5 13 2 -7 2 -19 0 -25z m2576 -52 c-7 -80 -13 -84 -13
-9 0 65 -6 79 -27 62 -14 -12 -16 -9 -7 15 4 12 11 13 29 4 21 -9 23 -15 18
-72z m-3300 26 c6 -8 -6 -4 -26 8 -20 12 -40 27 -44 32 -8 14 55 -23 70 -40z
m4061 20 c-50 -36 -64 -44 -64 -38 0 7 83 65 94 66 5 0 -9 -13 -30 -28z m-644
-32 c0 -16 -2 -30 -4 -30 -2 0 -6 14 -8 30 -3 17 -1 30 4 30 4 0 8 -13 8 -30z
m-2833 -27 c-3 -10 -5 -2 -5 17 0 19 2 27 5 18 2 -10 2 -26 0 -35z m156 17
c-7 -28 -13 -25 -13 6 0 14 4 23 9 20 5 -3 7 -15 4 -26z m204 -57 c-2 -16 -4
-3 -4 27 0 30 2 43 4 28 2 -16 2 -40 0 -55z m1503 52 c0 -2 -10 -9 -22 -15
-22 -11 -22 -10 -4 4 21 17 26 19 26 11z m818 -26 c-3 -8 -7 -3 -11 10 -4 17
-3 21 5 13 5 -5 8 -16 6 -23z m-31 -31 c-2 -13 -4 -5 -4 17 -1 22 1 32 4 23 2
-10 2 -28 0 -40z m-2608 -27 c1 -38 -12 -15 -15 27 -2 28 -1 32 6 17 5 -11 9
-31 9 -44z m136 42 c9 4 14 3 10 -3 -3 -6 -12 -10 -20 -10 -7 0 -16 -6 -18
-12 -3 -7 -6 1 -6 17 -1 21 2 26 8 16 5 -8 16 -11 26 -8z m3185 12 c0 -2 -13
-11 -30 -20 -38 -19 -40 -11 -2 9 31 17 32 18 32 11z m-3760 -64 c14 -12 21
-21 17 -21 -8 0 -69 42 -92 63 -17 16 49 -22 75 -42z m3684 14 c-4 -8 -11 -15
-17 -15 -6 0 -18 -6 -27 -12 -9 -7 -3 -1 14 15 35 31 37 32 30 12z m-4262
-112 c6 -7 7 -35 3 -68 -11 -83 -25 -48 -23 55 0 47 3 72 5 55 3 -16 9 -35 15
-42z m4183 50 c-5 -10 -11 -38 -16 -63 l-7 -45 1 50 c0 28 5 56 10 63 14 18
20 15 12 -5z m-562 -44 c-8 -29 -13 -23 -13 14 0 22 3 28 9 18 5 -7 6 -22 4
-32z m-2976 9 c-3 -8 -6 -5 -6 6 -1 11 2 17 5 13 3 -3 4 -12 1 -19z m515 -8
c7 0 7 -4 0 -12 -5 -7 -12 -24 -15 -38 -2 -14 -4 0 -4 30 -1 30 1 47 4 38 2
-10 9 -18 15 -18z m2309 7 c-10 -9 -11 -8 -5 6 3 10 9 15 12 12 3 -3 0 -11 -7
-18z m191 -109 c-5 -5 -7 10 -6 34 5 77 8 84 11 29 2 -30 0 -58 -5 -63z m117
46 c-4 -36 -12 -71 -18 -77 -9 -9 -10 -4 -7 18 3 17 8 51 11 78 9 72 22 56 14
-19z m-317 21 c3 -14 1 -25 -3 -25 -5 0 -9 11 -9 25 0 14 2 25 4 25 2 0 6 -11
8 -25z m-2412 -37 c0 -18 3 -42 6 -54 4 -14 1 -21 -10 -21 -13 0 -16 12 -16
54 0 29 5 53 10 53 6 0 10 -15 10 -32z m2761 -38 c0 -34 -2 -64 -5 -68 -3 -3
-6 28 -6 68 0 40 2 71 6 68 3 -3 5 -34 5 -68z m-174 38 c-3 -8 -6 -5 -6 6 -1
11 2 17 5 13 3 -3 4 -12 1 -19z m-2290 -40 c-3 -7 -5 -2 -5 12 0 14 2 19 5 13
2 -7 2 -19 0 -25z m2112 -35 c-1 -50 -3 -61 -9 -43 -15 46 -11 110 7 110 2 0
3 -30 2 -67z m710 2 l0 -20 -9 20 c-5 11 -9 27 -9 35 -1 13 0 13 9 0 5 -8 9
-24 9 -35z m-3162 -12 c-3 -10 -5 -2 -5 17 0 19 2 27 5 18 2 -10 2 -26 0 -35z
m368 -103 c4 -19 3 -21 -5 -9 -5 9 -12 43 -14 75 l-5 59 9 -50 c5 -27 12 -61
15 -75z m-164 17 c-19 -19 -22 -1 -9 43 l13 42 3 -37 c2 -21 -1 -42 -7 -48z
m2926 1 c-2 -13 -4 -3 -4 22 0 25 2 35 4 23 2 -13 2 -33 0 -45z m-3458 -18
c-1 -19 -3 -29 -6 -22 -2 6 -8 10 -11 8 -6 -4 -7 35 -2 74 3 27 19 -23 19 -60z
m2777 4 c-4 -9 -9 -15 -11 -12 -3 3 -3 13 1 22 4 9 9 15 11 12 3 -3 3 -13 -1
-22z m141 -6 c-3 -8 -6 -5 -6 6 -1 11 2 17 5 13 3 -3 4 -12 1 -19z m-2407 -33
c0 -14 -4 -25 -10 -25 -11 0 -14 33 -3 43 11 11 13 8 13 -18z m2559 -32 c-1
-49 -2 -54 -9 -29 -8 26 -3 86 6 86 2 0 4 -26 3 -57z m-2532 10 c-3 -10 -5 -4
-5 12 0 17 2 24 5 18 2 -7 2 -21 0 -30z m2414 2 c5 4 9 1 9 -5 0 -17 -25 -6
-26 11 -1 9 1 10 3 1 3 -7 9 -10 14 -7z m-2554 -27 c-3 -8 -6 -5 -6 6 -1 11 2
17 5 13 3 -3 4 -12 1 -19z m2357 -87 c-3 -47 -7 -87 -9 -90 -3 -2 -5 43 -5
100 0 69 3 99 10 89 5 -8 7 -53 4 -99z m-2052 41 c3 -9 1 -26 -3 -37 -6 -15
-8 -11 -8 18 -1 40 4 48 11 19z m-926 -47 c4 -8 3 -23 0 -32 -6 -15 -8 -15
-16 -3 -13 20 -12 50 0 50 6 0 13 -7 16 -15z m3266 -37 c-6 -6 -7 0 -4 19 5
21 7 23 10 9 2 -10 0 -22 -6 -28z m-2628 0 c4 -17 2 -28 -4 -28 -5 0 -10 14
-10 32 0 36 4 35 14 -4z m299 -43 c4 -32 3 -43 -3 -30 -8 19 -14 93 -6 84 2
-2 6 -26 9 -54z m454 -87 c-2 -29 -3 -8 -3 47 0 55 1 79 3 53 2 -26 2 -71 0
-100z m1772 80 c-1 -40 -1 -41 -9 -15 -8 26 -4 57 6 57 2 0 4 -19 3 -42z
m-2408 18 c5 3 8 -12 8 -33 -1 -21 -3 -30 -6 -20 -2 9 -9 17 -14 17 -5 0 -9
12 -8 28 0 15 3 21 6 14 2 -6 9 -10 14 -6z m1796 -583 c-1 -109 -2 -20 -2 197
0 217 1 306 2 198 2 -109 2 -287 0 -395z m-1902 546 c-4 -12 -3 -19 2 -16 5 3
9 -3 9 -14 0 -19 -1 -19 -13 -3 -14 20 -17 37 -6 47 12 12 14 7 8 -14z m2482
-71 c-2 -18 -4 -4 -4 32 0 36 2 50 4 33 2 -18 2 -48 0 -65z m133 72 c0 -5 -2
-10 -4 -10 -3 0 -8 5 -11 10 -3 6 -1 10 4 10 6 0 11 -4 11 -10z m-21 -31 c-22
-13 -31 -11 -17 5 7 8 17 12 22 9 4 -3 2 -9 -5 -14z m-2505 -3 c-3 -8 -15 -17
-27 -20 -21 -5 -20 -4 3 14 30 24 31 24 24 6z m2219 -16 c3 -11 1 -18 -4 -14
-5 3 -9 12 -9 20 0 20 7 17 13 -6z m164 -92 c-3 -8 -6 -5 -6 6 -1 11 2 17 5
13 3 -3 4 -12 1 -19z m-1720 -370 c-1 -73 -3 -16 -3 127 0 143 2 203 3 133 2
-70 2 -187 0 -260z m-50 -131 c-1 -84 -3 -12 -3 158 0 171 2 239 3 152 2 -87
2 -227 0 -310z m1760 431 c-3 -7 -5 -2 -5 12 0 14 2 19 5 13 2 -7 2 -19 0 -25z
m-162 -55 c-10 -43 -17 -18 -8 34 6 39 8 43 11 19 2 -15 1 -40 -3 -53z m-18
-86 c1 -46 0 -49 -9 -24 -8 22 -5 77 5 77 1 0 3 -24 4 -53z m-430 -9 c-2 -13
-4 -5 -4 17 -1 22 1 32 4 23 2 -10 2 -28 0 -40z m-1530 -30 c-3 -8 -6 -5 -6 6
-1 11 2 17 5 13 3 -3 4 -12 1 -19z m1535 -350 c2 -86 0 -154 -4 -151 -5 2 -7
111 -6 241 2 236 6 207 10 -90z m-1652 239 c10 -4 8 -6 -7 -6 -12 -1 -24 3
-27 8 -7 11 6 24 13 13 3 -5 13 -12 21 -15z m2230 2 c0 -5 -4 -9 -8 -9 -5 0
-9 7 -9 15 0 8 4 12 9 9 4 -3 8 -9 8 -15z m-57 -6 c-7 -2 -19 -2 -25 0 -7 3
-2 5 12 5 14 0 19 -2 13 -5z m-2174 -77 c-2 -2 -15 -9 -29 -15 -24 -11 -24
-11 -6 3 16 13 49 24 35 12z m84 -3 c-7 -2 -21 -2 -30 0 -10 3 -4 5 12 5 17 0
24 -2 18 -5z m2144 -23 c3 -10 2 -11 -4 -4 -4 6 -15 14 -23 17 -11 5 -9 6 4 4
11 -1 21 -9 23 -17z m30 -32 c-3 -8 -6 -5 -6 6 -1 11 2 17 5 13 3 -3 4 -12 1
-19z m-2390 -45 c-3 -10 -5 -2 -5 17 0 19 2 27 5 18 2 -10 2 -26 0 -35z m237
28 c-15 -15 -57 -25 -50 -12 4 6 16 11 27 11 10 0 19 5 19 12 0 6 3 8 7 5 4
-4 2 -11 -3 -16z m2032 -13 c4 -6 -2 -7 -17 -3 -35 10 -45 23 -15 18 15 -3 29
-10 32 -15z m77 -15 c-7 -2 -19 -2 -25 0 -7 3 -2 5 12 5 14 0 19 -2 13 -5z
m-2076 -53 c3 -10 2 -11 -4 -4 -4 7 -19 14 -33 17 -22 4 -21 5 4 4 17 -1 31
-9 33 -17z m1973 10 c0 -5 -6 -10 -14 -10 -8 0 -23 -3 -33 -7 -16 -6 -16 -5
-4 10 15 18 51 23 51 7z m-2086 -32 c-4 -5 -9 -7 -12 -4 -3 3 -12 0 -21 -7
-14 -10 -14 -10 -4 4 13 16 46 23 37 7z m511 -146 c-10 -40 -30 -19 -31 34
l-1 49 4 -48 c6 -73 23 -46 25 41 l2 77 3 -65 c2 -35 1 -75 -2 -88z m-392 88
c-4 -4 -19 -10 -33 -13 -23 -6 -23 -5 3 5 16 7 27 20 28 32 1 19 2 19 6 2 3
-10 1 -22 -4 -26z m2055 -11 c-7 -5 -35 -8 -63 -7 l-50 1 55 6 c49 5 55 9 59
31 l5 25 4 -24 c2 -13 -2 -28 -10 -32z m-2193 -7 c-3 -3 -11 0 -18 7 -9 10 -8
11 6 5 10 -3 15 -9 12 -12z m2075 6 c0 -4 -6 -8 -14 -8 -8 0 -17 4 -20 8 -2 4
4 8 15 8 10 0 19 -4 19 -8z m-393 -80 c-2 -13 -4 -3 -4 22 0 25 2 35 4 23 2
-13 2 -33 0 -45z m-1790 -45 c-2 -16 -4 -5 -4 22 0 28 2 40 4 28 2 -13 2 -35
0 -50z m173 37 c0 -5 -16 -10 -35 -10 -19 0 -35 5 -35 10 0 6 16 10 35 10 19
0 35 -4 35 -10z m2010 1 c0 -5 -11 -8 -25 -8 -13 0 -22 3 -19 8 3 5 14 9 25 9
10 0 19 -4 19 -9z m-2080 -56 c0 -17 -2 -17 -10 -5 -5 8 -10 24 -10 35 0 17 2
17 10 5 5 -8 10 -24 10 -35z m2213 5 c4 -17 3 -19 -9 -9 -8 6 -14 18 -14 26 0
20 16 8 23 -17z m-2088 -30 c-3 -5 -16 -10 -28 -9 -20 1 -20 2 3 9 14 4 26 8
28 9 2 1 0 -3 -3 -9z m-72 -17 c-7 -2 -19 -2 -25 0 -7 3 -2 5 12 5 14 0 19 -2
13 -5z m2137 -3 c0 -5 -18 -10 -40 -10 -22 0 -40 5 -40 10 0 6 18 10 40 10 22
0 40 -4 40 -10z m-2040 -50 c11 -7 -1 -9 -40 -9 -50 2 -52 2 -20 9 19 4 37 8
40 9 3 0 12 -4 20 -9z m1885 -10 c-3 -5 -10 -10 -16 -10 -5 0 -9 5 -9 10 0 6
7 10 16 10 8 0 12 -4 9 -10z m93 3 c-10 -2 -28 -2 -40 0 -13 2 -5 4 17 4 22 1
32 -1 23 -4z m-98 -57 c0 -7 10 -16 22 -19 12 -4 20 -9 16 -12 -10 -10 -58 14
-58 30 0 8 5 15 10 15 6 0 10 -6 10 -14z m-1850 -5 c0 -10 -60 -34 -67 -27 -4
4 45 33 60 35 4 1 7 -3 7 -8z m1987 -18 c-14 -14 -19 -15 -29 -4 -11 10 -10
11 3 6 10 -4 20 -2 24 4 3 6 9 11 13 11 3 0 -1 -8 -11 -17z m-2083 -15 c-3 -4
-12 -8 -20 -8 -8 0 -14 4 -14 8 0 4 9 8 19 8 11 0 17 -4 15 -8z m2039 -5 c-7
-2 -19 -2 -25 0 -7 3 -2 5 12 5 14 0 19 -2 13 -5z m-286 -90 c-2 -16 -4 -5 -4
22 0 28 2 40 4 28 2 -13 2 -35 0 -50z m-1780 23 c0 -8 -6 -12 -15 -8 -11 4
-14 1 -9 -11 9 -24 0 -21 -14 4 -7 13 -7 19 -1 15 6 -3 13 -2 17 4 9 15 22 12
22 -4z m56 7 c-7 -2 -21 -2 -30 0 -10 3 -4 5 12 5 17 0 24 -2 18 -5z m2012 -2
c-12 -11 -125 -19 -125 -9 0 8 38 14 95 17 24 0 35 -3 30 -8z m42 -73 c-3 -8
-6 -5 -6 6 -1 11 2 17 5 13 3 -3 4 -12 1 -19z m-1962 -27 c-6 -5 -25 10 -25
20 0 5 6 4 14 -3 8 -7 12 -15 11 -17z m-82 2 c-13 -2 -33 -2 -45 0 -13 2 -3 4
22 4 25 0 35 -2 23 -4z m1950 0 c-7 -2 -19 -2 -25 0 -7 3 -2 5 12 5 14 0 19
-2 13 -5z m77 3 c0 -9 -30 -14 -35 -6 -4 6 3 10 14 10 12 0 21 -2 21 -4z
m-323 -68 c-3 -7 -5 -2 -5 12 0 14 2 19 5 13 2 -7 2 -19 0 -25z m-1698 8 c-2
-2 -15 -9 -29 -15 -24 -11 -24 -11 -6 3 16 13 49 24 35 12z m1981 -6 c0 -5 -7
-7 -15 -4 -8 4 -15 8 -15 10 0 2 7 4 15 4 8 0 15 -4 15 -10z m-108 -22 c-28
-17 -33 -26 -30 -49 3 -15 1 -26 -4 -23 -4 3 -8 16 -8 29 0 23 41 65 64 65 6
0 -4 -10 -22 -22z m-1786 -13 c-4 -24 -16 -30 -16 -7 0 12 4 22 9 22 5 0 8 -7
7 -15z m1859 -62 c14 2 25 0 25 -4 0 -10 -70 -12 -94 -3 -30 11 -16 23 14 12
17 -5 42 -8 55 -5z m-1912 -4 c-25 -10 -81 -11 -87 -1 -2 4 20 8 50 8 33 0 48
-3 37 -7z m1836 -75 c-8 -10 -15 -12 -17 -5 -2 6 -9 8 -14 5 -7 -4 -8 -2 -4 4
4 7 16 12 28 12 18 0 19 -2 7 -16z m-1852 0 c-3 -3 -12 -4 -19 -1 -8 3 -5 6 6
6 11 1 17 -2 13 -5z m-74 -84 c3 -11 1 -18 -4 -14 -5 3 -9 12 -9 20 0 20 7 17
13 -6z m117 0 c-8 -5 -22 -9 -30 -9 -10 0 -8 3 5 9 27 12 43 12 25 0z m1835 0
l20 -9 -20 0 c-11 0 -27 4 -35 9 -13 9 -13 10 0 9 8 0 24 -4 35 -9z m-1822
-57 c-7 -2 -19 -2 -25 0 -7 3 -2 5 12 5 14 0 19 -2 13 -5z m-68 -30 c-18 -17
-31 -23 -33 -16 -2 7 -11 9 -20 6 -9 -3 -15 -3 -12 0 5 5 70 31 90 36 3 0 -9
-11 -25 -26z m1837 0 c-18 -19 -28 -24 -30 -15 -5 18 17 42 39 42 15 0 14 -4
-9 -27z m148 -19 c0 -20 -7 -17 -20 6 -9 16 -8 18 5 14 8 -4 15 -12 15 -20z
m-571 -331 c0 -226 -3 -330 -10 -314 -5 13 -7 83 -5 155 2 72 5 213 5 314 1
100 3 182 6 182 3 0 5 -152 4 -337z m-1382 281 c-3 -3 -12 -4 -19 -1 -8 3 -5
6 6 6 11 1 17 -2 13 -5z m93 -4 c0 -5 -12 -10 -27 -9 -25 0 -26 1 -8 9 27 12
35 12 35 0z m390 -409 c1 -228 -2 -416 -4 -419 -3 -2 -6 186 -6 419 0 232 2
420 5 418 2 -3 5 -191 5 -418z m1405 405 c11 -2 -13 -4 -52 -5 -40 0 -73 2
-73 7 0 6 79 5 125 -2z m-2918 -2 c-3 -3 -12 -4 -19 -1 -8 3 -5 6 6 6 11 1 17
-2 13 -5z m-97 -28 c0 -2 -7 -6 -15 -10 -8 -3 -15 -1 -15 4 0 6 7 10 15 10 8
0 15 -2 15 -4z m1100 -60 c0 -2 -11 -6 -25 -8 -14 -3 -25 -1 -25 3 0 5 11 9
25 9 14 0 25 -2 25 -4z m1847 -2 c-3 -3 -12 -4 -19 -1 -8 3 -5 6 6 6 11 1 17
-2 13 -5z m-1889 -80 c-3 -14 -5 -12 -10 9 -3 19 -2 25 4 19 6 -6 8 -18 6 -28z
m1999 4 c-3 -8 -6 -5 -6 6 -1 11 2 17 5 13 3 -3 4 -12 1 -19z m-2088 -48 c0
-10 -3 -8 -9 5 -12 27 -12 43 0 25 5 -8 9 -22 9 -30z m1931 -24 c0 -2 -7 -6
-15 -10 -8 -3 -15 -1 -15 4 0 6 7 10 15 10 8 0 15 -2 15 -4z m-1784 -16 c-16
-5 -33 -15 -37 -22 -7 -10 -9 -9 -9 3 0 23 10 29 44 28 l31 -1 -29 -8z m1994
-4 c0 -2 -8 -10 -17 -17 -16 -13 -17 -12 -4 4 13 16 21 21 21 13z m-2043 -108
c-2 -13 -4 -5 -4 17 -1 22 1 32 4 23 2 -10 2 -28 0 -40z m1970 30 c-3 -8 -6
-5 -6 6 -1 11 2 17 5 13 3 -3 4 -12 1 -19z m-160 -40 c-2 -13 -4 -5 -4 17 -1
22 1 32 4 23 2 -10 2 -28 0 -40z m160 -40 c-2 -13 -4 -3 -4 22 0 25 2 35 4 23
2 -13 2 -33 0 -45z m-1793 2 c4 -25 3 -31 -4 -20 -5 8 -10 26 -10 39 0 32 6
24 14 -19z m1823 -62 c-2 -18 -4 -4 -4 32 0 36 2 50 4 33 2 -18 2 -48 0 -65z
m-50 50 c-3 -8 -6 -5 -6 6 -1 11 2 17 5 13 3 -3 4 -12 1 -19z m-1967 -70 c0
-34 -2 -59 -4 -57 -8 10 -13 129 -5 123 5 -3 9 -33 9 -66z m210 -52 c0 -65 -6
-56 -13 19 -4 39 -3 54 3 45 5 -8 10 -37 10 -64z m1599 -66 c-3 -66 -10 -124
-14 -128 -4 -4 -5 25 -1 63 3 39 6 96 6 128 0 31 3 57 8 57 4 0 4 -54 1 -120z
m-1084 -512 c2 -299 1 -716 -4 -928 -6 -335 -8 -265 -9 549 -2 861 -3 933 -18
927 -14 -6 -15 -4 -4 9 12 15 14 15 22 1 5 -8 10 -259 13 -558z m1222 535 c-3
-10 -5 -4 -5 12 0 17 2 24 5 18 2 -7 2 -21 0 -30z m-598 -52 c8 -37 8 -58 1
-65 -7 -7 -10 1 -10 25 -1 18 -7 52 -15 74 -18 50 -18 53 -2 35 8 -8 19 -39
26 -69z m-1138 -19 c-9 -25 -9 -24 -10 18 0 36 2 41 10 27 7 -12 7 -27 0 -45z
m465 49 c-3 -5 -6 -37 -7 -71 -1 -34 -4 -57 -8 -52 -3 5 -8 -162 -10 -372 -2
-209 -7 -410 -11 -446 -5 -41 -7 13 -4 145 10 542 11 656 5 600 l-8 -60 -1 51
c-1 28 5 71 13 94 8 23 15 57 15 75 0 17 3 35 7 38 9 10 15 9 9 -2z m1321 -23
c-3 -7 -5 -2 -5 12 0 14 2 19 5 13 2 -7 2 -19 0 -25z m-700 -160 c-2 -35 -3
-7 -3 62 0 69 1 97 3 63 2 -35 2 -91 0 -125z m918 172 c3 -5 -1 -10 -10 -10
-9 0 -13 5 -10 10 3 6 8 10 10 10 2 0 7 -4 10 -10z m-2401 -16 c7 -19 0 -34
-17 -34 -8 0 -7 4 2 9 12 8 12 12 2 25 -8 9 -9 16 -3 16 5 0 13 -7 16 -16z
m203 -106 c-2 -18 -4 -4 -4 32 0 36 2 50 4 33 2 -18 2 -48 0 -65z m1950 50
c-3 -7 -5 -2 -5 12 0 14 2 19 5 13 2 -7 2 -19 0 -25z m-1739 -83 l0 -30 -8 30
c-4 17 -8 39 -8 50 l-1 20 9 -20 c5 -11 8 -33 8 -50z m1139 43 c-3 -8 -6 -5
-6 6 -1 11 2 17 5 13 3 -3 4 -12 1 -19z m-994 -138 c3 -61 2 -95 -3 -80 -8 24
-14 198 -6 189 2 -2 6 -51 9 -109z m1614 78 c-3 -8 -6 -5 -6 6 -1 11 2 17 5
13 3 -3 4 -12 1 -19z m-1960 -10 c-3 -8 -6 -5 -6 6 -1 11 2 17 5 13 3 -3 4
-12 1 -19z m1330 -60 c-2 -13 -4 -3 -4 22 0 25 2 35 4 23 2 -13 2 -33 0 -45z
m423 -18 l-7 -75 -2 71 c0 39 2 74 6 77 10 11 11 6 3 -73z m-1540 -7 c0 -43 3
-89 6 -103 4 -18 3 -21 -4 -10 -13 20 -22 190 -11 190 5 0 9 -35 9 -77z m1137
30 c-3 -10 -5 -2 -5 17 0 19 2 27 5 18 2 -10 2 -26 0 -35z m-2257 33 c0 -2 -7
-7 -16 -10 -8 -3 -12 -2 -9 4 6 10 25 14 25 6z m200 0 c0 -2 -8 -10 -17 -17
-16 -13 -17 -12 -4 4 13 16 21 21 21 13z m1237 -38 c-3 -7 -5 -2 -5 12 0 14 2
19 5 13 2 -7 2 -19 0 -25z m1093 -14 c0 -27 -4 -43 -10 -39 -5 3 -10 24 -10
46 0 21 5 39 10 39 6 0 10 -21 10 -46z m-353 -6 c-3 -8 -6 -5 -6 6 -1 11 2 17
5 13 3 -3 4 -12 1 -19z m673 -118 l-7 -105 -1 85 c-2 73 5 138 13 128 1 -2 -1
-50 -5 -108z m-2011 -69 c-5 -25 -7 -10 -7 49 1 72 2 78 7 36 4 -27 4 -66 0
-85z m1398 107 c-3 -8 -6 -5 -6 6 -1 11 2 17 5 13 3 -3 4 -12 1 -19z m580 -20
c-3 -7 -5 -2 -5 12 0 14 2 19 5 13 2 -7 2 -19 0 -25z m-163 -15 c-10 -40 -14
-41 -14 -5 0 18 5 32 10 32 6 0 8 -11 4 -27z m-387 -70 c-2 -16 -4 -5 -4 22 0
28 2 40 4 28 2 -13 2 -35 0 -50z m-1128 -71 c0 -53 -2 -92 -4 -87 -8 24 -12
194 -4 189 5 -3 9 -49 8 -102z m1638 36 c-3 -8 -6 -5 -6 6 -1 11 2 17 5 13 3
-3 4 -12 1 -19z m-138 -65 l-2 -78 -7 55 c-7 50 -4 100 6 100 2 0 3 -35 3 -77z
m-1346 -83 c11 -13 10 -13 -5 -1 -14 10 -18 27 -16 75 l2 61 3 -60 c2 -32 9
-66 16 -75z m-446 98 c-3 -8 -6 -5 -6 6 -1 11 2 17 5 13 3 -3 4 -12 1 -19z
m1656 -31 c-3 -23 -10 -46 -16 -52 -7 -7 -8 -4 -3 8 3 10 6 37 6 58 0 22 4 38
9 35 5 -3 7 -25 4 -49z m-1633 -44 c-1 -31 -3 -35 -11 -20 -6 9 -7 26 -4 37
10 30 15 24 15 -17z m1927 -10 c-3 -10 -5 -2 -5 17 0 19 2 27 5 18 2 -10 2
-26 0 -35z m-620 -70 c-2 -16 -4 -3 -4 27 0 30 2 43 4 28 2 -16 2 -40 0 -55z
m156 47 c3 -11 1 -18 -4 -14 -5 3 -9 12 -9 20 0 20 7 17 13 -6z m85 -7 c-10
-2 -28 -2 -40 0 -13 2 -5 4 17 4 22 1 32 -1 23 -4z m369 -30 c-3 -10 -5 -4 -5
12 0 17 2 24 5 18 2 -7 2 -21 0 -30z m-159 -8 c-6 -14 -13 -24 -14 -22 -6 6 9
47 17 47 5 0 3 -11 -3 -25z m-1345 -62 c-7 -2 -21 -2 -30 0 -10 3 -4 5 12 5
17 0 24 -2 18 -5z m1215 0 c-10 -2 -26 -2 -35 0 -10 3 -2 5 17 5 19 0 27 -2
18 -5z m110 -95 c-4 -57 -10 -156 -14 -222 -4 -65 -10 -112 -14 -105 -4 8 -4
59 1 114 5 55 11 143 15 195 5 89 10 120 16 120 2 0 0 -46 -4 -102z m-1439 -3
c-1 -75 -6 -61 -12 30 -3 41 -1 62 4 50 4 -11 8 -47 8 -80z m1008 28 c-3 -10
-5 -4 -5 12 0 17 2 24 5 18 2 -7 2 -21 0 -30z m-720 -80 c-2 -16 -4 -3 -4 27
0 30 2 43 4 28 2 -16 2 -40 0 -55z m860 -5 c-2 -18 -4 -6 -4 27 0 33 2 48 4
33 2 -15 2 -42 0 -60z m212 -65 c-1 -107 -4 -136 -9 -103 -8 41 -2 250 7 250
1 0 2 -66 2 -147z m278 75 c-2 -13 -4 -5 -4 17 -1 22 1 32 4 23 2 -10 2 -28 0
-40z m-1840 -15 c-3 -10 -5 -2 -5 17 0 19 2 27 5 18 2 -10 2 -26 0 -35z m1200
-15 c-3 -7 -5 -2 -5 12 0 14 2 19 5 13 2 -7 2 -19 0 -25z m-914 -88 c4 -68 3
-81 -3 -45 -9 52 -13 152 -6 144 2 -2 6 -47 9 -99z m-79 74 c3 -8 2 -12 -4 -9
-6 3 -10 10 -10 16 0 14 7 11 14 -7z m1623 -81 c-3 -10 -5 -4 -5 12 0 17 2 24
5 18 2 -7 2 -21 0 -30z m-1608 -25 c-1 -55 -5 -50 -11 15 -2 20 0 37 4 37 4 0
7 -24 7 -52z m1118 -470 c-1 -90 -3 -19 -3 157 0 176 2 249 3 163 2 -86 2
-230 0 -320z m-1280 405 c-3 -10 -5 -4 -5 12 0 17 2 24 5 18 2 -7 2 -21 0 -30z
m1230 -70 c-2 -16 -4 -3 -4 27 0 30 2 43 4 28 2 -16 2 -40 0 -55z m-1058 0
c-1 -58 -2 -63 -9 -34 -7 31 -3 101 6 101 2 0 4 -30 3 -67z m1321 13 c0 -39
-6 -30 -13 19 -4 27 -3 35 3 25 5 -8 10 -28 10 -44z m-1511 -87 c1 -14 -5 -33
-11 -42 -11 -15 -12 -6 -9 50 3 50 6 61 11 43 5 -14 8 -37 9 -51z m1566 4 c-4
-27 -11 -95 -15 -153 l-7 -105 -1 82 c-2 75 16 223 26 223 3 0 1 -21 -3 -47z
m-1108 -10 c-3 -10 -5 -2 -5 17 0 19 2 27 5 18 2 -10 2 -26 0 -35z m1040 25
c-3 -8 -6 -5 -6 6 -1 11 2 17 5 13 3 -3 4 -12 1 -19z m-1228 -98 c-1 -92 -6
-82 -12 23 -2 44 0 73 4 65 5 -7 8 -47 8 -88z m895 -116 c2 -109 1 -212 -4
-229 -4 -17 -8 69 -9 204 0 129 1 232 4 229 3 -2 7 -94 9 -204z m563 174 c-3
-7 -5 -2 -5 12 0 14 2 19 5 13 2 -7 2 -19 0 -25z m-248 -142 c-9 -8 -10 -3 -5
23 3 18 7 59 8 90 2 45 3 40 5 -23 3 -52 0 -83 -8 -90z m-1264 -6 c3 -76 2
-117 -3 -105 -12 25 -21 248 -11 238 4 -5 10 -64 14 -133z m242 -132 c-1 -51
-3 -10 -3 92 0 102 2 143 3 93 2 -51 2 -135 0 -185z m-420 195 c-3 -10 -5 -4
-5 12 0 17 2 24 5 18 2 -7 2 -21 0 -30z m1650 -15 c-3 -8 -6 -5 -6 6 -1 11 2
17 5 13 3 -3 4 -12 1 -19z m20 -70 c-2 -13 -4 -5 -4 17 -1 22 1 32 4 23 2 -10
2 -28 0 -40z m-1657 11 c0 -16 -4 -28 -9 -25 -8 5 -3 56 5 56 2 0 4 -14 4 -31z
m1197 -21 c-3 -7 -5 -2 -5 12 0 14 2 19 5 13 2 -7 2 -19 0 -25z m-1180 0 c-3
-8 -6 -5 -6 6 -1 11 2 17 5 13 3 -3 4 -12 1 -19z m-48 -65 c-1 -43 -2 -45 -8
-17 -4 17 -11 37 -16 44 -5 9 -4 11 3 6 7 -4 12 -2 12 3 0 6 2 11 5 11 3 0 5
-21 4 -47z m1448 -50 c-3 -10 -5 -2 -5 17 0 19 2 27 5 18 2 -10 2 -26 0 -35z
m54 -138 l-9 -60 -1 75 c-1 86 12 154 17 85 1 -22 -2 -67 -7 -100z m-1294 48
c-2 -16 -4 -3 -4 27 0 30 2 43 4 28 2 -16 2 -40 0 -55z m73 -2 c0 -71 -6 -63
-14 19 -4 44 -3 60 4 50 5 -8 10 -39 10 -69z m-231 6 c1 -10 -3 -15 -9 -12 -5
3 -10 21 -9 38 0 27 2 29 9 12 5 -11 9 -28 9 -38z m448 -19 c-2 -13 -4 -5 -4
17 -1 22 1 32 4 23 2 -10 2 -28 0 -40z m722 -35 c-1 -76 -2 -83 -11 -53 -9 31
-3 140 8 140 2 0 4 -39 3 -87z m218 10 c-3 -10 -5 -2 -5 17 0 19 2 27 5 18 2
-10 2 -26 0 -35z m220 -5 c-2 -13 -4 -5 -4 17 -1 22 1 32 4 23 2 -10 2 -28 0
-40z m-1604 -26 c4 -21 3 -31 -3 -27 -6 3 -10 20 -10 37 0 38 5 34 13 -10z
m170 -34 c2 -38 1 -68 -4 -68 -5 0 -9 32 -9 72 0 88 6 86 13 -4z m274 -5 c-2
-16 -4 -5 -4 22 0 28 2 40 4 28 2 -13 2 -35 0 -50z m650 -50 c-3 -10 -5 -4 -5
12 0 17 2 24 5 18 2 -7 2 -21 0 -30z m268 -131 c-11 -75 -17 -38 -8 54 7 76 8
82 11 39 2 -27 1 -70 -3 -93z m-214 72 l-9 -39 -1 50 c-1 33 2 46 9 39 7 -7 7
-24 1 -50z m-1090 19 c13 -16 12 -17 -3 -5 -9 8 -23 10 -29 6 -8 -4 -9 -3 -5
4 10 17 21 15 37 -5z m402 -38 c7 -47 -7 -27 -18 25 -5 23 -4 32 3 25 5 -5 12
-28 15 -50z m-307 23 c-9 -5 -23 -5 -32 0 -12 6 -7 9 16 9 23 0 28 -3 16 -9z
m251 -20 c-3 -8 -6 -5 -6 6 -1 11 2 17 5 13 3 -3 4 -12 1 -19z m-160 -25 c-3
-10 -5 -4 -5 12 0 17 2 24 5 18 2 -7 2 -21 0 -30z m960 -5 c-3 -8 -6 -5 -6 6
-1 11 2 17 5 13 3 -3 4 -12 1 -19z m-787 -3 c0 -8 -4 -15 -10 -15 -5 0 -10 7
-10 15 0 8 5 15 10 15 6 0 10 -7 10 -15z m-163 -47 c-3 -8 -6 -5 -6 6 -1 11 2
17 5 13 3 -3 4 -12 1 -19z m893 -63 c-18 -31 -35 -54 -38 -51 -3 3 9 29 26 57
18 27 32 56 33 62 0 9 2 9 6 0 2 -7 -10 -38 -27 -68z m-686 8 c14 -29 24 -53
21 -53 -5 0 -55 95 -55 106 0 12 6 2 34 -53z m1115 -39 c2 -2 -7 -4 -22 -4
-14 0 -29 5 -32 10 -6 10 42 4 54 -6z m-250 -148 c-9 -8 -10 -2 -5 29 3 22 7
54 8 70 1 17 3 3 5 -29 3 -37 0 -63 -8 -70z m-1048 56 c1 -28 0 -55 -4 -59 -4
-3 -7 22 -7 57 0 75 8 77 11 2z m230 5 c-8 -8 -11 -3 -11 19 1 25 2 27 11 11
8 -14 8 -22 0 -30z m806 -179 c-2 -13 -4 -3 -4 22 0 25 2 35 4 23 2 -13 2 -33
0 -45z m-1013 -68 c4 -46 5 -82 2 -79 -8 7 -24 153 -19 162 8 14 10 5 17 -83z
m1008 -80 l-10 -55 -1 76 c0 42 2 79 7 83 11 12 14 -44 4 -104z m-785 -212
c-2 -24 -4 -7 -4 37 0 44 2 63 4 43 2 -21 2 -57 0 -80z m767 -15 c-3 -124 -2
-121 -14 -103 -6 8 -8 35 -5 60 13 105 16 130 18 130 1 0 2 -39 1 -87z m-965
-32 c2 -54 -6 -32 -12 34 -4 39 -3 50 2 30 5 -16 9 -45 10 -64z m932 -94 c-10
-9 -11 -8 -5 6 3 10 9 15 12 12 3 -3 0 -11 -7 -18z m-157 -3 c3 -8 2 -12 -4
-9 -6 3 -10 10 -10 16 0 14 7 11 14 -7z"/>
<path d="M6621 7449 c-7 -12 -10 -23 -8 -26 3 -3 11 5 17 17 15 28 8 35 -9 9z"/>
</g>
</svg>
