<?xml version="1.0" standalone="no"?>
<!DOCTYPE svg PUBLIC "-//W3C//DTD SVG 20010904//EN"
 "http://www.w3.org/TR/2001/REC-SVG-20010904/DTD/svg10.dtd">
<svg version="1.0" xmlns="http://www.w3.org/2000/svg"
 width="1280.000000pt" height="896.000000pt" viewBox="0 0 1280.000000 896.000000"
 preserveAspectRatio="xMidYMid meet">

<g transform="translate(0.000000,896.000000) scale(0.100000,-0.100000)"
fill="#000000" stroke="none">
<path d="M11187 8613 c-4 -3 -7 -35 -7 -69 0 -34 -5 -75 -12 -91 -7 -15 -14
-64 -17 -107 -4 -44 -11 -81 -16 -83 -15 -5 -45 50 -45 82 0 32 -20 106 -32
120 -4 5 -8 18 -8 30 0 12 -7 30 -15 41 -8 10 -15 27 -15 37 0 15 -13 17 -129
17 -76 0 -132 -4 -136 -10 -3 -5 -20 -10 -36 -10 -22 0 -32 -7 -41 -25 -6 -14
-14 -25 -18 -25 -4 0 -9 -38 -12 -84 -2 -47 -9 -91 -15 -98 -7 -7 -13 -31 -15
-52 -4 -56 -28 -60 -28 -4 0 24 -7 52 -15 62 -8 11 -15 30 -15 43 0 13 -4 23
-9 23 -5 0 -12 18 -16 40 -4 22 -11 42 -16 46 -5 3 -9 16 -9 30 l0 25 -168 -3
c-206 -4 -203 -2 -210 -121 -2 -45 -8 -86 -12 -92 -4 -5 -11 -49 -15 -97 -4
-49 -11 -90 -16 -94 -5 -3 -9 -40 -9 -84 l0 -78 -49 -7 c-38 -5 -59 -16 -100
-52 -28 -24 -63 -65 -77 -89 -30 -51 -106 -114 -138 -114 -28 -1 -53 -21 -66
-54 -12 -33 -43 -32 -48 2 -3 17 -10 22 -31 22 -15 0 -62 3 -104 6 l-77 7 0
-27 c0 -15 -7 -29 -15 -32 -8 -4 -15 -17 -15 -30 0 -24 -1 -24 -98 -24 -65 0
-102 -4 -110 -12 -8 -8 -55 -16 -110 -20 -91 -7 -200 -19 -300 -34 -27 -4 -48
-2 -55 5 -6 6 -32 11 -58 11 -36 0 -55 -6 -77 -25 -28 -23 -37 -25 -145 -25
-79 0 -126 -5 -150 -15 -24 -10 -69 -15 -130 -15 -51 0 -97 -4 -103 -9 -5 -5
-57 -11 -116 -13 -67 -2 -112 -8 -120 -16 -8 -8 -50 -12 -129 -12 -81 0 -128
-5 -152 -15 -24 -10 -69 -15 -130 -15 -51 0 -97 -4 -102 -9 -6 -5 -104 -14
-220 -20 -115 -6 -239 -18 -275 -26 -36 -9 -93 -15 -127 -15 -36 0 -81 -7
-105 -17 -45 -18 -138 -98 -138 -118 0 -7 -40 -52 -90 -101 -49 -49 -90 -95
-90 -102 0 -6 -34 -44 -75 -83 -42 -40 -78 -82 -81 -94 -3 -13 -24 -38 -47
-56 -63 -51 -134 -127 -152 -161 -18 -37 -20 -115 -3 -120 21 -7 -2 -28 -31
-28 -15 0 -31 -3 -35 -7 -9 -9 -221 -30 -406 -41 -69 -4 -135 -13 -147 -20
-13 -7 -63 -12 -130 -12 -68 0 -113 -4 -120 -11 -7 -7 -106 -16 -265 -24 -139
-7 -266 -18 -281 -24 -16 -6 -71 -11 -123 -11 l-94 0 0 31 c0 17 -7 37 -15 45
-8 9 -15 29 -15 45 0 16 -4 29 -10 29 -5 0 -10 12 -10 26 0 14 -6 38 -14 52
-20 40 -36 95 -36 125 l0 27 -159 0 -159 0 -7 -72 c-4 -40 -11 -77 -15 -83 -4
-5 -11 -25 -15 -42 -7 -37 -25 -45 -25 -11 0 25 -15 76 -39 130 -14 33 -22 39
-64 48 -68 14 -142 12 -184 -5 -19 -8 -45 -15 -58 -15 -21 0 -22 -5 -28 -95
-6 -110 -12 -124 -36 -93 -17 21 -23 42 -38 126 l-5 32 -164 0 -164 0 0 -74
c0 -41 -4 -77 -8 -80 -5 -3 -14 -72 -21 -153 -8 -88 -19 -157 -27 -170 -8 -12
-14 -29 -14 -36 0 -11 -21 -16 -85 -19 -47 -2 -91 -10 -97 -16 -8 -8 -52 -12
-126 -12 -92 0 -121 -4 -158 -20 -24 -11 -44 -27 -44 -35 0 -8 -6 -18 -14 -22
-17 -10 -96 -124 -96 -140 0 -6 -11 -20 -25 -31 -14 -11 -25 -26 -25 -34 0 -7
-12 -26 -27 -43 -29 -30 -35 -38 -68 -95 -29 -49 -60 -79 -87 -84 -54 -10
-186 -38 -228 -48 -25 -6 -65 -13 -90 -16 -25 -2 -49 -8 -54 -13 -6 -5 -33 -9
-60 -9 -28 0 -64 -7 -80 -15 -15 -8 -45 -15 -65 -15 -20 0 -45 -7 -55 -15 -12
-9 -42 -15 -72 -15 -75 0 -84 -16 -84 -150 l0 -106 -227 -17 c-126 -10 -283
-21 -350 -27 -67 -5 -131 -14 -142 -19 -11 -6 -33 -11 -50 -11 l-31 0 0 -190
0 -190 520 0 c340 0 520 3 520 10 0 6 26 10 58 10 33 0 63 5 70 13 10 9 222
12 991 12 1008 0 980 1 1053 -36 10 -5 260 -9 557 -9 l540 0 3 -27 c3 -26 7
-28 56 -31 l52 -3 0 -114 0 -114 -52 -3 c-45 -3 -53 -6 -56 -24 l-3 -21 -542
-8 c-298 -4 -547 -11 -552 -16 -32 -25 -182 -29 -1069 -29 -882 0 -1081 5
-1126 29 -9 5 -242 12 -518 16 l-502 7 0 -195 0 -195 43 -6 c23 -4 98 -9 167
-12 70 -3 131 -11 139 -17 8 -7 70 -13 152 -15 77 -3 139 -8 139 -13 0 -5 36
-9 80 -9 l80 0 0 -108 c0 -139 8 -152 89 -152 40 0 63 -5 71 -15 8 -10 31 -15
69 -15 33 -1 64 -7 75 -15 11 -8 39 -15 62 -15 24 0 45 -4 48 -9 6 -9 62 -17
198 -29 42 -4 83 -13 90 -19 6 -7 36 -13 65 -13 50 0 53 -1 69 -36 9 -20 23
-38 31 -41 7 -3 13 -11 13 -19 0 -7 14 -29 30 -47 17 -19 30 -39 30 -44 0 -6
11 -19 25 -29 14 -10 25 -24 25 -31 0 -6 11 -25 25 -41 14 -17 25 -37 25 -46
0 -8 13 -25 30 -38 16 -12 30 -29 30 -38 0 -9 21 -37 47 -61 l47 -44 126 -3
c69 -2 130 -7 135 -12 6 -4 48 -11 94 -15 52 -5 90 -13 99 -22 10 -9 18 -50
24 -111 8 -94 15 -145 39 -319 l12 -83 158 0 159 0 0 24 c0 14 5 28 10 31 5 3
10 18 10 33 0 15 7 36 15 46 8 11 15 29 15 40 0 10 3 16 7 12 4 -4 11 -45 14
-92 8 -97 24 -124 73 -124 17 0 40 -7 50 -15 23 -17 104 -20 157 -5 52 15 79
62 96 168 3 17 8 32 12 32 12 0 40 -102 44 -159 3 -30 10 -57 18 -62 8 -5 80
-9 162 -9 l147 0 0 24 c0 14 5 28 10 31 6 3 10 20 10 36 0 17 7 37 15 45 8 9
15 26 15 39 0 13 5 27 10 30 6 3 10 24 10 45 0 21 7 45 15 54 8 8 15 29 15 47
l0 32 133 -7 c72 -4 182 -11 242 -16 61 -5 170 -14 243 -18 76 -5 138 -14 144
-20 8 -8 55 -12 134 -12 85 0 132 -4 157 -15 25 -10 71 -15 146 -15 60 0 112
-4 115 -9 3 -5 64 -12 136 -16 72 -4 133 -11 136 -16 3 -5 53 -9 112 -9 59 0
113 -4 120 -9 23 -14 -12 -21 -109 -21 l-89 0 0 -47 c0 -43 5 -54 48 -102 26
-30 76 -84 112 -120 36 -36 79 -84 95 -106 16 -22 48 -58 71 -80 23 -22 44
-49 46 -60 2 -11 12 -21 23 -23 11 -1 31 -19 45 -40 14 -20 57 -69 96 -107 39
-39 75 -81 78 -93 12 -36 62 -54 161 -59 49 -3 107 -11 128 -19 24 -9 77 -14
147 -14 60 0 111 -4 114 -9 3 -5 60 -12 126 -16 66 -4 123 -11 126 -16 3 -5
58 -9 123 -9 88 0 122 -4 137 -15 14 -10 48 -14 124 -15 66 0 110 -4 117 -11
11 -11 82 -18 378 -37 66 -5 130 -13 142 -20 12 -7 62 -12 117 -12 89 0 146
-12 146 -32 0 -12 148 -10 155 2 8 12 52 13 59 1 3 -5 46 -12 96 -16 49 -4 90
-11 90 -16 0 -5 44 -9 98 -9 69 -1 103 -5 116 -15 14 -10 45 -15 103 -15 75 0
83 -2 83 -19 0 -11 5 -23 11 -26 5 -4 14 -18 19 -31 9 -23 13 -24 110 -24 91
0 100 2 100 19 0 10 6 21 14 24 17 7 66 -29 66 -47 0 -8 17 -16 38 -20 27 -4
50 -20 88 -58 28 -29 55 -61 60 -70 5 -9 33 -42 62 -72 48 -49 58 -55 100 -58
l47 -3 3 -70 c2 -38 7 -74 12 -80 4 -5 11 -46 15 -90 4 -44 11 -84 15 -90 4
-5 10 -47 12 -93 3 -45 10 -88 16 -94 7 -7 12 -20 12 -30 0 -16 11 -18 113
-18 83 -1 117 -4 131 -15 32 -24 106 -17 106 10 0 7 7 26 15 41 8 16 15 37 15
46 0 9 5 20 10 23 6 3 10 24 10 45 0 21 7 45 15 54 8 8 15 21 15 29 0 23 11
47 21 47 5 0 9 -15 9 -34 0 -19 5 -36 12 -38 6 -2 13 -37 16 -88 6 -111 28
-150 82 -150 22 0 42 -4 45 -10 4 -6 56 -10 124 -10 l119 0 16 34 c9 19 16 45
16 59 0 14 4 28 8 31 5 3 14 31 21 63 7 32 19 71 27 86 8 16 14 40 14 55 0 18
3 23 10 16 6 -6 15 -50 20 -97 5 -47 13 -95 19 -106 6 -11 11 -45 11 -77 0
-90 8 -94 207 -94 l163 0 0 24 c0 13 7 26 15 30 10 3 15 19 15 46 0 24 7 48
15 56 8 9 15 26 15 39 0 12 7 36 15 51 8 16 15 37 15 46 0 9 5 20 10 23 6 3
10 21 10 38 1 18 7 43 15 57 8 14 14 42 15 64 l0 38 143 -6 c78 -3 207 -9 287
-12 80 -3 149 -10 155 -15 5 -5 79 -9 165 -9 l156 0 -4 38 c-2 20 -7 47 -13
60 -5 12 -14 34 -20 50 -6 15 -15 34 -20 42 -5 8 -13 25 -18 37 -6 11 -15 24
-20 28 -6 3 -11 15 -11 25 0 10 -3 20 -7 22 -5 2 -17 21 -28 43 -11 22 -34 55
-52 73 -29 29 -38 32 -90 32 -32 0 -71 7 -87 15 -21 11 -63 15 -161 15 -95 0
-143 4 -168 15 -26 11 -73 15 -162 15 l-125 0 0 39 c0 22 -7 46 -15 55 -11 10
-15 36 -15 89 0 54 -4 78 -15 87 -11 9 -15 33 -15 84 0 44 -5 77 -12 84 -7 7
-16 52 -20 100 -4 48 -10 123 -14 167 -3 44 -10 85 -14 90 -4 6 -11 24 -14 41
l-7 31 -107 7 c-59 3 -147 11 -197 17 -49 6 -109 13 -132 15 -27 3 -43 10 -43
18 0 8 -7 19 -15 26 -8 7 -15 28 -15 46 0 19 -4 34 -9 34 -5 0 -12 14 -16 30
-8 36 -32 87 -46 95 -5 4 -9 21 -9 40 0 19 -4 37 -10 40 -5 3 -10 22 -10 41 0
19 -4 34 -10 34 -5 0 -12 12 -16 28 -7 33 -36 96 -46 100 -5 2 -8 16 -8 31 0
15 -7 36 -15 47 -8 10 -15 31 -15 45 0 15 -7 29 -15 33 -9 3 -15 18 -15 39 0
19 -7 40 -15 47 -8 7 -15 21 -15 31 0 11 -4 19 -9 19 -5 0 -15 26 -21 58 -6
31 -18 70 -26 85 -8 16 -14 37 -14 47 0 9 -7 23 -15 30 -8 7 -15 23 -15 36 0
24 0 24 123 24 68 0 127 4 133 9 5 5 66 11 136 13 82 2 132 8 140 16 7 7 39
12 76 12 48 0 73 6 106 24 36 20 63 25 170 31 69 4 129 11 132 16 3 5 57 9
120 9 72 0 123 5 137 12 12 7 81 16 152 20 244 14 274 18 286 41 16 29 4 86
-26 112 -14 13 -25 33 -25 43 0 11 -7 22 -15 26 -8 3 -15 14 -15 24 0 11 -7
25 -15 32 -8 7 -15 20 -15 29 0 9 -15 29 -34 45 -19 15 -37 39 -40 52 l-6 24
-240 0 -240 0 0 90 0 90 -767 4 c-558 2 -804 7 -898 17 l-130 14 3 30 c2 17 8
34 13 40 5 5 9 17 9 27 0 10 7 21 15 24 8 4 15 16 15 29 0 12 7 39 15 58 10
24 15 70 15 132 0 62 -5 108 -15 132 -8 19 -15 46 -15 58 0 13 -7 25 -15 29
-8 3 -15 14 -15 24 0 10 -4 22 -10 28 -5 5 -11 25 -12 44 l-3 35 155 7 c125 7
806 18 1558 27 l112 1 0 38 c0 21 -4 42 -9 47 -5 6 -13 27 -16 47 l-7 38 243
2 c244 3 244 3 247 25 2 13 19 37 38 55 19 18 34 37 34 43 0 6 14 24 30 40 17
16 30 37 30 47 0 10 7 21 15 24 8 4 15 14 15 23 0 9 7 25 15 35 17 23 19 69 5
97 -9 16 -22 19 -74 19 -34 0 -85 7 -112 15 -28 8 -88 15 -140 15 -56 0 -108
6 -134 15 -23 8 -75 15 -114 15 -39 0 -147 5 -241 12 -155 11 -172 14 -195 35
-21 20 -35 23 -101 23 -49 0 -87 5 -105 15 -21 11 -61 15 -141 15 -64 0 -114
4 -118 10 -4 6 -55 10 -121 10 -113 0 -114 0 -114 24 0 13 7 29 15 36 8 7 15
21 15 32 0 10 6 29 14 41 8 12 19 46 26 75 7 28 16 55 21 58 5 3 9 15 9 28 0
12 7 31 15 42 8 10 15 32 15 47 0 15 7 30 15 33 8 4 15 15 15 26 0 11 7 26 15
34 8 9 15 26 15 39 0 13 4 26 9 29 5 3 12 22 15 41 4 19 11 35 16 35 6 0 10
15 10 34 0 18 7 39 15 46 8 7 15 21 15 31 0 10 5 21 10 24 6 3 10 19 10 34 0
16 7 34 15 41 8 7 15 28 15 46 0 19 4 34 9 34 5 0 12 16 15 35 4 19 11 35 16
35 6 0 10 8 10 18 0 10 6 27 14 38 8 11 16 33 18 49 3 29 5 30 63 32 33 1 140
8 237 14 l177 12 7 31 c3 17 10 36 14 41 4 6 10 39 14 75 19 216 24 252 34
262 7 7 12 43 12 88 1 50 6 81 15 94 10 13 15 44 15 94 0 52 4 78 15 88 8 9
15 33 15 54 l0 38 148 4 c89 2 156 8 169 16 14 8 69 12 156 12 97 0 145 4 170
15 20 8 64 15 97 15 57 0 60 1 60 25 0 14 4 25 10 25 5 0 19 21 31 46 11 26
28 55 37 65 22 23 82 136 82 155 0 8 4 14 9 14 15 0 21 46 10 79 -8 23 -18 32
-42 36 -85 16 -576 -3 -615 -24 -12 -6 -68 -11 -131 -11 l-111 0 0 44 c0 26
-6 48 -15 56 -8 7 -15 25 -15 41 0 15 -4 30 -9 34 -6 3 -13 26 -17 50 -3 25
-10 48 -15 51 -5 3 -9 18 -9 34 0 16 -7 35 -15 44 -8 8 -15 25 -15 38 0 13 -7
32 -15 42 -8 11 -15 32 -15 48 l0 28 -178 0 c-98 0 -182 -3 -185 -7z m301
-116 c5 -24 -15 -21 -21 4 -3 13 -1 19 6 16 7 -2 13 -11 15 -20z m-538 -36 c0
-32 -6 -24 -14 19 -4 25 -3 31 4 20 5 -8 10 -26 10 -39z m-504 -29 c-9 -8 -26
10 -26 26 1 15 2 15 15 -2 8 -11 13 -21 11 -24z m532 -23 c-3 -8 -7 -3 -11 10
-4 17 -3 21 5 13 5 -5 8 -16 6 -23z m529 -26 c-3 -10 -5 -4 -5 12 0 17 2 24 5
18 2 -7 2 -21 0 -30z m-984 -203 c3 -11 2 -22 -3 -25 -4 -3 -10 6 -12 20 -6
30 7 34 15 5z m1865 -272 c-22 -40 -47 -80 -55 -88 -7 -8 7 21 32 65 25 44 45
83 45 87 0 5 4 8 9 8 6 0 -8 -33 -31 -72z m-113 -98 c-3 -6 4 -10 17 -10 18 0
20 -2 8 -10 -9 -5 -19 -5 -27 2 -12 9 -9 28 3 28 3 0 2 -4 -1 -10z m-825 -84
c0 -2 -7 -7 -16 -10 -8 -3 -12 -2 -9 4 6 10 25 14 25 6z m27 -43 c-3 -10 -5
-4 -5 12 0 17 2 24 5 18 2 -7 2 -21 0 -30z m-26 -171 c-4 -54 -11 -53 -11 3 0
27 3 45 7 41 4 -4 6 -24 4 -44z m-3397 -184 c-14 -6 -36 -6 -65 0 l-44 10 65
0 c51 1 60 -2 44 -10z m1681 2 c-27 -12 -43 -12 -25 0 8 5 22 9 30 9 10 0 8
-3 -5 -9z m-1472 -21 c-10 -10 -92 -15 -148 -9 -22 2 -15 5 25 10 93 11 135
11 123 -1z m170 -19 c15 0 27 -4 27 -9 0 -4 -11 -6 -25 -3 -14 2 -31 0 -38 -4
-6 -5 -41 -6 -77 -3 l-65 6 65 2 c55 3 60 5 35 12 -26 7 -25 8 10 4 22 -3 52
-5 68 -5z m1302 -47 c-4 -10 -9 -28 -10 -40 -2 -12 -8 -28 -14 -35 -7 -7 -18
-22 -27 -33 -8 -11 -3 7 12 40 14 33 28 66 31 73 3 6 7 12 10 12 3 0 2 -8 -2
-17z m1664 -107 c-9 -8 -10 -7 -5 7 3 10 7 24 7 30 1 7 3 4 6 -7 3 -10 -1 -23
-8 -30z m-1776 -138 c-25 -48 -45 -74 -58 -77 -17 -3 -16 0 6 18 15 11 39 50
55 86 16 36 30 61 32 56 2 -6 -14 -43 -35 -83z m-3128 -95 c-16 -3 -35 -9 -42
-15 -7 -6 -35 -7 -68 -3 -83 11 -48 25 55 23 47 0 72 -3 55 -5z m355 -36 l45
-16 -55 4 c-42 3 -48 2 -25 -4 28 -8 27 -9 -15 -9 -25 0 -39 2 -32 5 6 2 12 9
12 14 0 11 -72 12 -85 2 -6 -5 -55 -5 -110 -2 -55 3 -88 6 -73 7 15 1 30 7 34
13 10 17 247 5 304 -14z m2675 3 c4 -6 10 -8 14 -5 5 2 6 -7 3 -20 -2 -14 -8
-25 -12 -25 -5 0 -6 9 -3 20 5 19 -8 26 -45 21 -6 -1 -20 3 -30 8 -13 8 -8 10
25 11 23 0 45 -5 48 -10z m-237 -27 c-10 -2 -26 -2 -35 0 -10 3 -2 5 17 5 19
0 27 -2 18 -5z m-255 -10 c-13 -2 -33 -2 -45 0 -13 2 -3 4 22 4 25 0 35 -2 23
-4z m-108 -13 c-11 -5 -27 -9 -35 -9 -13 -1 -13 0 0 9 8 5 24 9 35 9 l20 0
-20 -9z m-182 -17 c-7 -2 -19 -2 -25 0 -7 3 -2 5 12 5 14 0 19 -2 13 -5z m-76
-9 c-3 -3 -12 -4 -19 -1 -8 3 -5 6 6 6 11 1 17 -2 13 -5z m146 -1 c-7 -2 -19
-2 -25 0 -7 3 -2 5 12 5 14 0 19 -2 13 -5z m701 -1 c3 -5 -1 -9 -9 -9 -8 0
-12 4 -9 9 3 4 7 8 9 8 2 0 6 -4 9 -8z m-1024 -12 c-8 -5 -26 -9 -40 -9 l-25
1 25 8 c14 4 32 8 40 9 13 1 13 0 0 -9z m-95 -20 c-11 -5 -60 -8 -110 -7 l-90
1 75 6 c119 10 149 10 125 0z m1035 0 c-14 -4 -59 -8 -100 -7 l-75 0 65 7 c36
4 81 7 100 7 31 1 32 0 10 -7z m-2646 -45 c-14 -19 -29 -35 -31 -35 -5 0 7 18
36 53 26 31 23 18 -5 -18z m2454 28 c-10 -2 -28 -2 -40 0 -13 2 -5 4 17 4 22
1 32 -1 23 -4z m-1120 -10 c-10 -2 -26 -2 -35 0 -10 3 -2 5 17 5 19 0 27 -2
18 -5z m105 0 c-7 -2 -21 -2 -30 0 -10 3 -4 5 12 5 17 0 24 -2 18 -5z m912 -2
c-23 -9 -159 -21 -151 -14 6 6 105 20 146 21 22 1 23 0 5 -7z m-1117 -8 c-16
-2 -40 -2 -55 0 -16 2 -3 4 27 4 30 0 43 -2 28 -4z m883 -8 c27 -11 30 -14 12
-15 -12 0 -25 5 -28 10 -12 19 -91 11 -119 -11 -33 -26 -43 -20 -16 9 25 27
99 30 151 7z m-2087 -7 c-8 -14 -65 -100 -71 -107 -1 -2 -5 -2 -8 1 -3 3 0 12
7 19 7 8 25 33 41 57 15 23 30 42 33 42 3 0 2 -6 -2 -12z m1041 -7 c-11 -5
-54 -11 -95 -14 -60 -4 -66 -4 -31 3 24 5 46 12 49 15 3 3 26 5 51 4 33 0 41
-2 26 -8z m759 2 c-25 -3 -49 -12 -59 -24 -10 -10 -25 -19 -33 -19 -9 0 -2 11
18 25 25 18 45 25 74 23 l41 -1 -41 -4z m77 -20 c13 -15 12 -15 -8 -4 -24 12
-29 21 -14 21 5 0 15 -7 22 -17z m-1043 -8 c-2 -1 -31 -5 -65 -9 -49 -6 -62
-4 -58 6 4 9 23 12 66 10 33 -2 59 -5 57 -7z m732 3 c-19 -5 -41 -15 -49 -21
-12 -10 -13 -9 -7 1 10 16 44 31 71 30 11 0 4 -4 -15 -10z m-160 -33 c7 -8 22
-16 34 -16 17 -1 18 -2 3 -6 -10 -3 -25 1 -33 7 -8 7 -29 16 -47 20 l-32 8 31
1 c17 1 37 -6 44 -14z m-780 2 c0 -1 -26 -27 -57 -57 l-58 -55 55 58 c50 53
60 62 60 54z m635 -43 c-11 -8 -35 -18 -55 -23 -47 -12 -201 -21 -175 -11 11
5 47 9 80 10 33 1 83 10 110 20 63 22 64 22 40 4z m-4005 -49 c0 -8 -2 -15 -4
-15 -2 0 -6 7 -10 15 -3 8 -1 15 4 15 6 0 10 -7 10 -15z m2633 -16 c-10 -17
-25 -36 -33 -42 -12 -10 -13 -9 -4 3 5 8 18 27 27 43 24 37 32 34 10 -4z
m1077 12 c-8 -5 -55 -11 -105 -15 -103 -6 -95 0 15 13 108 12 108 12 90 2z
m607 -158 c-2 -32 -3 -6 -3 57 0 63 1 89 3 58 2 -32 2 -84 0 -115z m-1088 153
c-2 -2 -20 -6 -39 -10 -25 -4 -31 -3 -20 4 14 9 69 15 59 6z m-9 -36 c-6 -11
-13 -20 -16 -20 -2 0 0 9 6 20 6 11 13 20 16 20 2 0 0 -9 -6 -20z m227 0 c-32
-10 -65 -24 -75 -31 -15 -12 -16 -11 -2 4 17 19 85 46 115 45 11 0 -6 -8 -38
-18z m-206 -37 c-16 -30 -41 -59 -39 -44 3 12 39 60 46 61 1 0 -2 -8 -7 -17z
m-3214 -25 c-3 -8 -6 -5 -6 6 -1 11 2 17 5 13 3 -3 4 -12 1 -19z m3143 -22
c-30 -49 -36 -46 -8 3 12 22 24 38 26 36 3 -2 -6 -20 -18 -39z m-1200 24 c0
-15 -27 -23 -47 -16 -15 6 -15 8 -3 16 20 13 50 12 50 0z m1355 -20 c-10 -11
-29 -37 -41 -58 -27 -43 -32 -36 -8 11 20 39 44 67 57 67 6 0 2 -9 -8 -20z
m-4127 -55 c-3 -3 -9 2 -12 12 -6 14 -5 15 5 6 7 -7 10 -15 7 -18z m3318 -12
c-19 -34 -55 -81 -56 -71 0 8 62 98 67 98 2 0 -3 -12 -11 -27z m627 4 c3 -8
-1 -14 -9 -14 -15 0 -18 9 -7 20 9 9 10 9 16 -6z m-52 -70 c-10 -9 -11 -8 -5
6 3 10 9 15 12 12 3 -3 0 -11 -7 -18z m42 -2 c-7 -21 -13 -19 -13 6 0 11 4 18
10 14 5 -3 7 -12 3 -20z m72 -45 c-9 -16 -18 -30 -21 -30 -2 0 2 14 11 30 9
17 18 30 21 30 2 0 -2 -13 -11 -30z m-788 -6 c-3 -3 -12 -4 -19 -1 -8 3 -5 6
6 6 11 1 17 -2 13 -5z m-227 -14 c27 -3 -23 -19 -60 -19 -19 1 -29 3 -22 6 6
2 10 8 8 11 -4 6 35 7 74 2z m880 -13 c0 -7 -4 -6 -10 3 -5 8 -10 11 -10 5 0
-5 -10 -21 -23 -35 -23 -27 -22 -23 7 23 16 27 36 29 36 4z m-3879 -34 c13
-16 12 -17 -3 -4 -10 7 -18 15 -18 17 0 8 8 3 21 -13z m3917 -102 c-29 -50
-57 -91 -62 -91 -4 0 -2 10 6 23 8 12 34 55 58 95 23 40 45 71 47 68 3 -2 -19
-45 -49 -95z m-114 45 c-3 -9 -10 -16 -15 -16 -5 0 -4 9 3 20 14 22 21 20 12
-4z m16 -36 c-6 -11 -13 -20 -16 -20 -2 0 0 9 6 20 6 11 13 20 16 20 2 0 0 -9
-6 -20z m-49 -13 c-10 -9 -11 -8 -5 6 3 10 9 15 12 12 3 -3 0 -11 -7 -18z m19
-37 c-6 -11 -13 -20 -16 -20 -2 0 0 9 6 20 6 11 13 20 16 20 2 0 0 -9 -6 -20z
m-60 -29 c-11 -21 -58 -61 -71 -61 -7 0 71 79 79 80 1 0 -2 -9 -8 -19z m-155
-61 c-3 -5 -14 -10 -23 -10 -15 0 -15 2 -2 10 20 13 33 13 25 0z m272 -12 c-3
-8 -6 -5 -6 6 -1 11 2 17 5 13 3 -3 4 -12 1 -19z m-152 -18 c-3 -5 -12 -10
-18 -10 -7 0 -6 4 3 10 19 12 23 12 15 0z m-287 -7 c-10 -2 -26 -2 -35 0 -10
3 -2 5 17 5 19 0 27 -2 18 -5z m247 -3 c4 -6 -8 -10 -28 -10 -19 0 -50 -3 -68
-6 -19 -4 -30 -3 -26 2 4 4 29 11 55 15 26 3 50 7 54 8 4 0 10 -3 13 -9z
m-577 -27 c-10 -2 -26 -2 -35 0 -10 3 -2 5 17 5 19 0 27 -2 18 -5z m267 -3
c-25 -11 -68 -13 -61 -2 2 4 22 9 43 9 30 2 34 0 18 -7z m485 6 c0 -2 -8 -10
-17 -17 -16 -13 -17 -12 -4 4 13 16 21 21 21 13z m1865 -30 c5 -2 -204 -4
-465 -3 -261 1 -407 4 -325 7 166 6 773 3 790 -4z m623 -7 c15 -9 15 -10 -1
-5 -10 3 -148 7 -305 8 -223 2 -256 3 -147 8 201 7 433 2 453 -11z m-3158 1
c0 -5 -13 -10 -29 -10 -16 0 -44 -2 -62 -5 -19 -3 -28 -3 -21 1 6 3 10 10 6
15 -3 5 19 9 50 9 31 0 56 -4 56 -10z m1513 -7 c-13 -2 -35 -2 -50 0 -16 2 -5
4 22 4 28 0 40 -2 28 -4z m-143 -13 c0 -6 -31 -9 -77 -8 l-78 2 75 6 c41 4 76
7 78 8 1 1 2 -2 2 -8z m1860 -4 c0 -2 -7 -6 -15 -10 -8 -3 -15 -1 -15 4 0 6 7
10 15 10 8 0 15 -2 15 -4z m86 -27 c3 -6 2 -15 -4 -21 -7 -7 -12 -3 -17 11 -3
12 -11 21 -16 21 -5 0 -9 5 -9 10 0 13 35 -4 46 -21z m-3603 14 c-7 -2 -21 -2
-30 0 -10 3 -4 5 12 5 17 0 24 -2 18 -5z m-138 -14 c-18 -5 -33 -5 -39 1 -7 7
4 10 30 9 39 -1 39 -1 9 -10z m941 -4 c-36 -19 -45 -19 -20 0 10 8 26 14 34
15 8 0 2 -7 -14 -15z m-1000 -7 c5 -8 2 -9 -10 -5 -10 4 -27 2 -39 -4 -21 -10
-21 -10 -3 5 24 19 42 20 52 4z m934 8 c0 -2 -11 -6 -25 -8 -13 -3 -22 -1 -19
3 5 9 44 13 44 5z m2737 -12 c-3 -3 -12 -4 -19 -1 -8 3 -5 6 6 6 11 1 17 -2
13 -5z m-2884 -11 c-7 -2 -19 -2 -25 0 -7 3 -2 5 12 5 14 0 19 -2 13 -5z m234
1 c-3 -3 -12 -4 -19 -1 -8 3 -5 6 6 6 11 1 17 -2 13 -5z m201 -1 c-16 -2 -40
-2 -55 0 -16 2 -3 4 27 4 30 0 43 -2 28 -4z m1846 -1 c22 -4 -197 -6 -485 -4
l-525 3 -47 -50 c-26 -28 -47 -47 -47 -43 0 3 21 28 47 54 l47 48 486 -1 c267
0 503 -3 524 -7z m-2393 -11 c-8 -5 -11 -16 -8 -26 4 -9 3 -14 -3 -10 -6 3
-10 12 -10 20 0 7 -8 16 -17 18 -10 3 -2 5 17 6 24 0 31 -2 21 -8z m65 0 c-3
-5 -15 -7 -26 -4 -28 7 -25 13 6 13 14 0 23 -4 20 -9z m227 -8 c-7 -2 -21 -2
-30 0 -10 3 -4 5 12 5 17 0 24 -2 18 -5z m2297 -3 l55 -7 -70 -1 c-38 0 -81 4
-95 8 -21 7 -19 8 15 8 22 0 65 -3 95 -8z m-2722 -7 c-10 -2 -18 -9 -18 -15 0
-7 -4 -7 -12 0 -7 5 -24 12 -38 15 -14 2 0 4 30 4 30 1 47 -1 38 -4z m-594
-28 c13 -19 13 -23 2 -19 -8 3 -16 14 -19 25 -7 25 -3 24 17 -6z m3686 4 c0
-11 -209 -2 -222 10 -4 3 44 5 107 3 69 -2 115 -7 115 -13z m-4302 -6 c-10 -2
-26 -2 -35 0 -10 3 -2 5 17 5 19 0 27 -2 18 -5z m859 1 c-3 -3 -12 -4 -19 -1
-8 3 -5 6 6 6 11 1 17 -2 13 -5z m58 -4 c4 -6 -5 -10 -19 -10 -14 0 -26 5 -26
10 0 6 9 10 19 10 11 0 23 -4 26 -10z m548 3 c-7 -2 -21 -2 -30 0 -10 3 -4 5
12 5 17 0 24 -2 18 -5z m2997 -3 c0 -5 -8 -10 -17 -10 -15 0 -16 2 -3 10 19
12 20 12 20 0z m-6276 -21 c9 8 16 9 16 3 0 -12 -29 -24 -41 -16 -5 3 -9 11
-9 17 0 8 4 7 9 -2 8 -12 12 -12 25 -2z m2513 4 c-9 -2 -15 -9 -12 -14 4 -5
-11 -8 -32 -8 -21 1 -30 3 -20 6 9 2 17 9 17 14 0 5 15 8 33 8 17 -1 24 -3 14
-6z m298 -8 l40 -15 -44 3 c-25 1 -46 8 -49 15 -5 15 4 15 53 -3z m-1240 0
c-25 -9 -107 -12 -94 -4 8 5 34 8 59 8 25 0 41 -2 35 -4z m1148 -12 c-7 -2
-21 -2 -30 0 -10 3 -4 5 12 5 17 0 24 -2 18 -5z m-76 -9 c-3 -3 -12 -4 -19 -1
-8 3 -5 6 6 6 11 1 17 -2 13 -5z m-64 -11 c-7 -2 -21 -2 -30 0 -10 3 -4 5 12
5 17 0 24 -2 18 -5z m1807 -15 c-33 -14 -359 -13 -374 2 -7 7 53 10 195 9 154
0 198 -3 179 -11z m-460 -8 c-8 -5 -19 -10 -25 -10 -5 0 -3 5 5 10 8 5 20 10
25 10 6 0 3 -5 -5 -10z m-2040 -44 c0 -12 -5 -7 -19 24 -11 24 -11 24 3 6 9
-11 16 -24 16 -30z m1985 34 c13 -6 -9 -8 -65 -8 -75 1 -79 2 -35 8 70 10 78
10 100 0z m-1887 -18 c-10 -2 -18 -11 -19 -20 0 -11 -2 -13 -6 -4 -9 22 5 42
24 35 17 -7 17 -8 1 -11z m49 2 c-3 -3 -12 -4 -19 -1 -8 3 -5 6 6 6 11 1 17
-2 13 -5z m1666 -1 c-13 -2 -35 -2 -50 0 -16 2 -5 4 22 4 28 0 40 -2 28 -4z
m-2173 -13 c-8 -5 -24 -10 -35 -10 -17 0 -17 2 -5 10 8 5 24 10 35 10 17 0 17
-2 5 -10z m113 -5 c-3 -9 -8 -14 -10 -11 -3 3 -2 9 2 15 9 16 15 13 8 -4z m68
8 c0 -5 2 -16 4 -26 2 -11 0 -16 -3 -12 -4 4 -7 10 -7 13 0 4 -4 13 -8 20 -5
7 -4 12 2 12 6 0 11 -3 12 -7z m-1251 -13 c-8 -5 -22 -9 -30 -9 -10 0 -8 3 5
9 27 12 43 12 25 0z m3119 6 c-11 -9 -149 -15 -149 -6 0 6 32 10 77 10 42 0
74 -2 72 -4z m-2019 -41 c0 -19 -4 -35 -10 -35 -5 0 -10 16 -10 35 0 19 5 35
10 35 6 0 10 -16 10 -35z m-335 16 c-3 -5 -1 -12 5 -16 5 -3 9 -25 8 -48 l-1
-42 -4 38 c-2 20 -8 35 -14 32 -5 -4 -6 2 -2 11 5 14 3 16 -13 11 -19 -7 -19
-7 0 8 23 17 30 19 21 6z m232 -33 c-3 -7 -5 -2 -5 12 0 14 2 19 5 13 2 -7 2
-19 0 -25z m1741 25 c-16 -2 -40 -2 -55 0 -16 2 -3 4 27 4 30 0 43 -2 28 -4z
m-275 -10 c-7 -2 -19 -2 -25 0 -7 3 -2 5 12 5 14 0 19 -2 13 -5z m-3267 -12
c-27 -4 -66 -4 -85 0 -25 5 -10 7 49 7 72 -1 78 -2 36 -7z m2231 -28 c-3 -10
-5 -4 -5 12 0 17 2 24 5 18 2 -7 2 -21 0 -30z m918 22 c-69 -12 -105 -12 -49
0 16 4 34 8 39 10 6 2 26 3 45 3 22 0 9 -5 -35 -13z m-3298 -1 c-3 -3 -12 -4
-19 -1 -8 3 -5 6 6 6 11 1 17 -2 13 -5z m1799 -13 c0 -11 -4 -17 -8 -15 -4 3
-8 12 -8 20 0 8 4 14 8 14 4 0 8 -9 8 -19z m504 -11 c0 -10 6 -21 13 -23 9 -4
9 -6 -1 -6 -7 -1 -17 11 -22 25 -13 32 -12 37 0 29 6 -3 10 -15 10 -25z
m-2370 10 c11 -7 4 -10 -25 -10 -29 0 -36 3 -25 10 8 5 20 10 25 10 6 0 17 -5
25 -10z m1390 6 c0 -2 -9 -6 -20 -9 -11 -3 -18 -1 -14 4 5 9 34 13 34 5z m307
-58 c-2 -13 -4 -3 -4 22 0 25 2 35 4 23 2 -13 2 -33 0 -45z m262 -28 c-5 -10
-8 5 -8 40 1 55 1 55 9 15 4 -22 4 -47 -1 -55z m1260 86 c-2 -3 -38 -7 -79
-10 -41 -3 -88 -9 -105 -12 -16 -4 -27 -3 -23 1 4 4 31 11 60 15 60 8 154 12
147 6z m-2444 -16 c-3 -5 -34 -9 -68 -8 l-62 1 55 7 c30 4 61 7 68 8 7 1 10
-2 7 -8z m519 -39 l15 -44 -27 29 c-16 17 -22 30 -15 32 7 2 9 11 6 20 -3 9
-4 15 0 12 3 -3 12 -25 21 -49z m242 -6 c0 -30 -4 -49 -8 -42 -14 21 -9 97 7
97 0 0 1 -25 1 -55z m-471 35 c-3 -5 -16 -10 -28 -9 -20 1 -20 2 3 9 14 4 26
8 28 9 2 1 0 -3 -3 -9z m575 -34 c0 -12 -5 -7 -19 24 -11 24 -11 24 3 6 9 -11
16 -24 16 -30z m392 19 c3 -13 1 -22 -3 -19 -9 5 -13 44 -5 44 2 0 6 -11 8
-25z m274 -21 c-3 -8 -11 -14 -18 -13 -10 0 -10 2 0 6 6 2 13 17 13 31 1 18 3
21 6 9 3 -10 2 -25 -1 -33z m-1186 11 c0 -14 -2 -25 -4 -25 -2 0 -6 11 -8 25
-3 14 -1 25 3 25 5 0 9 -11 9 -25z m1877 19 c-3 -3 -12 -4 -19 -1 -8 3 -5 6 6
6 11 1 17 -2 13 -5z m5267 -2 c3 -5 -8 -6 -25 -4 -16 2 -29 6 -29 8 0 8 49 4
54 -4z m-7741 -9 c-18 -2 -48 -2 -65 0 -18 2 -4 4 32 4 36 0 50 -2 33 -4z
m355 0 c-10 -2 -28 -2 -40 0 -13 2 -5 4 17 4 22 1 32 -1 23 -4z m-461 -9 c-3
-3 -12 -4 -19 -1 -8 3 -5 6 6 6 11 1 17 -2 13 -5z m540 -34 l2 -35 -9 29 c-5
16 -15 33 -22 38 -9 7 -7 8 7 6 15 -2 21 -12 22 -38z m927 8 c19 -36 19 -38 7
-38 -7 0 -31 51 -31 66 0 12 11 0 24 -28z m794 25 c-10 -2 -26 -2 -35 0 -10 3
-2 5 17 5 19 0 27 -2 18 -5z m-1221 -25 c-3 -8 -6 -5 -6 6 -1 11 2 17 5 13 3
-3 4 -12 1 -19z m778 -1 c16 -5 15 -5 -4 -4 -14 1 -26 9 -28 17 -3 10 -2 11 4
4 4 -7 17 -14 28 -17z m-856 -52 c0 -5 -4 -3 -9 5 -5 8 -9 22 -9 30 0 16 17
-16 18 -35z m-1671 18 c-10 -2 -26 -2 -35 0 -10 3 -2 5 17 5 19 0 27 -2 18 -5z
m1609 -25 c-3 -7 -5 -2 -5 12 0 14 2 19 5 13 2 -7 2 -19 0 -25z m4192 -43
c-65 -79 -90 -101 -44 -37 29 38 96 112 103 112 2 0 -25 -34 -59 -75z m2861
71 c0 -2 -9 -6 -20 -9 -11 -3 -18 -1 -14 4 5 9 34 13 34 5z m-6662 -20 c-7 -8
-15 -12 -17 -11 -5 6 10 25 20 25 5 0 4 -6 -3 -14z m-2328 -16 c-39 -12 -75
-11 -93 3 -15 10 -6 11 50 8 50 -3 61 -6 43 -11z m2230 1 c0 -10 -26 -9 -36 2
-4 4 2 7 14 7 12 0 22 -4 22 -9z m-2514 -10 c-4 -5 0 -12 6 -14 7 -3 -9 -5
-37 -5 -46 0 -47 1 -17 8 18 4 36 10 39 14 9 9 15 7 9 -3z m2123 -33 c1 -5 -3
-8 -9 -8 -5 0 -10 12 -9 28 0 24 1 25 9 7 5 -11 9 -23 9 -27z m8019 27 c-8 -8
-98 -9 -105 -1 -4 3 20 6 52 6 32 0 56 -2 53 -5z m-9735 -12 c-7 -2 -21 -2
-30 0 -10 3 -4 5 12 5 17 0 24 -2 18 -5z m1474 -15 c-3 -8 -6 -5 -6 6 -1 11 2
17 5 13 3 -3 4 -12 1 -19z m8294 -11 c-10 -9 -11 -8 -5 6 3 10 9 15 12 12 3
-3 0 -11 -7 -18z m-10091 -3 c0 -2 -14 -4 -31 -4 -16 0 -28 4 -25 9 5 8 56 3
56 -5z m73 9 c-7 -2 -21 -2 -30 0 -10 3 -4 5 12 5 17 0 24 -2 18 -5z m-288
-23 c-28 -12 -57 -12 -50 0 3 6 21 10 38 9 27 0 29 -2 12 -9z m1864 6 c-2 -2
-20 -6 -39 -10 -25 -4 -31 -3 -20 4 14 9 69 15 59 6z m5084 -7 c33 0 38 -2 22
-9 -26 -11 -92 -12 -99 -1 -8 12 6 22 22 16 7 -3 32 -5 55 -6z m447 -2 c36 -2
-32 -3 -150 -4 -118 0 -202 2 -186 6 27 6 184 5 336 -2z m-7471 -1 c-11 -9
-69 -15 -64 -6 3 6 20 10 37 10 17 0 29 -2 27 -4z m1831 -5 c-22 -12 -162 -21
-185 -11 -12 5 14 8 69 9 49 0 91 3 94 6 3 3 12 5 21 5 14 -1 14 -2 1 -9z
m5838 2 c-21 -2 -57 -2 -80 0 -24 2 -7 4 37 4 44 0 63 -2 43 -4z m2687 -22
c-8 -17 -19 -33 -25 -36 -5 -3 -1 10 11 29 25 43 36 48 14 7z m-8775 -2 c-23
-9 -271 -30 -279 -23 -6 6 43 13 154 22 157 13 155 13 125 1z m5679 -5 c2 -2
-29 -3 -70 -3 -54 1 -66 3 -44 9 27 7 104 2 114 -6z m650 0 c10 -9 -45 -3 -59
6 -11 7 -5 8 20 4 19 -4 37 -8 39 -10z m361 6 c0 -6 -23 -9 -52 -8 l-53 1 50
7 c28 4 51 8 53 8 1 1 2 -2 2 -8z m217 -3 c3 -4 -33 -7 -81 -7 -48 0 -85 3
-83 8 6 9 154 8 164 -1z m-8652 -35 c-17 -15 -18 -15 -6 0 7 9 9 23 5 30 -6
10 -4 11 7 0 11 -10 10 -15 -6 -30z m8253 31 c-26 -2 -71 -2 -100 0 -29 2 -8
3 47 3 55 0 79 -1 53 -3z m-6813 -23 c-4 -6 -47 -9 -103 -8 l-97 2 85 6 c47 3
93 7 103 8 10 1 15 -2 12 -8z m5655 -2 c-19 -5 -44 -17 -55 -26 -19 -16 -19
-16 -5 2 17 21 46 35 75 34 11 0 4 -4 -15 -10z m1695 0 l80 -1 -75 -7 c-67 -7
-966 6 -1015 14 -17 3 784 -2 1010 -6z m545 -19 l235 -2 -150 -7 c-82 -4 -186
-6 -230 -5 -44 1 -143 3 -220 5 -77 1 -124 5 -105 9 19 3 80 5 135 4 55 -1
206 -3 335 -4z m-8230 -9 c-14 -4 -54 -8 -90 -7 l-65 0 65 7 c36 4 76 7 90 7
l25 1 -25 -8z m9321 0 c21 0 39 -5 39 -10 0 -6 -11 -8 -27 -4 -26 7 -27 6 -10
-10 9 -10 22 -14 29 -10 7 4 2 -7 -11 -24 -25 -36 -37 -43 -21 -11 7 11 9 23
6 26 -3 3 -144 9 -313 13 -169 4 -293 7 -275 8 17 1 32 6 32 11 0 4 19 5 43 0
45 -9 461 -11 439 -2 -6 2 -9 9 -6 15 3 5 13 7 21 4 8 -3 32 -6 54 -6z m-9491
-4 c0 -2 -7 -7 -16 -10 -8 -3 -12 -2 -9 4 6 10 25 14 25 6z m-64 -13 c-10 -11
-266 -30 -266 -21 0 5 8 9 18 9 9 1 67 5 127 9 61 3 114 7 119 8 5 1 6 -1 2
-5z m5782 -25 c-13 -18 -35 -48 -48 -65 -13 -18 -25 -31 -28 -29 -4 4 88 126
96 126 2 0 -7 -15 -20 -32z m352 18 c0 -8 -4 -18 -10 -21 -5 -3 -10 3 -10 14
0 12 5 21 10 21 6 0 10 -6 10 -14z m2743 7 c-23 -2 -64 -2 -90 0 -26 2 -7 3
42 3 50 0 71 -1 48 -3z m-2773 -31 c0 -10 -7 -27 -15 -38 -13 -17 -14 -16 -5
16 6 19 10 36 10 37 0 2 2 3 5 3 3 0 5 -8 5 -18z m-6405 -1 c-13 -12 -263 -27
-252 -15 5 5 57 12 115 15 59 3 116 6 127 7 12 1 15 -2 10 -7z m-575 -36 c0
-5 -5 -3 -10 5 -5 8 -10 20 -10 25 0 6 5 3 10 -5 5 -8 10 -19 10 -25z m9015 4
c699 -6 1286 -15 1305 -19 20 -5 -32 -7 -127 -5 -89 2 -490 6 -890 10 -400 3
-1016 8 -1368 11 -352 4 -683 6 -735 6 -68 -1 -88 2 -70 8 14 5 153 7 320 5
162 -3 867 -10 1565 -16z m-8805 0 c-149 -16 -180 -17 -180 -9 0 8 81 15 205
17 36 0 29 -2 -25 -8z m739 -3 c-2 -2 -47 -6 -99 -9 -57 -3 -77 -2 -50 3 48 8
156 12 149 6z m168 -33 c-3 -10 -5 -4 -5 12 0 17 2 24 5 18 2 -7 2 -21 0 -30z
m602 33 c-2 -2 -51 -6 -109 -9 -61 -3 -95 -2 -80 3 24 8 198 14 189 6z m-1099
-26 c-8 -5 -49 -9 -90 -8 l-75 2 75 6 c41 4 82 7 90 8 13 2 13 1 0 -8z m685
-7 c-32 -2 -66 -9 -75 -16 -13 -11 -13 -10 -1 6 10 13 27 17 75 15 l61 -2 -60
-3z m2678 -10 c-83 -2 -223 -2 -310 0 -87 1 -18 3 152 3 171 0 242 -2 158 -3z
m2936 -23 c-12 -16 -26 -27 -32 -23 -5 3 4 16 19 29 38 30 39 30 13 -6z
m-6649 10 c-8 -5 -40 -9 -70 -8 l-55 1 50 7 c82 11 92 11 75 0z m3170 0 c-69
-8 -48 -18 45 -23 l70 -3 -75 -2 c-41 -1 -81 2 -89 7 -26 16 0 31 52 29 l52
-1 -55 -7z m4039 6 c-2 -2 -85 -6 -183 -9 -109 -3 -174 -2 -165 4 13 8 358 14
348 5z m1991 -4 c141 -5 22 -8 -505 -12 -715 -5 -1056 0 -665 10 339 9 973 10
1170 2z m-1407 -9 c-7 -2 -19 -2 -25 0 -7 3 -2 5 12 5 14 0 19 -2 13 -5z
m1725 0 c-21 -2 -57 -2 -80 0 -24 2 -7 4 37 4 44 0 63 -2 43 -4z m162 -7 c0
-9 -7 -12 -21 -9 -16 4 -17 8 -7 14 19 13 28 11 28 -5z m-9977 -13 c-7 -2 -21
-2 -30 0 -10 3 -4 5 12 5 17 0 24 -2 18 -5z m4375 0 c-26 -2 -71 -2 -100 0
-29 2 -8 3 47 3 55 0 79 -1 53 -3z m-4441 -9 c-3 -3 -12 -4 -19 -1 -8 3 -5 6
6 6 11 1 17 -2 13 -5z m4145 -1 c-73 -2 -190 -2 -260 0 -70 1 -10 3 133 3 143
0 200 -2 127 -3z m5905 -50 c-3 -10 -5 -2 -5 17 0 19 2 27 5 18 2 -10 2 -26 0
-35z m-10198 33 c-8 -8 -108 -10 -116 -3 -3 4 22 7 57 7 35 0 61 -2 59 -4z
m6714 -3 c-7 -2 -21 -2 -30 0 -10 3 -4 5 12 5 17 0 24 -2 18 -5z m-6928 -13
c4 -6 -9 -10 -33 -10 -22 0 -61 -2 -88 -5 -69 -7 -39 4 37 14 35 5 67 9 71 10
4 0 10 -3 13 -9z m7305 -20 c0 -5 -2 -10 -4 -10 -3 0 -8 5 -11 10 -3 6 -1 10
4 10 6 0 11 -4 11 -10z m-7665 -10 c-16 -4 -46 -8 -65 -7 l-35 0 40 7 c22 4
51 7 65 7 22 1 22 0 -5 -7z m7725 -42 c-23 -29 -49 -57 -58 -62 -8 -5 6 19 32
53 26 33 52 61 57 61 6 0 -8 -24 -31 -52z m1367 36 c-3 -3 -12 -4 -19 -1 -8 3
-5 6 6 6 11 1 17 -2 13 -5z m-1456 -27 c-13 -13 -26 -3 -16 12 3 6 11 8 17 5
6 -4 6 -10 -1 -17z m1612 6 c-18 -2 -48 -2 -65 0 -18 2 -4 4 32 4 36 0 50 -2
33 -4z m90 0 c-7 -2 -19 -2 -25 0 -7 3 -2 5 12 5 14 0 19 -2 13 -5z m1200 0
c-128 -2 -338 -2 -465 0 -128 1 -24 2 232 2 256 0 360 -1 233 -2z m-7225 -8
c-6 -7 -879 -7 -886 0 -3 3 196 5 443 5 247 0 446 -2 443 -5z m5800 -2 c-10
-2 -28 -2 -40 0 -13 2 -5 4 17 4 22 1 32 -1 23 -4z m-7280 -20 c-16 -2 -40 -2
-55 0 -16 2 -3 4 27 4 30 0 43 -2 28 -4z m5782 -8 c-7 -8 -16 -12 -21 -9 -13
8 -1 24 18 24 13 0 13 -3 3 -15z m-6307 -2 c-51 -2 -135 -2 -185 0 -51 1 -10
3 92 3 102 0 143 -2 93 -3z m145 0 c-10 -2 -26 -2 -35 0 -10 3 -2 5 17 5 19 0
27 -2 18 -5z m-688 -23 c0 -5 -7 -10 -15 -10 -8 0 -15 5 -15 10 0 6 7 10 15
10 8 0 15 -4 15 -10z m37 4 c-3 -3 -12 -4 -19 -1 -8 3 -5 6 6 6 11 1 17 -2 13
-5z m-98 -28 c-10 -9 -109 -56 -109 -51 0 6 91 54 104 55 5 0 7 -2 5 -4z
m1661 -10 c107 -2 160 -1 125 3 l-60 8 51 1 c28 1 71 -5 94 -13 23 -8 57 -15
76 -15 18 0 35 -3 37 -7 3 -5 -27 -6 -66 -5 -38 2 -66 7 -60 10 6 4 -149 9
-346 11 -196 2 -435 7 -531 11 -134 6 -97 7 160 4 184 -2 418 -6 520 -8z
m-1535 -5 c-10 -9 -85 -23 -85 -16 0 5 59 23 80 24 8 1 10 -2 5 -8z m188 2
c-23 -2 -64 -2 -90 0 -26 2 -7 3 42 3 50 0 71 -1 48 -3z m6647 3 c0 -2 -7 -7
-16 -10 -8 -3 -12 -2 -9 4 6 10 25 14 25 6z m-117 -31 c-19 -26 -29 -30 -38
-16 -4 8 26 30 53 40 2 1 -5 -10 -15 -24z m-4816 -37 c-23 -13 -996 -20 -1427
-10 -367 8 -330 9 514 10 837 2 908 3 902 18 -6 14 -4 15 9 4 14 -12 14 -15 2
-22z m4863 -18 c-37 -47 -52 -55 -18 -9 13 17 27 37 33 45 5 7 11 11 13 9 3
-2 -10 -22 -28 -45z m-7043 19 c-14 -8 -22 -8 -30 0 -8 8 -3 11 19 11 25 -1
27 -2 11 -11z m-489 -16 c-21 -2 -57 -2 -80 0 -24 2 -7 4 37 4 44 0 63 -2 43
-4z m7452 4 c0 -2 -14 -16 -32 -33 l-32 -29 25 32 c20 27 39 41 39 30z m-925
-27 c-3 -5 -12 -10 -18 -10 -7 0 -6 4 3 10 19 12 23 12 15 0z m88 -7 c-7 -2
-21 -2 -30 0 -10 3 -4 5 12 5 17 0 24 -2 18 -5z m375 -10 c-10 -2 -26 -2 -35
0 -10 3 -2 5 17 5 19 0 27 -2 18 -5z m255 0 c-40 -2 -106 -2 -145 0 -40 1 -8
3 72 3 80 0 112 -2 73 -3z m82 -24 c-22 -4 -152 -7 -290 -6 -206 1 -227 2
-120 7 206 9 456 9 410 -1z m-622 -6 c-23 -2 -64 -2 -90 0 -26 2 -7 3 42 3 50
0 71 -1 48 -3z m777 3 c0 -2 -8 -10 -17 -17 -16 -13 -17 -12 -4 4 13 16 21 21
21 13z m1280 -88 c11 -18 20 -37 20 -43 0 -5 -10 7 -22 27 l-22 38 -310 3
-311 2 313 3 312 2 20 -32z m-1345 13 c-11 -10 -553 -26 -543 -16 3 4 127 10
275 14 147 4 270 9 273 9 2 1 0 -2 -5 -7z m263 -81 c-7 -11 -15 -15 -17 -9 -2
6 3 15 10 20 20 12 21 11 7 -11z m1099 -72 c-2 -18 -4 -6 -4 27 0 33 2 48 4
33 2 -15 2 -42 0 -60z m-1136 5 c-12 -20 -14 -14 -5 12 4 9 9 14 11 11 3 -2 0
-13 -6 -23z m40 -55 c17 -24 18 -29 6 -19 -18 14 -42 51 -33 51 3 0 15 -15 27
-32z m-1514 -44 c-3 -3 -12 -4 -19 -1 -8 3 -5 6 6 6 11 1 17 -2 13 -5z m441
-1 c-15 -2 -42 -2 -60 0 -18 2 -6 4 27 4 33 0 48 -2 33 -4z m587 -13 c117 -6
115 -7 -65 -7 -102 0 -230 3 -285 7 -94 6 -89 7 65 7 91 0 219 -3 285 -7z
m235 -32 l22 -33 -24 25 c-19 21 -32 26 -68 24 l-45 -2 40 7 c22 5 43 9 47 10
4 0 16 -14 28 -31z m938 5 c-60 -2 -156 -2 -215 0 -60 1 -11 3 107 3 118 0
167 -2 108 -3z m-1852 -31 c-3 -6 250 -13 614 -17 167 -2 233 -6 226 -12 -4
-4 -31 -10 -59 -14 l-52 -6 60 -4 c33 -1 -118 -6 -335 -9 -217 -3 -404 -2
-415 2 -11 4 133 8 320 10 187 1 286 4 220 5 -66 2 -129 7 -140 12 -24 12
-406 20 -399 9 3 -4 -4 -8 -14 -8 -22 0 -46 23 -35 33 9 9 15 9 9 -1z m1004
-79 c59 -77 44 -76 -18 2 -29 35 -46 62 -38 59 8 -3 34 -30 56 -61z m-1511 -9
c14 -12 -19 -1 -35 12 -18 14 -18 14 6 3 14 -6 27 -13 29 -15z m-5175 -16
c-13 -6 -37 -6 -65 0 l-44 9 65 0 c49 0 60 -2 44 -9z m533 6 c-9 -9 -506 -10
-500 -1 2 4 117 7 255 7 138 0 249 -3 245 -6z m346 -1 c-7 -2 -19 -2 -25 0 -7
3 -2 5 12 5 14 0 19 -2 13 -5z m107 -9 c0 -2 -9 -4 -21 -4 -11 0 -18 4 -14 10
5 8 35 3 35 -6z m-2030 2 c0 -2 -7 -7 -16 -10 -8 -3 -12 -2 -9 4 6 10 25 14
25 6z m2423 -3 c-7 -2 -19 -2 -25 0 -7 3 -2 5 12 5 14 0 19 -2 13 -5z m140 0
c-13 -2 -33 -2 -45 0 -13 2 -3 4 22 4 25 0 35 -2 23 -4z m210 0 c-35 -2 -91
-2 -125 0 -35 2 -7 3 62 3 69 0 97 -1 63 -3z m-1980 -43 c26 -16 53 -30 60
-31 9 0 9 -2 0 -6 -12 -4 -123 53 -123 63 0 10 19 2 63 -26z m2077 17 c-22
-20 -121 -40 -134 -27 -7 7 1 10 25 11 18 0 52 6 74 14 53 17 51 17 35 2z
m-1876 -27 c-7 -7 -24 -7 -50 -1 l-39 9 50 1 c33 1 46 -2 39 -9z m6797 -7 c13
-16 12 -17 -3 -4 -10 7 -18 15 -18 17 0 8 8 3 21 -13z m-6606 -3 c13 -6 -14
-8 -75 -8 -64 0 -85 3 -65 8 41 10 116 10 140 0z m1433 3 c-15 -2 -42 -2 -60
0 -18 2 -6 4 27 4 33 0 48 -2 33 -4z m5103 -15 c11 -21 11 -22 -4 -9 -10 7
-17 17 -17 22 0 15 9 10 21 -13z m-4994 6 c-3 -3 -12 -4 -19 -1 -8 3 -5 6 6 6
11 1 17 -2 13 -5z m-1334 -11 c-7 -2 -19 -2 -25 0 -7 3 -2 5 12 5 14 0 19 -2
13 -5z m145 0 c-21 -2 -55 -2 -75 0 -21 2 -4 4 37 4 41 0 58 -2 38 -4z m150 0
c-21 -2 -55 -2 -75 0 -21 2 -4 4 37 4 41 0 58 -2 38 -4z m930 0 c-10 -2 -26
-2 -35 0 -10 3 -2 5 17 5 19 0 27 -2 18 -5z m-195 -10 c-13 -2 -35 -2 -50 0
-16 2 -5 4 22 4 28 0 40 -2 28 -4z m5417 -19 c0 -2 -9 0 -20 6 -11 6 -20 13
-20 16 0 2 9 0 20 -6 11 -6 20 -13 20 -16z m-6923 0 c-3 -3 -12 -4 -19 -1 -8
3 -5 6 6 6 11 1 17 -2 13 -5z m5073 -14 c6 -11 8 -20 6 -20 -3 0 -10 9 -16 20
-6 11 -8 20 -6 20 3 0 10 -9 16 -20z m-4362 -7 c-86 -2 -230 -2 -320 0 -90 1
-19 3 157 3 176 0 249 -2 163 -3z m350 -10 c-15 -2 -42 -2 -60 0 -18 2 -6 4
27 4 33 0 48 -2 33 -4z m222 -7 c0 -2 -9 -6 -20 -9 -11 -3 -18 -1 -14 4 5 9
34 13 34 5z m1309 -12 c2 -2 -148 -4 -335 -3 -190 0 -330 4 -319 9 19 8 645 2
654 -6z m4396 -45 c26 -33 45 -62 42 -65 -3 -3 -15 10 -28 28 -13 18 -34 48
-47 66 -13 17 -22 32 -19 32 3 0 27 -27 52 -61z m-7900 33 c-3 -3 -11 0 -18 7
-9 10 -8 11 6 5 10 -3 15 -9 12 -12z m9248 11 c-34 -2 -93 -2 -130 0 -37 2 -9
3 62 3 72 0 102 -1 68 -3z m484 1 c-3 -3 -12 -4 -19 -1 -8 3 -5 6 6 6 11 1 17
-2 13 -5z m-1922 -40 c22 -29 23 -33 7 -23 -18 11 -48 59 -38 59 2 0 16 -16
31 -36z m2788 29 c-156 -2 -410 -2 -565 0 -156 1 -29 2 282 2 311 0 438 -1
283 -2z m-10425 -22 c13 -4 -17 -6 -65 -5 -123 3 -121 2 -103 14 14 9 122 3
168 -9z m1999 -43 c-2 -13 -4 -5 -4 17 -1 22 1 32 4 23 2 -10 2 -28 0 -40z
m-1732 22 c7 -12 -50 -12 -115 -1 -42 8 -39 9 32 10 42 0 80 -3 83 -9z m88 -7
c-13 -2 -33 -2 -45 0 -13 2 -3 4 22 4 25 0 35 -2 23 -4z m196 -19 c2 -2 -23
-4 -57 -4 -33 0 -64 5 -67 11 -5 7 13 8 57 3 34 -4 65 -8 67 -10z m6756 6 c7
-11 -16 -11 -60 0 -28 7 -28 8 12 9 23 0 45 -3 48 -9z m-6476 -36 c9 -8 -135
-2 -159 7 -15 5 10 6 65 2 50 -3 92 -7 94 -9z m3761 9 c-212 -7 -400 -7 -400
0 0 4 109 6 243 5 133 -1 204 -3 157 -5z m178 0 c-10 -2 -28 -2 -40 0 -13 2
-5 4 17 4 22 1 32 -1 23 -4z m-2871 -60 c-3 -10 -5 -2 -5 17 0 19 2 27 5 18 2
-10 2 -26 0 -35z m-919 30 c-10 -2 -26 -2 -35 0 -10 3 -2 5 17 5 19 0 27 -2
18 -5z m6813 -10 c13 -16 12 -17 -3 -4 -10 7 -18 15 -18 17 0 8 8 3 21 -13z
m1452 10 c-67 -2 -179 -2 -250 0 -70 1 -15 3 122 3 138 0 195 -2 128 -3z m745
0 c-10 -2 -28 -2 -40 0 -13 2 -5 4 17 4 22 1 32 -1 23 -4z m190 0 c-21 -2 -57
-2 -80 0 -24 2 -7 4 37 4 44 0 63 -2 43 -4z m-9070 -10 c-10 -2 -26 -2 -35 0
-10 3 -2 5 17 5 19 0 27 -2 18 -5z m3115 0 c-13 -2 -33 -2 -45 0 -13 2 -3 4
22 4 25 0 35 -2 23 -4z m3184 -46 c46 -62 37 -60 -17 4 -24 29 -38 50 -31 48
7 -3 29 -26 48 -52z m-6018 27 c2 -2 -32 -4 -77 -4 -44 0 -83 4 -86 9 -6 8
153 3 163 -5z m702 6 c22 0 38 -4 35 -9 -7 -11 -88 -2 -101 12 -7 7 -4 8 8 3
10 -3 37 -6 58 -6z m2847 3 c-109 -2 -287 -2 -395 0 -109 1 -20 2 197 2 217 0
306 -1 198 -2z m3607 -36 c368 1 947 4 1285 7 338 3 604 2 590 -3 -26 -8
-1302 -21 -2068 -21 -438 0 -496 4 -523 37 -11 13 -8 13 16 -3 28 -18 53 -19
700 -17z m-7118 17 c-3 -3 -12 -4 -19 -1 -8 3 -5 6 6 6 11 1 17 -2 13 -5z m93
-4 c-8 -5 -28 -9 -45 -9 -30 2 -30 2 5 9 51 11 57 11 40 0z m9670 0 c0 -5 7
-7 15 -4 8 4 15 1 15 -4 0 -6 -10 -9 -22 -6 -13 3 -131 9 -263 13 l-240 8 248
1 c154 1 247 -2 247 -8z m-9371 -16 c2 -2 -63 -3 -145 -3 -96 1 -135 4 -109 9
37 7 245 2 254 -6z m611 6 c0 -5 -21 -10 -46 -10 -27 0 -43 4 -39 10 3 6 24
10 46 10 21 0 39 -4 39 -10z m5330 -20 c14 -20 16 -28 7 -24 -13 5 -42 54 -32
54 2 0 13 -13 25 -30z m-6705 10 c26 -11 -59 -11 -130 0 -47 7 -45 7 30 8 44
0 89 -3 100 -8z m10187 -32 c25 -39 13 -48 -60 -46 -50 1 -56 2 -22 5 70 5 95
12 83 24 -8 8 -17 8 -30 1 -22 -12 -598 -20 -609 -9 -7 7 128 11 401 12 162 1
182 3 197 20 18 20 23 19 40 -7z m-9887 2 c22 -5 90 -12 150 -15 61 -3 146
-10 190 -16 44 -5 104 -9 135 -9 30 0 61 -4 68 -9 8 -5 -8 -7 -40 -5 -155 11
-325 25 -423 36 -60 7 -155 15 -210 18 l-100 6 95 2 c52 1 113 -3 135 -8z
m6170 -120 c86 -113 96 -135 14 -32 -64 79 -102 132 -96 132 3 0 39 -45 82
-100z m2898 83 c-18 -2 -48 -2 -65 0 -18 2 -4 4 32 4 36 0 50 -2 33 -4z
m-9842 -39 c-9 -28 -9 -29 -10 -3 -1 14 2 29 6 32 11 12 13 2 4 -29z m7320 -4
l44 -9 -40 4 c-72 8 -115 17 -115 25 0 15 25 17 46 3 12 -7 41 -18 65 -23z
m2474 31 c55 -3 -107 -6 -360 -6 -253 0 -399 2 -325 5 190 8 566 9 685 1z
m-8404 -11 c5 0 9 -4 9 -9 0 -12 -38 -2 -47 12 -4 7 0 8 11 4 10 -4 22 -7 27
-7z m1742 3 c-7 -2 -19 -2 -25 0 -7 3 -2 5 12 5 14 0 19 -2 13 -5z m-1558 -13
c13 -6 -10 -8 -65 -8 -79 1 -81 2 -30 8 30 4 60 7 65 8 6 0 19 -3 30 -8z
m1718 3 c-13 -2 -35 -2 -50 0 -16 2 -5 4 22 4 28 0 40 -2 28 -4z m5617 -2 c9
-6 -69 -10 -209 -11 -123 0 -227 -3 -232 -6 -4 -2 -57 -1 -116 3 l-108 8 200
5 c357 10 450 10 465 1z m-7204 -20 c-5 -8 -56 -3 -56 5 0 2 14 4 31 4 16 0
28 -4 25 -9z m6442 2 c-43 -2 -113 -2 -155 0 -43 1 -8 3 77 3 85 0 120 -2 78
-3z m-6269 -12 c9 -6 -18 -7 -70 -4 -46 3 -86 7 -88 9 -10 9 145 3 158 -5z
m6946 -10 c-39 -6 -521 -3 -540 4 -5 2 123 3 285 3 162 -1 277 -4 255 -7z
m1915 -26 c12 -19 20 -39 18 -43 -2 -5 -13 11 -25 35 -27 52 -23 56 7 8z
m-8598 15 c26 0 48 -3 48 -7 0 -10 -238 2 -248 12 -4 4 29 5 72 1 43 -3 101
-6 128 -6z m5307 -6 c10 -9 -116 -3 -129 6 -10 7 7 8 55 4 39 -4 72 -8 74 -10z
m-7051 -1 c-10 -2 -28 -2 -40 0 -13 2 -5 4 17 4 22 1 32 -1 23 -4z m1950 -20
c-10 -2 -28 -2 -40 0 -13 2 -5 4 17 4 22 1 32 -1 23 -4z m102 -8 c0 -8 -2 -15
-4 -15 -2 0 -6 7 -10 15 -3 8 -1 15 4 15 6 0 10 -7 10 -15z m5553 8 c-18 -2
-48 -2 -65 0 -18 2 -4 4 32 4 36 0 50 -2 33 -4z m-7345 -10 c-10 -2 -28 -2
-40 0 -13 2 -5 4 17 4 22 1 32 -1 23 -4z m2034 -55 c-5 -89 -9 -97 -11 -20 0
39 2 72 7 72 4 0 6 -24 4 -52z m-1879 35 c-7 -2 -19 -2 -25 0 -7 3 -2 5 12 5
14 0 19 -2 13 -5z m1965 -5 c7 -7 11 -32 10 -57 -1 -44 -2 -44 -5 -9 -3 25
-13 44 -30 58 -23 18 -23 20 -6 20 10 0 24 -5 31 -12z m7917 -8 c14 -6 4 -9
-35 -8 -42 0 -49 2 -30 8 32 10 41 10 65 0z m-8098 -22 c-3 -8 -6 -5 -6 6 -1
11 2 17 5 13 3 -3 4 -12 1 -19z m353 -10 c0 -18 -2 -19 -16 -7 -10 8 -12 15
-5 17 6 2 8 9 5 14 -4 7 -2 8 4 4 7 -4 12 -16 12 -28z m139 6 c12 -15 21 -32
21 -38 0 -6 -10 4 -22 22 -17 28 -26 33 -49 30 -15 -3 -26 -1 -23 4 11 17 53
7 73 -18z m-238 -35 c-6 -16 -10 -18 -10 -7 -1 22 12 55 16 42 2 -6 -1 -22 -6
-35z m-1438 24 c-7 -2 -21 -2 -30 0 -10 3 -4 5 12 5 17 0 24 -2 18 -5z m1605
-23 c-5 -17 -8 -42 -5 -55 2 -14 0 -25 -4 -25 -10 0 -12 70 -3 94 11 30 23 16
12 -14z m-1945 13 c-7 -2 -21 -2 -30 0 -10 3 -4 5 12 5 17 0 24 -2 18 -5z
m405 0 c-10 -2 -26 -2 -35 0 -10 3 -2 5 17 5 19 0 27 -2 18 -5z m1796 -30 c9
-56 8 -99 -3 -87 -10 10 -19 124 -10 124 4 0 9 -17 13 -37z m-2066 20 c-10 -2
-28 -2 -40 0 -13 2 -5 4 17 4 22 1 32 -1 23 -4z m2182 -3 c0 -5 -6 -10 -14
-10 -7 0 -16 -10 -19 -22 -4 -12 -9 -20 -12 -16 -10 10 14 58 30 58 8 0 15 -4
15 -10z m50 -6 c0 -8 -4 -12 -10 -9 -5 3 -10 10 -10 16 0 5 5 9 10 9 6 0 10
-7 10 -16z m-1717 -1 c-7 -2 -19 -2 -25 0 -7 3 -2 5 12 5 14 0 19 -2 13 -5z
m8027 -25 c0 -6 -7 -5 -15 2 -8 7 -15 17 -15 22 0 6 7 5 15 -2 8 -7 15 -17 15
-22z m-6150 -9 c0 -10 -4 -19 -9 -19 -5 0 -8 11 -8 25 0 13 3 22 8 19 5 -3 9
-14 9 -25z m157 25 c-3 -3 -12 -4 -19 -1 -8 3 -5 6 6 6 11 1 17 -2 13 -5z
m-580 -36 c-3 -7 -5 -2 -5 12 0 14 2 19 5 13 2 -7 2 -19 0 -25z m509 12 c0
-11 -4 -20 -8 -20 -10 0 -11 24 -1 33 9 9 9 10 9 -13z m4069 7 c55 -2 -70 -4
-277 -5 -207 -1 -379 1 -381 6 -5 6 411 6 658 -1z m-5980 -6 c19 -8 -168 -3
-190 4 -5 2 31 3 80 4 50 0 99 -4 110 -8z m253 2 c-10 -2 -26 -2 -35 0 -10 3
-2 5 17 5 19 0 27 -2 18 -5z m245 0 c-7 -2 -21 -2 -30 0 -10 3 -4 5 12 5 17 0
24 -2 18 -5z m157 -8 c-7 -8 -17 -15 -23 -15 -6 0 -2 7 9 15 25 19 30 19 14 0z
m1360 -26 c0 -11 -4 -19 -10 -19 -5 0 -10 6 -10 14 0 8 -3 23 -7 33 -6 16 -5
16 10 4 9 -7 17 -22 17 -32z m407 23 c6 -4 -12 -8 -40 -9 -36 -1 -46 1 -32 7
25 11 57 12 72 2z m-2290 -8 c-3 -3 -12 -4 -19 -1 -8 3 -5 6 6 6 11 1 17 -2
13 -5z m406 -1 c-13 -2 -33 -2 -45 0 -13 2 -3 4 22 4 25 0 35 -2 23 -4z m54 1
c-3 -3 -12 -4 -19 -1 -8 3 -5 6 6 6 11 1 17 -2 13 -5z m753 -14 c0 -11 -4 -20
-9 -20 -5 0 -7 9 -4 20 3 11 7 20 9 20 2 0 4 -9 4 -20z m317 -32 c-2 -13 -4
-5 -4 17 -1 22 1 32 4 23 2 -10 2 -28 0 -40z m3921 45 c-10 -2 -26 -2 -35 0
-10 3 -2 5 17 5 19 0 27 -2 18 -5z m-5285 -10 c-7 -2 -19 -2 -25 0 -7 3 -2 5
12 5 14 0 19 -2 13 -5z m1264 -30 c-3 -10 -5 -4 -5 12 0 17 2 24 5 18 2 -7 2
-21 0 -30z m519 25 c-12 -40 -17 -50 -22 -46 -5 6 13 58 20 58 3 0 4 -6 2 -12z
m439 2 c29 -7 29 -8 -10 -9 -22 0 -47 4 -55 9 -12 8 -10 9 10 9 14 -1 39 -5
55 -9z m-1758 -6 c-3 -3 -12 -4 -19 -1 -8 3 -5 6 6 6 11 1 17 -2 13 -5z m227
-9 c-4 -8 -14 -15 -23 -15 -14 1 -13 3 3 15 25 19 27 19 20 0z m946 -96 l25
-7 -26 -1 c-32 -1 -40 14 -37 77 l1 47 6 -55 c5 -47 9 -55 31 -61z m767 105
c-3 -3 -12 -4 -19 -1 -8 3 -5 6 6 6 11 1 17 -2 13 -5z m-2204 -11 c-18 -2 -48
-2 -65 0 -18 2 -4 4 32 4 36 0 50 -2 33 -4z m907 -25 c0 -18 -2 -20 -9 -8 -6
8 -7 18 -5 22 9 14 14 9 14 -14z m320 -18 c0 -22 -4 -40 -10 -40 -5 0 -10 18
-10 40 0 22 5 40 10 40 6 0 10 -18 10 -40z m1213 28 c-14 -7 -48 -7 -105 0
l-83 9 105 1 c80 0 100 -2 83 -10z m-2292 -15 c13 -16 12 -17 -3 -4 -17 13
-22 21 -14 21 2 0 10 -8 17 -17z m2389 -3 c13 -8 13 -10 -2 -10 -9 0 -20 5
-23 10 -8 13 5 13 25 0z m155 0 c4 -6 -19 -10 -62 -9 -49 1 -61 3 -43 9 36 12
98 12 105 0z m-1605 -25 c14 -19 14 -19 -2 -6 -10 7 -18 18 -18 24 0 6 1 8 3
6 1 -2 9 -13 17 -24z m25 7 c-3 -3 -11 0 -18 7 -9 10 -8 11 6 5 10 -3 15 -9
12 -12z m622 -19 c-3 -10 -5 -4 -5 12 0 17 2 24 5 18 2 -7 2 -21 0 -30z m1026
30 c-7 -2 -21 -2 -30 0 -10 3 -4 5 12 5 17 0 24 -2 18 -5z m42 -21 c-3 -3 -11
0 -18 7 -9 10 -8 11 6 5 10 -3 15 -9 12 -12z m-1858 2 c-3 -3 -12 -4 -19 -1
-8 3 -5 6 6 6 11 1 17 -2 13 -5z m2123 -8 c0 -3 -4 -8 -10 -11 -5 -3 -10 -1
-10 4 0 6 5 11 10 11 6 0 10 -2 10 -4z m-1513 -38 c-3 -7 -5 -2 -5 12 0 14 2
19 5 13 2 -7 2 -19 0 -25z m1683 21 c0 -7 14 -10 35 -7 21 2 31 0 26 -5 -5 -5
-44 -6 -93 -1 -74 7 -79 9 -43 15 63 10 75 10 75 -2z m-1944 -8 c-3 -5 -15
-11 -26 -14 -17 -4 -19 -3 -9 9 12 15 44 20 35 5z m351 -16 c-4 -8 -12 -15
-19 -14 -10 0 -10 2 0 6 6 2 12 12 12 21 0 8 3 13 6 9 4 -3 4 -13 1 -22z m98
-5 c3 -5 1 -10 -4 -10 -6 0 -11 5 -11 10 0 6 2 10 4 10 3 0 8 -4 11 -10z
m1858 -2 c15 -11 -2 -12 -100 -10 -65 2 -121 7 -125 10 -4 4 41 8 100 10 76 2
112 -1 125 -10z m205 -25 c-10 -2 -26 -2 -35 0 -10 3 -2 5 17 5 19 0 27 -2 18
-5z m374 -4 c7 -5 -47 -8 -127 -7 -103 1 -126 3 -85 8 77 10 195 9 212 -1z
m-2565 -5 c-3 -3 -12 -4 -19 -1 -8 3 -5 6 6 6 11 1 17 -2 13 -5z m436 -1 c-7
-2 -19 -2 -25 0 -7 3 -2 5 12 5 14 0 19 -2 13 -5z m64 -9 c-3 -3 -12 -4 -19
-1 -8 3 -5 6 6 6 11 1 17 -2 13 -5z m2326 -1 c-13 -2 -35 -2 -50 0 -16 2 -5 4
22 4 28 0 40 -2 28 -4z m-2210 -10 c-18 -2 -48 -2 -65 0 -18 2 -4 4 32 4 36 0
50 -2 33 -4z m2360 0 c-13 -2 -33 -2 -45 0 -13 2 -3 4 22 4 25 0 35 -2 23 -4z
m-4798 -12 c3 -5 1 -12 -5 -16 -5 -3 -10 1 -10 9 0 18 6 21 15 7z m2742 3 c-3
-3 -12 -4 -19 -1 -8 3 -5 6 6 6 11 1 17 -2 13 -5z m-247 -14 c11 -7 2 -9 -30
-9 -37 1 -41 2 -20 9 34 11 33 11 50 0z m187 -7 c-9 -2 -15 -9 -12 -14 4 -5 1
-9 -4 -9 -12 0 -14 13 -4 23 3 4 13 6 22 6 13 -1 12 -2 -2 -6z m371 2 c-8 -8
-77 -9 -85 -2 -3 4 15 7 42 7 27 0 46 -2 43 -5z m1423 -31 c13 -16 12 -16 -7
-6 -11 6 -27 19 -35 28 -13 16 -12 16 7 6 11 -6 27 -19 35 -28z m857 29 c-21
-2 -57 -2 -80 0 -24 2 -7 4 37 4 44 0 63 -2 43 -4z m923 -3 c14 -8 19 -20 18
-48 -2 -32 -3 -33 -6 -8 -7 46 -27 59 -81 53 -31 -4 -40 -3 -27 3 28 12 73 12
96 0z m-3083 -7 c-16 -2 -40 -2 -55 0 -16 2 -3 4 27 4 30 0 43 -2 28 -4z
m-241 -9 c-3 -3 -12 -4 -19 -1 -8 3 -5 6 6 6 11 1 17 -2 13 -5z m3138 -3 c-11
-11 -215 -20 -215 -9 0 4 26 8 58 10 31 2 82 4 112 6 36 2 52 0 45 -7z m-2900
-11 c-3 -5 -14 -10 -23 -9 -14 0 -13 2 3 9 27 11 27 11 20 0z m69 4 c12 -4 13
-11 4 -29 -9 -21 -15 -23 -72 -18 -80 7 -84 13 -9 13 65 0 79 6 62 27 -12 14
-9 16 15 7z m-215 -20 c2 -2 -28 -4 -67 -4 -39 0 -73 4 -76 8 -5 8 135 5 143
-4z m2786 7 c-12 -10 -233 -26 -223 -15 5 4 50 10 100 14 51 4 102 8 113 8 11
1 15 -2 10 -7z m-3382 -45 c-3 -4 -9 -2 -14 5 -13 22 -11 31 5 17 8 -7 12 -17
9 -22z m974 28 c-3 -3 -12 -4 -19 -1 -8 3 -5 6 6 6 11 1 17 -2 13 -5z m251
-11 c-21 -2 -55 -2 -75 0 -21 2 -4 4 37 4 41 0 58 -2 38 -4z m973 -11 c-57 -1
-108 1 -112 5 -5 4 42 6 104 3 l112 -5 -104 -3z m874 7 c-22 -4 -197 -7 -390
-6 l-350 2 335 5 c184 3 360 6 390 7 54 1 54 0 15 -8z m-3040 -19 c-3 -5 -11
-10 -16 -10 -6 0 -7 5 -4 10 3 6 11 10 16 10 6 0 7 -4 4 -10z m842 4 c-3 -3
-12 -4 -19 -1 -8 3 -5 6 6 6 11 1 17 -2 13 -5z m180 -7 c-2 -6 -10 -12 -18
-15 -11 -3 -11 -2 -1 6 9 6 -15 7 -64 4 -44 -3 -75 -1 -71 4 8 14 159 15 154
1z m456 -4 c-23 -2 -64 -2 -90 0 -26 2 -7 3 42 3 50 0 71 -1 48 -3z m-1390
-10 c-7 -2 -19 -2 -25 0 -7 3 -2 5 12 5 14 0 19 -2 13 -5z m1777 -3 c19 -12
-27 -13 -85 -1 l-40 9 55 1 c30 0 62 -4 70 -9z m1859 -18 c-14 -5 -39 6 -39
17 0 5 11 4 25 -2 13 -7 20 -14 14 -15z m51 13 c-7 -8 -17 -15 -23 -15 -6 0
-2 7 9 15 25 19 30 19 14 0z m-3540 -5 c19 -6 9 -8 -35 -8 -42 -1 -54 2 -40 8
24 10 42 10 75 0z m1448 3 c-10 -2 -26 -2 -35 0 -10 3 -2 5 17 5 19 0 27 -2
18 -5z m-613 -13 c3 -6 -1 -7 -9 -4 -18 7 -21 14 -7 14 6 0 13 -4 16 -10z
m-572 -16 c20 -3 37 -9 37 -13 0 -10 -119 4 -150 18 -21 9 -17 10 25 5 28 -3
67 -7 88 -10z m619 -6 c-7 -7 -12 -8 -12 -2 0 14 12 26 19 19 2 -3 -1 -11 -7
-17z m1268 8 c31 -7 -417 -4 -460 3 -25 4 65 5 200 3 135 -2 252 -5 260 -6z
m453 -13 c-7 -2 -19 -2 -25 0 -7 3 -2 5 12 5 14 0 19 -2 13 -5z m542 -1 c-6
-5 -125 -6 -265 -2 l-255 6 265 2 c145 1 260 -2 255 -6z m233 3 c-8 -8 -207
-9 -215 -2 -3 4 45 7 107 7 62 0 111 -2 108 -5z m-2468 -15 c0 -5 -8 -10 -17
-10 -15 0 -16 2 -3 10 19 12 20 12 20 0z m-390 -10 c0 -5 -15 -9 -32 -9 l-33
1 30 8 c17 4 31 8 33 9 1 0 2 -3 2 -9z m-272 -6 c-8 -7 -128 -7 -136 0 -3 3
28 6 68 6 40 0 71 -2 68 -6z m487 -25 c16 -16 -50 -10 -71 6 -18 14 -16 14 21
9 22 -3 44 -10 50 -15z m-94 -28 c-8 -5 -20 -7 -28 -4 -21 8 -15 13 15 13 20
0 23 -3 13 -9z m198 -32 c11 -19 9 -18 -18 2 -36 26 -37 29 -13 22 10 -2 24
-13 31 -24z m-60 6 c16 -8 32 -22 35 -32 6 -15 3 -14 -16 3 -13 12 -32 26 -43
32 -30 17 -8 14 24 -3z m205 -77 c15 -27 22 -48 16 -48 -6 0 -13 8 -17 18 -3
9 -14 29 -24 43 -10 14 -16 29 -12 33 3 3 7 5 8 4 1 -2 14 -24 29 -50z m-144
2 c6 -11 8 -20 6 -20 -3 0 -10 9 -16 20 -6 11 -8 20 -6 20 3 0 10 -9 16 -20z
m28 -55 c-3 -3 -9 2 -12 12 -6 14 -5 15 5 6 7 -7 10 -15 7 -18z m32 -50 c0 -5
-5 -3 -10 5 -5 8 -10 20 -10 25 0 6 5 3 10 -5 5 -8 10 -19 10 -25z m215 -116
c26 -44 45 -83 42 -85 -2 -3 -27 34 -55 81 -28 47 -47 85 -42 85 4 0 29 -36
55 -81z m-130 40 c-4 -5 -12 -9 -18 -8 -9 0 -8 2 1 6 6 2 9 10 6 15 -4 7 -2 8
5 4 6 -4 9 -12 6 -17z m-892 4 c-13 -2 -33 -2 -45 0 -13 2 -3 4 22 4 25 0 35
-2 23 -4z m857 -13 c6 -11 8 -20 6 -20 -3 0 -10 9 -16 20 -6 11 -8 20 -6 20 3
0 10 -9 16 -20z m-770 -10 c-8 -5 -24 -9 -35 -9 l-20 0 20 9 c11 5 27 9 35 9
13 1 13 0 0 -9z m163 -19 c10 -12 9 -13 -8 -6 -11 4 -40 11 -65 16 l-45 7 53
-1 c34 0 57 -6 65 -16z m47 -61 c16 -23 17 -28 6 -24 -9 3 -16 11 -16 17 0 6
-8 19 -17 30 -10 11 -13 17 -6 13 7 -3 22 -20 33 -36z m650 -61 c15 -28 5 -23
-15 7 -9 15 -12 23 -6 20 6 -4 16 -16 21 -27z m-605 -9 c9 -16 13 -30 11 -30
-3 0 -12 14 -21 30 -9 17 -13 30 -11 30 3 0 12 -13 21 -30z m788 -44 c16 -23
17 -27 4 -17 -10 8 -28 28 -40 45 -16 23 -17 27 -4 17 10 -8 28 -28 40 -45z
m-119 -51 l17 -30 -20 24 c-12 13 -21 28 -21 34 0 12 0 11 24 -28z m-584 -29
c38 -56 40 -73 2 -20 -36 50 -44 64 -38 64 3 0 19 -20 36 -44z m780 13 c0 -4
-7 -6 -15 -3 -8 4 -15 10 -15 15 0 4 7 6 15 3 8 -4 15 -10 15 -15z m2167 -21
c-3 -8 -6 -5 -6 6 -1 11 2 17 5 13 3 -3 4 -12 1 -19z m-2054 2 c9 0 17 -4 17
-9 0 -11 -79 -2 -100 11 -10 6 -2 7 25 4 22 -3 48 -6 58 -6z m-312 -15 c33
-14 33 -14 8 -15 -15 0 -32 7 -39 15 -16 19 -11 19 31 0z m139 -72 c0 4 17 -2
38 -13 44 -23 145 -50 186 -50 19 0 27 -3 20 -10 -12 -12 -125 0 -117 13 4 7
-6 8 -28 4 -26 -5 -30 -4 -19 4 12 8 9 9 -13 4 -25 -5 -36 2 -86 52 -31 32
-40 42 -19 23 21 -19 38 -31 38 -27z m380 57 c12 -8 11 -10 -5 -9 -11 1 -33 5
-50 9 l-30 8 35 1 c19 0 42 -4 50 -9z m244 -34 c22 -7 44 -20 50 -28 6 -8 31
-25 56 -37 45 -21 45 -21 10 -16 -21 3 -46 17 -63 35 -27 29 -39 33 -157 49
l-65 9 65 1 c36 0 83 -5 104 -13z m-1270 -47 c10 -17 31 -46 47 -64 17 -18 26
-36 21 -39 -5 -3 -24 19 -43 49 -19 30 -37 55 -40 55 -10 0 -20 30 -11 30 4 0
16 -14 26 -31z m2893 -6 c-3 -10 -5 -4 -5 12 0 17 2 24 5 18 2 -7 2 -21 0 -30z
m-1251 -51 c-7 -6 -76 10 -76 18 0 4 18 2 40 -3 22 -6 38 -13 36 -15z m151 8
c24 -12 31 -20 19 -20 -10 0 -29 9 -43 20 -14 11 -23 20 -19 20 3 0 23 -9 43
-20z m166 3 c3 -5 -7 -9 -21 -9 -15 -1 -38 -4 -52 -8 -21 -5 -20 -4 5 8 33 17
61 20 68 9z m51 -42 c-2 -3 -12 3 -22 13 -16 17 -16 18 5 5 12 -7 20 -15 17
-18z m-916 12 c-10 -2 -28 -2 -40 0 -13 2 -5 4 17 4 22 1 32 -1 23 -4z m1047
-8 c-51 -19 -67 -19 -35 -1 14 8 36 14 50 15 19 0 16 -3 -15 -14z m-998 -1
c-3 -3 -12 -4 -19 -1 -8 3 -5 6 6 6 11 1 17 -2 13 -5z m1238 -13 c3 -6 -18 -7
-52 -4 -76 8 -80 13 -10 13 31 0 58 -4 62 -9z m-1017 -8 c-10 -2 -28 -2 -40 0
-13 2 -5 4 17 4 22 1 32 -1 23 -4z m1254 -22 c4 -3 -33 -4 -82 -1 -48 3 -91 8
-95 11 -8 9 168 -1 177 -10z m-1129 2 c-7 -2 -21 -2 -30 0 -10 3 -4 5 12 5 17
0 24 -2 18 -5z m1277 -56 c10 -17 6 -16 -19 6 -18 15 -39 27 -47 27 -9 0 -12
5 -9 10 8 13 57 -15 75 -43z m-1055 33 c8 -13 -5 -13 -25 0 -13 8 -13 10 2 10
9 0 20 -4 23 -10z m298 -27 c-7 -2 -21 -2 -30 0 -10 3 -4 5 12 5 17 0 24 -2
18 -5z m357 -25 c10 -6 -1 -7 -34 -4 -27 3 -64 6 -83 6 -19 0 -32 4 -29 8 6
11 127 3 146 -10z m-2210 -8 c10 -6 -3 -7 -40 -3 -30 3 -57 7 -59 9 -10 9 85
3 99 -6z m-129 -33 c-4 -4 -64 -10 -132 -12 -68 -2 -113 -1 -99 2 l25 6 -25 7
c-14 4 34 7 107 6 73 0 128 -5 124 -9z m-384 -33 c-3 -3 -12 -4 -19 -1 -8 3
-5 6 6 6 11 1 17 -2 13 -5z m61 -1 c-10 -2 -26 -2 -35 0 -10 3 -2 5 17 5 19 0
27 -2 18 -5z m4912 -85 c0 -28 -2 -49 -4 -47 -8 9 -13 99 -5 99 5 0 9 -23 9
-52z m-1737 -40 c14 -32 24 -58 22 -58 -6 0 -65 116 -65 127 0 15 18 -14 43
-69z m51 -104 c3 -11 16 -45 31 -78 14 -32 24 -60 22 -62 -6 -6 -67 136 -67
154 0 20 9 10 14 -14z m1715 -29 l0 -20 -9 20 c-5 11 -9 29 -9 40 l0 20 9 -20
c5 -11 9 -29 9 -40z m-2974 -112 c31 -5 35 -8 20 -14 -30 -12 -155 -10 -130 2
17 8 16 9 -7 6 -16 -3 -28 0 -28 4 0 10 88 12 145 2z m1322 -35 c-3 -8 -6 -5
-6 6 -1 11 2 17 5 13 3 -3 4 -12 1 -19z m-1512 -3 c-22 -8 -51 -13 -65 -13
l-25 1 25 5 c19 5 14 8 -25 13 -40 5 -33 6 40 6 88 1 89 1 50 -12z m-195 -15
c11 -7 -1 -9 -40 -9 -46 1 -50 3 -25 9 43 11 48 11 65 0z m3397 -202 c-2 -13
-4 -3 -4 22 0 25 2 35 4 23 2 -13 2 -33 0 -45z m30 -160 c-2 -13 -4 -3 -4 22
0 25 2 35 4 23 2 -13 2 -33 0 -45z m848 -108 c3 -6 -1 -7 -9 -4 -18 7 -21 14
-7 14 6 0 13 -4 16 -10z m73 -124 c17 -34 24 -50 15 -37 -10 13 -33 52 -51 85
-18 34 -25 50 -15 37 10 -14 33 -52 51 -85z m-1937 -429 c-10 -9 -11 -8 -5 6
3 10 9 15 12 12 3 -3 0 -11 -7 -18z m1046 -54 c-3 -10 -5 -4 -5 12 0 17 2 24
5 18 2 -7 2 -21 0 -30z m-1078 -47 c-9 -8 -10 -7 -5 7 3 10 7 28 7 40 2 16 3
14 6 -7 3 -16 -1 -34 -8 -40z m540 20 c-9 -8 -10 -7 -5 7 3 10 7 24 7 30 1 7
3 4 6 -7 3 -10 -1 -23 -8 -30z m-20 -39 c0 -21 -1 -21 -9 -2 -8 18 -9 18 -10
-5 -2 -18 -4 -20 -7 -7 -6 24 4 50 17 42 5 -3 10 -16 9 -28z m528 -39 c-3 -8
-6 -5 -6 6 -1 11 2 17 5 13 3 -3 4 -12 1 -19z"/>
<path d="M7429 2341 c13 -12 28 -21 35 -21 12 0 -5 14 -39 31 -16 8 -15 6 4
-10z"/>
</g>
</svg>
