<?xml version="1.0" standalone="no"?>
<!DOCTYPE svg PUBLIC "-//W3C//DTD SVG 20010904//EN"
 "http://www.w3.org/TR/2001/REC-SVG-20010904/DTD/svg10.dtd">
<svg version="1.0" xmlns="http://www.w3.org/2000/svg"
 width="896.000000pt" height="1280.000000pt" viewBox="0 0 896.000000 1280.000000"
 preserveAspectRatio="xMidYMid meet">

<g transform="translate(0.000000,1280.000000) scale(0.100000,-0.100000)"
fill="#000000" stroke="none">
<path d="M3926 12288 c-4 -24 -9 -99 -12 -168 -3 -70 -11 -131 -17 -139 -7 -8
-13 -70 -15 -152 -3 -77 -8 -139 -13 -139 -5 0 -9 -36 -9 -80 l0 -80 -108 0
c-139 0 -152 -8 -152 -89 0 -40 -5 -63 -15 -71 -10 -8 -15 -31 -15 -69 -1 -33
-7 -64 -15 -75 -8 -11 -15 -39 -15 -62 0 -24 -4 -45 -9 -48 -9 -6 -17 -62 -29
-198 -4 -42 -13 -83 -19 -90 -7 -6 -13 -36 -13 -65 0 -50 -1 -53 -36 -69 -20
-9 -38 -23 -41 -31 -3 -7 -11 -13 -19 -13 -7 0 -29 -13 -47 -30 -19 -16 -39
-30 -44 -30 -6 0 -19 -11 -29 -25 -10 -14 -24 -25 -31 -25 -6 0 -25 -11 -41
-25 -17 -14 -37 -25 -46 -25 -8 0 -25 -13 -38 -30 -12 -16 -29 -30 -38 -30 -9
0 -37 -21 -61 -47 l-44 -47 -3 -126 c-2 -69 -7 -129 -12 -135 -4 -5 -11 -48
-15 -94 -5 -52 -13 -90 -22 -99 -9 -10 -50 -18 -111 -24 -94 -8 -145 -15 -319
-39 l-83 -12 0 -158 0 -159 24 0 c14 0 28 -4 31 -10 3 -5 18 -10 33 -10 15 0
36 -7 46 -15 11 -8 29 -15 40 -15 10 0 16 -3 12 -7 -4 -4 -45 -11 -92 -14 -97
-8 -124 -24 -124 -73 0 -17 -7 -40 -15 -50 -17 -23 -20 -104 -5 -157 15 -52
62 -79 168 -96 17 -3 32 -8 32 -12 0 -12 -102 -40 -159 -44 -30 -3 -57 -10
-62 -18 -5 -8 -9 -80 -9 -161 l0 -148 24 0 c14 0 28 -4 31 -10 3 -5 20 -10 36
-10 17 0 37 -7 45 -15 9 -8 26 -15 39 -15 13 0 27 -4 30 -10 3 -5 24 -10 45
-10 21 0 45 -7 54 -15 8 -8 29 -15 47 -15 l32 0 -7 -132 c-4 -73 -11 -182 -16
-243 -5 -60 -14 -170 -18 -243 -5 -76 -14 -138 -20 -144 -8 -8 -12 -55 -12
-134 0 -85 -4 -132 -15 -157 -10 -25 -15 -71 -15 -146 0 -60 -4 -112 -9 -115
-5 -3 -12 -64 -16 -136 -4 -72 -11 -133 -16 -136 -5 -3 -9 -53 -9 -112 0 -59
-4 -113 -9 -120 -14 -23 -21 12 -21 109 l0 89 -47 0 c-43 0 -54 -5 -102 -48
-30 -26 -84 -76 -120 -112 -36 -36 -84 -79 -106 -95 -22 -16 -58 -48 -80 -71
-22 -23 -49 -44 -60 -46 -11 -2 -21 -12 -23 -23 -1 -11 -19 -31 -40 -45 -20
-14 -69 -57 -107 -96 -39 -39 -81 -75 -93 -78 -36 -12 -54 -62 -59 -161 -3
-49 -11 -107 -19 -128 -9 -24 -14 -77 -14 -147 0 -60 -4 -111 -9 -114 -5 -3
-12 -60 -16 -126 -4 -66 -11 -123 -16 -126 -5 -3 -9 -58 -9 -123 0 -88 -4
-122 -15 -137 -10 -14 -14 -48 -15 -125 0 -65 -4 -109 -11 -116 -11 -11 -18
-82 -37 -378 -5 -66 -13 -130 -20 -142 -7 -12 -12 -62 -12 -117 0 -89 -12
-146 -32 -146 -12 0 -10 -148 2 -155 12 -8 13 -52 1 -59 -5 -3 -12 -46 -16
-96 -4 -49 -11 -90 -16 -90 -5 0 -9 -44 -9 -97 -1 -70 -5 -104 -15 -117 -10
-14 -15 -45 -15 -103 0 -75 -2 -83 -19 -83 -11 0 -23 -5 -26 -11 -4 -5 -18
-14 -31 -19 -23 -9 -24 -13 -24 -110 0 -91 2 -100 19 -100 10 0 21 -6 24 -14
7 -17 -29 -66 -47 -66 -8 0 -16 -17 -20 -38 -4 -27 -20 -50 -58 -88 -29 -28
-61 -55 -70 -60 -9 -5 -42 -33 -72 -62 -49 -48 -55 -58 -58 -100 l-3 -47 -70
-3 c-38 -2 -74 -7 -80 -12 -5 -4 -46 -11 -90 -15 -44 -4 -84 -11 -90 -15 -5
-4 -47 -10 -93 -12 -45 -3 -88 -10 -94 -16 -7 -7 -20 -12 -30 -12 -16 0 -18
-11 -18 -112 -1 -84 -4 -118 -15 -132 -24 -32 -17 -106 10 -106 7 0 26 -7 41
-15 16 -8 37 -15 46 -15 9 0 20 -4 23 -10 3 -5 24 -10 45 -10 21 0 45 -7 54
-15 8 -8 21 -15 29 -15 23 0 47 -11 47 -21 0 -5 -15 -9 -34 -9 -19 0 -36 -5
-38 -12 -2 -6 -37 -13 -88 -16 -111 -6 -150 -28 -150 -82 0 -22 -5 -42 -10
-45 -6 -4 -10 -56 -10 -124 l0 -119 34 -16 c19 -9 45 -16 59 -16 14 0 28 -4
31 -8 3 -5 31 -14 63 -21 32 -7 71 -19 86 -27 16 -8 40 -14 55 -14 18 0 23 -3
16 -10 -6 -6 -50 -15 -97 -20 -47 -5 -95 -13 -106 -19 -11 -6 -45 -11 -77 -11
-90 0 -94 -8 -94 -207 l0 -163 24 0 c13 0 26 -7 30 -15 3 -10 19 -15 46 -15
24 0 48 -7 56 -15 9 -8 26 -15 39 -15 12 0 36 -7 51 -15 16 -8 37 -15 46 -15
9 0 20 -4 23 -10 3 -5 21 -10 38 -10 18 -1 43 -7 57 -15 14 -8 42 -14 64 -15
l38 0 -6 -142 c-3 -79 -9 -208 -12 -288 -3 -80 -10 -149 -15 -154 -5 -6 -9
-80 -9 -166 l0 -156 38 4 c20 2 46 7 57 11 53 22 81 34 95 42 8 5 25 13 37 18
11 6 24 15 28 20 3 6 15 11 25 11 10 0 20 3 22 8 2 4 21 16 43 27 22 11 55 34
73 52 29 29 32 38 32 90 0 32 7 71 15 87 11 21 15 63 15 161 0 95 4 143 15
168 11 26 15 73 15 162 l0 125 39 0 c22 0 46 7 55 15 10 11 36 15 89 15 54 0
78 4 87 15 9 11 33 15 84 15 44 0 77 5 84 13 7 6 52 15 100 19 48 4 123 10
167 14 44 3 85 10 90 14 6 4 24 11 41 14 l31 7 7 107 c3 59 11 148 17 197 6
50 13 109 15 133 3 26 10 42 18 42 8 0 19 7 26 15 7 8 28 15 46 15 19 0 34 4
34 9 0 5 14 12 30 16 36 8 87 32 95 46 4 5 21 9 40 9 19 0 37 5 40 10 3 6 22
10 41 10 19 0 34 4 34 10 0 5 12 12 28 16 33 7 96 36 100 47 2 4 16 7 31 7 15
0 36 7 47 15 10 8 31 15 45 15 15 0 29 7 33 15 3 9 18 15 39 15 19 0 40 7 47
15 7 8 21 15 31 15 11 0 19 4 19 9 0 5 26 15 58 21 31 6 70 18 85 26 16 8 37
14 47 14 9 0 23 7 30 15 7 8 23 15 36 15 24 0 24 0 24 -123 0 -68 4 -127 9
-133 5 -5 11 -66 13 -136 2 -82 8 -132 16 -140 7 -7 12 -39 12 -76 0 -48 6
-73 24 -106 20 -36 25 -63 31 -170 4 -69 11 -129 16 -132 5 -3 9 -57 9 -120 0
-72 5 -123 12 -137 7 -12 16 -80 20 -152 14 -244 18 -274 41 -286 29 -16 86
-4 112 26 13 14 33 25 43 25 11 0 22 7 26 15 3 8 14 15 24 15 11 0 25 7 32 15
7 8 20 15 29 15 9 0 29 15 45 34 15 19 39 37 52 40 l24 6 0 240 0 240 90 0 90
0 4 768 c2 557 7 803 17 897 l14 130 30 -3 c17 -2 34 -8 40 -13 5 -5 17 -9 27
-9 10 0 21 -7 24 -15 4 -8 16 -15 29 -15 12 0 39 -7 58 -15 49 -20 215 -20
264 0 19 8 46 15 58 15 13 0 25 7 29 15 3 8 14 15 24 15 10 0 22 4 28 10 5 5
25 11 44 12 l35 3 7 -155 c7 -125 18 -806 27 -1557 l1 -113 38 0 c21 0 42 4
47 9 6 5 27 13 47 16 l38 7 2 -243 c3 -244 3 -244 25 -247 13 -2 37 -19 55
-38 18 -19 37 -34 43 -34 6 0 24 -14 40 -30 16 -17 37 -30 47 -30 10 0 21 -7
24 -15 4 -8 14 -15 23 -15 9 0 25 -7 35 -15 23 -17 69 -19 97 -5 16 9 19 22
19 74 0 34 7 85 15 112 8 28 15 88 15 140 0 56 6 108 15 134 8 23 15 75 15
114 0 39 5 147 12 241 11 155 14 172 35 195 20 21 23 35 23 101 0 49 5 87 15
105 11 21 15 61 15 141 0 64 4 114 10 118 6 4 10 55 10 121 0 113 0 114 24
114 13 0 29 -7 36 -15 7 -8 21 -15 32 -15 10 0 29 -6 41 -14 12 -8 46 -19 75
-26 28 -7 55 -16 58 -21 3 -5 15 -9 28 -9 12 0 31 -7 42 -15 10 -8 32 -15 47
-15 15 0 30 -7 33 -15 4 -8 15 -15 26 -15 11 0 26 -7 34 -15 9 -8 26 -15 39
-15 13 0 26 -4 29 -9 3 -5 22 -12 41 -15 19 -4 35 -11 35 -16 0 -6 15 -10 34
-10 18 0 39 -7 46 -15 7 -8 21 -15 31 -15 10 0 21 -4 24 -10 3 -5 19 -10 34
-10 16 0 34 -7 41 -15 7 -8 28 -15 46 -15 19 0 34 -4 34 -9 0 -5 16 -12 35
-15 19 -4 35 -11 35 -16 0 -6 8 -10 18 -10 10 0 27 -6 38 -14 11 -8 33 -16 49
-18 29 -3 30 -5 32 -63 1 -33 8 -140 14 -237 l12 -177 31 -7 c17 -3 36 -10 41
-14 6 -4 39 -10 75 -14 216 -19 252 -24 262 -34 7 -7 43 -12 88 -12 50 -1 81
-6 94 -15 13 -10 44 -15 94 -15 52 0 78 -4 88 -15 9 -8 33 -15 54 -15 l38 0 4
-147 c2 -90 8 -157 16 -170 8 -14 12 -69 12 -156 0 -97 4 -145 15 -170 8 -20
15 -64 15 -97 0 -57 1 -60 25 -60 14 0 25 -4 25 -10 0 -5 21 -19 46 -31 26
-11 55 -28 65 -37 23 -22 136 -82 155 -82 8 0 14 -4 14 -9 0 -15 46 -21 79
-10 23 8 32 18 36 42 16 85 -3 576 -24 615 -6 12 -11 68 -11 131 l0 111 44 0
c26 0 48 6 56 15 7 8 25 15 41 15 15 0 30 4 34 9 3 6 26 13 50 17 25 3 48 10
51 15 3 5 18 9 34 9 16 0 35 7 44 15 8 8 25 15 38 15 13 0 32 7 42 15 11 8 33
15 48 15 l28 0 -2 183 -3 182 -80 5 c-44 3 -87 10 -95 15 -8 6 -51 12 -94 15
-44 3 -81 10 -83 15 -5 15 50 45 82 45 32 0 106 20 120 32 5 4 18 8 30 8 12 0
30 7 41 15 10 8 27 15 37 15 15 0 17 13 17 129 0 76 -4 132 -10 136 -5 3 -10
20 -10 36 0 22 -7 32 -25 41 -14 6 -25 14 -25 18 0 4 -38 9 -84 12 -47 2 -91
9 -98 15 -7 7 -31 13 -52 15 -56 4 -60 28 -4 28 24 0 52 7 62 15 11 8 30 15
43 15 13 0 23 4 23 9 0 5 18 12 40 16 22 4 42 11 46 16 3 5 16 9 30 9 l25 0
-3 168 c-4 206 -2 203 -121 210 -45 2 -86 8 -92 12 -5 4 -49 11 -97 15 -49 4
-90 11 -94 16 -3 5 -40 9 -84 9 l-78 0 -7 49 c-5 38 -16 59 -52 100 -24 28
-65 63 -89 77 -51 30 -114 106 -114 138 -1 28 -21 53 -54 66 -33 12 -32 43 2
48 17 3 22 10 22 31 0 15 3 62 6 104 l7 77 -27 0 c-15 0 -29 7 -32 15 -4 8
-17 15 -30 15 -24 0 -24 1 -24 98 0 65 -4 102 -12 110 -8 8 -16 55 -20 110 -7
91 -19 200 -34 300 -4 27 -2 48 5 55 6 6 11 32 11 58 0 36 -6 55 -25 77 -23
28 -25 37 -25 145 0 79 -5 126 -15 150 -10 24 -15 69 -15 130 0 51 -4 97 -9
103 -5 5 -11 57 -13 116 -2 67 -8 112 -16 120 -8 8 -12 50 -12 129 0 81 -5
128 -15 152 -10 24 -15 69 -15 130 0 51 -4 97 -9 103 -5 5 -14 104 -20 219 -6
116 -18 239 -26 275 -9 36 -15 93 -15 127 0 36 -7 81 -17 105 -18 45 -98 138
-118 138 -7 0 -52 40 -101 90 -49 49 -95 90 -102 90 -6 0 -44 34 -83 75 -40
42 -82 78 -94 81 -13 3 -38 24 -56 47 -51 63 -127 134 -161 152 -37 18 -115
20 -120 3 -7 -21 -28 2 -28 31 0 15 -3 31 -7 35 -9 9 -30 221 -41 406 -4 69
-13 135 -20 147 -7 13 -12 63 -12 130 0 68 -4 113 -11 120 -7 7 -16 106 -24
265 -7 139 -18 266 -24 281 -6 16 -11 71 -11 123 l0 94 31 0 c17 0 37 7 45 15
9 8 29 15 45 15 16 0 29 5 29 10 0 6 12 10 26 10 14 0 38 6 52 14 40 20 95 36
125 36 l27 0 0 159 0 159 -72 7 c-40 4 -77 11 -83 15 -5 4 -25 11 -42 15 -37
7 -45 25 -11 25 25 0 76 15 130 39 33 14 39 22 48 64 14 68 12 142 -5 184 -8
19 -15 45 -15 58 0 21 -5 22 -95 28 -110 6 -124 12 -93 36 21 17 42 23 126 38
l32 5 0 164 0 164 -74 0 c-41 0 -77 4 -80 8 -3 5 -72 14 -153 21 -88 8 -157
19 -170 27 -12 8 -29 14 -36 14 -11 0 -16 21 -19 85 -2 47 -10 91 -16 97 -8 8
-12 52 -12 126 0 92 -4 121 -20 158 -11 24 -27 44 -35 44 -8 0 -18 6 -22 14
-10 17 -124 96 -140 96 -6 0 -20 11 -31 25 -11 14 -26 25 -34 25 -7 0 -26 12
-43 28 -30 28 -38 34 -95 67 -49 29 -79 60 -84 87 -10 54 -38 186 -48 228 -6
25 -13 65 -16 90 -2 25 -8 49 -13 55 -5 5 -9 32 -9 60 0 27 -7 63 -15 79 -8
15 -15 45 -15 65 0 20 -7 45 -15 55 -9 12 -15 42 -15 72 0 75 -16 84 -150 84
l-106 0 -17 228 c-10 125 -21 282 -27 349 -5 67 -14 131 -19 142 -6 11 -11 33
-11 50 l0 31 -190 0 -190 0 0 -520 c0 -340 3 -520 10 -520 6 0 10 -26 10 -58
0 -33 5 -63 13 -70 9 -10 12 -222 12 -991 0 -1008 1 -980 -36 -1053 -5 -10 -9
-260 -9 -557 l0 -540 -27 -3 c-26 -3 -28 -7 -31 -55 l-3 -53 -114 0 -114 0 -3
53 c-3 44 -6 52 -24 55 l-21 3 -8 542 c-4 298 -11 547 -16 552 -25 32 -29 182
-29 1069 0 882 5 1081 29 1126 5 9 12 242 16 518 l7 502 -195 0 -195 0 -6 -42z
m272 -133 c-3 -3 -9 2 -12 12 -6 14 -5 15 5 6 7 -7 10 -15 7 -18z m-187 -95
l-7 -65 -6 57 c-7 62 0 110 12 87 4 -8 5 -43 1 -79z m956 -7 c-3 -10 -5 -2 -5
17 0 19 2 27 5 18 2 -10 2 -26 0 -35z m10 -60 c-3 -10 -5 -4 -5 12 0 17 2 24
5 18 2 -7 2 -21 0 -30z m-980 -35 c-3 -7 -5 -2 -5 12 0 14 2 19 5 13 2 -7 2
-19 0 -25z m-16 -246 c-9 -14 -10 -12 -11 13 0 17 4 55 8 85 l7 55 3 -68 c2
-37 -2 -75 -7 -85z m1022 -14 c2 -27 1 -48 -4 -48 -5 0 -9 26 -8 58 1 64 5 60
12 -10z m-1026 -55 c-3 -10 -5 -4 -5 12 0 17 2 24 5 18 2 -7 2 -21 0 -30z
m1040 -170 c-2 -16 -4 -3 -4 27 0 30 2 43 4 28 2 -16 2 -40 0 -55z m-1056 2
l-9 -50 -1 60 c-1 37 2 56 9 49 5 -5 6 -29 1 -59z m829 -17 c0 -19 -2 -20 -10
-8 -13 19 -13 30 0 30 6 0 10 -10 10 -22z m-636 -95 c-16 -26 -32 -55 -36 -63
-5 -12 -7 -12 -7 -1 -1 17 59 124 66 117 3 -3 -7 -27 -23 -53z m682 -4 c14
-28 24 -53 22 -55 -2 -2 -16 21 -31 51 -15 30 -25 55 -22 55 3 0 16 -23 31
-51z m-1071 31 c4 -7 -3 -8 -22 -4 -38 9 -42 14 -10 14 14 0 29 -5 32 -10z
m166 -165 l-9 -60 -1 46 c0 26 2 62 6 80 12 53 15 4 4 -66z m959 30 c0 -8 -4
-15 -10 -15 -5 0 -10 7 -10 15 0 8 5 15 10 15 6 0 10 -7 10 -15z m-803 -17
c-3 -8 -6 -5 -6 6 -1 11 2 17 5 13 3 -3 4 -12 1 -19z m758 -38 c5 -23 4 -32
-3 -25 -5 6 -12 28 -15 50 -7 47 7 27 18 -25z m202 23 c-3 -10 -5 -4 -5 12 0
17 2 24 5 18 2 -7 2 -21 0 -30z m-908 -57 c-9 -8 -10 -5 -5 14 3 14 6 32 7 40
1 8 4 2 6 -14 3 -16 -1 -34 -8 -40z m748 42 c-3 -8 -6 -5 -6 6 -1 11 2 17 5
13 3 -3 4 -12 1 -19z m281 -6 c8 -6 2 -9 -18 -9 -20 0 -26 3 -18 9 7 4 15 8
18 8 3 0 11 -4 18 -8z m94 -16 c10 6 11 4 0 -7 -10 -11 -15 -10 -30 6 -15 17
-15 18 0 6 9 -7 23 -9 30 -5z m-132 -98 c0 -39 -2 -69 -4 -67 -8 9 -13 139 -5
139 5 0 9 -32 9 -72z m-334 -1804 c14 6 15 4 4 -9 -12 -15 -14 -15 -22 -1 -12
21 -19 1022 -10 1486 6 325 7 241 10 -549 2 -859 3 -933 18 -927z m-669 1703
c-2 -23 -3 -1 -3 48 0 50 1 68 3 42 2 -26 2 -67 0 -90z m720 66 c-2 -16 -4 -5
-4 22 0 28 2 40 4 28 2 -13 2 -35 0 -50z m-1002 -122 c-12 -63 -17 -23 -8 71
l8 93 3 -65 c2 -36 0 -80 -3 -99z m1455 117 c0 -38 -5 -34 -13 10 -4 21 -3 31
3 27 6 -3 10 -20 10 -37z m-1613 -50 c-2 -13 -4 -5 -4 17 -1 22 1 32 4 23 2
-10 2 -28 0 -40z m220 20 c-3 -8 -6 -5 -6 6 -1 11 2 17 5 13 3 -3 4 -12 1 -19z
m1166 -48 c4 -40 2 -57 -3 -45 -8 19 -14 123 -6 114 2 -2 6 -33 9 -69z m-863
-172 c0 -127 -2 -229 -5 -227 -14 15 -14 459 1 459 2 0 4 -104 4 -232z m637
170 c-2 -13 -4 -5 -4 17 -1 22 1 32 4 23 2 -10 2 -28 0 -40z m290 -35 c-2 -16
-4 -5 -4 22 0 28 2 40 4 28 2 -13 2 -35 0 -50z m172 24 c0 -27 -2 -29 -9 -12
-12 28 -12 57 0 50 6 -3 10 -21 9 -38z m-1412 -94 c-3 -10 -5 -2 -5 17 0 19 2
27 5 18 2 -10 2 -26 0 -35z m1455 -17 c1 -20 -2 -39 -5 -43 -4 -3 -7 15 -7 42
0 55 10 56 12 1z m-1285 -353 c-1 -71 -3 -13 -3 127 0 140 2 198 3 128 2 -71
2 -185 0 -255z m1095 230 c5 -149 -9 -131 -17 22 -4 77 -3 115 3 105 6 -8 12
-65 14 -127z m-255 -60 c-2 -32 -3 -8 -3 52 0 61 1 87 3 58 2 -29 2 -78 0
-110z m-1250 75 c-2 -13 -4 -5 -4 17 -1 22 1 32 4 23 2 -10 2 -28 0 -40z m460
20 c-3 -7 -5 -2 -5 12 0 14 2 19 5 13 2 -7 2 -19 0 -25z m1180 10 c-3 -8 -6
-5 -6 6 -1 11 2 17 5 13 3 -3 4 -12 1 -19z m25 -13 c-6 -34 -12 -32 -12 6 0
16 4 28 9 25 4 -3 6 -17 3 -31z m-1517 -160 c-9 -43 -13 -53 -10 -25 3 25 9
77 13 115 6 62 7 65 10 25 1 -25 -4 -76 -13 -115z m78 83 c-6 -96 -11 -101
-12 -15 0 42 3 77 7 77 5 0 7 -28 5 -62z m1214 -45 c-2 -21 -4 -6 -4 32 0 39
2 55 4 38 2 -18 2 -50 0 -70z m-1420 55 c-3 -8 -6 -5 -6 6 -1 11 2 17 5 13 3
-3 4 -12 1 -19z m1650 -25 c-3 -10 -5 -4 -5 12 0 17 2 24 5 18 2 -7 2 -21 0
-30z m44 -100 c-9 -16 -10 -15 -11 9 0 14 3 35 8 45 6 15 8 14 10 -9 2 -15 -1
-35 -7 -45z m-1734 15 c-3 -7 -5 -2 -5 12 0 14 2 19 5 13 2 -7 2 -19 0 -25z
m1270 -25 c-3 -10 -5 -2 -5 17 0 19 2 27 5 18 2 -10 2 -26 0 -35z m200 15 c-3
-8 -6 -5 -6 6 -1 11 2 17 5 13 3 -3 4 -12 1 -19z m-1240 -20 c-3 -8 -6 -5 -6
6 -1 11 2 17 5 13 3 -3 4 -12 1 -19z m1313 -81 c-6 -24 -8 -15 -8 38 0 58 2
64 8 32 4 -21 4 -53 0 -70z m-1063 -14 c-2 -16 -4 -3 -4 27 0 30 2 43 4 28 2
-16 2 -40 0 -55z m-260 20 c-3 -10 -5 -2 -5 17 0 19 2 27 5 18 2 -10 2 -26 0
-35z m-68 -83 c-4 -52 -11 -144 -15 -203 -4 -59 -10 -109 -13 -111 -3 -2 -3
39 1 92 4 54 10 153 14 220 4 68 10 118 14 110 4 -7 4 -56 -1 -108z m1558 23
c-3 -10 -5 -4 -5 12 0 17 2 24 5 18 2 -7 2 -21 0 -30z m-1498 -163 c-5 -61 -6
-50 -6 60 0 95 2 117 6 75 4 -33 4 -94 0 -135z m1268 128 c-2 -13 -4 -5 -4 17
-1 22 1 32 4 23 2 -10 2 -28 0 -40z m75 -20 c2 -21 0 -38 -4 -38 -4 0 -7 24
-7 53 1 54 5 49 11 -15z m-65 -75 c-2 -16 -4 -5 -4 22 0 28 2 40 4 28 2 -13 2
-35 0 -50z m-276 -171 c-8 -13 -9 -11 -7 13 2 17 5 68 7 115 l3 85 3 -98 c2
-53 -1 -105 -6 -115z m357 143 c-3 -3 -9 2 -12 12 -6 14 -5 15 5 6 7 -7 10
-15 7 -18z m-1001 -27 c-3 -7 -5 -2 -5 12 0 14 2 19 5 13 2 -7 2 -19 0 -25z
m-150 -60 c-2 -13 -4 -3 -4 22 0 25 2 35 4 23 2 -13 2 -33 0 -45z m1150 -30
c-2 -18 -4 -4 -4 32 0 36 2 50 4 33 2 -18 2 -48 0 -65z m-1640 50 c-3 -7 -5
-2 -5 12 0 14 2 19 5 13 2 -7 2 -19 0 -25z m1350 -20 c-2 -13 -4 -5 -4 17 -1
22 1 32 4 23 2 -10 2 -28 0 -40z m-720 -45 c-3 -10 -5 -4 -5 12 0 17 2 24 5
18 2 -7 2 -21 0 -30z m650 -350 c-1 -60 -3 -11 -3 107 0 118 2 167 3 108 2
-60 2 -156 0 -215z m-939 300 c-10 -2 -26 -2 -35 0 -10 3 -2 5 17 5 19 0 27
-2 18 -5z m1215 0 c-7 -2 -21 -2 -30 0 -10 3 -4 5 12 5 17 0 24 -2 18 -5z
m-1370 -61 c-3 -12 -9 -22 -14 -22 -5 0 -3 11 3 25 13 30 20 28 11 -3z m444
-49 c-2 -16 -4 -3 -4 27 0 30 2 43 4 28 2 -16 2 -40 0 -55z m-610 20 c-3 -10
-5 -4 -5 12 0 17 2 24 5 18 2 -7 2 -21 0 -30z m461 -24 c-3 -8 -7 -3 -11 10
-4 17 -3 21 5 13 5 -5 8 -16 6 -23z m-55 14 c-7 -2 -19 -2 -25 0 -7 3 -2 5 12
5 14 0 19 -2 13 -5z m1519 -55 c-9 -9 -12 -4 -11 23 0 32 1 33 11 11 8 -17 8
-26 0 -34z m-1935 -5 c-3 -10 -5 -2 -5 17 0 19 2 27 5 18 2 -10 2 -26 0 -35z
m163 -98 c-6 -13 -8 9 -8 60 l1 80 7 -60 c4 -32 4 -68 0 -80z m143 98 c-3 -21
-9 -45 -14 -53 -8 -14 -2 48 7 78 8 26 12 10 7 -25z m1214 -30 c-2 -16 -4 -5
-4 22 0 28 2 40 4 28 2 -13 2 -35 0 -50z m146 -50 c2 -46 0 -83 -5 -83 -4 0
-7 44 -7 98 1 111 6 105 12 -15z m284 15 c-3 -8 -6 -5 -6 6 -1 11 2 17 5 13 3
-3 4 -12 1 -19z m-1930 -50 c-3 -8 -6 -5 -6 6 -1 11 2 17 5 13 3 -3 4 -12 1
-19z m1942 -60 c-2 -58 -3 -65 -8 -33 -6 39 -3 105 5 105 2 0 3 -33 3 -72z
m-1432 -5 c-2 -16 -4 -5 -4 22 0 28 2 40 4 28 2 -13 2 -35 0 -50z m-587 -111
c-11 -16 -11 -16 -6 1 3 10 7 53 8 95 l2 77 3 -78 c2 -46 -1 -84 -7 -95z m206
60 c-11 -10 -15 4 -8 28 l7 25 3 -23 c2 -13 1 -26 -2 -30z m1536 -74 c2 -49 1
-88 -4 -88 -4 0 -8 35 -8 78 0 42 -3 88 -6 102 -4 18 -3 21 4 10 5 -8 12 -54
14 -102z m-1705 60 c-3 -7 -5 -2 -5 12 0 14 2 19 5 13 2 -7 2 -19 0 -25z m580
-10 c-3 -8 -6 -5 -6 6 -1 11 2 17 5 13 3 -3 4 -12 1 -19z m992 -87 c1 -89 -5
-73 -12 29 -3 50 -2 75 3 60 4 -14 8 -54 9 -89z m-1420 -55 c-9 -8 -10 -7 -5
7 3 10 7 46 8 80 l2 62 3 -69 c3 -45 0 -73 -8 -80z m1141 -1 l4 60 3 -49 c3
-27 -2 -68 -11 -94 -9 -25 -16 -60 -16 -78 0 -18 -5 -36 -12 -40 -6 -4 -8 -3
-5 3 4 6 7 35 8 66 1 31 5 55 8 52 4 -2 6 42 5 98 l-1 102 7 -90 c6 -87 6 -88
10 -30z m-990 70 c0 -19 -4 -37 -10 -40 -6 -4 -10 12 -10 40 0 28 4 44 10 40
6 -3 10 -21 10 -40z m257 -52 c-3 -10 -5 -2 -5 17 0 19 2 27 5 18 2 -10 2 -26
0 -35z m2083 23 c0 -2 -8 -10 -17 -17 -16 -13 -17 -12 -4 4 13 16 21 21 21 13z
m195 -16 c-3 -5 -12 -10 -18 -10 -7 0 -6 4 3 10 19 12 23 12 15 0z m-928 -42
c-3 -8 -6 -5 -6 6 -1 11 2 17 5 13 3 -3 4 -12 1 -19z m-1960 -10 c-3 -8 -6 -5
-6 6 -1 11 2 17 5 13 3 -3 4 -12 1 -19z m1771 -53 l1 -20 -9 20 c-5 11 -8 31
-8 45 l0 25 8 -25 c4 -14 8 -34 8 -45z m199 -47 c-2 -18 -4 -6 -4 27 0 33 2
48 4 33 2 -15 2 -42 0 -60z m-1784 -66 c-3 -67 -9 -122 -12 -122 -3 0 -3 51 1
112 3 62 7 119 7 127 1 8 3 12 6 9 3 -2 2 -59 -2 -126z m434 106 c-3 -8 -6 -5
-6 6 -1 11 2 17 5 13 3 -3 4 -12 1 -19z m-600 -50 c-3 -7 -5 -2 -5 12 0 14 2
19 5 13 2 -7 2 -19 0 -25z m626 -20 c4 -28 11 -56 17 -62 15 -15 12 -30 -4
-17 -7 6 -16 28 -20 49 -3 20 -9 47 -12 60 -4 12 -2 22 3 22 6 0 13 -23 16
-52z m1137 -15 c-1 -31 -3 -35 -11 -20 -6 9 -7 26 -4 37 10 30 15 24 15 -17z
m401 28 c-12 -8 -12 -12 -2 -25 8 -9 9 -16 3 -16 -12 0 -24 29 -16 41 3 5 11
9 17 9 8 0 7 -4 -2 -9z m-1494 -43 c-3 -8 -6 -5 -6 6 -1 11 2 17 5 13 3 -3 4
-12 1 -19z m-897 8 c0 -11 -19 -15 -25 -6 -3 5 1 10 9 10 9 0 16 -2 16 -4z
m247 -63 c-3 -10 -5 -4 -5 12 0 17 2 24 5 18 2 -7 2 -21 0 -30z m1745 -40 c2
-23 0 -39 -4 -37 -5 3 -7 29 -7 57 1 56 6 48 11 -20z m-1245 25 c-3 -8 -6 -5
-6 6 -1 11 2 17 5 13 3 -3 4 -12 1 -19z m890 -430 c-1 -79 -3 -15 -3 142 0
157 2 221 3 143 2 -79 2 -207 0 -285z m-896 107 l-8 -300 0 265 c0 242 4 347
13 338 1 -2 -1 -138 -5 -303z m1461 238 c2 -23 0 -39 -4 -37 -5 3 -7 29 -7 57
1 56 6 48 11 -20z m-2025 -55 c-2 -18 -4 -6 -4 27 0 33 2 48 4 33 2 -15 2 -42
0 -60z m1833 -12 c0 -26 -6 -18 -14 19 -5 22 -4 26 4 15 5 -8 10 -24 10 -34z
m-1803 -28 c-2 -13 -4 -3 -4 22 0 25 2 35 4 23 2 -13 2 -33 0 -45z m160 -30
c-2 -13 -4 -5 -4 17 -1 22 1 32 4 23 2 -10 2 -28 0 -40z m1810 -10 c-2 -13 -4
-5 -4 17 -1 22 1 32 4 23 2 -10 2 -28 0 -40z m-1970 -10 c-3 -8 -6 -5 -6 6 -1
11 2 17 5 13 3 -3 4 -12 1 -19z m-47 -42 c0 -2 -8 -10 -17 -17 -16 -13 -17
-12 -4 4 13 16 21 21 21 13z m2007 -21 c-4 -9 -18 -15 -34 -14 l-28 1 28 10
c15 5 27 15 27 21 0 5 3 8 6 4 4 -3 4 -13 1 -22z m-1797 -15 c0 -5 -8 -10 -17
-10 -15 0 -16 2 -3 10 19 12 20 12 20 0z m1919 -65 c0 -5 -4 -3 -9 5 -5 8 -9
22 -9 30 0 16 17 -16 18 -35z m-97 -20 c3 -13 1 -22 -3 -19 -9 5 -13 44 -5 44
2 0 6 -11 8 -25z m-5 -71 c-3 -3 -12 -4 -19 -1 -8 3 -5 6 6 6 11 1 17 -2 13
-5z m1083 -54 c0 -5 -8 -10 -17 -10 -15 0 -16 2 -3 10 19 12 20 12 20 0z
m-2920 -37 c0 -5 -24 -7 -52 -5 -89 5 -97 9 -20 11 39 0 72 -2 72 -6z m1705
-3 c-27 -12 -35 -12 -35 0 0 6 12 10 28 9 24 0 25 -1 7 -9z m1112 4 c-3 -3
-12 -4 -19 -1 -8 3 -5 6 6 6 11 1 17 -2 13 -5z m-1030 -10 c-3 -3 -12 -4 -19
-1 -8 3 -5 6 6 6 11 1 17 -2 13 -5z m-1957 -54 c9 -16 8 -18 -5 -14 -8 4 -15
12 -15 20 0 20 7 17 20 -6z m150 -25 c-7 -8 -21 -15 -31 -15 -15 0 -14 4 9 28
27 27 46 16 22 -13z m1868 22 c9 3 15 4 12 0 -3 -3 -24 -12 -48 -20 l-42 -15
28 27 c16 16 28 21 30 14 2 -7 11 -9 20 -6z m-95 -44 c-7 -2 -19 -2 -25 0 -7
3 -2 5 12 5 14 0 19 -2 13 -5z m115 -58 c-3 -3 -9 2 -12 12 -6 14 -5 15 5 6 7
-7 10 -15 7 -18z m-1928 5 c18 -12 2 -12 -25 0 -13 6 -15 9 -5 9 8 0 22 -4 30
-9z m22 -84 c7 4 8 2 4 -4 -4 -7 -16 -12 -27 -12 -16 0 -18 2 -7 14 7 8 15 10
16 5 2 -5 9 -6 14 -3z m-38 -72 c9 -3 16 -10 16 -16 0 -5 -6 -6 -12 -1 -7 4
-33 10 -58 14 l-45 6 42 2 c23 0 48 -2 57 -5z m1931 -3 c3 -6 -10 -7 -32 -4
-50 8 -55 13 -10 13 20 0 38 -4 42 -9z m-1885 -36 c0 -23 -41 -65 -64 -65 -6
0 4 10 22 22 28 17 33 26 30 49 -3 15 -1 26 4 23 4 -3 8 -16 8 -29z m1760 -25
c0 -11 -4 -20 -9 -20 -7 0 -8 17 -2 38 4 10 11 -2 11 -18z m106 -35 c-11 -8
-25 -15 -30 -15 -6 1 0 7 14 15 32 19 40 18 16 0z m-1986 -11 c0 -2 -7 -4 -15
-4 -8 0 -15 4 -15 10 0 5 7 7 15 4 8 -4 15 -8 15 -10z m-45 -54 c-3 -5 -12
-10 -18 -10 -7 0 -6 4 3 10 19 12 23 12 15 0z m82 -6 c-3 -3 -12 -4 -19 -1 -8
3 -5 6 6 6 11 1 17 -2 13 -5z m1858 -5 c11 -16 1 -19 -13 -3 -7 8 -8 14 -3 14
5 0 13 -5 16 -11z m72 5 c-3 -3 -12 -4 -19 -1 -8 3 -5 6 6 6 11 1 17 -2 13 -5z
m-2050 -36 c-3 -8 -6 -5 -6 6 -1 11 2 17 5 13 3 -3 4 -12 1 -19z m2144 -39 c7
-13 7 -19 1 -15 -6 3 -13 2 -17 -4 -3 -5 -12 -10 -18 -10 -7 0 -4 7 7 15 10 7
15 18 11 24 -3 6 -4 11 -1 11 3 0 10 -10 17 -21z m-1981 -9 c0 -5 -10 -10 -22
-9 -22 0 -22 1 -3 9 11 5 21 9 23 9 1 1 2 -3 2 -9z m-60 -10 c11 -7 3 -10 -28
-10 -26 0 -41 4 -37 10 8 13 45 13 65 0z m1983 -7 c-7 -2 -21 -2 -30 0 -10 3
-4 5 12 5 17 0 24 -2 18 -5z m-2020 -60 c-7 -2 -19 -2 -25 0 -7 3 -2 5 12 5
14 0 19 -2 13 -5z m2047 -3 c0 -5 -7 -7 -15 -4 -8 4 -15 8 -15 10 0 2 7 4 15
4 8 0 15 -4 15 -10z m-2084 -12 c4 -7 3 -8 -5 -4 -6 4 -20 2 -29 -6 -15 -12
-16 -11 -3 5 16 20 27 22 37 5z m98 2 c15 -5 26 -17 26 -27 -1 -17 -1 -17 -14
0 -7 9 -18 17 -24 17 -6 0 -14 5 -17 10 -8 12 -3 13 29 0z m1926 6 c0 -4 -59
-36 -67 -36 -1 0 -3 4 -3 9 0 5 12 14 28 19 31 12 42 14 42 8z m-1900 -86 c0
-5 -4 -10 -10 -10 -5 0 -10 5 -10 10 0 6 5 10 10 10 6 0 10 -4 10 -10z m-82
-7 c-10 -2 -26 -2 -35 0 -10 3 -2 5 17 5 19 0 27 -2 18 -5z m2031 3 c-2 -2
-22 -6 -44 -9 -27 -4 -35 -3 -25 3 14 9 79 15 69 6z m-2049 -56 c0 -5 -18 -10
-40 -10 -22 0 -40 5 -40 10 0 6 18 10 40 10 22 0 40 -4 40 -10z m2083 -7 c-7
-2 -19 -2 -25 0 -7 3 -2 5 12 5 14 0 19 -2 13 -5z m-63 -7 c0 -2 -9 -6 -20 -9
-11 -3 -18 -1 -14 4 5 9 34 13 34 5z m-2100 -47 c0 -18 -18 -9 -23 12 -4 16
-3 18 9 8 8 -6 14 -15 14 -20z m2209 -14 l0 -20 -9 20 c-5 11 -9 27 -9 35 -1
13 0 13 9 0 5 -8 9 -24 9 -35z m88 -32 c-2 -16 -4 -5 -4 22 0 28 2 40 4 28 2
-13 2 -35 0 -50z m-2142 6 c-4 -5 -15 -9 -26 -9 -26 0 -17 15 10 17 12 1 19
-2 16 -8z m352 -21 c-3 -7 -5 -2 -5 12 0 14 2 19 5 13 2 -7 2 -19 0 -25z
m1180 -30 c-2 -13 -4 -5 -4 17 -1 22 1 32 4 23 2 -10 2 -28 0 -40z m491 45
c-10 -2 -28 -2 -40 0 -13 2 -5 4 17 4 22 1 32 -1 23 -4z m-521 -100 c-2 -21
-4 -6 -4 32 0 39 2 55 4 38 2 -18 2 -50 0 -70z m-1110 -275 c-1 -68 -3 -15 -3
117 0 132 2 187 3 123 2 -64 2 -172 0 -240z m-497 293 c-47 -5 -55 -9 -61 -31
l-7 -25 -1 27 c-1 32 9 37 74 36 l50 -1 -55 -6z m94 1 c2 -4 -4 -8 -15 -8 -10
0 -19 4 -19 8 0 4 6 8 14 8 8 0 17 -4 20 -8z m1956 4 c0 -2 -7 -7 -16 -10 -8
-3 -12 -2 -9 4 6 10 25 14 25 6z m105 -6 c3 -6 -1 -7 -9 -4 -18 7 -21 14 -7
14 6 0 13 -4 16 -10z m-153 -27 c-3 -16 -7 -22 -10 -15 -4 13 4 42 11 42 2 0
2 -12 -1 -27z m-355 -450 c-1 -82 -3 -15 -3 147 0 162 2 229 3 148 2 -82 2
-214 0 -295z m505 415 c-14 -14 -44 -20 -36 -7 3 5 9 7 14 4 5 -3 11 -1 15 5
3 5 9 10 13 10 3 0 1 -5 -6 -12z m-2072 -33 c-14 -16 -50 -21 -50 -6 0 8 15
14 54 20 5 0 3 -6 -4 -14z m367 -582 c-1 -109 -2 -20 -2 197 0 217 1 306 2
198 2 -109 2 -287 0 -395z m1594 569 c-13 -2 -27 0 -32 5 -6 6 3 7 23 4 28 -4
29 -6 9 -9z m236 -69 c-3 -10 -5 -2 -5 17 0 19 2 27 5 18 2 -10 2 -26 0 -35z
m-2222 6 c5 -5 -5 -4 -23 2 -17 6 -32 13 -32 16 0 7 43 -8 55 -18z m2035 17
c0 -2 -13 -9 -30 -15 -35 -12 -41 -5 -7 9 25 10 37 12 37 6z m-2203 -48 c-3
-8 -6 -5 -6 6 -1 11 2 17 5 13 3 -3 4 -12 1 -19z m1710 -370 c-1 -73 -3 -16
-3 127 0 143 2 203 3 133 2 -70 2 -187 0 -260z m579 337 c-11 -8 -25 -15 -30
-15 -6 1 0 7 14 15 32 19 40 18 16 0z m-83 -12 c-7 -2 -21 -2 -30 0 -10 3 -4
5 12 5 17 0 24 -2 18 -5z m-2166 -88 c0 -8 -4 -12 -9 -9 -4 3 -8 9 -8 15 0 5
4 9 8 9 5 0 9 -7 9 -15z m66 8 c-7 -2 -19 -2 -25 0 -7 3 -2 5 12 5 14 0 19 -2
13 -5z m2182 -2 c9 -16 -9 -20 -23 -5 -10 12 -10 14 2 14 8 0 17 -4 21 -9z
m-2101 -181 c-7 -15 -9 -8 -10 32 -1 50 0 51 9 20 6 -19 6 -40 1 -52z m423 8
c-2 -13 -4 -5 -4 17 -1 22 1 32 4 23 2 -10 2 -28 0 -40z m-446 -95 c-9 -16
-10 -16 -11 4 0 12 3 30 7 40 7 16 8 16 11 -4 2 -12 -1 -30 -7 -40z m-164 -45
c-3 -7 -5 -2 -5 12 0 14 2 19 5 13 2 -7 2 -19 0 -25z m-10 -60 c-3 -8 -6 -5
-6 6 -1 11 2 17 5 13 3 -3 4 -12 1 -19z m-10 -120 c-2 -18 -4 -4 -4 32 0 36 2
50 4 33 2 -18 2 -48 0 -65z m181 31 c-3 -8 -7 -3 -11 10 -4 17 -3 21 5 13 5
-5 8 -16 6 -23z m2247 11 c-3 -5 -14 -10 -23 -9 -14 0 -13 2 3 9 27 11 27 11
20 0z m-688 -97 c-2 -21 -4 -6 -4 32 0 39 2 55 4 38 2 -18 2 -50 0 -70z m753
51 c0 -7 -4 -15 -9 -18 -5 -4 -7 4 -3 16 3 12 1 19 -4 15 -5 -3 -10 3 -10 14
0 19 1 19 13 3 7 -10 13 -23 13 -30z m-2596 21 c-4 -8 -11 -12 -16 -9 -6 4 -5
10 3 15 19 12 19 11 13 -6z m2496 -59 c0 -2 -7 -3 -15 -3 -11 0 -15 11 -15 36
l1 36 14 -34 c8 -18 15 -34 15 -35z m-191 -15 c1 -48 -5 -35 -12 24 -4 32 -3
43 3 30 5 -11 9 -35 9 -54z m-2324 49 c3 -5 1 -10 -4 -10 -6 0 -11 5 -11 10 0
6 2 10 4 10 3 0 8 -4 11 -10z m95 -44 c-7 -7 -10 1 -9 25 0 32 1 33 10 10 6
-16 6 -28 -1 -35z m189 -78 c0 -72 -3 -95 -9 -75 -8 25 -2 177 6 177 2 0 4
-46 3 -102z m2340 50 c-1 -31 -1 -31 -8 -8 -5 14 -6 28 -4 33 9 15 13 6 12
-25z m-2637 -15 c-3 -16 -7 -22 -10 -15 -4 13 4 42 11 42 2 0 2 -12 -1 -27z
m3288 -15 c0 -10 -5 -18 -10 -18 -15 0 -23 27 -16 47 6 15 8 15 16 3 6 -8 10
-23 10 -32z m-941 -35 c0 -29 -2 -33 -8 -18 -7 18 -4 55 5 55 2 0 4 -17 3 -37z
m-2369 -100 c-7 -23 -8 -18 -8 27 0 45 1 50 8 28 5 -16 5 -40 0 -55z m127 1
c2 -13 1 -15 -4 -4 -3 8 -11 19 -17 23 -7 6 -6 7 4 4 8 -2 16 -12 17 -23z
m2434 -21 c-9 -16 -10 -14 -11 12 0 21 3 26 11 18 8 -8 8 -16 0 -30z m521 -82
c-8 -21 -21 16 -20 59 l0 35 13 -40 c6 -22 10 -46 7 -54z m-702 30 c0 -32 -6
-24 -14 19 -4 25 -3 31 4 20 5 -8 10 -26 10 -39z m-2233 17 c-3 -8 -6 -5 -6 6
-1 11 2 17 5 13 3 -3 4 -12 1 -19z m145 0 c-7 -7 -12 -8 -12 -2 0 14 12 26 19
19 2 -3 -1 -11 -7 -17z m-685 -50 c-2 -13 -4 -3 -4 22 0 25 2 35 4 23 2 -13 2
-33 0 -45z m2943 40 c-1 -7 -7 -24 -15 -38 l-14 -25 -1 31 c0 17 3 34 7 37 10
11 23 8 23 -5z m-2251 -110 c1 -20 -3 -40 -9 -43 -6 -4 -10 17 -9 57 0 68 17
56 18 -14z m2088 25 c-3 -10 -5 -2 -5 17 0 19 2 27 5 18 2 -10 2 -26 0 -35z
m-2450 -80 c-2 -21 -4 -6 -4 32 0 39 2 55 4 38 2 -18 2 -50 0 -70z m2800 50
c-3 -10 -5 -2 -5 17 0 19 2 27 5 18 2 -10 2 -26 0 -35z m-27 -32 c0 -65 -15
-58 -22 10 -4 34 -2 46 8 46 10 0 14 -16 14 -56z m-2732 -18 c-4 -37 -11 -70
-16 -75 -9 -9 2 114 12 131 12 19 13 13 4 -56z m-391 35 c-3 -8 -6 -5 -6 6 -1
11 2 17 5 13 3 -3 4 -12 1 -19z m4171 -88 c0 -47 -3 -71 -5 -55 -3 17 -9 35
-15 42 -6 7 -7 35 -3 68 11 83 25 48 23 -55z m-3675 33 c-4 -69 -13 -83 -13
-20 0 39 7 77 14 77 2 0 1 -26 -1 -57z m24 5 c-3 -8 -6 -5 -6 6 -1 11 2 17 5
13 3 -3 4 -12 1 -19z m183 -23 c0 -14 -2 -25 -4 -25 -2 0 -6 11 -8 25 -3 14
-1 25 3 25 5 0 9 -11 9 -25z m2309 -22 c-1 -27 -3 -40 -6 -30 -2 9 -10 17 -16
17 -8 0 -7 4 1 12 7 7 12 20 12 30 0 10 2 18 5 18 3 0 4 -21 4 -47z m-3022
-25 c-3 -7 -5 -2 -5 12 0 14 2 19 5 13 2 -7 2 -19 0 -25z m553 0 c0 -23 -3
-29 -9 -19 -8 12 -4 51 5 51 2 0 4 -15 4 -32z m143 -3 c-3 -9 -8 -14 -10 -11
-3 3 -2 9 2 15 9 16 15 13 8 -4z m2824 -7 c-3 -8 -6 -5 -6 6 -1 11 2 17 5 13
3 -3 4 -12 1 -19z m-3527 -23 c-7 -9 -15 -13 -17 -11 -7 7 7 26 19 26 6 0 6
-6 -2 -15z m4162 -42 c7 -14 9 -64 5 -140 -9 -197 -22 -190 -23 15 -1 103 1
178 3 167 2 -11 9 -30 15 -42z m-4202 13 c0 -3 -15 -14 -32 -26 l-33 -22 30
26 c31 27 35 29 35 22z m3685 -43 c11 -7 15 -13 10 -13 -10 0 -85 50 -85 58 0
4 27 -12 75 -45z m-4265 2 c3 22 5 -19 5 -92 0 -73 -4 -128 -8 -124 -4 4 -10
64 -12 132 -2 68 -1 106 3 84 l6 -40 6 40z m3786 -13 c2 -28 1 -32 -6 -17 -10
24 -13 71 -3 62 3 -4 8 -24 9 -45z m-329 -59 c-2 -16 -4 -3 -4 27 0 30 2 43 4
28 2 -16 2 -40 0 -55z m-2947 62 c0 -2 -13 -11 -30 -20 -38 -19 -40 -11 -2 9
31 17 32 18 32 11z m605 -114 c4 -11 8 -11 20 -1 16 13 18 10 9 -14 -5 -12
-10 -13 -30 -4 -15 7 -23 17 -19 26 3 7 6 37 7 65 l2 52 3 -55 c2 -30 6 -61 8
-69z m52 72 c-3 -10 -5 -2 -5 17 0 19 2 27 5 18 2 -10 2 -26 0 -35z m2503 20
c0 -15 -2 -15 -9 -4 -5 8 -16 11 -26 8 -9 -4 -14 -3 -10 3 11 17 45 11 45 -7z
m-2527 -23 c3 -11 1 -18 -4 -14 -5 3 -9 12 -9 20 0 20 7 17 13 -6z m847 5 c0
-2 -10 -9 -22 -15 -22 -11 -22 -10 -4 4 21 17 26 19 26 11z m1827 -42 c-3 -10
-5 -2 -5 17 0 19 2 27 5 18 2 -10 2 -26 0 -35z m-2825 7 c3 -16 1 -30 -4 -30
-4 0 -8 14 -8 30 0 17 2 30 4 30 2 0 6 -13 8 -30z m2678 4 c0 -14 -4 -23 -9
-20 -5 3 -7 15 -4 26 7 28 13 25 13 -6z m-3280 -9 c-7 -9 -15 -13 -19 -10 -3
3 1 10 9 15 21 14 24 12 10 -5z m4065 -40 l20 -16 -20 10 c-11 5 -29 17 -40
26 l-20 16 20 -10 c11 -5 29 -17 40 -26z m-4115 5 c-14 -11 -29 -20 -35 -20
-5 0 4 9 20 20 38 25 48 25 15 0z m3337 -22 c-3 -8 -6 -5 -6 6 -1 11 2 17 5
13 3 -3 4 -12 1 -19z m-204 -3 c-3 -9 -8 -14 -10 -11 -3 3 -2 9 2 15 9 16 15
13 8 -4z m-3215 -26 c-9 -5 -38 -25 -63 -45 -26 -19 -51 -34 -56 -32 -6 2 11
16 36 32 25 16 56 38 67 48 12 10 24 16 27 12 3 -3 -2 -10 -11 -15z m4272 2
c0 -4 18 -17 40 -30 22 -12 43 -27 47 -34 4 -7 -6 -3 -22 7 -17 11 -45 29 -62
40 -34 22 -45 40 -18 30 8 -4 15 -9 15 -13z m222 -57 c-6 -35 -12 -29 -12 14
0 23 3 32 9 24 4 -7 6 -24 3 -38z m-3815 -1 c-3 -10 -5 -4 -5 12 0 17 2 24 5
18 2 -7 2 -21 0 -30z m3698 17 c10 -11 16 -20 13 -20 -3 0 -13 9 -23 20 -10
11 -16 20 -13 20 3 0 13 -9 23 -20z m-3549 -94 c1 -42 0 -76 -4 -76 -4 0 -9
37 -10 83 -2 45 -1 79 3 75 4 -4 9 -41 11 -82z m2768 69 c3 -8 1 -15 -4 -15
-6 0 -10 7 -10 15 0 8 2 15 4 15 2 0 6 -7 10 -15z m-2563 -104 c-5 -3 -11 -15
-15 -26 -3 -11 -3 -2 -1 20 3 22 5 58 6 80 1 38 2 37 10 -14 6 -33 6 -57 0
-60z m2521 62 c3 -27 1 -52 -4 -57 -4 -6 -8 8 -8 31 0 23 -3 48 -6 57 -3 9 -2
16 4 16 5 0 12 -21 14 -47z m-3782 -60 c-11 -17 -11 -17 -6 0 3 10 7 37 8 60
l1 42 4 -42 c2 -24 -1 -51 -7 -60z m2098 72 c-6 -14 -13 -23 -15 -21 -5 5 15
46 22 46 3 0 -1 -11 -7 -25z m1570 -6 c-3 -8 -7 -3 -11 10 -4 17 -3 21 5 13 5
-5 8 -16 6 -23z m-2730 -31 c-14 -39 -22 -28 -13 18 4 26 9 33 15 24 4 -7 3
-26 -2 -42z m149 10 c-3 -8 -6 -5 -6 6 -1 11 2 17 5 13 3 -3 4 -12 1 -19z
m2540 -20 c-3 -7 -5 -2 -5 12 0 14 2 19 5 13 2 -7 2 -19 0 -25z m-166 -30 c2
-24 1 -59 -2 -78 l-6 -35 -2 40 c-1 22 -4 57 -7 78 -4 23 -3 37 4 37 5 0 12
-19 13 -42z m219 -28 c0 -8 -7 -2 -15 14 -19 36 -19 45 0 20 8 -10 14 -26 15
-34z m-2804 2 c-8 -16 -23 -32 -32 -36 -10 -4 -7 4 10 25 14 17 26 35 26 41 0
6 3 9 6 6 3 -4 -1 -20 -10 -36z m2989 -14 c38 -39 33 -44 -8 -9 -17 14 -42 51
-35 51 2 0 21 -19 43 -42z m-218 10 c-3 -8 -6 -5 -6 6 -1 11 2 17 5 13 3 -3 4
-12 1 -19z m-2756 -26 c-5 -10 -18 -25 -27 -33 -11 -9 -9 -2 6 19 26 35 36 42
21 14z m-71 -17 c0 -2 -10 -9 -22 -15 -22 -11 -22 -10 -4 4 21 17 26 19 26 11z
m1427 -27 c-3 -8 -6 -5 -6 6 -1 11 2 17 5 13 3 -3 4 -12 1 -19z m-1165 -86 c2
-28 0 -52 -4 -52 -5 0 -7 33 -7 73 2 76 6 68 11 -21z m2883 70 c-3 -3 -11 0
-18 7 -9 10 -8 11 6 5 10 -3 15 -9 12 -12z m-2995 -22 c6 -11 7 -20 2 -20 -6
0 -12 9 -15 20 -3 11 -3 20 -1 20 2 0 8 -9 14 -20z m35 10 c3 -5 2 -10 -4 -10
-5 0 -13 5 -16 10 -3 6 -2 10 4 10 5 0 13 -4 16 -10z m2995 -5 c11 -13 10 -14
-4 -9 -9 3 -16 10 -16 15 0 13 6 11 20 -6z m-3270 1 c0 -2 -7 -7 -16 -10 -8
-3 -12 -2 -9 4 6 10 25 14 25 6z m508 -101 c2 -59 -2 -113 -7 -123 -8 -12 -10
16 -11 99 0 95 4 129 14 129 1 0 2 -47 4 -105z m2513 78 c13 -16 12 -17 -3 -4
-10 7 -18 15 -18 17 0 8 8 3 21 -13z m-270 -45 c2 -20 0 -40 -4 -44 -4 -4 -7
14 -7 41 0 56 7 57 11 3z m166 -35 c-2 -16 -4 -3 -4 27 0 30 2 43 4 28 2 -16
2 -40 0 -55z m458 38 c3 -6 -5 -15 -17 -21 -22 -11 -22 -10 -4 4 11 9 16 16
10 16 -5 0 -20 10 -34 21 l-25 20 32 -15 c17 -9 34 -20 38 -25z m-278 13 c-3
-3 -12 -4 -19 -1 -8 3 -5 6 6 6 11 1 17 -2 13 -5z m160 -81 c34 -20 61 -39 59
-41 -6 -6 -185 102 -186 111 0 5 15 -1 33 -12 17 -12 60 -38 94 -58z m-3182
38 c-27 -16 -52 -27 -55 -24 -3 3 0 7 5 9 6 2 24 13 40 23 17 11 37 20 45 20
8 1 -7 -12 -35 -28z m-181 3 c3 -8 2 -12 -4 -9 -6 3 -10 10 -10 16 0 14 7 11
14 -7z m3561 -22 c-3 -3 -11 0 -18 7 -9 10 -8 11 6 5 10 -3 15 -9 12 -12z
m-3695 -16 c0 -2 -8 -10 -17 -17 -16 -13 -17 -12 -4 4 13 16 21 21 21 13z
m3001 -80 c1 -37 -2 -70 -5 -73 -3 -4 -6 29 -6 72 0 43 2 76 5 73 3 -3 6 -35
6 -72z m699 70 c0 -11 -19 -15 -25 -6 -3 5 1 10 9 10 9 0 16 -2 16 -4z m54 -5
c3 -5 0 -11 -7 -14 -8 -3 -14 1 -14 9 0 16 13 19 21 5z m-3584 -30 c0 -11
-160 -105 -166 -98 -3 3 137 94 164 106 1 0 2 -3 2 -8z m-354 -42 c-14 -32
-15 -32 -16 -8 0 14 5 30 12 37 18 18 20 8 4 -29z m4033 15 c14 -12 -19 -1
-35 12 -18 14 -18 14 6 3 14 -6 27 -13 29 -15z m-3949 2 c0 -2 -7 -7 -16 -10
-8 -3 -12 -2 -9 4 6 10 25 14 25 6z m4027 -28 c-3 -7 -5 -2 -5 12 0 14 2 19 5
13 2 -7 2 -19 0 -25z m-93 -5 c4 -11 1 -11 -14 -3 -24 13 -25 17 -5 17 8 0 16
-6 19 -14z m76 -9 c0 -2 -9 0 -20 6 -11 6 -20 13 -20 16 0 2 9 0 20 -6 11 -6
20 -13 20 -16z m-3353 -117 c-2 -23 -3 -1 -3 48 0 50 1 68 3 42 2 -26 2 -67 0
-90z m-785 40 c-23 -24 -39 -47 -35 -51 5 -4 2 -6 -6 -4 -7 2 -16 -3 -19 -11
-2 -8 0 -11 6 -7 6 3 2 -18 -9 -48 -10 -30 -22 -80 -25 -111 -4 -31 -11 -52
-15 -48 -12 12 2 124 14 116 7 -4 8 6 4 28 -5 26 -4 30 4 19 8 -12 9 -9 5 13
-6 24 1 36 50 87 31 33 60 60 63 60 3 0 -14 -19 -37 -43z m4018 11 c19 -13 36
-30 38 -38 3 -9 -7 -5 -25 10 -17 14 -39 30 -49 37 -11 6 -14 12 -8 12 6 1 26
-9 44 -21z m195 -30 l50 -53 -51 48 c-27 26 -54 44 -59 40 -4 -5 -5 -2 -1 5 4
6 8 12 9 12 2 0 25 -24 52 -52z m-965 7 c0 -5 -5 -3 -10 5 -5 8 -10 20 -10 25
0 6 5 3 10 -5 5 -8 10 -19 10 -25z m-3095 0 c-16 -13 -31 -22 -34 -20 -5 6 41
44 54 44 6 0 -3 -11 -20 -24z m1761 13 c4 -6 3 -8 -4 -5 -6 5 -9 -6 -7 -30 1
-21 1 -30 -2 -20 -2 9 -9 15 -14 12 -13 -9 -11 29 3 43 15 15 15 15 24 0z
m438 -4 c3 -8 2 -12 -4 -9 -6 3 -10 10 -10 16 0 14 7 11 14 -7z m-367 -71 c-2
-16 -4 -5 -4 22 0 28 2 40 4 28 2 -13 2 -35 0 -50z m-129 -225 l-2 -273 -6
255 c-5 237 -4 290 6 290 2 0 3 -123 2 -272z m451 155 c-1 -68 -3 -80 -9 -54
-7 31 -2 141 6 141 2 0 4 -39 3 -87z m38 65 c-3 -8 -6 -5 -6 6 -1 11 2 17 5
13 3 -3 4 -12 1 -19z m1779 -55 c9 -30 14 -57 11 -59 -2 -3 -10 17 -16 43 -7
26 -20 59 -28 73 -15 23 -15 24 0 11 10 -7 24 -38 33 -68z m-4026 63 c0 -3 -4
-8 -10 -11 -5 -3 -10 -1 -10 4 0 6 5 11 10 11 6 0 10 -2 10 -4z m847 -43 c-3
-10 -5 -2 -5 17 0 19 2 27 5 18 2 -10 2 -26 0 -35z m950 -200 c-1 -43 -3 -10
-3 72 0 83 2 118 3 78 2 -40 2 -107 0 -150z m1363 82 c-1 -60 -4 -137 -8 -170
l-7 -60 -6 60 c-8 80 2 310 13 293 4 -7 8 -62 8 -123z m-3195 61 c-4 -25 -11
-46 -15 -46 -4 0 -4 19 1 43 4 23 8 46 9 51 0 5 3 7 6 4 3 -4 2 -27 -1 -52z
m4227 -47 c-2 -33 -5 -59 -7 -57 -1 2 -5 31 -8 65 -5 47 -4 61 6 58 8 -4 11
-24 9 -66z m-3525 -26 c-3 -10 -5 -2 -5 17 0 19 2 27 5 18 2 -10 2 -26 0 -35z
m3386 -20 c3 -24 1 -43 -4 -43 -5 0 -9 21 -9 47 0 56 5 54 13 -4z m-2181 -383
l-9 -155 -2 146 c0 80 2 202 7 270 l7 124 3 -115 c1 -63 -2 -185 -6 -270z
m1470 282 c2 -28 0 -52 -4 -52 -5 0 -7 35 -7 78 2 78 6 69 11 -26z m-1125
-362 c0 -93 -2 -114 -8 -80 -4 25 -7 155 -6 290 l1 245 6 -165 c4 -91 7 -221
7 -290z m-1367 385 c0 -8 -4 -15 -10 -15 -5 0 -7 7 -4 15 4 8 8 15 10 15 2 0
4 -7 4 -15z m-920 -72 c-10 -16 -11 -15 -6 7 3 14 7 36 7 50 2 19 3 18 6 -7 2
-18 -1 -41 -7 -50z m4139 7 c1 -13 0 -13 -9 0 -5 8 -9 26 -9 40 l1 25 8 -25
c4 -14 8 -32 9 -40z m-1941 -233 c4 -146 4 -263 1 -259 -4 4 -9 129 -12 277
-4 149 -4 265 -1 259 2 -6 8 -130 12 -277z m-1448 251 c0 -13 -5 -30 -10 -38
-7 -11 -10 -5 -10 23 0 20 5 37 10 37 6 0 10 -10 10 -22z m3539 -68 c0 -34 -3
-40 -9 -25 -5 11 -9 40 -9 65 0 34 3 40 9 25 5 -11 9 -40 9 -65z m-3371 45
c-3 -3 -9 2 -12 12 -6 14 -5 15 5 6 7 -7 10 -15 7 -18z m2469 -17 c-3 -7 -5
-2 -5 12 0 14 2 19 5 13 2 -7 2 -19 0 -25z m-3535 -28 c3 -17 1 -33 -4 -36 -4
-3 -8 11 -8 30 0 44 6 47 12 6z m1064 0 c-2 -17 -6 -33 -9 -37 -3 -3 -4 8 -2
23 2 16 4 32 4 37 1 4 3 7 6 7 2 0 3 -14 1 -30z m1391 -17 c-3 -10 -5 -2 -5
17 0 19 2 27 5 18 2 -10 2 -26 0 -35z m-441 -106 c-3 -73 -5 -163 -6 -202 0
-78 -18 -74 -22 5 -1 43 -2 42 -8 -15 -5 -45 -7 -27 -7 70 0 92 2 114 7 75 5
-44 7 -32 8 62 2 120 7 152 24 142 5 -3 7 -60 4 -137z m-1156 -127 l-7 -255
-1 205 c-2 171 5 319 13 308 1 -2 -1 -118 -5 -258z m3449 155 c1 -27 6 -67 12
-88 6 -22 8 -41 5 -44 -2 -3 -9 12 -14 33 -13 49 -22 196 -11 169 4 -11 8 -42
8 -70z m-732 -7 c-2 -13 -4 -3 -4 22 0 25 2 35 4 23 2 -13 2 -33 0 -45z
m-3590 30 c-3 -8 -6 -5 -6 6 -1 11 2 17 5 13 3 -3 4 -12 1 -19z m132 -123 c-7
-22 -23 -50 -36 -63 -13 -13 -23 -29 -23 -35 0 -7 -7 -22 -15 -33 -14 -18 -15
-17 -9 11 3 17 17 40 30 52 32 29 41 55 51 144 l8 74 3 -55 c2 -30 -2 -73 -9
-95z m2338 -37 c-2 -35 -3 -9 -3 57 0 66 1 94 3 63 2 -32 2 -86 0 -120z
m-1456 144 c-5 -10 -18 -25 -27 -33 -11 -9 -9 -2 6 19 26 35 36 42 21 14z
m2507 -562 l-3 -485 -2 485 -3 485 -48 50 -47 50 53 -50 52 -49 -2 -486z m952
488 c0 -34 -4 -48 -9 -38 -8 14 -3 90 5 90 2 0 4 -24 4 -52z m610 -20 c-1 -48
-3 -59 -11 -45 -9 15 -3 107 7 107 2 0 4 -28 4 -62z m-5700 -36 c-7 -12 -9 -2
-9 38 1 55 1 55 10 17 6 -24 5 -45 -1 -55z m1557 -4 c-2 -13 -4 -3 -4 22 0 25
2 35 4 23 2 -13 2 -33 0 -45z m2663 -443 c0 -252 -2 -461 -5 -463 -3 -3 -5
205 -5 463 0 258 2 466 5 463 3 -3 5 -211 5 -463z m-843 418 c-3 -10 -5 -4 -5
12 0 17 2 24 5 18 2 -7 2 -21 0 -30z m-1700 -40 c-2 -16 -4 -5 -4 22 0 28 2
40 4 28 2 -13 2 -35 0 -50z m642 -17 c-9 -8 -10 -5 -5 14 3 14 7 36 8 50 1 14
3 8 5 -14 3 -22 -1 -43 -8 -50z m-1717 20 c2 -19 0 -32 -4 -30 -8 5 -12 64 -4
64 2 0 6 -15 8 -34z m4495 -3 c-3 -10 -5 -4 -5 12 0 17 2 24 5 18 2 -7 2 -21
0 -30z m579 -141 c-11 -11 -17 7 -18 54 -2 102 5 118 14 35 5 -45 7 -86 4 -89z
m-5647 61 c-1 -87 -1 -88 -14 -48 -8 22 -13 51 -13 65 l0 25 8 -25 c7 -20 8
-16 9 23 1 26 3 47 6 47 3 0 5 -39 4 -87z m4978 -21 c-8 -9 -17 -26 -20 -37
l-5 -20 -1 20 c0 11 6 29 14 39 8 11 16 29 16 40 2 18 2 18 6 -2 3 -13 -2 -31
-10 -40z m-2751 20 c-2 -4 -26 -23 -53 -41 l-48 -34 45 41 c41 37 69 54 56 34z
m1252 -45 c28 -22 52 -41 52 -44 0 -5 -69 44 -110 78 -39 32 -1 10 58 -34z
m-801 11 c-3 -7 -5 -2 -5 12 0 14 2 19 5 13 2 -7 2 -19 0 -25z m2417 -76 c3
-59 2 -101 -3 -98 -5 3 -9 52 -10 108 -1 56 0 100 2 98 2 -3 7 -51 11 -108z
m-4547 66 c-3 -7 -5 -2 -5 12 0 14 2 19 5 13 2 -7 2 -19 0 -25z m1090 -30 c-2
-13 -4 -3 -4 22 0 25 2 35 4 23 2 -13 2 -33 0 -45z m1053 13 c0 -5 -15 -20
-32 -32 l-33 -22 30 31 c34 35 35 36 35 23z m403 -40 c-2 -3 -16 8 -31 24
l-27 28 31 -24 c17 -13 30 -26 27 -28z m2525 -57 c1 16 4 27 7 24 7 -7 -6
-128 -14 -128 -4 0 -5 16 -3 35 2 19 0 35 -4 35 -5 0 -7 30 -4 67 l4 68 6 -65
c4 -36 7 -52 8 -36z m-3498 82 c0 -2 -37 -31 -82 -66 -46 -34 -67 -47 -48 -30
32 29 121 99 128 100 1 0 2 -2 2 -4z m-2095 -125 c-9 -91 -24 -72 -23 29 1 62
1 63 8 20 l7 -45 3 55 c1 30 5 46 7 36 3 -11 2 -53 -2 -95z m3131 64 c12 -24
12 -24 -12 -7 -26 19 -31 32 -11 32 6 0 17 -11 23 -25z m-546 6 c0 -10 -110
-95 -116 -89 -3 4 102 94 114 97 1 1 2 -3 2 -8z m-1984 -43 c-6 -23 -12 -35
-14 -26 -3 14 14 68 21 68 2 0 -1 -19 -7 -42z m3070 -44 c38 -35 32 -32 -28
16 -43 35 -78 65 -78 67 0 8 58 -37 106 -83z m1312 61 c-3 -3 -9 2 -12 12 -6
14 -5 15 5 6 7 -7 10 -15 7 -18z m-2538 1 c0 -2 -7 -7 -16 -10 -8 -3 -12 -2
-9 4 6 10 25 14 25 6z m639 -37 c35 -28 22 -32 -14 -3 -16 13 -25 24 -20 24 6
-1 21 -10 34 -21z m1908 -11 c-3 -7 -5 -2 -5 12 0 14 2 19 5 13 2 -7 2 -19 0
-25z m-1767 -4 c0 -8 -4 -12 -10 -9 -5 3 -10 13 -10 21 0 8 5 12 10 9 6 -3 10
-13 10 -21z m1598 19 c-26 -2 -71 -2 -100 0 -29 2 -8 3 47 3 55 0 79 -1 53 -3z
m-2898 -17 c0 -2 -8 -10 -17 -17 -16 -13 -17 -12 -4 4 13 16 21 21 21 13z
m-483 -68 c-2 -13 -4 -3 -4 22 0 25 2 35 4 23 2 -13 2 -33 0 -45z m1819 38 c2
-14 0 -15 -12 -5 -17 14 -19 32 -2 27 6 -2 12 -12 14 -22z m881 -38 c-2 -13
-4 -3 -4 22 0 25 2 35 4 23 2 -13 2 -33 0 -45z m952 -18 c1 -13 0 -13 -9 0 -5
8 -9 26 -9 40 l1 25 8 -25 c4 -14 8 -32 9 -40z m-4593 24 c-4 -9 -9 -15 -11
-12 -3 3 -3 13 1 22 4 9 9 15 11 12 3 -3 3 -13 -1 -22z m1824 23 c0 -2 -15
-14 -32 -27 -27 -19 -30 -20 -18 -4 21 27 50 45 50 31z m970 -7 c0 -5 -5 -10
-11 -10 -5 0 -7 5 -4 10 3 6 8 10 11 10 2 0 4 -4 4 -10z m-57 -56 c26 -20 47
-41 47 -47 0 -5 -21 8 -47 29 -67 53 -68 54 -57 54 6 0 32 -16 57 -36z m128
-6 c11 -21 11 -22 -4 -9 -10 7 -17 17 -17 22 0 15 9 10 21 -13z m-1531 -373
l-5 -380 -3 376 c-1 207 1 379 5 382 3 4 7 6 7 5 1 -2 -1 -174 -4 -383z m520
381 c0 -9 -121 -98 -126 -93 -3 2 23 25 58 50 67 49 68 50 68 43z m-1759 -52
c-13 -23 -21 -31 -21 -21 0 17 31 68 38 62 2 -2 -6 -20 -17 -41z m2159 42 c0
-3 -15 -14 -32 -26 l-33 -22 28 26 c27 25 37 31 37 22z m104 -22 c5 -14 4 -15
-9 -4 -17 14 -19 20 -6 20 5 0 12 -7 15 -16z m2155 -62 l-2 -27 -4 26 c-2 15
-13 35 -24 45 -10 9 -19 22 -19 28 0 6 12 -2 25 -17 15 -17 24 -39 24 -55z
m-2849 35 c0 -2 -13 -13 -30 -25 -17 -13 -27 -17 -24 -8 3 7 15 18 27 24 26
13 27 13 27 9z m1310 -23 c0 -9 -28 -3 -46 11 -17 13 -16 14 14 4 17 -6 32
-13 32 -15z m-1973 -137 c-2 -23 -3 -1 -3 48 0 50 1 68 3 42 2 -26 2 -67 0
-90z m713 119 c0 -2 -8 -10 -17 -17 -16 -13 -17 -12 -4 4 13 16 21 21 21 13z
m1290 -6 c0 -5 -6 -10 -14 -10 -8 0 -18 5 -21 10 -3 6 3 10 14 10 12 0 21 -4
21 -10z m-2900 -92 c0 -9 -3 -19 -7 -21 -5 -3 -8 7 -8 21 -1 15 -4 38 -8 52
-5 20 -4 18 8 -5 8 -16 14 -38 15 -47z m1460 60 c0 -7 -5 -20 -10 -28 -8 -12
-10 -9 -10 13 0 15 5 27 10 27 6 0 10 -6 10 -12z m3037 -20 c-3 -8 -6 -5 -6 6
-1 11 2 17 5 13 3 -3 4 -12 1 -19z m-2934 -15 c-17 -26 -18 -71 -16 -698 1
-368 4 -947 7 -1285 3 -338 1 -604 -3 -590 -5 14 -10 250 -11 525 -1 275 -3
541 -5 590 -1 50 -3 383 -4 740 -2 636 1 696 30 731 19 24 21 16 2 -13z m1376
-7 c-3 -3 -11 5 -18 17 -13 21 -12 21 5 5 10 -10 16 -20 13 -22z m1447 -4
c-18 -16 -18 -16 -6 6 6 13 14 21 18 18 3 -4 -2 -14 -12 -24z m-3409 -24 c-3
-8 -6 -5 -6 6 -1 11 2 17 5 13 3 -3 4 -12 1 -19z m454 -15 c-4 -28 -6 -32 -9
-15 -3 22 3 52 11 52 1 0 1 -17 -2 -37z m1516 5 c-3 -8 -6 -5 -6 6 -1 11 2 17
5 13 3 -3 4 -12 1 -19z m1560 -20 c-3 -7 -5 -2 -5 12 0 14 2 19 5 13 2 -7 2
-19 0 -25z m-3300 0 c-3 -8 -6 -5 -6 6 -1 11 2 17 5 13 3 -3 4 -12 1 -19z
m184 -58 l-8 -65 -2 57 c0 31 2 64 6 74 11 30 13 2 4 -66z m1455 -170 c-3
-107 -8 -617 -12 -1133 -4 -515 -9 -935 -11 -933 -6 5 -1 1519 7 2111 2 144 6
201 12 180 5 -16 6 -118 4 -225z m151 188 c1 -44 -1 -57 -7 -43 -14 33 -11
105 5 105 0 0 2 -28 2 -62z m-3130 15 c-3 -10 -5 -4 -5 12 0 17 2 24 5 18 2
-7 2 -21 0 -30z m2913 -157 c0 -93 -2 -167 -4 -165 -2 2 -6 85 -9 183 -3 109
-2 174 4 165 5 -8 9 -90 9 -183z m-2812 164 c-7 -10 -14 -17 -17 -15 -4 4 18
35 25 35 2 0 -1 -9 -8 -20z m4446 -2 c20 -28 20 -95 1 -139 -11 -27 -14 -30
-15 -12 0 12 5 25 10 28 19 11 11 91 -11 119 -11 14 -16 26 -10 26 5 0 17 -10
25 -22z m-3511 -133 c4 -80 3 -103 -3 -70 -8 51 -13 202 -6 194 2 -2 6 -58 9
-124z m3594 93 c-3 -7 -5 -2 -5 12 0 14 2 19 5 13 2 -7 2 -19 0 -25z m-3677
-265 c0 -141 -4 -253 -8 -247 -8 9 -4 504 4 504 2 0 4 -116 4 -257z m-850 148
c-1 -9 -7 -1 -15 18 -19 44 -19 64 0 27 8 -15 15 -36 15 -45z m3027 -104 c-2
-23 -3 -1 -3 48 0 50 1 68 3 42 2 -26 2 -67 0 -90z m1532 100 c-1 -17 -2 -18
-6 -4 -2 9 -9 15 -14 12 -5 -3 -6 1 -3 9 8 22 24 10 23 -17z m-1559 -81 c-7
-36 -8 -31 -8 34 0 60 2 68 8 41 5 -19 5 -53 0 -75z m-933 -108 c-1 -40 -3
-10 -3 67 0 77 1 110 3 73 2 -37 2 -100 0 -140z m2500 95 c-3 -10 -5 -2 -5 17
0 19 2 27 5 18 2 -10 2 -26 0 -35z m-4685 -36 c-2 -34 -8 -68 -13 -77 -7 -10
-9 0 -5 34 3 27 6 65 6 84 0 19 3 32 7 28 4 -4 6 -35 5 -69z m2488 -237 l0
-310 -32 -20 c-18 -11 -37 -20 -43 -20 -5 0 7 10 28 22 l37 22 0 308 c0 169 2
308 5 308 3 0 5 -140 5 -310z m1127 268 c-3 -7 -5 -2 -5 12 0 14 2 19 5 13 2
-7 2 -19 0 -25z m94 -258 c0 -155 -3 -286 -8 -291 -4 -4 -7 125 -5 288 1 163
5 294 7 291 3 -3 6 -132 6 -288z m-3611 190 c0 -27 -3 -50 -7 -50 -5 0 -6 22
-5 50 5 65 12 65 12 0z m4482 5 c2 -19 0 -35 -4 -35 -4 0 -8 16 -8 35 0 19 2
35 4 35 2 0 6 -16 8 -35z m-3499 -120 c3 -49 2 -82 -3 -75 -4 8 -10 62 -13
120 -4 64 -3 93 3 75 4 -16 10 -70 13 -120z m2519 30 l-9 -70 -2 56 c0 31 2
72 6 90 12 55 15 3 5 -76z m1001 -48 c3 -22 2 -35 -4 -32 -5 4 -9 22 -9 42 0
45 5 40 13 -10z m-2416 -79 c-2 -18 -4 -4 -4 32 0 36 2 50 4 33 2 -18 2 -48 0
-65z m-2127 -86 c-11 -16 -11 -16 -6 1 3 10 7 53 8 95 l2 77 3 -78 c2 -46 -1
-84 -7 -95z m4553 36 c2 -31 0 -55 -5 -52 -4 3 -8 33 -7 67 1 72 6 66 12 -15z
m-926 5 c-3 -10 -5 -4 -5 12 0 17 2 24 5 18 2 -7 2 -21 0 -30z m-2717 -95 c0
-61 -2 -109 -5 -106 -3 3 -6 48 -6 99 -1 112 0 119 6 119 3 0 5 -50 5 -112z
m134 -3 c5 -76 3 -105 -4 -95 -9 13 -15 219 -6 209 2 -2 6 -53 10 -114z m473
-37 c-2 -29 -3 -6 -3 52 0 58 1 81 3 53 2 -29 2 -77 0 -105z m1998 -86 c-12
-13 -14 10 -7 113 l7 110 3 -109 c1 -60 0 -111 -3 -114z m-428 111 c-2 -16 -4
-3 -4 27 0 30 2 43 4 28 2 -16 2 -40 0 -55z m-50 -65 c-2 -24 -4 -5 -4 42 0
47 2 66 4 43 2 -24 2 -62 0 -85z m1625 0 c-5 -5 -8 6 -6 29 3 56 7 63 11 19 3
-21 0 -43 -5 -48z m-4678 33 c-21 -36 -50 -55 -60 -39 -4 6 -3 8 4 4 12 -7 52
39 52 61 0 8 5 11 10 8 7 -4 4 -16 -6 -34z m4656 -47 c0 -2 -7 -4 -15 -4 -8 0
-15 4 -15 10 0 5 7 7 15 4 8 -4 15 -8 15 -10z m180 -93 c36 -17 58 -31 50 -31
-25 1 -154 74 -158 90 -3 10 3 8 19 -7 13 -12 53 -35 89 -52z m-3303 12 c-3
-10 -5 -2 -5 17 0 19 2 27 5 18 2 -10 2 -26 0 -35z m2060 15 c-3 -8 -6 -5 -6
6 -1 11 2 17 5 13 3 -3 4 -12 1 -19z m-3782 -7 c-13 -11 -125 -61 -125 -56 0
3 26 18 58 34 57 30 85 39 67 22z m3242 -68 c-2 -16 -4 -3 -4 27 0 30 2 43 4
28 2 -16 2 -40 0 -55z m-2089 37 c-14 -22 -24 -19 -15 5 4 8 11 15 17 15 6 0
6 -7 -2 -20z m121 -43 c1 -48 -15 -67 -57 -66 -32 2 -33 3 -8 6 46 7 59 27 53
81 -4 31 -3 40 3 27 5 -11 9 -33 9 -48z m2551 53 c0 -5 -2 -10 -4 -10 -3 0 -8
5 -11 10 -3 6 -1 10 4 10 6 0 11 -4 11 -10z m-3363 -6 c-3 -3 -12 -4 -19 -1
-8 3 -5 6 6 6 11 1 17 -2 13 -5z m2061 -1 c-16 -2 -40 -2 -55 0 -16 2 -3 4 27
4 30 0 43 -2 28 -4z m539 -25 c-3 -8 -6 -5 -6 6 -1 11 2 17 5 13 3 -3 4 -12 1
-19z m200 -15 c-3 -10 -5 -4 -5 12 0 17 2 24 5 18 2 -7 2 -21 0 -30z m-2904
20 c-7 -2 -21 -2 -30 0 -10 3 -4 5 12 5 17 0 24 -2 18 -5z m-505 -28 c-3 -3
-14 -7 -24 -9 -11 -3 -45 -16 -77 -30 -83 -37 -85 -31 -2 9 61 29 119 46 103
30z m1302 -20 c14 -19 14 -19 -2 -6 -10 7 -18 18 -18 24 0 6 1 8 3 6 1 -2 9
-13 17 -24z m577 -42 c-2 -16 -4 -5 -4 22 0 28 2 40 4 28 2 -13 2 -35 0 -50z
m3468 36 c33 -16 51 -26 40 -23 -11 4 -31 8 -44 9 -13 2 -27 8 -30 13 -3 5
-15 14 -26 20 -41 23 2 10 60 -19z m-3298 -206 c-1 -43 -3 -10 -3 72 0 83 2
118 3 78 2 -40 2 -107 0 -150z m1807 202 c3 -8 1 -15 -4 -15 -6 0 -10 7 -10
15 0 8 2 15 4 15 2 0 6 -7 10 -15z m93 -12 c-9 -9 -20 -14 -24 -10 -3 4 2 14
13 21 25 19 33 10 11 -11z m1532 -13 c0 -10 -3 -8 -9 5 -12 27 -12 43 0 25 5
-8 9 -22 9 -30z m-3632 -182 c-1 -40 -3 -8 -3 72 0 80 2 112 3 73 2 -40 2
-106 0 -145z m330 25 c-2 -37 -3 -9 -3 62 0 72 1 102 3 68 2 -34 2 -93 0 -130z
m1206 -126 c2 -256 0 -304 -12 -299 -11 4 -12 24 -7 101 3 53 6 190 6 305 0
115 3 207 6 204 3 -4 6 -143 7 -311z m-164 -502 c0 -192 -2 -438 -7 -545 -5
-152 -8 -43 -12 495 -5 742 0 1024 11 630 4 -126 7 -387 8 -580z m188 648 c-2
-21 -4 -6 -4 32 0 39 2 55 4 38 2 -18 2 -50 0 -70z m-1523 -168 c4 -131 3
-243 -2 -260 -7 -21 -10 33 -11 170 -1 110 -4 234 -7 275 -3 49 -2 70 4 60 5
-8 13 -118 16 -245z m1193 143 c-2 -13 -4 -5 -4 17 -1 22 1 32 4 23 2 -10 2
-28 0 -40z m330 -125 c-2 -16 -4 -3 -4 27 0 30 2 43 4 28 2 -16 2 -40 0 -55z
m-1560 -200 c-2 -27 -3 -5 -3 47 0 52 1 74 3 48 2 -27 2 -69 0 -95z m1564 40
c-3 -107 -11 -106 -11 2 0 49 3 85 7 82 3 -4 5 -42 4 -84z m-1234 -195 c-3 -8
-6 -5 -6 6 -1 11 2 17 5 13 3 -3 4 -12 1 -19z m-280 -65 c-3 -10 -5 -2 -5 17
0 19 2 27 5 18 2 -10 2 -26 0 -35z m270 -790 c-1 -153 -2 -28 -2 277 0 305 1
430 2 278 2 -153 2 -403 0 -555z m-3486 799 c-7 -2 -18 1 -23 6 -8 8 -4 9 13
5 13 -4 18 -8 10 -11z m7915 3 c-11 -8 -22 -12 -25 -9 -6 6 19 24 34 24 6 -1
1 -7 -9 -15z m-7821 -33 c-3 -3 -11 0 -18 7 -9 10 -8 11 6 5 10 -3 15 -9 12
-12z m4582 -29 c-3 -10 -5 -4 -5 12 0 17 2 24 5 18 2 -7 2 -21 0 -30z m-1454
-208 c2 -126 1 -203 -3 -170 -8 63 -13 411 -6 404 2 -2 6 -107 9 -234z m4437
196 c0 -12 -39 -21 -45 -11 -3 5 5 11 17 13 13 2 24 5 26 6 1 0 2 -3 2 -8z
m-2980 -431 l-4 -235 -6 180 c-3 99 -3 245 0 325 5 140 5 142 10 55 3 -49 3
-196 0 -325z m-273 -393 c-1 -127 -2 -23 -2 233 0 256 1 360 2 232 2 -127 2
-337 0 -465z m-4434 406 c-7 -2 -21 -2 -30 0 -10 3 -4 5 12 5 17 0 24 -2 18
-5z m0 -20 c-7 -2 -19 -2 -25 0 -7 3 -2 5 12 5 14 0 19 -2 13 -5z m7974 1 c-3
-3 -12 -4 -19 -1 -8 3 -5 6 6 6 11 1 17 -2 13 -5z m-4724 -186 c-4 -95 -9
-157 -11 -138 -5 44 9 323 15 316 3 -2 1 -82 -4 -178z m-3198 162 c19 -8 19
-9 -2 -9 -12 -1 -25 4 -28 9 -7 12 2 12 30 0z m7870 0 c-3 -5 -14 -10 -23 -9
-14 0 -13 2 3 9 27 11 27 11 20 0z m-3318 -407 c-1 -60 -3 -11 -3 107 0 118 2
167 3 108 2 -60 2 -156 0 -215z m366 226 c-6 -6 -7 3 -4 23 4 28 6 29 9 9 2
-13 0 -27 -5 -32z m-1933 6 c-7 -8 -17 -15 -22 -15 -6 0 -5 7 2 15 7 8 17 15
22 15 6 0 5 -7 -2 -15z m227 -62 c-3 -10 -5 -4 -5 12 0 17 2 24 5 18 2 -7 2
-21 0 -30z m1420 -10 c-3 -10 -5 -4 -5 12 0 17 2 24 5 18 2 -7 2 -21 0 -30z
m211 -34 c-3 -8 -7 -3 -11 10 -4 17 -3 21 5 13 5 -5 8 -16 6 -23z m-341 -141
c-2 -24 -4 -7 -4 37 0 44 2 63 4 43 2 -21 2 -57 0 -80z m-3037 22 c0 -6 -23
-9 -52 -8 l-53 1 45 7 c25 4 48 8 53 8 4 1 7 -2 7 -8z m-185 -30 c-11 -5 -29
-9 -40 -9 l-20 0 20 9 c11 5 29 9 40 9 l20 0 -20 -9z m5320 0 c19 -8 19 -9 -2
-9 -12 -1 -25 4 -28 9 -7 12 2 12 30 0z m563 -45 c-3 -3 -9 2 -12 12 -6 14 -5
15 5 6 7 -7 10 -15 7 -18z m-3941 -17 c-3 -7 -5 -2 -5 12 0 14 2 19 5 13 2 -7
2 -19 0 -25z m-2304 15 c-13 -2 -33 -2 -45 0 -13 2 -3 4 22 4 25 0 35 -2 23
-4z m6067 -1 c0 -4 -18 -6 -40 -4 -22 2 -40 6 -40 8 0 2 18 4 40 4 22 0 40 -3
40 -8z m-2351 -47 c5 2 5 -15 0 -38 -4 -23 -8 -123 -9 -222 0 -99 -4 -173 -8
-165 -5 8 -6 119 -3 245 3 127 7 218 9 202 2 -15 7 -25 11 -22z m3316 16 c-3
-6 -14 -11 -23 -11 -15 1 -15 2 2 15 21 16 32 13 21 -4z m-7192 2 c-13 -2 -33
-2 -45 0 -13 2 -3 4 22 4 25 0 35 -2 23 -4z m6390 0 c-7 -2 -21 -2 -30 0 -10
3 -4 5 12 5 17 0 24 -2 18 -5z m-7120 -30 c-7 -2 -21 -2 -30 0 -10 3 -4 5 12
5 17 0 24 -2 18 -5z m3198 -257 c0 -244 1 -257 19 -269 25 -15 25 -24 -1 -38
-15 -7 -19 -8 -15 0 4 6 3 19 -3 29 -5 10 -10 126 -11 268 -2 284 -2 279 6
272 3 -3 5 -121 5 -262z m4622 257 c-7 -2 -19 -2 -25 0 -7 3 -2 5 12 5 14 0
19 -2 13 -5z m-3343 -44 c0 -5 -7 -9 -15 -9 -9 0 -12 6 -9 15 6 15 24 11 24
-6z m-52 -16 c-10 -2 -26 -2 -35 0 -10 3 -2 5 17 5 19 0 27 -2 18 -5z m-1154
-443 c-4 -8 -6 -21 -5 -27 1 -7 -3 -13 -8 -13 -5 0 -7 10 -4 23 3 12 7 101 9
197 7 273 8 281 11 50 2 -118 0 -221 -3 -230z m1256 338 c0 -35 -4 -58 -8 -51
-7 11 -4 113 4 113 2 0 4 -28 4 -62z m-10 -235 c-10 -16 -11 -15 -6 7 3 14 7
36 7 50 2 19 3 18 6 -7 2 -18 -1 -41 -7 -50z m-1337 -116 c2 -32 0 -52 -4 -45
-5 7 -8 38 -8 68 1 66 6 56 12 -23z m1437 22 c0 -22 -4 -38 -9 -35 -13 8 -34
-21 -26 -35 4 -6 -4 -3 -19 6 -31 21 -34 29 -6 20 18 -6 20 -2 21 37 1 35 2
38 8 18 l7 -25 7 28 c10 39 17 34 17 -14z m-1593 -96 c-2 -16 -4 -3 -4 27 0
30 2 43 4 28 2 -16 2 -40 0 -55z m1740 -5 c-2 -18 -4 -6 -4 27 0 33 2 48 4 33
2 -15 2 -42 0 -60z m-152 32 c3 -5 1 -10 -4 -10 -6 0 -11 5 -11 10 0 6 2 10 4
10 3 0 8 -4 11 -10z m75 -67 c0 -7 -39 17 -46 28 -3 6 5 3 20 -6 14 -10 26
-19 26 -22z m-1614 -18 c-11 -8 -27 -15 -35 -15 -9 1 -2 7 14 15 39 18 44 18
21 0z m1669 -13 c-3 -3 -11 0 -18 7 -9 10 -8 11 6 5 10 -3 15 -9 12 -12z
m2463 -137 c-3 -3 -9 2 -12 12 -6 14 -5 15 5 6 7 -7 10 -15 7 -18z m-6627 -18
c-10 -9 -11 -8 -5 6 3 10 9 15 12 12 3 -3 0 -11 -7 -18z m-40 -25 c-36 -25
-141 -83 -141 -77 0 5 152 95 160 94 3 0 -6 -8 -19 -17z m6729 -8 c0 -2 -9 0
-20 6 -11 6 -20 13 -20 16 0 2 9 0 20 -6 11 -6 20 -13 20 -16z m120 -65 c0 -4
-25 6 -55 23 -30 16 -55 31 -55 34 0 2 25 -8 55 -23 30 -15 55 -30 55 -34z"/>
</g>
</svg>
