<?xml version="1.0" standalone="no"?>
<!DOCTYPE svg PUBLIC "-//W3C//DTD SVG 20010904//EN"
 "http://www.w3.org/TR/2001/REC-SVG-20010904/DTD/svg10.dtd">
<svg version="1.0" xmlns="http://www.w3.org/2000/svg"
 width="811.000000pt" height="1280.000000pt" viewBox="0 0 811.000000 1280.000000"
 preserveAspectRatio="xMidYMid meet">

<g transform="translate(0.000000,1280.000000) scale(0.100000,-0.100000)"
fill="#000000" stroke="none">
<path d="M3508 12741 c-73 -6 -79 -8 -127 -51 -28 -25 -51 -52 -51 -61 0 -8
-13 -31 -30 -49 -16 -18 -30 -41 -30 -51 0 -9 -16 -34 -35 -53 -19 -20 -35
-45 -35 -56 0 -12 -7 -23 -15 -26 -8 -4 -15 -12 -15 -19 0 -7 -7 -15 -15 -19
-8 -3 -15 -13 -15 -22 0 -9 -13 -33 -30 -54 -16 -21 -30 -47 -30 -59 0 -12 -6
-21 -15 -21 -10 0 -15 -10 -15 -26 0 -22 -2 -25 -15 -14 -8 7 -15 20 -15 30 0
9 -9 27 -20 40 -11 13 -20 31 -20 40 0 10 -7 23 -15 30 -8 7 -15 23 -15 36 0
15 -6 24 -15 24 -10 0 -15 10 -15 29 0 21 -6 30 -22 35 -42 11 -75 6 -93 -14
-25 -28 -33 -25 -41 15 -6 33 -9 35 -45 35 l-39 0 0 45 0 44 -77 3 -78 3 -3
33 -3 32 -74 0 c-55 0 -74 -4 -79 -15 -3 -8 -14 -15 -25 -15 -11 0 -33 -16
-48 -35 -15 -19 -35 -35 -44 -35 -25 0 -94 -37 -120 -64 -13 -14 -31 -26 -39
-26 -9 0 -23 -9 -33 -20 -9 -11 -24 -20 -32 -20 -9 0 -29 -13 -45 -30 -16 -16
-36 -30 -43 -30 -8 0 -20 -7 -27 -15 -7 -8 -22 -15 -33 -15 -25 0 -97 -74 -97
-99 0 -10 -7 -24 -15 -31 -10 -8 -15 -31 -15 -71 0 -46 -3 -59 -15 -59 -8 0
-15 -6 -15 -14 0 -8 -14 -17 -31 -21 -17 -4 -33 -13 -36 -21 -3 -8 -16 -14
-29 -14 -13 0 -24 -4 -24 -10 0 -5 -6 -10 -13 -10 -7 0 -18 -9 -25 -20 -7 -11
-23 -20 -37 -20 -16 0 -25 -6 -25 -15 0 -9 -9 -15 -25 -15 -16 0 -34 -12 -52
-35 -16 -20 -37 -35 -49 -35 -11 0 -28 -8 -37 -17 -76 -80 -77 -82 -77 -120 0
-32 -6 -43 -30 -61 -27 -20 -41 -22 -163 -22 -107 0 -137 -3 -147 -15 -10 -12
-41 -15 -161 -15 -130 0 -154 -3 -186 -20 -31 -16 -57 -20 -139 -20 l-102 0
-7 -74 c-4 -45 -12 -80 -21 -87 -10 -8 -14 -38 -14 -113 -1 -73 -5 -106 -15
-120 -9 -12 -15 -42 -15 -72 0 -70 26 -104 81 -104 26 0 42 -5 45 -15 4 -8 15
-15 25 -15 11 0 27 -9 36 -20 12 -14 30 -20 56 -20 24 0 40 -5 43 -15 4 -9 19
-15 39 -15 18 0 38 -6 44 -14 6 -7 30 -16 53 -19 23 -3 45 -13 50 -21 5 -10
22 -16 43 -16 19 0 37 -4 40 -10 3 -5 15 -10 26 -10 10 0 27 -9 36 -20 11 -13
30 -20 51 -20 30 0 33 -2 22 -15 -10 -12 -42 -15 -166 -15 -132 0 -155 -2
-170 -17 -15 -15 -42 -19 -180 -22 -124 -2 -166 -6 -175 -17 -6 -8 -22 -14
-35 -14 -24 0 -24 -1 -24 -109 0 -84 -3 -111 -15 -121 -12 -10 -15 -41 -15
-161 l0 -149 30 0 c17 0 33 -6 36 -14 3 -7 22 -16 44 -20 21 -3 40 -13 44 -21
3 -8 16 -15 29 -15 14 0 30 -7 37 -15 7 -8 28 -15 47 -15 21 0 36 -6 39 -15 4
-9 19 -15 39 -15 18 0 44 -9 58 -20 14 -11 37 -20 51 -20 15 0 34 -4 44 -9 9
-6 33 -13 54 -16 20 -3 39 -12 42 -20 3 -8 13 -15 22 -15 13 0 14 -3 5 -14
-10 -11 -49 -15 -172 -18 -129 -2 -162 -6 -169 -18 -7 -12 -40 -16 -152 -20
-176 -6 -183 -10 -193 -98 -4 -34 -11 -65 -16 -68 -5 -3 -9 -59 -9 -125 0 -97
-3 -121 -15 -125 -11 -5 -15 -24 -15 -80 l0 -74 40 0 c22 0 42 -6 47 -13 4 -8
26 -17 48 -20 22 -4 45 -13 51 -22 7 -9 27 -15 48 -15 23 0 39 -5 42 -15 4 -8
16 -15 28 -15 12 0 29 -9 39 -20 10 -12 29 -20 48 -20 17 0 37 -7 45 -15 9 -8
31 -15 49 -15 19 0 36 -4 39 -9 3 -4 23 -11 45 -15 21 -3 41 -13 45 -21 4 -10
20 -15 51 -15 33 0 45 -4 45 -15 0 -9 9 -15 23 -15 12 0 30 -9 40 -20 9 -11
26 -20 37 -20 15 0 20 -7 20 -29 0 -16 -6 -31 -12 -33 -10 -4 -14 -111 -16
-482 -2 -436 -1 -480 15 -514 24 -50 24 -204 0 -230 -15 -16 -17 -45 -17 -202
0 -168 2 -185 21 -216 11 -19 25 -34 29 -34 12 0 24 -65 16 -92 -3 -13 -18
-36 -33 -53 l-28 -29 0 -182 c0 -194 3 -208 56 -265 19 -21 29 -44 34 -84 3
-30 11 -57 16 -60 5 -4 9 -119 9 -273 0 -227 3 -272 16 -297 13 -23 17 -70 21
-205 3 -121 9 -185 19 -207 10 -23 14 -77 14 -210 1 -141 4 -182 15 -197 12
-16 15 -59 15 -217 0 -109 4 -209 9 -223 6 -13 13 -127 17 -253 4 -143 11
-233 18 -242 7 -9 13 -91 16 -222 4 -147 9 -212 17 -221 8 -7 13 -37 13 -69 0
-69 15 -116 41 -124 10 -4 19 -11 19 -16 0 -5 11 -14 25 -19 14 -5 80 -66 147
-135 67 -69 130 -128 140 -131 21 -6 158 -140 158 -153 0 -5 7 -11 15 -15 13
-5 15 -42 15 -249 0 -205 2 -247 15 -257 12 -10 15 -49 15 -229 0 -119 3 -233
7 -255 5 -31 21 -54 86 -117 43 -44 85 -79 93 -79 7 0 30 -16 50 -35 19 -19
44 -35 55 -35 10 0 19 -7 19 -15 0 -8 6 -15 13 -15 6 -1 23 -14 37 -30 14 -17
34 -30 47 -30 13 0 23 -5 23 -10 0 -18 54 -59 78 -60 12 0 22 -4 22 -10 0 -18
75 -79 98 -80 12 0 22 -4 22 -10 0 -16 79 -90 96 -90 8 0 27 -14 41 -30 13
-17 34 -30 45 -30 11 0 39 -22 65 -50 25 -27 53 -50 63 -50 10 0 32 -16 49
-35 17 -19 39 -35 50 -35 11 0 23 -4 26 -10 3 -5 31 -10 61 -10 l54 0 0 75 c0
48 4 75 11 75 6 0 32 -20 57 -45 25 -25 51 -45 59 -45 7 0 36 -22 65 -50 28
-27 58 -50 66 -50 7 0 28 -16 46 -35 19 -19 40 -35 47 -35 8 0 34 -20 59 -45
25 -24 53 -44 63 -45 10 0 31 -16 48 -35 17 -19 37 -35 44 -35 8 0 29 -13 47
-30 18 -16 44 -31 58 -32 48 -3 95 4 102 15 11 18 8 253 -4 317 -6 30 -13 153
-17 273 -4 151 -10 220 -18 225 -6 4 -15 43 -19 87 -7 81 -26 114 -64 115 -9
0 -27 13 -40 30 -14 16 -33 29 -43 30 -10 0 -31 13 -47 29 -30 30 -101 71
-123 71 -7 0 -24 13 -37 30 -14 16 -30 29 -37 30 -20 0 -73 51 -73 70 0 10 7
25 15 34 8 8 15 21 15 28 0 8 7 23 15 34 9 11 14 42 15 77 0 44 3 57 15 57 12
0 15 15 15 74 0 50 4 77 14 85 7 6 16 41 19 81 3 38 13 80 21 92 10 14 16 45
16 83 1 37 6 67 15 79 9 12 15 43 15 75 1 31 7 67 15 81 8 14 14 45 15 70 0
25 7 67 15 94 8 27 15 70 15 96 0 30 6 52 15 60 8 7 15 23 15 36 l0 24 574 0
574 0 6 -33 c4 -17 13 -63 20 -102 7 -38 18 -83 24 -98 7 -16 12 -55 12 -88 0
-44 4 -61 15 -65 11 -5 15 -23 15 -74 0 -48 5 -73 15 -84 10 -10 15 -35 15
-77 0 -42 5 -68 15 -80 10 -10 18 -45 22 -90 4 -41 12 -80 20 -87 8 -9 13 -38
13 -83 0 -38 4 -69 9 -69 4 0 11 -34 13 -75 5 -69 8 -78 37 -104 17 -15 31
-36 31 -46 0 -19 -55 -75 -74 -75 -6 -1 -22 -14 -36 -30 -13 -17 -34 -30 -45
-30 -12 0 -34 -14 -50 -30 -16 -17 -36 -30 -44 -30 -9 0 -29 -16 -45 -35 -16
-19 -39 -35 -50 -35 -12 0 -32 -12 -46 -27 -13 -14 -37 -30 -52 -35 -28 -10
-28 -11 -28 -93 0 -54 -5 -93 -15 -111 -12 -23 -15 -71 -15 -230 0 -167 -3
-204 -15 -214 -12 -10 -15 -43 -15 -181 l0 -169 68 0 c63 0 71 2 97 30 16 17
34 30 41 30 7 0 38 25 69 55 32 30 65 55 73 55 8 0 34 20 58 45 23 25 49 45
58 45 9 0 32 16 52 35 19 19 41 35 47 35 15 1 87 67 87 80 0 6 10 10 23 10 13
0 33 13 47 30 39 45 50 39 50 -29 0 -87 3 -91 66 -91 30 0 54 5 54 10 0 6 7
10 15 10 8 0 15 6 15 14 0 8 12 17 28 21 31 7 72 38 72 54 0 6 8 11 18 11 19
1 72 44 72 60 0 5 7 10 15 10 8 0 15 4 15 9 0 5 12 12 28 16 15 3 39 20 54 36
15 16 33 29 40 29 16 1 68 46 68 60 0 5 7 10 15 10 8 0 15 4 15 9 0 5 13 14
30 20 16 5 30 15 30 20 0 6 7 11 15 11 8 0 15 4 15 9 0 18 47 61 66 61 19 0
54 32 54 49 0 5 14 12 31 16 17 4 50 27 74 51 25 24 54 44 65 44 11 0 20 5 20
10 0 17 51 60 71 60 10 0 29 12 43 28 59 64 76 86 76 101 0 9 7 25 15 35 12
16 15 62 15 242 0 185 2 224 15 234 13 10 15 51 15 249 0 274 -11 242 128 379
50 51 92 97 92 102 0 6 9 10 20 10 19 0 190 161 190 179 0 5 12 17 28 27 15
10 44 36 65 58 34 36 37 45 37 96 0 31 4 60 9 66 5 5 11 111 13 236 3 177 7
230 19 244 11 13 15 63 18 227 2 163 6 214 17 224 11 12 14 58 14 227 0 178 3
216 15 226 12 10 15 48 15 221 0 161 3 211 14 221 9 10 14 62 18 196 4 128 9
187 19 198 9 11 14 83 16 287 3 150 8 281 13 292 5 11 11 45 12 75 3 52 4 55
31 58 16 2 31 11 33 20 3 9 11 28 17 41 8 15 12 85 12 190 0 149 -2 169 -20
196 -11 17 -25 34 -32 38 -8 5 -13 31 -13 71 0 58 3 66 35 100 l35 37 0 167
c0 144 -3 171 -17 192 -24 33 -26 198 -3 225 13 16 15 89 15 523 0 395 -3 506
-12 510 -35 11 21 72 66 72 19 0 34 6 37 15 4 10 20 15 44 15 22 0 42 5 45 10
11 19 88 50 122 50 21 0 36 6 39 15 4 8 18 15 34 15 39 0 60 9 60 26 0 10 13
14 44 14 30 0 46 5 50 15 3 9 19 15 41 15 22 0 43 8 55 20 11 11 29 20 39 20
10 0 21 7 25 15 3 9 18 15 39 15 53 0 77 33 77 107 0 42 -5 64 -15 73 -12 10
-15 38 -15 130 0 91 -3 120 -15 130 -8 6 -17 38 -21 71 l-7 59 -131 0 c-112 0
-137 3 -169 20 -32 17 -56 20 -183 20 -106 0 -149 4 -158 13 -20 20 4 47 48
54 20 3 39 10 42 14 3 5 18 9 35 9 19 0 29 5 29 14 0 10 16 17 45 21 24 4 50
13 56 21 6 8 27 14 46 14 21 0 36 6 39 15 4 10 20 15 44 15 21 0 43 7 50 15 7
8 30 18 51 21 21 4 40 13 43 20 3 8 19 14 36 14 l30 0 0 164 c0 133 -3 166
-15 176 -11 9 -15 34 -15 95 0 72 -3 85 -24 108 -23 25 -26 25 -198 28 -150 4
-177 6 -192 22 -15 15 -38 17 -170 17 -124 0 -156 3 -166 15 -10 13 -9 15 9
15 12 0 21 6 21 15 0 10 16 16 50 21 28 4 53 11 56 15 3 5 18 9 34 9 16 0 35
7 43 15 8 7 26 17 40 20 14 4 28 13 31 21 3 9 20 14 45 14 25 0 41 5 45 15 3
9 18 15 39 15 20 0 44 8 57 20 13 11 37 20 55 20 20 0 35 6 39 15 3 9 19 15
41 15 57 0 75 27 75 109 0 39 -4 73 -10 76 -6 3 -10 53 -10 113 -1 85 -5 115
-20 147 -11 22 -19 59 -20 83 l0 42 -103 0 c-83 0 -109 4 -140 20 -32 17 -56
20 -185 20 -114 0 -152 3 -169 15 -15 11 -57 15 -159 17 l-139 3 -3 25 c-2 14
-10 29 -18 33 -8 5 -14 24 -14 45 0 39 -37 92 -64 92 -7 0 -25 11 -40 25 -15
14 -34 25 -42 25 -8 0 -22 9 -31 20 -10 11 -25 20 -35 20 -9 0 -33 16 -52 35
-20 19 -43 35 -52 35 -9 0 -27 11 -40 25 -12 13 -34 27 -48 31 -14 3 -26 12
-26 20 0 9 -11 14 -30 14 l-30 0 0 70 c0 67 -2 72 -35 104 -19 19 -35 37 -35
41 0 13 -45 44 -63 45 -10 0 -20 7 -23 15 -4 8 -12 15 -19 15 -7 0 -15 7 -19
15 -3 8 -15 15 -26 15 -11 0 -23 7 -26 15 -4 8 -14 15 -25 15 -10 0 -33 16
-52 35 -19 19 -43 35 -53 35 -11 0 -27 9 -37 20 -9 11 -23 20 -30 20 -8 0 -26
11 -41 25 -15 14 -38 28 -51 31 -13 3 -26 12 -29 20 -3 8 -15 14 -26 14 -11 0
-23 7 -26 15 -5 11 -24 15 -79 15 l-74 0 -3 -32 -3 -33 -77 -3 -78 -3 0 -44
c0 -43 -1 -44 -36 -47 -35 -3 -46 -12 -58 -50 -4 -15 -18 -18 -81 -18 -58 0
-75 -3 -75 -14 0 -8 -5 -16 -11 -18 -14 -5 -39 -75 -39 -111 0 -15 -9 -35 -20
-44 -11 -10 -20 -23 -20 -30 0 -21 -21 -15 -27 7 -3 11 -12 20 -19 20 -9 0
-14 11 -14 28 0 15 -9 35 -20 45 -11 9 -20 23 -20 30 0 6 -11 24 -25 39 -14
15 -25 36 -25 47 0 11 -16 35 -35 54 -19 19 -35 43 -35 53 -1 10 -14 30 -30
44 -20 16 -30 33 -30 52 0 18 -5 28 -15 28 -8 0 -15 7 -15 15 0 9 -7 18 -15
21 -8 4 -15 16 -15 28 0 11 -13 30 -28 41 -26 19 -44 20 -582 21 -305 1 -590
-2 -632 -5z m2075 -569 c2 -32 1 -48 -4 -40 -5 7 -8 36 -8 63 1 60 6 50 12
-23z m-3046 11 c-3 -10 -5 -4 -5 12 0 17 2 24 5 18 2 -7 2 -21 0 -30z m120
-10 c-3 -10 -5 -4 -5 12 0 17 2 24 5 18 2 -7 2 -21 0 -30z m2953 -194 c0 -16
-4 -28 -9 -25 -8 5 -3 56 5 56 2 0 4 -14 4 -31z m-3113 -76 c-3 -10 -5 -4 -5
12 0 17 2 24 5 18 2 -7 2 -21 0 -30z m3120 15 c-3 -8 -6 -5 -6 6 -1 11 2 17 5
13 3 -3 4 -12 1 -19z m23 -120 c0 -29 -4 -48 -8 -41 -7 12 -4 93 4 93 2 0 4
-24 4 -52z m221 -15 c13 -16 12 -17 -3 -5 -14 11 -17 10 -21 -5 -4 -14 -5 -13
-6 5 -1 26 11 29 30 5z m-3601 3 c0 -2 -8 -10 -17 -17 -16 -13 -17 -12 -4 4
13 16 21 21 21 13z m17 -18 c-3 -8 -6 -5 -6 6 -1 11 2 17 5 13 3 -3 4 -12 1
-19z m206 2 c3 -11 1 -20 -4 -20 -5 0 -9 9 -9 20 0 11 2 20 4 20 2 0 6 -9 9
-20z m1640 -7 c-29 -2 -78 -2 -110 0 -32 2 -8 3 52 3 61 0 87 -1 58 -3z m-335
-10 c-26 -2 -71 -2 -100 0 -29 2 -8 3 47 3 55 0 79 -1 53 -3z m759 -18 c1 -15
1 -16 -3 -3 -5 15 -23 18 -140 21 l-134 3 137 -1 c130 0 138 -1 140 -20z
m-2296 -18 l-24 -22 19 27 c10 14 21 24 23 22 3 -3 -6 -15 -18 -27z m1323 26
c-5 -5 -12 -12 -16 -18 -4 -6 -8 -2 -8 8 0 9 7 17 17 17 9 0 12 -3 7 -7z
m-1405 -17 c-2 -2 -15 -9 -29 -15 -24 -11 -24 -11 -6 3 16 13 49 24 35 12z
m298 -38 c-3 -7 -5 -2 -5 12 0 14 2 19 5 13 2 -7 2 -19 0 -25z m3414 15 c13
-16 12 -17 -3 -4 -17 13 -22 21 -14 21 2 0 10 -8 17 -17z m125 1 c18 -14 18
-14 -6 -3 -31 14 -36 19 -24 19 6 0 19 -7 30 -16z m-1442 -10 c3 -8 2 -12 -4
-9 -6 3 -10 10 -10 16 0 14 7 11 14 -7z m-2454 1 c0 -6 -76 -45 -87 -45 -4 1
12 12 37 25 50 27 50 27 50 20z m600 -151 c0 -105 3 -134 15 -144 12 -10 15
-36 15 -117 0 -83 -3 -105 -15 -109 -10 -4 -15 -20 -15 -44 0 -21 -7 -45 -15
-54 -8 -8 -15 -21 -15 -29 0 -8 -9 -26 -20 -40 -11 -14 -20 -39 -20 -55 0 -17
-4 -34 -10 -37 -5 -3 -10 -19 -10 -36 0 -19 -5 -29 -15 -29 -11 0 -15 -11 -15
-43 0 -30 -6 -48 -20 -60 -11 -9 -20 -25 -20 -36 0 -10 -7 -24 -15 -31 -9 -7
-15 -29 -15 -51 0 -28 -4 -39 -15 -39 -11 0 -15 12 -15 44 0 26 6 48 15 56 12
10 15 44 15 183 0 169 0 171 30 233 17 34 37 65 45 68 10 3 15 20 15 46 0 27
5 43 15 46 12 5 15 26 15 103 0 74 4 102 17 120 11 16 18 51 20 105 5 98 10
117 23 96 6 -8 10 -74 10 -146z m2722 38 c3 -75 8 -106 18 -112 10 -6 15 -36
18 -104 3 -53 8 -96 13 -96 5 0 9 -18 9 -40 0 -33 7 -48 35 -77 23 -23 35 -46
35 -63 0 -15 7 -41 15 -56 11 -22 15 -65 15 -179 0 -179 -15 -229 -34 -113 -4
20 -13 39 -21 42 -9 3 -15 18 -15 36 0 20 -5 30 -15 30 -11 0 -15 12 -15 45 0
33 -4 45 -15 45 -10 0 -15 10 -15 29 0 16 -7 34 -15 41 -8 7 -15 27 -15 45 0
18 -7 38 -15 45 -8 7 -15 25 -15 41 0 19 -5 29 -15 29 -13 0 -15 21 -15 129 0
105 3 130 15 135 12 4 15 28 15 129 0 68 3 127 7 131 15 15 21 -14 25 -112z
m-3212 104 c0 -2 -7 -7 -16 -10 -8 -3 -12 -2 -9 4 6 10 25 14 25 6z m3870 -32
c0 -2 -13 2 -30 11 -16 9 -30 18 -30 21 0 2 14 -2 30 -11 17 -9 30 -18 30 -21z
m-1603 0 c-3 -3 -12 -4 -19 -1 -8 3 -5 6 6 6 11 1 17 -2 13 -5z m-44 -85 c-4
-4 -6 13 -3 39 l5 47 3 -39 c2 -21 0 -42 -5 -47z m97 55 c0 -8 -4 -12 -10 -9
-5 3 -10 10 -10 16 0 5 5 9 10 9 6 0 10 -7 10 -16z m1680 -60 l35 -38 -46 39
c-25 22 -54 46 -65 53 -10 7 -5 6 11 -2 17 -8 46 -31 65 -52z m-4131 53 c-2
-1 -15 -11 -29 -22 l-25 -20 19 23 c11 12 24 22 29 22 6 0 8 -1 6 -3z m1575
-17 c7 -7 1 -7 -19 -1 -54 17 -61 21 -25 16 19 -3 39 -10 44 -15z m594 13
c-20 -3 -28 -10 -29 -26 0 -12 -3 -16 -6 -9 -9 24 6 42 34 41 l28 -2 -27 -4z
m1778 -9 c18 -14 18 -14 -6 -3 -31 14 -36 19 -24 19 6 0 19 -7 30 -16z m-4091
-4 c-3 -5 -12 -10 -18 -10 -7 0 -6 4 3 10 19 12 23 12 15 0z m2359 -20 c-6 -6
-10 -3 -10 10 0 13 4 16 10 10 7 -7 7 -13 0 -20z m-2394 7 c0 -2 -10 -12 -22
-23 l-23 -19 19 23 c18 21 26 27 26 19z m1795 -17 c10 -11 16 -20 13 -20 -3 0
-13 9 -23 20 -10 11 -16 20 -13 20 3 0 13 -9 23 -20z m348 13 c-7 -2 -21 -2
-30 0 -10 3 -4 5 12 5 17 0 24 -2 18 -5z m274 -13 c-14 -11 -28 -20 -32 -20
-10 0 38 39 49 40 5 0 -3 -9 -17 -20z m-336 -24 c-6 -14 -16 -26 -23 -26 -9 0
-10 3 -2 8 6 4 15 17 19 30 4 13 9 22 11 19 3 -2 0 -16 -5 -31z m109 -3 c0
-11 8 -14 29 -11 17 2 28 1 25 -4 -3 -4 -16 -8 -29 -8 -16 0 -28 9 -39 31 -13
26 -13 29 -1 19 8 -7 15 -19 15 -27z m2060 -8 c0 -3 -18 4 -40 15 -22 11 -40
23 -40 25 0 3 18 -4 40 -15 22 -11 40 -23 40 -25z m-493 3 c-3 -7 -5 -2 -5 12
0 14 2 19 5 13 2 -7 2 -19 0 -25z m-3226 -29 l-9 -44 -1 41 c-1 22 2 44 6 47
12 12 13 1 4 -44z m1500 34 c13 -16 12 -17 -3 -5 -9 8 -23 10 -29 6 -8 -4 -9
-3 -5 4 10 17 21 15 37 -5z m448 -5 c-12 -22 -21 -24 -13 -3 5 11 1 14 -12 9
-13 -4 -15 -3 -6 3 23 17 42 12 31 -9z m-626 5 c-7 -2 -19 -2 -25 0 -7 3 -2 5
12 5 14 0 19 -2 13 -5z m126 -9 c10 -9 -55 -3 -69 6 -10 6 -2 7 25 3 22 -3 42
-7 44 -9z m308 10 c-3 -3 -12 -4 -19 -1 -8 3 -5 6 6 6 11 1 17 -2 13 -5z
m2069 -53 c-9 -13 -33 -14 -40 -2 -4 5 4 7 16 3 18 -4 20 -2 14 14 -5 14 -4
16 5 7 6 -6 8 -16 5 -22z m-4401 -3 c6 -4 2 -8 -7 -8 -10 0 -18 7 -18 17 0 9
3 12 8 7 4 -5 12 -12 17 -16z m3837 -130 c2 -20 0 -34 -4 -32 -4 3 -7 26 -7
52 1 49 5 42 11 -20z m-3287 -17 c-3 -12 -11 -21 -16 -21 -6 0 -8 3 -6 8 2 4
7 16 11 26 9 25 20 13 11 -13z m3370 -81 c3 -6 -1 -7 -9 -4 -18 7 -21 14 -7
14 6 0 13 -4 16 -10z m-3495 -24 c0 -3 -4 -8 -10 -11 -5 -3 -10 -1 -10 4 0 6
5 11 10 11 6 0 10 -2 10 -4z m-160 -91 c-7 -8 -17 -15 -23 -15 -6 0 -2 7 9 15
25 19 30 19 14 0z m3875 -13 c-3 -3 -11 0 -18 7 -9 10 -8 11 6 5 10 -3 15 -9
12 -12z m-3925 -17 c-7 -8 -17 -15 -23 -15 -6 0 -2 7 9 15 25 19 30 19 14 0z
m1647 -12 c-20 -2 -52 -2 -70 0 -17 2 0 4 38 4 39 0 53 -2 32 -4z m711 0 c-26
-2 -71 -2 -100 0 -29 2 -8 3 47 3 55 0 79 -1 53 -3z m-845 -21 c-10 -10 -20
-14 -22 -9 -2 5 3 13 10 18 24 15 30 10 12 -9z m937 8 c24 -15 7 -18 -20 -3
-14 7 -18 13 -10 13 8 0 22 -4 30 -10z m-2515 -10 c-3 -5 -14 -10 -23 -9 -14
0 -13 2 3 9 27 11 27 11 20 0z m4105 -10 c0 -5 -2 -10 -4 -10 -3 0 -8 5 -11
10 -3 6 -1 10 4 10 6 0 11 -4 11 -10z m-4180 -27 c0 -5 -12 -14 -28 -20 l-27
-13 24 20 c25 22 31 24 31 13z m1791 -57 c-9 -18 -18 -29 -19 -24 -4 8 24 58
32 58 2 0 -4 -15 -13 -34z m-133 -11 c-3 -3 -9 2 -12 12 -6 14 -5 15 5 6 7 -7
10 -15 7 -18z m264 -17 c-6 -6 -7 0 -4 19 5 21 7 23 10 9 2 -10 0 -22 -6 -28z
m755 -95 c-2 -27 -3 -5 -3 47 0 52 1 74 3 48 2 -27 2 -69 0 -95z m-388 111 c1
11 4 17 7 13 3 -3 3 -15 -1 -28 -6 -17 -9 -19 -16 -8 -5 8 -8 21 -8 29 0 10 3
8 9 -5 8 -19 9 -19 9 -1z m-397 -36 c-6 -6 -7 0 -4 19 5 21 7 23 10 9 2 -10 0
-22 -6 -28z m188 8 c0 -14 -4 -27 -9 -30 -4 -3 -6 7 -4 22 3 23 2 24 -6 7 -7
-15 -10 -16 -10 -4 -1 9 2 19 6 22 13 14 23 6 23 -17z m436 -2 c8 3 14 1 14
-5 0 -16 -35 -6 -36 11 -1 10 0 11 3 2 3 -8 11 -11 19 -8z m71 4 c-3 -8 -6 -5
-6 6 -1 11 2 17 5 13 3 -3 4 -12 1 -19z m-349 5 c-10 -2 -18 -13 -18 -23 0
-10 -4 -22 -10 -25 -5 -3 -8 1 -5 9 3 9 7 23 10 31 2 8 12 14 22 14 17 -1 17
-2 1 -6z m-397 -33 c5 0 9 -5 9 -11 0 -8 -5 -8 -15 1 -8 7 -14 20 -14 29 1 13
2 13 6 -1 2 -10 9 -18 14 -18z m-114 14 c-3 -3 -12 -4 -19 -1 -8 3 -5 6 6 6
11 1 17 -2 13 -5z m517 -9 c-4 -10 0 -15 14 -15 12 0 30 -13 42 -32 l22 -33
-24 28 c-13 15 -31 27 -40 27 -20 0 -32 16 -23 30 9 15 15 12 9 -5z m-236 -2
c-10 -2 -18 -9 -18 -15 0 -6 -3 -9 -6 -5 -10 10 6 27 24 26 15 -1 15 -2 0 -6z
m-211 -49 c-9 -9 -28 6 -21 18 4 6 10 6 17 -1 6 -6 8 -13 4 -17z m83 16 c0 -5
-8 -10 -17 -10 -15 0 -16 2 -3 10 19 12 20 12 20 0z m253 -39 c-2 -3 -16 8
-31 24 l-27 28 31 -24 c17 -13 30 -26 27 -28z m376 46 c-2 -1 -13 -9 -24 -17
-19 -14 -19 -14 -6 3 7 9 18 17 24 17 6 0 8 -1 6 -3z m-2719 -11 c0 -2 -7 -9
-15 -16 -13 -11 -14 -10 -9 4 5 14 24 23 24 12z m2410 -26 c0 -24 -3 -28 -17
-23 -11 4 -12 8 -5 11 7 2 12 12 12 23 0 10 2 19 5 19 3 0 5 -13 5 -30z m206
6 c2 -14 1 -14 -3 0 -3 9 -11 13 -19 10 -9 -3 -12 -1 -9 5 10 15 30 5 31 -15z
m-435 -49 c-16 -16 -34 5 -28 34 4 22 4 22 6 -3 2 -39 21 -35 22 5 2 31 2 32
6 3 3 -16 0 -33 -6 -39z m-274 21 c-3 -7 -5 -2 -5 12 0 14 2 19 5 13 2 -7 2
-19 0 -25z m763 7 c-7 -8 -22 -14 -34 -14 -20 1 -20 2 -1 6 11 3 24 9 30 14
15 14 19 10 5 -6z m2019 -39 c-1 -17 -2 -16 -9 6 -4 14 -11 32 -15 40 -3 7 1
4 9 -6 9 -11 16 -29 15 -40z m-2747 -8 c-12 -12 -32 -2 -31 15 0 9 2 9 6 0 9
-23 23 -14 24 15 2 25 2 25 6 3 3 -13 0 -28 -5 -33z m313 42 c3 -6 -1 -7 -9
-4 -18 7 -21 14 -7 14 6 0 13 -4 16 -10z m-2288 -22 c-3 -8 -6 -5 -6 6 -1 11
2 17 5 13 3 -3 4 -12 1 -19z m2120 -13 c1 -16 1 -16 -3 -2 -6 20 -30 23 -37 5
-3 -8 -6 -5 -6 5 -1 27 43 19 46 -8z m202 -22 c2 -2 0 -3 -6 -3 -6 0 -21 9
-34 21 l-24 20 30 -17 c17 -10 32 -19 34 -21z m18 5 c-3 -8 -6 -5 -6 6 -1 11
2 17 5 13 3 -3 4 -12 1 -19z m-2367 -94 c0 -25 -4 -43 -8 -40 -7 4 -4 86 4 86
2 0 4 -21 4 -46z m4782 -9 c3 -14 1 -28 -3 -31 -5 -3 -9 9 -9 25 0 38 6 40 12
6z m-834 -48 c2 -10 -3 -17 -12 -17 -10 0 -16 9 -16 21 0 24 23 21 28 -4z
m-3981 -134 c-3 -10 -5 -4 -5 12 0 17 2 24 5 18 2 -7 2 -21 0 -30z m4845 -37
c3 -14 1 -31 -3 -38 -6 -8 -9 1 -9 25 0 42 6 48 12 13z m-1979 -93 c-7 -2 -21
-2 -30 0 -10 3 -4 5 12 5 17 0 24 -2 18 -5z m2005 -115 c-1 -69 -1 -70 -7 -23
-3 28 -4 60 -2 73 7 43 11 21 9 -50z m-4901 10 c-2 -13 -4 -5 -4 17 -1 22 1
32 4 23 2 -10 2 -28 0 -40z m2021 -35 c-49 -2 -127 -2 -175 0 -49 1 -9 3 87 3
96 0 136 -2 88 -3z m-275 -23 c-3 -12 -8 -19 -11 -16 -5 6 5 36 12 36 2 0 2
-9 -1 -20z m-16 -52 c-3 -8 -6 -5 -6 6 -1 11 2 17 5 13 3 -3 4 -12 1 -19z
m1440 -10 c-3 -8 -6 -5 -6 6 -1 11 2 17 5 13 3 -3 4 -12 1 -19z m-3170 -40
c-3 -8 -6 -5 -6 6 -1 11 2 17 5 13 3 -3 4 -12 1 -19z m1720 -35 c-3 -10 -5 -2
-5 17 0 19 2 27 5 18 2 -10 2 -26 0 -35z m1460 -15 c-2 -13 -4 -5 -4 17 -1 22
1 32 4 23 2 -10 2 -28 0 -40z m1751 -25 c-1 -62 -2 -64 -7 -23 -3 25 -4 55 -2
68 7 42 11 22 9 -45z m-1805 50 c3 -5 -68 -7 -156 -5 -302 4 -333 8 -90 10
133 1 244 -1 246 -5z m-3156 -40 c-3 -10 -5 -4 -5 12 0 17 2 24 5 18 2 -7 2
-21 0 -30z m3170 -5 c-3 -8 -6 -5 -6 6 -1 11 2 17 5 13 3 -3 4 -12 1 -19z
m-1390 -25 c-3 -10 -5 -4 -5 12 0 17 2 24 5 18 2 -7 2 -21 0 -30z m-1620 -5
c-3 -7 -5 -2 -5 12 0 14 2 19 5 13 2 -7 2 -19 0 -25z m1580 -15 c-3 -10 -5 -4
-5 12 0 17 2 24 5 18 2 -7 2 -21 0 -30z m-1750 -5 c-3 -7 -5 -2 -5 12 0 14 2
19 5 13 2 -7 2 -19 0 -25z m3190 0 c-3 -7 -5 -2 -5 12 0 14 2 19 5 13 2 -7 2
-19 0 -25z m40 -10 c-3 -7 -5 -2 -5 12 0 14 2 19 5 13 2 -7 2 -19 0 -25z
m-1450 -45 c-3 -10 -5 -2 -5 17 0 19 2 27 5 18 2 -10 2 -26 0 -35z m1460 5
c-3 -8 -6 -5 -6 6 -1 11 2 17 5 13 3 -3 4 -12 1 -19z m-40 -35 c-3 -10 -5 -4
-5 12 0 17 2 24 5 18 2 -7 2 -21 0 -30z m-1470 -20 c-3 -10 -5 -4 -5 12 0 17
2 24 5 18 2 -7 2 -21 0 -30z m3273 -13 c0 -27 -3 -50 -7 -50 -5 0 -6 22 -5 50
5 65 12 65 12 0z m-1753 3 c-3 -10 -5 -4 -5 12 0 17 2 24 5 18 2 -7 2 -21 0
-30z m-1480 -10 c-3 -10 -5 -4 -5 12 0 17 2 24 5 18 2 -7 2 -21 0 -30z m1250
1 c-3 -3 -245 -6 -539 -5 -293 0 -543 -3 -555 -6 -13 -3 -20 -9 -17 -14 3 -5
11 -7 17 -3 7 3 5 -1 -5 -8 -9 -8 -18 -25 -21 -38 -2 -15 -5 -6 -6 21 0 25 2
49 6 52 3 4 258 7 566 7 308 0 558 -3 554 -6z m190 -26 c-3 -7 -5 -2 -5 12 0
14 2 19 5 13 2 -7 2 -19 0 -25z m-128 -41 c-1 -59 -5 -54 -12 15 -2 26 -1 45
4 42 5 -3 9 -29 8 -57z m-3102 16 c-3 -10 -5 -4 -5 12 0 17 2 24 5 18 2 -7 2
-21 0 -30z m2723 27 c0 -5 -2 -10 -4 -10 -3 0 -8 5 -11 10 -3 6 -1 10 4 10 6
0 11 -4 11 -10z m-983 -37 c-3 -10 -5 -4 -5 12 0 17 2 24 5 18 2 -7 2 -21 0
-30z m809 5 c-9 -12 -16 -19 -16 -15 0 11 24 47 28 42 2 -2 -3 -14 -12 -27z
m-769 0 c-3 -8 -6 -5 -6 6 -1 11 2 17 5 13 3 -3 4 -12 1 -19z m1460 -20 c-3
-7 -5 -2 -5 12 0 14 2 19 5 13 2 -7 2 -19 0 -25z m40 0 c-3 -7 -5 -2 -5 12 0
14 2 19 5 13 2 -7 2 -19 0 -25z m-789 -74 l-3 -69 -5 77 c-3 42 -1 73 3 69 4
-4 7 -39 5 -77z m-721 19 c-3 -10 -5 -2 -5 17 0 19 2 27 5 18 2 -10 2 -26 0
-35z m760 -155 c-1 -40 -3 -10 -3 67 0 77 1 110 3 73 2 -37 2 -100 0 -140z
m2495 180 c-7 -7 -12 -8 -12 -2 0 14 12 26 19 19 2 -3 -1 -11 -7 -17z m-5032
2 c0 -5 -5 -10 -11 -10 -5 0 -7 5 -4 10 3 6 8 10 11 10 2 0 4 -4 4 -10z m1917
-22 c-3 -8 -6 -5 -6 6 -1 11 2 17 5 13 3 -3 4 -12 1 -19z m1380 0 c-3 -8 -6
-5 -6 6 -1 11 2 17 5 13 3 -3 4 -12 1 -19z m-40 -35 c-3 -10 -5 -2 -5 17 0 19
2 27 5 18 2 -10 2 -26 0 -35z m-1000 15 c-3 -8 -6 -5 -6 6 -1 11 2 17 5 13 3
-3 4 -12 1 -19z m150 16 c-3 -3 -12 -4 -19 -1 -8 3 -5 6 6 6 11 1 17 -2 13 -5z
m370 -16 c-3 -8 -6 -5 -6 6 -1 11 2 17 5 13 3 -3 4 -12 1 -19z m340 0 c-3 -8
-6 -5 -6 6 -1 11 2 17 5 13 3 -3 4 -12 1 -19z m-1390 -20 c-3 -7 -5 -2 -5 12
0 14 2 19 5 13 2 -7 2 -19 0 -25z m926 25 l-33 -4 -2 -137 -2 -137 -3 129 c-2
72 -1 136 1 143 3 8 19 12 38 11 l33 -1 -32 -4z m654 -40 c-3 -10 -5 -4 -5 12
0 17 2 24 5 18 2 -7 2 -21 0 -30z m-1400 5 c-3 -8 -6 -5 -6 6 -1 11 2 17 5 13
3 -3 4 -12 1 -19z m-1030 -10 c-3 -8 -6 -5 -6 6 -1 11 2 17 5 13 3 -3 4 -12 1
-19z m171 -9 c-3 -8 -7 -3 -11 10 -4 17 -3 21 5 13 5 -5 8 -16 6 -23z m1289
-1 c-3 -7 -5 -2 -5 12 0 14 2 19 5 13 2 -7 2 -19 0 -25z m-1313 6 c3 -8 2 -12
-4 -9 -6 3 -10 10 -10 16 0 14 7 11 14 -7z m743 -16 c-3 -7 -5 -2 -5 12 0 14
2 19 5 13 2 -7 2 -19 0 -25z m1360 10 c-3 -8 -6 -5 -6 6 -1 11 2 17 5 13 3 -3
4 -12 1 -19z m-330 -20 c-3 -8 -6 -5 -6 6 -1 11 2 17 5 13 3 -3 4 -12 1 -19z
m470 -10 c-3 -7 -5 -2 -5 12 0 14 2 19 5 13 2 -7 2 -19 0 -25z m-1550 -15 c-3
-10 -5 -4 -5 12 0 17 2 24 5 18 2 -7 2 -21 0 -30z m180 -20 c-3 -10 -5 -2 -5
17 0 19 2 27 5 18 2 -10 2 -26 0 -35z m-900 11 c-9 -9 -28 6 -21 18 4 6 10 6
17 -1 6 -6 8 -13 4 -17z m760 4 c-3 -8 -6 -5 -6 6 -1 11 2 17 5 13 3 -3 4 -12
1 -19z m470 -10 c-3 -7 -5 -2 -5 12 0 14 2 19 5 13 2 -7 2 -19 0 -25z m493 -3
c0 -5 -5 -3 -10 5 -5 8 -10 20 -10 25 0 6 5 3 10 -5 5 -8 10 -19 10 -25z m597
-12 c-3 -10 -5 -2 -5 17 0 19 2 27 5 18 2 -10 2 -26 0 -35z m-180 0 c-3 -10
-5 -4 -5 12 0 17 2 24 5 18 2 -7 2 -21 0 -30z m1922 -47 c-5 -6 -9 10 -8 40
l1 49 8 -40 c5 -22 4 -44 -1 -49z m-5079 22 c-1 -38 -3 -48 -10 -37 -8 14 -3
89 6 89 2 0 4 -24 4 -52z m2337 5 c-3 -10 -5 -2 -5 17 0 19 2 27 5 18 2 -10 2
-26 0 -35z m960 15 c-3 -7 -5 -2 -5 12 0 14 2 19 5 13 2 -7 2 -19 0 -25z
m-470 -15 c-3 -10 -5 -4 -5 12 0 17 2 24 5 18 2 -7 2 -21 0 -30z m-1060 -35
c-2 -13 -4 -3 -4 22 0 25 2 35 4 23 2 -13 2 -33 0 -45z m-40 10 c-3 -8 -6 -5
-6 6 -1 11 2 17 5 13 3 -3 4 -12 1 -19z m180 -10 c-3 -7 -5 -2 -5 12 0 14 2
19 5 13 2 -7 2 -19 0 -25z m330 0 c-3 -8 -6 -5 -6 6 -1 11 2 17 5 13 3 -3 4
-12 1 -19z m1070 -25 c-3 -10 -5 -2 -5 17 0 19 2 27 5 18 2 -10 2 -26 0 -35z
m40 25 c-3 -8 -6 -5 -6 6 -1 11 2 17 5 13 3 -3 4 -12 1 -19z m-180 -10 c-3 -8
-6 -5 -6 6 -1 11 2 17 5 13 3 -3 4 -12 1 -19z m-2156 -15 c13 -16 12 -17 -3
-4 -10 7 -18 15 -18 17 0 8 8 3 21 -13z m706 -15 c-3 -7 -5 -2 -5 12 0 14 2
19 5 13 2 -7 2 -19 0 -25z m810 -140 c-2 -35 -3 -9 -3 57 0 66 1 94 3 63 2
-32 2 -86 0 -120z m310 95 c-2 -16 -4 -5 -4 22 0 28 2 40 4 28 2 -13 2 -35 0
-50z m520 5 c-2 -13 -4 -3 -4 22 0 25 2 35 4 23 2 -13 2 -33 0 -45z m-1460 30
c-3 -8 -6 -5 -6 6 -1 11 2 17 5 13 3 -3 4 -12 1 -19z m2210 0 c-3 -8 -6 -5 -6
6 -1 11 2 17 5 13 3 -3 4 -12 1 -19z m-2350 -10 c-3 -8 -6 -5 -6 6 -1 11 2 17
5 13 3 -3 4 -12 1 -19z m1420 -10 c-3 -7 -5 -2 -5 12 0 14 2 19 5 13 2 -7 2
-19 0 -25z m-2158 19 c-2 -1 -13 -9 -24 -17 -19 -14 -19 -14 -6 3 7 9 18 17
24 17 6 0 8 -1 6 -3z m1308 -319 c-1 -62 -3 -14 -3 107 0 121 2 172 3 113 2
-59 2 -158 0 -220z m-100 -65 c-1 -71 -3 -13 -3 127 0 140 2 198 3 128 2 -71
2 -185 0 -255z m-340 330 c-3 -10 -5 -4 -5 12 0 17 2 24 5 18 2 -7 2 -21 0
-30z m1440 -5 c-3 -8 -6 -5 -6 6 -1 11 2 17 5 13 3 -3 4 -12 1 -19z m736 7
c-3 -9 -8 -14 -10 -11 -3 3 -2 9 2 15 9 16 15 13 8 -4z m-876 -47 c-2 -13 -4
-5 -4 17 -1 22 1 32 4 23 2 -10 2 -28 0 -40z m-1480 -15 c-3 -10 -5 -4 -5 12
0 17 2 24 5 18 2 -7 2 -21 0 -30z m30 15 c-3 -8 -6 -5 -6 6 -1 11 2 17 5 13 3
-3 4 -12 1 -19z m1600 -25 c-3 -10 -5 -2 -5 17 0 19 2 27 5 18 2 -10 2 -26 0
-35z m30 10 c-3 -10 -5 -4 -5 12 0 17 2 24 5 18 2 -7 2 -21 0 -30z m770 0 c-3
-10 -5 -4 -5 12 0 17 2 24 5 18 2 -7 2 -21 0 -30z m-70 5 c-3 -8 -6 -5 -6 6
-1 11 2 17 5 13 3 -3 4 -12 1 -19z m1045 -52 c-9 -18 -11 -16 -11 19 0 33 1
37 10 21 8 -12 8 -25 1 -40z m-3235 22 c-3 -8 -6 -5 -6 6 -1 11 2 17 5 13 3
-3 4 -12 1 -19z m-1915 -13 c-2 -14 -6 -25 -8 -25 -2 0 -4 11 -4 25 0 14 4 25
9 25 4 0 6 -11 3 -25z m2885 -87 c-2 -24 -4 -7 -4 37 0 44 2 63 4 43 2 -21 2
-57 0 -80z m350 80 c-3 -7 -5 -2 -5 12 0 14 2 19 5 13 2 -7 2 -19 0 -25z m863
28 c0 -2 -8 -10 -17 -17 -16 -13 -17 -12 -4 4 13 16 21 21 21 13z m64 -5 c4
-5 -3 -7 -14 -4 -23 6 -26 13 -6 13 8 0 17 -4 20 -9z m-747 -23 c-3 -8 -6 -5
-6 6 -1 11 2 17 5 13 3 -3 4 -12 1 -19z m-1650 -10 c-3 -8 -6 -5 -6 6 -1 11 2
17 5 13 3 -3 4 -12 1 -19z m823 -13 c0 -19 -4 -35 -8 -35 -4 0 -6 16 -4 35 2
19 6 35 8 35 2 0 4 -16 4 -35z m-683 -7 c-3 -7 -5 -2 -5 12 0 14 2 19 5 13 2
-7 2 -19 0 -25z m-1080 0 c-3 -8 -6 -5 -6 6 -1 11 2 17 5 13 3 -3 4 -12 1 -19z
m2572 -23 c0 -5 -4 -3 -9 5 -5 8 -9 22 -9 30 0 16 17 -16 18 -35z m-1672 -2
c-3 -10 -5 -4 -5 12 0 17 2 24 5 18 2 -7 2 -21 0 -30z m1536 -85 c4 -53 4 -61
-2 -28 -14 75 -21 158 -12 128 5 -14 11 -59 14 -100z m822 104 c-3 -3 -11 0
-18 7 -9 10 -8 11 6 5 10 -3 15 -9 12 -12z m-1598 -34 c-3 -7 -5 -2 -5 12 0
14 2 19 5 13 2 -7 2 -19 0 -25z m-590 -15 c-3 -10 -5 -4 -5 12 0 17 2 24 5 18
2 -7 2 -21 0 -30z m-152 -2 c-7 -25 -25 -28 -25 -5 0 8 5 12 10 9 6 -3 10 2
10 11 0 10 3 15 6 11 3 -3 3 -15 -1 -26z m1675 7 c0 -16 -3 -19 -11 -11 -6 6
-8 16 -5 22 11 17 16 13 16 -11z m-633 -45 c-3 -10 -5 -2 -5 17 0 19 2 27 5
18 2 -10 2 -26 0 -35z m-2650 -5 c-3 -8 -6 -5 -6 6 -1 11 2 17 5 13 3 -3 4
-12 1 -19z m2450 3 c-1 -15 -4 -17 -14 -9 -17 14 -16 28 1 28 8 0 14 -9 13
-19z m-698 -33 c-1 -24 1 -56 5 -73 5 -26 5 -27 -3 -5 -5 14 -10 21 -11 15 -1
-5 -5 -1 -9 9 -6 16 7 96 16 96 2 0 3 -19 2 -42z m-192 0 c-3 -7 -5 -2 -5 12
0 14 2 19 5 13 2 -7 2 -19 0 -25z m1763 4 c0 -10 6 -24 13 -32 6 -8 2 -6 -10
4 -24 20 -31 46 -13 46 6 0 10 -8 10 -18z m1722 -42 c3 -17 1 -33 -4 -36 -4
-3 -8 11 -8 30 0 44 6 47 12 6z m-5207 -19 c-3 -12 -11 -21 -16 -21 -6 0 -8 3
-6 8 2 4 7 16 11 26 9 25 20 13 11 -13z m3742 -68 c-2 -16 -4 -3 -4 27 0 30 2
43 4 28 2 -16 2 -40 0 -55z m-460 35 c-3 -7 -5 -2 -5 12 0 14 2 19 5 13 2 -7
2 -19 0 -25z m-480 -130 c-2 -24 -4 -5 -4 42 0 47 2 66 4 43 2 -24 2 -62 0
-85z m-890 90 c-3 -8 -6 -5 -6 6 -1 11 2 17 5 13 3 -3 4 -12 1 -19z m1380 -20
c-3 -8 -6 -5 -6 6 -1 11 2 17 5 13 3 -3 4 -12 1 -19z m-1390 -45 c-3 -10 -5
-2 -5 17 0 19 2 27 5 18 2 -10 2 -26 0 -35z m3113 -133 l-5 -65 -5 85 c-3 47
-3 103 0 125 4 37 5 36 10 -20 3 -33 3 -89 0 -125z m-2103 123 c-3 -10 -5 -2
-5 17 0 19 2 27 5 18 2 -10 2 -26 0 -35z m420 15 c-3 -8 -6 -5 -6 6 -1 11 2
17 5 13 3 -3 4 -12 1 -19z m-30 -50 c-2 -13 -4 -3 -4 22 0 25 2 35 4 23 2 -13
2 -33 0 -45z m-900 0 c-2 -13 -4 -5 -4 17 -1 22 1 32 4 23 2 -10 2 -28 0 -40z
m-2206 -40 c-4 -65 -5 -69 -12 -38 -9 36 -2 110 9 110 4 0 5 -33 3 -72z m3146
25 c-3 -10 -5 -2 -5 17 0 19 2 27 5 18 2 -10 2 -26 0 -35z m-850 -70 c-2 -21
-4 -4 -4 37 0 41 2 58 4 38 2 -21 2 -55 0 -75z m-2527 -3 l-7 -75 -1 85 c-1
46 2 80 6 75 5 -6 5 -44 2 -85z m167 58 c-3 -8 -6 -5 -6 6 -1 11 2 17 5 13 3
-3 4 -12 1 -19z m2580 -60 c-2 -18 -4 -6 -4 27 0 33 2 48 4 33 2 -15 2 -42 0
-60z m180 60 c-3 -8 -6 -5 -6 6 -1 11 2 17 5 13 3 -3 4 -12 1 -19z m2340 -10
c-3 -7 -5 -2 -5 12 0 14 2 19 5 13 2 -7 2 -19 0 -25z m-1930 -25 c-3 -10 -5
-4 -5 12 0 17 2 24 5 18 2 -7 2 -21 0 -30z m1100 5 c-3 -8 -6 -5 -6 6 -1 11 2
17 5 13 3 -3 4 -12 1 -19z m-1462 -11 c19 -4 19 -5 -1 -6 -12 0 -28 7 -35 17
-12 15 -12 16 1 6 8 -7 24 -14 35 -17z m-518 -9 c-3 -8 -6 -5 -6 6 -1 11 2 17
5 13 3 -3 4 -12 1 -19z m-154 5 c-7 -2 -19 -2 -25 0 -7 3 -2 5 12 5 14 0 19
-2 13 -5z m-180 -10 c-35 -2 -91 -2 -125 0 -35 2 -7 3 62 3 69 0 97 -1 63 -3z
m1135 0 c-32 -2 -84 -2 -115 0 -32 2 -6 3 57 3 63 0 89 -1 58 -3z m2019 -35
c-3 -7 -5 -2 -5 12 0 14 2 19 5 13 2 -7 2 -19 0 -25z m-2797 -3 c14 -19 14
-19 -2 -6 -10 7 -18 18 -18 24 0 6 1 8 3 6 1 -2 9 -13 17 -24z m2757 -7 c-3
-7 -5 -2 -5 12 0 14 2 19 5 13 2 -7 2 -19 0 -25z m-1490 0 c-3 -8 -6 -5 -6 6
-1 11 2 17 5 13 3 -3 4 -12 1 -19z m-952 2 c-3 -5 -12 -10 -18 -10 -7 0 -6 4
3 10 19 12 23 12 15 0z m2302 -22 c-3 -7 -5 -2 -5 12 0 14 2 19 5 13 2 -7 2
-19 0 -25z m-5070 -30 c-3 -8 -6 -5 -6 6 -1 11 2 17 5 13 3 -3 4 -12 1 -19z
m5327 13 c4 -5 -3 -7 -14 -4 -14 4 -20 0 -20 -13 0 -9 -3 -15 -6 -11 -4 3 -4
13 -1 22 7 16 32 20 41 6z m-3457 -33 c-3 -7 -5 -2 -5 12 0 14 2 19 5 13 2 -7
2 -19 0 -25z m-1940 -25 c-3 -10 -5 -2 -5 17 0 19 2 27 5 18 2 -10 2 -26 0
-35z m2650 15 c-3 -8 -6 -5 -6 6 -1 11 2 17 5 13 3 -3 4 -12 1 -19z m-2689
-73 c0 -5 -6 4 -13 20 -8 17 -14 37 -14 45 0 8 7 -1 14 -20 7 -19 13 -39 13
-45z m5449 13 c-2 -13 -4 -5 -4 17 -1 22 1 32 4 23 2 -10 2 -28 0 -40z m-3760
-20 c-3 -8 -6 -5 -6 6 -1 11 2 17 5 13 3 -3 4 -12 1 -19z m943 12 c-8 -5 -26
-9 -40 -9 -23 1 -23 2 5 9 43 11 52 11 35 0z m-1703 -52 c-3 -7 -5 -2 -5 12 0
14 2 19 5 13 2 -7 2 -19 0 -25z m4507 8 c-6 -16 -24 -13 -24 5 0 6 5 7 10 4 6
-3 10 -1 10 6 0 7 2 10 5 7 3 -3 3 -13 -1 -22z m-5017 -43 c-3 -10 -5 -4 -5
12 0 17 2 24 5 18 2 -7 2 -21 0 -30z m4920 -25 c-3 -8 -6 -5 -6 6 -1 11 2 17
5 13 3 -3 4 -12 1 -19z m-5040 -125 c-2 -16 -4 -5 -4 22 0 28 2 40 4 28 2 -13
2 -35 0 -50z m4200 45 c-3 -8 -6 -5 -6 6 -1 11 2 17 5 13 3 -3 4 -12 1 -19z
m-780 -30 c-3 -8 -6 -5 -6 6 -1 11 2 17 5 13 3 -3 4 -12 1 -19z m700 -60 c-3
-7 -5 -2 -5 12 0 14 2 19 5 13 2 -7 2 -19 0 -25z m-3400 -25 c-3 -10 -5 -4 -5
12 0 17 2 24 5 18 2 -7 2 -21 0 -30z m-610 -25 c-3 -8 -6 -5 -6 6 -1 11 2 17
5 13 3 -3 4 -12 1 -19z m4132 -102 c-9 -8 -10 -7 -5 7 3 10 7 24 7 30 1 7 3 4
6 -7 3 -10 -1 -23 -8 -30z m786 -116 c3 -6 -1 -7 -9 -4 -18 7 -21 14 -7 14 6
0 13 -4 16 -10z m-938 -217 c-3 -10 -5 -2 -5 17 0 19 2 27 5 18 2 -10 2 -26 0
-35z m950 -20 c-13 -13 -13 -10 -3 28 10 40 11 41 14 15 2 -16 -3 -35 -11 -43z
m-17 44 c0 -7 -7 -22 -15 -33 -13 -17 -13 -16 -3 14 13 34 18 40 18 19z
m-4453 -179 c-3 -8 -6 -5 -6 6 -1 11 2 17 5 13 3 -3 4 -12 1 -19z m950 -190
c-3 -8 -6 -5 -6 6 -1 11 2 17 5 13 3 -3 4 -12 1 -19z m563 -2 c0 -2 -8 -10
-17 -17 -16 -13 -17 -12 -4 4 13 16 21 21 21 13z m-43 -32 c-3 -3 -12 -4 -19
-1 -8 3 -5 6 6 6 11 1 17 -2 13 -5z m-2228 -131 l-2 -68 -7 50 c-6 46 -3 85 6
85 2 0 3 -30 3 -67z m5218 -10 c-2 -16 -4 -5 -4 22 0 28 2 40 4 28 2 -13 2
-35 0 -50z m-3490 -5 c-3 -8 -6 -5 -6 6 -1 11 2 17 5 13 3 -3 4 -12 1 -19z
m1750 -30 c-3 -8 -6 -5 -6 6 -1 11 2 17 5 13 3 -3 4 -12 1 -19z m1730 -70 c-3
-7 -5 -2 -5 12 0 14 2 19 5 13 2 -7 2 -19 0 -25z m-5196 -15 c13 -16 12 -17
-3 -4 -10 7 -18 15 -18 17 0 8 8 3 21 -13z m3088 -42 c-2 -6 -10 2 -17 17 -11
25 -11 25 4 10 9 -9 15 -21 13 -27z m1988 -158 c-3 -10 -5 -4 -5 12 0 17 2 24
5 18 2 -7 2 -21 0 -30z m-2134 20 c-7 -2 -19 -2 -25 0 -7 3 -2 5 12 5 14 0 19
-2 13 -5z m44 1 c-3 -3 -12 -4 -19 -1 -8 3 -5 6 6 6 11 1 17 -2 13 -5z m-2940
-81 c-3 -10 -5 -4 -5 12 0 17 2 24 5 18 2 -7 2 -21 0 -30z m130 -65 c-3 -8 -6
-5 -6 6 -1 11 2 17 5 13 3 -3 4 -12 1 -19z m810 -20 c-3 -7 -5 -2 -5 12 0 14
2 19 5 13 2 -7 2 -19 0 -25z m3220 -15 c-3 -10 -5 -4 -5 12 0 17 2 24 5 18 2
-7 2 -21 0 -30z m-4090 -15 c-3 -8 -6 -5 -6 6 -1 11 2 17 5 13 3 -3 4 -12 1
-19z m5070 -23 c-9 -19 -13 -21 -15 -9 -3 13 12 33 25 34 0 0 -4 -11 -10 -25z
m-5167 0 c0 -8 -2 -15 -4 -15 -2 0 -6 7 -10 15 -3 8 -1 15 4 15 6 0 10 -7 10
-15z m13 -118 c3 -8 1 -20 -4 -28 -6 -10 -9 -7 -9 14 0 29 5 35 13 14z m5136
-24 c-1 -37 -1 -37 -8 -8 -7 28 -5 45 5 45 2 0 3 -17 3 -37z m-162 -35 c-2
-13 -4 -5 -4 17 -1 22 1 32 4 23 2 -10 2 -28 0 -40z m-830 -110 c-3 -8 -6 -5
-6 6 -1 11 2 17 5 13 3 -3 4 -12 1 -19z m-3160 -50 c-3 -8 -6 -5 -6 6 -1 11 2
17 5 13 3 -3 4 -12 1 -19z m2380 -200 c-3 -8 -6 -5 -6 6 -1 11 2 17 5 13 3 -3
4 -12 1 -19z m1708 -80 c6 -4 2 -8 -7 -8 -10 0 -18 7 -18 17 0 9 3 12 8 7 4
-5 12 -12 17 -16z m-4985 -22 c0 -5 -7 -3 -15 4 -8 7 -12 17 -9 22 7 10 24 -9
24 -26z m41 -3 c13 -16 12 -17 -3 -4 -10 7 -18 15 -18 17 0 8 8 3 21 -13z
m4849 -58 c-7 -9 -15 -13 -19 -10 -3 3 1 10 9 15 21 14 24 12 10 -5z m-528
-358 c-12 -13 -22 -31 -22 -41 0 -9 -4 -14 -10 -11 -12 7 13 61 32 68 22 9 22
8 0 -16z m-3737 -46 c3 -5 1 -12 -5 -16 -5 -3 -10 1 -10 9 0 18 6 21 15 7z
m112 -33 c-3 -8 -6 -5 -6 6 -1 11 2 17 5 13 3 -3 4 -12 1 -19z m3574 -275 c-3
-120 -11 -119 -11 2 0 54 3 95 6 92 4 -4 6 -46 5 -94z m-3659 -108 c-6 -34
-12 -32 -12 6 0 16 4 28 9 25 4 -3 6 -17 3 -31z m125 -217 c-3 -8 -6 -5 -6 6
-1 11 2 17 5 13 3 -3 4 -12 1 -19z m3500 -95 c-2 -21 -4 -6 -4 32 0 39 2 55 4
38 2 -18 2 -50 0 -70z m768 -293 c-12 -14 -15 -51 -15 -212 0 -162 -3 -198
-15 -208 -11 -9 -15 -32 -15 -78 0 -57 -3 -68 -26 -88 -14 -13 -31 -24 -38
-24 -8 0 -19 -7 -26 -15 -26 -31 -31 -15 -25 73 3 48 8 218 11 379 4 238 7
293 19 303 10 9 15 33 15 77 0 54 4 69 23 89 12 13 29 24 38 24 8 0 26 12 40
26 l24 26 3 -178 c2 -147 0 -180 -13 -194z m-5052 290 c20 -5 22 -12 25 -85 1
-44 6 -89 12 -100 5 -11 10 -142 12 -291 2 -181 7 -276 14 -285 24 -30 27
-169 4 -169 -4 0 -21 15 -38 33 -68 70 -72 78 -72 136 -1 31 -7 67 -15 81 -11
19 -14 69 -15 211 0 147 -3 189 -15 205 -11 15 -14 53 -15 170 0 83 3 153 6
157 4 3 22 -8 41 -26 18 -18 43 -34 56 -37z m674 -12 c-2 -13 -4 -5 -4 17 -1
22 1 32 4 23 2 -10 2 -28 0 -40z m40 -20 c-3 -8 -6 -5 -6 6 -1 11 2 17 5 13 3
-3 4 -12 1 -19z m-17 -79 c0 -6 -4 -7 -10 -4 -5 3 -10 11 -10 16 0 6 5 7 10 4
6 -3 10 -11 10 -16z m3577 -21 c-3 -8 -6 -5 -6 6 -1 11 2 17 5 13 3 -3 4 -12
1 -19z m-3340 -30 c-3 -8 -6 -5 -6 6 -1 11 2 17 5 13 3 -3 4 -12 1 -19z m10
-210 c-3 -8 -6 -5 -6 6 -1 11 2 17 5 13 3 -3 4 -12 1 -19z m3060 -240 c-3 -8
-6 -5 -6 6 -1 11 2 17 5 13 3 -3 4 -12 1 -19z m-3040 -30 c-3 -8 -6 -5 -6 6
-1 11 2 17 5 13 3 -3 4 -12 1 -19z m70 -70 c-3 -8 -6 -5 -6 6 -1 11 2 17 5 13
3 -3 4 -12 1 -19z m2460 -80 c-3 -7 -5 -2 -5 12 0 14 2 19 5 13 2 -7 2 -19 0
-25z m410 -230 c-3 -8 -6 -5 -6 6 -1 11 2 17 5 13 3 -3 4 -12 1 -19z m0 -70
c-3 -8 -6 -5 -6 6 -1 11 2 17 5 13 3 -3 4 -12 1 -19z m50 -380 c-3 -8 -6 -5
-6 6 -1 11 2 17 5 13 3 -3 4 -12 1 -19z m-2910 -530 c-3 -8 -6 -5 -6 6 -1 11
2 17 5 13 3 -3 4 -12 1 -19z m2800 -50 c-3 -8 -6 -5 -6 6 -1 11 2 17 5 13 3
-3 4 -12 1 -19z m70 -40 c-3 -8 -6 -5 -6 6 -1 11 2 17 5 13 3 -3 4 -12 1 -19z"/>
</g>
</svg>
