<?xml version="1.0" standalone="no"?>
<!DOCTYPE svg PUBLIC "-//W3C//DTD SVG 20010904//EN"
 "http://www.w3.org/TR/2001/REC-SVG-20010904/DTD/svg10.dtd">
<svg version="1.0" xmlns="http://www.w3.org/2000/svg"
 width="1280.000000pt" height="811.000000pt" viewBox="0 0 1280.000000 811.000000"
 preserveAspectRatio="xMidYMid meet">

<g transform="translate(0.000000,811.000000) scale(0.100000,-0.100000)"
fill="#000000" stroke="none">
<path d="M9210 8020 c0 -22 -6 -42 -13 -47 -8 -4 -17 -26 -20 -48 -4 -22 -13
-45 -22 -51 -9 -7 -15 -27 -15 -48 0 -23 -5 -39 -15 -42 -8 -4 -15 -16 -15
-28 0 -12 -9 -29 -20 -39 -12 -10 -20 -29 -20 -48 0 -17 -7 -37 -15 -45 -8 -9
-15 -31 -15 -49 0 -19 -4 -36 -9 -39 -4 -3 -11 -23 -15 -45 -3 -21 -13 -41
-21 -45 -10 -4 -15 -20 -15 -51 0 -33 -4 -45 -15 -45 -9 0 -15 -9 -15 -23 0
-12 -9 -30 -20 -40 -11 -9 -20 -26 -20 -37 0 -15 -7 -20 -29 -20 -16 0 -31 6
-33 13 -4 9 -111 13 -482 15 -436 2 -480 1 -514 -15 -50 -24 -204 -24 -230 0
-16 15 -45 17 -202 17 -168 0 -185 -2 -216 -21 -19 -11 -34 -25 -34 -29 0 -12
-65 -24 -92 -16 -13 3 -36 18 -53 33 l-29 28 -182 0 c-194 0 -208 -3 -265 -56
-21 -19 -44 -29 -84 -34 -30 -3 -57 -11 -60 -16 -4 -5 -119 -9 -273 -9 -227 0
-272 -3 -297 -16 -23 -13 -70 -17 -205 -21 -121 -3 -185 -9 -207 -19 -23 -10
-77 -14 -210 -14 -141 -1 -182 -4 -197 -15 -16 -12 -59 -15 -217 -15 -109 0
-209 -4 -223 -9 -13 -6 -127 -13 -253 -17 -143 -4 -233 -11 -242 -18 -9 -7
-91 -13 -222 -16 -147 -4 -212 -9 -221 -17 -7 -8 -37 -13 -69 -13 -69 0 -116
-15 -124 -41 -4 -10 -11 -19 -16 -19 -5 0 -14 -11 -19 -25 -5 -14 -66 -80
-135 -147 -69 -67 -128 -130 -131 -140 -6 -21 -140 -158 -153 -158 -5 0 -11
-7 -15 -15 -5 -13 -42 -15 -249 -15 -205 0 -247 -2 -257 -15 -10 -12 -49 -15
-229 -15 -119 0 -233 -3 -255 -7 -31 -5 -54 -21 -117 -86 -44 -43 -79 -85 -79
-93 0 -7 -16 -30 -35 -50 -19 -19 -35 -44 -35 -55 0 -10 -7 -19 -15 -19 -8 0
-15 -6 -15 -12 -1 -7 -14 -24 -30 -38 -17 -14 -30 -34 -30 -47 0 -13 -5 -23
-10 -23 -18 0 -59 -54 -60 -77 0 -13 -4 -23 -10 -23 -18 0 -79 -75 -80 -97 0
-13 -4 -23 -10 -23 -16 0 -90 -79 -90 -96 0 -8 -13 -27 -30 -41 -16 -13 -30
-34 -30 -45 0 -11 -22 -39 -50 -65 -28 -25 -50 -53 -50 -63 0 -10 -16 -32 -35
-49 -19 -17 -35 -39 -35 -50 0 -11 -4 -23 -10 -26 -5 -3 -10 -31 -10 -61 l0
-54 75 0 c48 0 75 -4 75 -11 0 -6 -20 -32 -45 -57 -25 -25 -45 -51 -45 -59 0
-7 -22 -36 -50 -65 -27 -28 -50 -58 -50 -66 0 -7 -16 -28 -35 -46 -19 -19 -35
-40 -35 -47 0 -8 -20 -34 -45 -59 -24 -25 -44 -53 -45 -63 0 -10 -16 -31 -35
-48 -19 -17 -35 -37 -35 -44 0 -8 -13 -29 -30 -47 -16 -18 -31 -44 -32 -58 -3
-48 4 -95 15 -102 18 -11 253 -8 317 4 30 6 153 13 273 17 151 4 220 10 225
18 4 6 43 15 87 19 81 7 114 26 115 64 0 9 13 27 30 40 16 14 29 33 30 43 0
10 13 31 29 47 30 30 71 101 71 123 0 7 13 24 30 37 16 14 29 30 30 37 0 20
51 73 70 73 10 0 25 -7 34 -15 8 -8 21 -15 28 -15 8 0 23 -7 34 -15 11 -9 42
-14 77 -15 44 0 57 -3 57 -15 0 -12 15 -15 74 -15 50 0 77 -4 85 -14 6 -7 41
-16 81 -19 38 -3 80 -13 92 -21 14 -10 45 -16 83 -16 37 -1 67 -6 79 -15 12
-9 43 -15 75 -15 31 -1 67 -7 81 -15 14 -8 45 -14 70 -15 25 0 67 -7 94 -15
27 -8 70 -15 96 -15 30 0 52 -6 60 -15 7 -8 23 -15 36 -15 l24 0 0 -574 0
-574 -33 -6 c-17 -4 -63 -13 -102 -20 -38 -7 -83 -18 -98 -24 -16 -7 -55 -12
-88 -12 -44 0 -61 -4 -65 -15 -5 -11 -23 -15 -74 -15 -48 0 -73 -5 -84 -15
-10 -10 -35 -15 -77 -15 -42 0 -68 -5 -80 -15 -10 -10 -45 -18 -90 -22 -41 -4
-80 -12 -87 -20 -9 -8 -38 -13 -83 -13 -38 0 -69 -4 -69 -9 0 -4 -34 -11 -75
-13 -69 -5 -78 -8 -104 -37 -15 -17 -36 -31 -46 -31 -19 0 -75 55 -75 74 -1 6
-14 22 -30 36 -17 13 -30 34 -30 45 0 12 -13 34 -30 50 -16 16 -30 36 -30 44
0 9 -16 29 -35 45 -19 16 -35 39 -35 50 0 12 -12 32 -27 46 -14 13 -30 37 -35
52 -10 28 -11 28 -93 28 -54 0 -93 5 -111 15 -23 12 -71 15 -230 15 -167 0
-204 3 -214 15 -10 12 -43 15 -181 15 l-169 0 0 -68 c0 -63 2 -71 30 -97 16
-16 30 -34 30 -41 0 -7 25 -38 55 -69 30 -32 55 -65 55 -73 0 -8 20 -34 45
-58 25 -23 45 -49 45 -58 0 -9 16 -32 35 -52 19 -19 35 -41 35 -47 1 -15 67
-87 80 -87 6 0 10 -10 10 -23 0 -13 13 -33 30 -47 45 -39 39 -50 -29 -50 -87
0 -91 -3 -91 -66 0 -30 5 -54 10 -54 6 0 10 -7 10 -15 0 -8 6 -15 14 -15 8 0
17 -12 21 -28 7 -31 38 -72 54 -72 6 0 11 -8 11 -17 1 -20 44 -73 60 -73 5 0
10 -7 10 -15 0 -8 4 -15 9 -15 5 0 12 -12 16 -27 3 -16 20 -40 36 -55 16 -15
29 -33 29 -40 1 -16 46 -68 60 -68 5 0 10 -7 10 -15 0 -8 4 -15 9 -15 5 0 14
-13 20 -30 5 -16 15 -30 20 -30 6 0 11 -7 11 -15 0 -8 4 -15 9 -15 18 0 61
-47 61 -66 0 -19 32 -54 49 -54 5 0 12 -14 16 -31 4 -17 27 -50 51 -74 24 -25
44 -54 44 -65 0 -11 5 -20 10 -20 17 0 60 -51 60 -71 0 -10 12 -29 27 -43 65
-59 87 -76 102 -76 9 0 25 -7 35 -15 16 -12 62 -15 242 -15 185 0 224 -2 234
-15 10 -13 51 -15 249 -15 274 0 242 11 379 -127 51 -51 97 -93 102 -93 6 0
10 -9 10 -20 0 -19 161 -190 179 -190 5 0 17 -12 27 -27 10 -16 36 -45 58 -66
36 -34 45 -37 96 -37 31 0 60 -4 65 -9 6 -5 112 -11 237 -13 177 -3 230 -7
244 -19 13 -11 63 -15 227 -18 163 -2 214 -6 224 -17 12 -11 58 -14 227 -14
178 0 216 -3 226 -15 10 -12 48 -15 221 -15 161 0 211 -3 221 -14 10 -9 62
-14 196 -18 128 -4 187 -9 198 -19 11 -9 83 -14 287 -16 150 -3 281 -8 292
-13 11 -5 45 -11 75 -12 52 -3 55 -4 58 -31 2 -16 11 -31 20 -33 9 -3 28 -11
41 -17 15 -8 85 -12 190 -12 149 0 169 2 196 20 17 11 34 25 38 32 5 8 31 13
71 13 58 0 66 -3 100 -35 l37 -35 167 0 c144 0 171 3 192 18 33 23 198 25 225
2 16 -13 89 -15 523 -15 395 0 506 3 510 13 11 34 72 -22 72 -67 0 -19 6 -34
15 -37 10 -4 15 -20 15 -44 0 -22 5 -42 10 -45 19 -11 50 -88 50 -122 0 -21 6
-36 15 -39 8 -4 15 -18 15 -34 0 -39 9 -60 26 -60 10 0 14 -13 14 -44 0 -30 5
-46 15 -50 9 -3 15 -19 15 -41 0 -22 8 -43 20 -55 11 -11 20 -29 20 -39 0 -10
7 -21 15 -25 9 -3 15 -18 15 -39 0 -53 33 -77 107 -77 42 0 64 5 73 15 10 12
38 15 130 15 91 0 120 3 130 15 6 8 38 17 71 21 l59 7 0 131 c0 112 3 137 20
169 17 32 20 56 20 183 0 106 4 149 13 158 20 20 47 -4 54 -48 3 -20 10 -39
14 -42 5 -3 9 -18 9 -35 0 -19 5 -29 14 -29 10 0 17 -16 21 -45 4 -24 13 -50
21 -56 8 -6 14 -27 14 -46 0 -21 6 -36 15 -39 10 -4 15 -20 15 -44 0 -21 7
-43 15 -50 8 -7 18 -30 21 -51 4 -21 13 -40 20 -43 8 -3 14 -19 14 -36 l0 -30
164 0 c133 0 166 3 176 15 9 11 34 15 95 15 72 0 85 3 108 24 25 23 25 26 28
198 4 150 6 177 22 192 15 15 17 38 17 170 0 124 3 156 15 166 13 10 15 9 15
-9 0 -12 6 -21 15 -21 10 0 16 -16 21 -50 4 -28 11 -53 15 -56 5 -3 9 -18 9
-34 0 -16 7 -35 15 -43 7 -8 17 -26 20 -40 4 -14 13 -28 21 -31 9 -3 14 -20
14 -45 0 -25 5 -41 15 -45 9 -3 15 -18 15 -39 0 -20 8 -44 20 -57 11 -13 20
-37 20 -55 0 -20 6 -35 15 -39 9 -3 15 -19 15 -41 0 -57 27 -75 109 -75 39 0
73 5 76 10 3 6 53 10 113 10 85 1 115 5 147 20 22 11 59 19 83 20 l42 0 0 103
c0 83 4 109 20 140 17 32 20 56 20 185 0 114 3 152 15 169 11 15 15 57 17 159
l3 139 25 3 c14 2 29 10 33 18 5 8 24 14 45 14 39 0 92 37 92 64 0 7 11 25 25
40 14 15 25 34 25 42 0 8 9 22 20 31 11 10 20 25 20 35 0 9 16 33 35 52 19 20
35 43 35 52 0 9 11 27 25 40 13 12 27 34 31 48 3 14 12 26 20 26 9 0 14 11 14
30 l0 30 70 0 c67 0 72 2 104 35 19 19 37 35 41 35 13 0 44 45 45 63 0 10 7
20 15 23 8 4 15 12 15 19 0 7 7 15 15 19 8 3 15 15 15 26 0 11 7 23 15 26 8 4
15 14 15 25 0 10 16 33 35 52 19 19 35 43 35 53 0 11 9 27 20 37 11 9 20 23
20 30 0 8 11 26 25 41 14 15 28 38 31 51 3 13 12 26 20 29 8 3 14 15 14 26 0
11 7 23 15 26 11 5 15 24 15 79 l0 74 -32 3 -33 3 -3 78 -3 77 -44 0 c-43 0
-44 1 -47 36 -3 35 -12 46 -50 58 -15 4 -18 18 -18 81 0 58 -3 75 -14 75 -8 0
-16 5 -18 11 -5 14 -75 39 -111 39 -15 0 -35 9 -44 20 -10 11 -23 20 -30 20
-21 0 -15 21 7 27 11 3 20 12 20 19 0 9 11 14 28 14 15 0 35 9 45 20 9 11 23
20 30 20 6 0 24 11 39 25 15 14 36 25 47 25 11 0 35 16 54 35 19 19 43 35 53
35 10 1 30 14 44 30 16 20 33 30 52 30 18 0 28 5 28 15 0 8 7 15 15 15 9 0 18
7 21 15 4 8 16 15 28 15 11 0 30 13 41 28 19 26 20 46 24 507 2 264 0 548 -4
631 l-7 151 -47 51 c-27 29 -55 52 -63 52 -8 0 -30 14 -48 30 -18 17 -41 30
-51 30 -9 0 -34 16 -53 35 -20 19 -45 35 -56 35 -12 0 -23 7 -26 15 -4 8 -12
15 -19 15 -7 0 -15 7 -19 15 -3 8 -13 15 -22 15 -9 0 -33 14 -54 30 -21 17
-47 30 -59 30 -12 0 -21 6 -21 15 0 10 -10 15 -26 15 -22 0 -25 2 -14 15 7 8
20 15 30 15 9 0 27 9 40 20 13 11 31 20 40 20 10 0 23 7 30 15 7 8 23 15 36
15 15 0 24 6 24 15 0 10 10 15 29 15 21 0 30 6 35 23 11 41 6 74 -14 92 -28
25 -25 33 15 41 33 6 35 9 35 45 l0 39 45 0 44 0 3 78 3 77 33 3 32 3 0 74 c0
55 -4 74 -15 79 -8 3 -15 14 -15 25 0 11 -16 33 -35 48 -19 15 -35 35 -35 44
0 25 -37 94 -64 120 -14 13 -26 31 -26 39 0 9 -9 23 -20 33 -11 9 -20 24 -20
32 0 9 -13 29 -30 45 -16 16 -30 36 -30 43 0 8 -7 20 -15 27 -8 7 -15 22 -15
33 0 25 -74 97 -99 97 -10 0 -24 7 -31 15 -8 10 -31 15 -71 15 -46 0 -59 3
-59 15 0 8 -6 15 -14 15 -8 0 -17 14 -21 31 -4 17 -13 33 -21 36 -8 3 -14 16
-14 29 0 13 -4 24 -10 24 -5 0 -10 6 -10 13 0 7 -9 18 -20 25 -11 7 -20 23
-20 37 0 16 -6 25 -15 25 -9 0 -15 9 -15 25 0 16 -12 34 -35 52 -20 16 -35 37
-35 49 0 11 -8 28 -17 37 -80 76 -82 77 -120 77 -32 0 -43 6 -61 30 -20 27
-22 41 -22 163 0 107 -3 137 -15 147 -12 10 -15 41 -15 161 0 130 -3 154 -20
186 -16 31 -20 57 -20 139 l0 102 -74 7 c-45 4 -80 12 -87 21 -8 10 -38 14
-113 14 -73 1 -106 5 -120 15 -12 9 -42 15 -72 15 -70 0 -104 -26 -104 -81 0
-26 -5 -42 -15 -45 -8 -4 -15 -15 -15 -25 0 -11 -9 -27 -20 -36 -14 -12 -20
-30 -20 -56 0 -24 -5 -40 -15 -43 -9 -4 -15 -19 -15 -39 0 -18 -6 -38 -14 -44
-7 -6 -16 -30 -19 -53 -3 -23 -13 -45 -21 -50 -10 -5 -16 -22 -16 -43 0 -19
-4 -37 -10 -40 -5 -3 -10 -15 -10 -26 0 -10 -9 -27 -20 -36 -13 -11 -20 -30
-20 -51 0 -30 -2 -33 -15 -22 -12 10 -15 42 -15 166 0 132 -2 155 -17 170 -15
15 -19 42 -22 180 -2 124 -6 166 -17 175 -8 6 -14 22 -14 35 0 24 -1 24 -109
24 -84 0 -111 3 -121 15 -10 12 -41 15 -161 15 l-149 0 0 -30 c0 -17 -6 -33
-14 -36 -7 -3 -16 -22 -20 -44 -3 -21 -13 -40 -21 -44 -8 -3 -15 -16 -15 -29
0 -14 -7 -30 -15 -37 -8 -7 -15 -28 -15 -47 0 -21 -6 -36 -15 -39 -9 -4 -15
-19 -15 -39 0 -18 -9 -44 -20 -58 -11 -14 -20 -37 -20 -51 0 -15 -4 -34 -9
-44 -6 -9 -13 -33 -16 -54 -3 -20 -12 -39 -20 -42 -8 -3 -15 -13 -15 -22 0
-13 -3 -14 -14 -5 -11 10 -15 49 -18 172 -2 129 -6 162 -18 169 -12 7 -16 40
-20 152 -6 176 -10 183 -98 193 -34 4 -65 11 -68 16 -3 5 -59 9 -125 9 -97 0
-121 3 -125 15 -5 11 -24 15 -80 15 l-74 0 0 -40z m-520 -1235 c-46 -18 -64
-17 -25 0 17 8 37 14 45 14 8 0 -1 -7 -20 -14z m78 -30 c-3 -3 -9 2 -12 12 -6
14 -5 15 5 6 7 -7 10 -15 7 -18z m-9 -21 c9 -8 -75 -2 -94 6 -12 5 1 6 35 3
30 -3 57 -7 59 -9z m166 -42 c-6 -5 -44 -5 -85 -2 l-75 7 85 1 c46 1 80 -2 75
-6z m-1500 -22 c14 -6 -3 -8 -50 -8 -64 1 -66 2 -25 8 25 4 47 7 50 8 3 0 14
-3 25 -8z m1711 -11 c3 -5 1 -9 -5 -9 -17 0 -41 12 -41 20 0 10 38 1 46 -11z
m-1876 7 c0 -2 -8 -10 -17 -17 -16 -13 -17 -12 -4 4 13 16 21 21 21 13z m-400
-26 c0 -5 -8 -10 -17 -10 -15 0 -16 2 -3 10 19 12 20 12 20 0z m-1787 -6 c3
-4 -8 -22 -26 -41 -18 -18 -34 -43 -37 -56 -5 -20 -12 -22 -85 -25 -44 -1 -89
-6 -100 -12 -11 -5 -142 -10 -291 -12 -181 -2 -276 -7 -285 -14 -30 -24 -169
-27 -169 -4 0 4 15 21 33 38 70 68 78 72 136 72 31 1 67 7 81 15 19 11 69 14
211 15 147 0 189 3 205 15 15 11 53 14 170 15 83 0 153 -3 157 -6z m4287 -3
c0 -4 -11 -6 -25 -3 -14 2 -25 6 -25 8 0 2 11 4 25 4 14 0 25 -4 25 -9z
m-2629 -10 c-8 -5 -20 -7 -28 -4 -21 8 -15 13 15 13 20 0 23 -3 13 -9z m282
-18 c-7 -2 -21 -2 -30 0 -10 3 -4 5 12 5 17 0 24 -2 18 -5z m2606 -9 c2 -2
-20 -4 -50 -4 -38 0 -50 3 -39 10 13 8 78 4 89 -6z m146 -14 c3 -5 1 -10 -4
-10 -6 0 -11 5 -11 10 0 6 2 10 4 10 3 0 8 -4 11 -10z m78 -17 c-7 -2 -21 -2
-30 0 -10 3 -4 5 12 5 17 0 24 -2 18 -5z m-3614 -24 c-22 -14 -33 -10 -19 6 7
8 17 12 22 9 6 -4 5 -10 -3 -15z m3784 4 c-7 -2 -19 -2 -25 0 -7 3 -2 5 12 5
14 0 19 -2 13 -5z m60 -10 c-7 -2 -21 -2 -30 0 -10 3 -4 5 12 5 17 0 24 -2 18
-5z m54 -29 c-3 -3 -12 -4 -19 -1 -8 3 -5 6 6 6 11 1 17 -2 13 -5z m181 -1
c-10 -2 -28 -2 -40 0 -13 2 -5 4 17 4 22 1 32 -1 23 -4z m-1845 -30 c-13 -2
-35 -2 -50 0 -16 2 -5 4 22 4 28 0 40 -2 28 -4z m466 1 c55 -11 33 -19 -41
-15 -57 3 -66 6 -43 11 42 11 49 11 84 4z m1604 -1 c-7 -2 -21 -2 -30 0 -10 3
-4 5 12 5 17 0 24 -2 18 -5z m207 -29 c0 -2 -21 -4 -46 -4 -25 0 -43 4 -40 8
4 7 86 4 86 -4z m97 -30 c-3 -3 -12 -4 -19 -1 -8 3 -5 6 6 6 11 1 17 -2 13 -5z
m53 -26 c0 -6 -6 -5 -15 2 -8 7 -15 14 -15 16 0 2 7 1 15 -2 8 -4 15 -11 15
-16z m-2553 -24 c-3 -3 -12 -4 -19 -1 -8 3 -5 6 6 6 11 1 17 -2 13 -5z m256
-11 c-7 -2 -21 -2 -30 0 -10 3 -4 5 12 5 17 0 24 -2 18 -5z m2361 -29 c3 -8 2
-12 -4 -9 -6 3 -10 10 -10 16 0 14 7 11 14 -7z m547 -63 c-8 -5 -11 -16 -8
-26 4 -9 3 -14 -3 -10 -17 11 -11 45 8 45 14 0 14 -2 3 -9z m74 -41 c10 -11
16 -20 13 -20 -3 0 -13 9 -23 20 -10 11 -16 20 -13 20 3 0 13 -9 23 -20z
m-535 -31 c6 -10 7 -19 3 -19 -4 0 -13 11 -20 25 -13 29 2 24 17 -6z m484 -15
c3 -8 2 -12 -4 -9 -6 3 -10 10 -10 16 0 14 7 11 14 -7z m111 -46 c9 -16 15
-28 12 -28 -6 0 -57 77 -57 87 0 7 11 -7 45 -59z m-75 -9 c15 -28 5 -23 -15 7
-9 15 -12 23 -6 20 6 -4 16 -16 21 -27z m-477 -9 c3 -11 1 -18 -4 -14 -5 3 -9
12 -9 20 0 20 7 17 13 -6z m596 -67 c12 -24 19 -43 16 -43 -5 0 -45 75 -45 86
0 11 6 2 29 -43z m-60 -17 c-2 -2 -13 8 -23 22 l-19 27 24 -22 c12 -12 21 -24
18 -27z m-499 9 c14 -19 14 -19 -2 -6 -10 7 -18 18 -18 24 0 6 1 8 3 6 1 -2 9
-13 17 -24z m30 -50 c14 -19 14 -19 -2 -6 -10 7 -18 18 -18 24 0 6 1 8 3 6 1
-2 9 -13 17 -24z m489 -5 c11 -24 11 -24 -3 -6 -9 11 -16 24 -16 30 0 12 5 7
19 -24z m96 -40 c14 -27 23 -50 20 -50 -2 0 -16 23 -30 50 -14 28 -23 50 -20
50 2 0 16 -22 30 -50z m-45 -45 c0 -11 -14 7 -31 40 -7 13 -3 12 10 -5 11 -14
21 -29 21 -35z m-5940 21 c0 -11 -19 -15 -25 -6 -3 5 1 10 9 10 9 0 16 -2 16
-4z m1997 -12 c-3 -3 -12 -4 -19 -1 -8 3 -5 6 6 6 11 1 17 -2 13 -5z m-2391
-23 c-5 -8 -56 -3 -56 5 0 2 14 4 31 4 16 0 28 -4 25 -9z m6416 -41 c31 -7 31
-8 6 -9 -15 -1 -37 9 -50 22 -13 12 -16 16 -6 8 9 -7 32 -17 50 -21z m9 23
c13 -16 12 -17 -3 -4 -17 13 -22 21 -14 21 2 0 10 -8 17 -17z m-6743 0 c-10
-2 -28 -2 -40 0 -13 2 -5 4 17 4 22 1 32 -1 23 -4z m-123 -13 c-3 -5 -11 -10
-16 -10 -6 0 -7 5 -4 10 3 6 11 10 16 10 6 0 7 -4 4 -10z m6325 -20 c0 -5 -2
-10 -4 -10 -3 0 -8 5 -11 10 -3 6 -1 10 4 10 6 0 11 -4 11 -10z m126 -131 c3
-5 1 -9 -5 -9 -17 0 -41 12 -41 20 0 10 38 1 46 -11z m189 -29 c4 -7 -8 -8
-37 -4 -57 9 -61 14 -10 14 22 0 44 -5 47 -10z m-2157 -41 c10 0 12 -3 5 -5
-15 -7 -53 13 -53 27 0 6 7 3 16 -5 8 -9 23 -16 32 -17z m2315 14 c-7 -2 -19
-2 -25 0 -7 3 -2 5 12 5 14 0 19 -2 13 -5z m-2196 -9 c-3 -3 -12 -4 -19 -1 -8
3 -5 6 6 6 11 1 17 -2 13 -5z m2273 2 c0 -2 -9 -6 -20 -9 -11 -3 -20 -1 -20 4
0 5 9 9 20 9 11 0 20 -2 20 -4z m-2220 -20 c0 -2 -16 -13 -35 -25 -19 -11 -35
-18 -35 -16 0 5 61 45 68 45 1 0 2 -2 2 -4z m1120 -11 c10 -12 44 -15 183 -15
169 0 171 0 233 -30 34 -17 65 -37 68 -45 3 -10 20 -15 46 -15 27 0 43 -5 46
-15 5 -12 26 -15 103 -15 74 0 102 -4 120 -17 16 -11 51 -18 105 -20 98 -5
117 -10 96 -23 -8 -6 -74 -10 -146 -10 -105 0 -134 -3 -144 -15 -10 -12 -36
-15 -117 -15 -83 0 -105 3 -109 15 -4 10 -20 15 -44 15 -21 0 -45 7 -54 15 -8
8 -21 15 -29 15 -8 0 -26 9 -40 20 -14 11 -39 20 -55 20 -17 0 -34 5 -37 10
-3 6 -19 10 -36 10 -19 0 -29 5 -29 15 0 11 -11 15 -43 15 -30 0 -48 6 -60 20
-9 11 -25 20 -36 20 -10 0 -24 7 -31 15 -7 9 -29 15 -51 15 -28 0 -39 4 -39
15 0 11 12 15 44 15 26 0 48 -6 56 -15z m1243 8 c-7 -2 -21 -2 -30 0 -10 3 -4
5 12 5 17 0 24 -2 18 -5z m-2444 -37 c-3 -3 -11 5 -18 17 -13 21 -12 21 5 5
10 -10 16 -20 13 -22z m142 1 c-13 -13 -26 -3 -16 12 3 6 11 8 17 5 6 -4 6
-10 -1 -17z m2582 -4 c-7 -2 -21 -2 -30 0 -10 3 -4 5 12 5 17 0 24 -2 18 -5z
m-2486 -9 c-3 -3 -12 -4 -19 -1 -8 3 -5 6 6 6 11 1 17 -2 13 -5z m-53 -20
c-18 -15 -18 -15 5 -10 17 3 21 2 13 -6 -6 -6 -18 -8 -27 -4 -14 5 -15 9 -5
21 7 8 17 15 23 15 6 0 2 -7 -9 -16z m-481 -611 c-7 -2 -19 -2 -25 0 -7 3 -2
5 12 5 14 0 19 -2 13 -5z m126 -27 c-9 -8 -99 -13 -99 -5 0 5 23 9 52 9 28 0
49 -2 47 -4z m114 -23 c-13 -2 -35 -2 -50 0 -16 2 -5 4 22 4 28 0 40 -2 28 -4z
m90 -10 c-7 -2 -19 -2 -25 0 -7 3 -2 5 12 5 14 0 19 -2 13 -5z m-186 -9 c-3
-3 -12 -4 -19 -1 -8 3 -5 6 6 6 11 1 17 -2 13 -5z m236 -1 c-7 -2 -19 -2 -25
0 -7 3 -2 5 12 5 14 0 19 -2 13 -5z m85 -10 c-10 -2 -26 -2 -35 0 -10 3 -2 5
17 5 19 0 27 -2 18 -5z m75 -10 c-7 -2 -21 -2 -30 0 -10 3 -4 5 12 5 17 0 24
-2 18 -5z m-236 -9 c-3 -3 -12 -4 -19 -1 -8 3 -5 6 6 6 11 1 17 -2 13 -5z m91
-11 c-10 -2 -28 -2 -40 0 -13 2 -5 4 17 4 22 1 32 -1 23 -4z m250 0 c-10 -2
-26 -2 -35 0 -10 3 -2 5 17 5 19 0 27 -2 18 -5z m80 -10 c-10 -2 -26 -2 -35 0
-10 3 -2 5 17 5 19 0 27 -2 18 -5z m-231 -9 c-3 -3 -12 -4 -19 -1 -8 3 -5 6 6
6 11 1 17 -2 13 -5z m280 0 c-3 -3 -12 -4 -19 -1 -8 3 -5 6 6 6 11 1 17 -2 13
-5z m-1214 -11 c-7 -2 -19 -2 -25 0 -7 3 -2 5 12 5 14 0 19 -2 13 -5z m1020 0
c-7 -2 -21 -2 -30 0 -10 3 -4 5 12 5 17 0 24 -2 18 -5z m255 0 c-10 -2 -26 -2
-35 0 -10 3 -2 5 17 5 19 0 27 -2 18 -5z m-201 -9 c-3 -3 -12 -4 -19 -1 -8 3
-5 6 6 6 11 1 17 -2 13 -5z m291 -1 c-10 -2 -28 -2 -40 0 -13 2 -5 4 17 4 22
1 32 -1 23 -4z m-225 -10 c-7 -2 -19 -2 -25 0 -7 3 -2 5 12 5 14 0 19 -2 13
-5z m284 1 c-3 -3 -12 -4 -19 -1 -8 3 -5 6 6 6 11 1 17 -2 13 -5z m-1259 -11
c-10 -2 -28 -2 -40 0 -13 2 -5 4 17 4 22 1 32 -1 23 -4z m1055 0 c-7 -2 -21
-2 -30 0 -10 3 -4 5 12 5 17 0 24 -2 18 -5z m256 -7 c8 -9 11 -63 8 -172 l-3
-159 -2 163 c-2 158 -3 163 -24 172 -16 6 -18 9 -7 9 9 1 22 -5 28 -13z
m-1382 -223 c-1 -43 -3 -8 -3 77 0 85 2 120 3 78 2 -43 2 -113 0 -155z m161
220 c-10 -2 -26 -2 -35 0 -10 3 -2 5 17 5 19 0 27 -2 18 -5z m172 -3 c21 -7
19 -8 -15 -8 -22 0 -51 -2 -65 -5 -14 -2 -17 -2 -7 0 9 2 15 9 12 14 -7 11 40
10 75 -1z m863 3 c-7 -2 -19 -2 -25 0 -7 3 -2 5 12 5 14 0 19 -2 13 -5z m-986
-9 c-3 -3 -12 -4 -19 -1 -8 3 -5 6 6 6 11 1 17 -2 13 -5z m206 -11 c-7 -2 -19
-2 -25 0 -7 3 -2 5 12 5 14 0 19 -2 13 -5z m54 -9 c-3 -3 -12 -4 -19 -1 -8 3
-5 6 6 6 11 1 17 -2 13 -5z m50 -10 c-3 -3 -12 -4 -19 -1 -8 3 -5 6 6 6 11 1
17 -2 13 -5z m86 -11 c-7 -2 -19 -2 -25 0 -7 3 -2 5 12 5 14 0 19 -2 13 -5z
m54 -9 c-3 -3 -12 -4 -19 -1 -8 3 -5 6 6 6 11 1 17 -2 13 -5z m50 -10 c-3 -3
-12 -4 -19 -1 -8 3 -5 6 6 6 11 1 17 -2 13 -5z m76 -11 c-7 -2 -21 -2 -30 0
-10 3 -4 5 12 5 17 0 24 -2 18 -5z m74 -9 c-3 -3 -12 -4 -19 -1 -8 3 -5 6 6 6
11 1 17 -2 13 -5z m152 -36 c-1 -18 -2 -19 -6 -5 -2 9 -9 15 -14 11 -5 -3 -7
-11 -3 -17 3 -7 -1 -5 -8 5 -8 9 -25 18 -38 21 -14 2 -5 5 23 6 43 1 47 -1 46
-21z m11 -590 c0 -287 -2 -519 -5 -517 -9 10 -9 1039 0 1039 3 0 5 -235 5
-522z m1880 505 c0 -15 -2 -15 -9 -4 -6 10 -20 12 -47 8 -27 -4 -34 -3 -24 3
8 5 30 10 48 10 24 0 32 -4 32 -17z m-656 -19 c9 -23 4 -24 -16 -2 -14 14 -15
18 -4 18 8 0 17 -7 20 -16z m-99 -4 c-3 -5 -12 -10 -18 -10 -7 0 -6 4 3 10 19
12 23 12 15 0z m621 -34 c-4 -19 -10 -37 -14 -40 -5 -3 -3 15 2 39 12 52 21
52 12 1z m-509 -103 c-2 -21 -4 -4 -4 37 0 41 2 58 4 38 2 -21 2 -55 0 -75z
m650 -50 c-2 -32 -3 -8 -3 52 0 61 1 87 3 58 2 -29 2 -78 0 -110z m-892 140
c-11 -2 -30 -6 -42 -9 -32 -6 -29 -24 5 -25 25 -2 25 -2 3 -6 -13 -3 -28 0
-35 7 -16 16 20 40 58 39 20 -1 24 -3 11 -6z m65 -40 c-11 -17 -11 -17 -6 0 3
10 6 24 7 30 0 9 2 9 5 0 3 -7 0 -20 -6 -30z m-3423 5 c-3 -8 -6 -5 -6 6 -1
11 2 17 5 13 3 -3 4 -12 1 -19z m4065 -31 c-12 -13 -23 -34 -23 -48 l-2 -24
-4 23 c-4 21 28 72 45 72 3 0 -4 -10 -16 -23z m-4041 -4 c13 -16 12 -17 -3 -4
-10 7 -18 15 -18 17 0 8 8 3 21 -13z m1326 -15 c-3 -7 -5 -2 -5 12 0 14 2 19
5 13 2 -7 2 -19 0 -25z m2035 -3 c0 -5 -5 -11 -11 -13 -6 -2 -11 4 -11 13 0 9
5 15 11 13 6 -2 11 -8 11 -13z m106 -1 c33 -22 29 -54 -5 -53 -24 2 -25 2 -5
6 32 6 27 32 -10 48 -18 8 -26 14 -18 15 9 0 26 -7 38 -16z m-1640 -21 c-71
-2 -185 -2 -255 0 -71 1 -13 3 127 3 140 0 198 -2 128 -3z m-431 -9 c-3 -3
-12 -4 -19 -1 -8 3 -5 6 6 6 11 1 17 -2 13 -5z m626 -1 c-7 -2 -19 -2 -25 0
-7 3 -2 5 12 5 14 0 19 -2 13 -5z m75 -10 c-10 -2 -26 -2 -35 0 -10 3 -2 5 17
5 19 0 27 -2 18 -5z m1315 0 c-13 -2 -23 -9 -23 -14 0 -5 -7 -9 -16 -9 -10 0
-14 -6 -10 -15 3 -8 1 -15 -4 -15 -6 0 -10 6 -10 14 0 18 40 45 65 44 17 -1
17 -1 -2 -5z m-115 -25 c-2 -15 -10 -23 -23 -24 -15 -1 -16 0 -2 3 9 3 17 11
17 20 0 10 -6 14 -20 10 -11 -3 -18 -1 -14 4 3 5 14 9 25 9 15 0 20 -6 17 -22z
m-1091 -4 c-3 -3 -12 -4 -19 -1 -8 3 -5 6 6 6 11 1 17 -2 13 -5z m53 -19 c17
-9 30 -18 30 -21 0 -4 -59 23 -69 32 -10 9 13 3 39 -11z m1750 -40 c-6 -30 -8
-33 -9 -13 -1 25 8 62 14 56 2 -2 -1 -21 -5 -43z m-577 17 c-13 -2 -23 -7 -23
-12 0 -4 -8 -11 -17 -14 -16 -6 -16 -6 0 12 9 10 15 21 12 24 -3 3 7 3 22 -1
25 -5 26 -6 6 -9z m-1570 -9 c-67 -2 -179 -2 -250 0 -70 1 -15 3 122 3 138 0
195 -2 128 -3z m1607 -8 c0 -16 -35 -21 -44 -6 -4 5 3 7 14 4 11 -3 20 0 20 6
0 6 2 11 5 11 3 0 5 -7 5 -15z m-2021 1 c-2 -2 -26 -6 -53 -9 -30 -3 -43 -1
-35 4 13 8 97 13 88 5z m629 -3 c-10 -2 -26 -2 -35 0 -10 3 -2 5 17 5 19 0 27
-2 18 -5z m-761 -23 c-16 -5 -34 -12 -41 -17 -6 -4 -3 0 7 10 11 9 29 17 41
16 17 -1 16 -2 -7 -9z m874 -7 c12 -16 12 -17 -1 -6 -8 6 -26 13 -40 16 l-25
4 26 2 c15 0 33 -7 40 -16z m1127 0 c-39 -6 -35 -23 5 -24 31 -2 32 -2 3 -6
-31 -5 -52 9 -42 26 4 6 19 10 34 10 l27 -2 -27 -4z m699 -51 c-24 -26 -21
-39 9 -46 34 -9 27 -16 -8 -9 -31 6 -37 33 -13 53 9 7 13 20 10 29 -5 13 -4
13 6 4 10 -10 9 -16 -4 -31z m220 -189 c-1 -43 -3 -8 -3 77 0 85 2 120 3 78 2
-43 2 -113 0 -155z m-3113 177 c4 -25 3 -31 -4 -20 -5 8 -10 26 -10 39 0 32 6
24 14 -19z m1083 8 c-3 -7 -5 -2 -5 12 0 14 2 19 5 13 2 -7 2 -19 0 -25z
m1191 0 c2 -9 -5 -18 -14 -22 -14 -6 -15 -4 -4 10 12 13 11 17 -1 26 -12 8
-12 9 1 5 8 -2 16 -11 18 -19z m-2030 -5 c-15 -2 -42 -2 -60 0 -18 2 -6 4 27
4 33 0 48 -2 33 -4z m1946 -33 c-6 -6 -10 -3 -10 10 0 13 4 16 10 10 7 -7 7
-13 0 -20z m-1561 13 c-7 -2 -19 -2 -25 0 -7 3 -2 5 12 5 14 0 19 -2 13 -5z
m1519 -22 c-9 -16 -18 -28 -21 -26 -4 5 27 55 34 55 2 0 -4 -13 -13 -29z m92
3 c3 -8 2 -12 -4 -9 -6 3 -10 10 -10 16 0 14 7 11 14 -7z m74 -21 c2 -8 -6
-13 -22 -13 -28 0 -43 15 -24 23 20 8 41 3 46 -10z m-1158 -13 c-21 -16 -39
-19 -115 -18 l-90 2 89 3 c57 3 96 9 110 18 30 22 35 18 6 -5z m1013 -11 c-6
-6 -19 -9 -29 -6 -16 4 -15 5 4 6 12 0 22 6 22 13 0 6 3 8 7 5 4 -4 2 -12 -4
-18z m764 -16 c-3 -10 -5 -4 -5 12 0 17 2 24 5 18 2 -7 2 -21 0 -30z m-2850
21 c-3 -3 -12 -4 -19 -1 -8 3 -5 6 6 6 11 1 17 -2 13 -5z m2141 -23 c-13 -15
-25 -27 -27 -25 -4 4 39 54 47 54 2 0 -7 -13 -20 -29z m-1658 -5 c0 -8 -9 -14
-19 -13 -15 1 -17 4 -9 14 14 17 28 16 28 -1z m180 4 c-75 -3 -111 -7 -90 -11
l35 -6 -37 -1 c-36 -2 -47 6 -31 21 3 4 61 6 127 5 l121 -2 -125 -6z m292 -27
c-51 -2 -132 -2 -180 0 -48 1 -6 3 93 3 99 0 138 -2 87 -3z m1878 -8 c-7 -8
-19 -15 -27 -15 -11 0 -14 -8 -11 -29 2 -17 1 -28 -4 -25 -19 12 -7 53 20 67
36 19 37 20 22 2z m-1746 -10 c11 -8 16 -15 10 -15 -5 0 -18 7 -28 15 -11 8
-16 15 -10 15 5 0 18 -7 28 -15z m1049 -38 c16 -3 13 -5 -10 -6 -28 -1 -30 1
-25 22 5 17 7 18 10 5 2 -9 13 -19 25 -21z m85 -42 c3 -15 -1 -17 -22 -11 -21
5 -26 3 -26 -13 0 -11 -14 -29 -32 -41 l-33 -22 28 24 c15 13 27 34 27 47 0
20 4 22 25 17 14 -4 25 -2 25 4 0 5 -9 10 -19 10 -11 0 -22 4 -25 9 -4 5 5 6
21 2 16 -4 30 -16 31 -26z m-1230 -12 c-2 -28 -8 -38 -21 -39 -12 -1 -13 -1
-2 3 9 3 15 16 15 34 l0 29 -287 3 -288 2 293 3 293 2 -3 -37z m-823 21 c-47
-7 -113 -8 -108 -1 2 4 32 6 66 6 34 -1 53 -3 42 -5z m2647 -29 c3 -13 1 -22
-3 -19 -9 5 -13 44 -5 44 2 0 6 -11 8 -25z m-2748 -11 c3 -8 2 -12 -4 -9 -6 3
-10 10 -10 16 0 14 7 11 14 -7z m2171 -14 c-19 -8 -19 -9 -1 -9 11 -1 17 -4
13 -7 -3 -3 -15 -3 -28 1 -17 6 -19 9 -8 16 8 5 21 8 29 8 10 0 8 -3 -5 -9z
m641 -33 c1 -24 1 -24 -3 -3 -3 15 -13 27 -26 30 -18 3 -18 4 3 3 20 -2 25 -8
26 -30z m-2631 3 l90 -6 -81 -2 c-56 -1 -92 3 -115 14 -20 9 -23 12 -9 8 14
-4 66 -10 115 -14z m650 0 c-27 -12 -43 -12 -25 0 8 5 22 9 30 9 10 0 8 -3 -5
-9z m215 -10 c0 -5 -5 -10 -11 -10 -5 0 -7 5 -4 10 3 6 8 10 11 10 2 0 4 -4 4
-10z m-438 -7 c-51 -2 -132 -2 -180 0 -48 1 -6 3 93 3 99 0 138 -2 87 -3z
m2153 -3 c3 -5 1 -10 -4 -10 -6 0 -11 5 -11 10 0 6 2 10 4 10 3 0 8 -4 11 -10z
m-1779 -25 c-11 -8 -25 -15 -30 -15 -6 1 0 7 14 15 32 19 40 18 16 0z m1099
-45 c-3 -5 -15 -10 -26 -10 -30 0 -23 -36 11 -60 28 -20 42 -60 21 -60 -5 0
-7 9 -4 20 4 14 -2 23 -21 31 -44 20 -48 79 -5 79 23 0 25 13 4 30 -8 7 -15
17 -15 23 0 5 9 -2 21 -17 11 -14 17 -30 14 -36z m224 -47 c-1 -54 -4 -88 -7
-75 -7 23 -4 172 4 172 2 0 4 -44 3 -97z m463 24 c-10 -12 -17 -28 -15 -35 3
-9 -3 -7 -16 4 -25 22 -26 25 -7 18 11 -4 13 0 9 15 -3 11 -9 18 -14 15 -5 -3
-9 0 -9 5 0 19 20 12 28 -10 7 -19 9 -19 21 -5 12 14 11 19 -3 34 -9 10 -16
22 -16 27 0 4 10 -4 21 -19 21 -27 21 -27 1 -49z m28 59 c-7 -7 -13 -7 -20 0
-6 6 -3 10 10 10 13 0 16 -4 10 -10z m160 -116 c0 -128 0 -130 -22 -129 -17 1
-19 2 -5 6 15 4 17 19 17 129 0 68 2 124 5 124 3 0 5 -58 5 -130z m-2023 104
c-3 -3 -12 -4 -19 -1 -8 3 -5 6 6 6 11 1 17 -2 13 -5z m-74 -21 c-7 -2 -19 -2
-25 0 -7 3 -2 5 12 5 14 0 19 -2 13 -5z m-758 -10 c-30 -8 -45 -23 -46 -47 -1
-18 -2 -18 -6 -3 -6 24 24 57 51 56 20 -1 20 -2 1 -6z m693 0 c-10 -2 -26 -2
-35 0 -10 3 -2 5 17 5 19 0 27 -2 18 -5z m-100 -10 c-15 -2 -42 -2 -60 0 -18
2 -6 4 27 4 33 0 48 -2 33 -4z m-475 -10 c-13 -2 -35 -2 -50 0 -16 2 -5 4 22
4 28 0 40 -2 28 -4z m285 0 c-32 -2 -86 -2 -120 0 -35 2 -9 3 57 3 66 0 94 -1
63 -3z m-2241 -35 c-3 -7 -5 -2 -5 12 0 14 2 19 5 13 2 -7 2 -19 0 -25z m0
-40 c-3 -8 -6 -5 -6 6 -1 11 2 17 5 13 3 -3 4 -12 1 -19z m3903 3 c0 -12 -29
-35 -36 -28 -11 10 5 37 21 37 8 0 15 -4 15 -9z m646 -9 c-21 -2 -42 0 -47 5
-4 4 13 6 39 3 l47 -5 -39 -3z m-2769 -224 c-1 -40 -3 -8 -3 72 0 80 2 112 3
73 2 -40 2 -106 0 -145z m1530 175 c-3 -10 -5 -4 -5 12 0 17 2 24 5 18 2 -7 2
-21 0 -30z m1280 15 c-3 -8 -6 -5 -6 6 -1 11 2 17 5 13 3 -3 4 -12 1 -19z
m-790 6 c-3 -3 -12 -4 -19 -1 -8 3 -5 6 6 6 11 1 17 -2 13 -5z m228 -43 c-3
-12 -10 -21 -15 -21 -4 0 -3 11 3 24 14 29 22 27 12 -3z m-170 9 c3 -5 16 -11
28 -11 17 -1 18 -2 5 -6 -10 -2 -28 3 -40 11 -12 9 -17 16 -11 16 7 0 15 -4
18 -10z m-3695 -25 c-7 -8 -20 -15 -29 -15 -11 0 -8 5 9 14 33 19 35 19 20 1z
m4410 5 c0 -5 -7 -10 -16 -10 -8 0 -12 5 -9 10 3 6 10 10 16 10 5 0 9 -4 9
-10z m-583 -6 c-3 -3 -12 -4 -19 -1 -8 3 -5 6 6 6 11 1 17 -2 13 -5z m-974
-195 c-4 -5 -6 36 -3 89 l5 97 3 -89 c1 -49 -1 -93 -5 -97z m1627 177 c0 -2
-7 -7 -16 -10 -8 -3 -12 -2 -9 4 6 10 25 14 25 6z m-1858 -78 c-3 -15 -13 -18
-56 -16 l-51 2 48 3 c26 2 47 9 47 14 0 6 -5 7 -12 3 -6 -4 -8 -3 -5 3 11 18
35 11 29 -9z m1106 15 c-27 -2 -69 -2 -95 0 -27 2 -5 3 47 3 52 0 74 -1 48 -3z
m-1271 -49 c-3 -3 -12 -4 -19 -1 -8 3 -5 6 6 6 11 1 17 -2 13 -5z m-74 -11
c-7 -2 -19 -2 -25 0 -7 3 -2 5 12 5 14 0 19 -2 13 -5z m-126 -19 c-3 -3 -12
-4 -19 -1 -8 3 -5 6 6 6 11 1 17 -2 13 -5z m-69 -11 c-10 -2 -26 -2 -35 0 -10
3 -2 5 17 5 19 0 27 -2 18 -5z m-71 -9 c-3 -3 -12 -4 -19 -1 -8 3 -5 6 6 6 11
1 17 -2 13 -5z m-44 -11 c-7 -2 -19 -2 -25 0 -7 3 -2 5 12 5 14 0 19 -2 13 -5z
m-124 -19 c8 -7 -64 -2 -89 6 -16 6 -6 7 30 3 30 -3 57 -7 59 -9z m69 9 c-10
-2 -28 -2 -40 0 -13 2 -5 4 17 4 22 1 32 -1 23 -4z m-211 -9 c-3 -3 -12 -4
-19 -1 -8 3 -5 6 6 6 11 1 17 -2 13 -5z m-144 -11 c-7 -2 -21 -2 -30 0 -10 3
-4 5 12 5 17 0 24 -2 18 -5z m90 0 c-13 -2 -35 -2 -50 0 -16 2 -5 4 22 4 28 0
40 -2 28 -4z m1030 0 c-7 -2 -19 -2 -25 0 -7 3 -2 5 12 5 14 0 19 -2 13 -5z
m212 -3 c-11 -5 -27 -9 -35 -9 -9 0 -8 4 5 9 11 5 27 9 35 9 9 0 8 -4 -5 -9z
m-292 -7 c-7 -2 -19 -2 -25 0 -7 3 -2 5 12 5 14 0 19 -2 13 -5z m-66 -9 c-3
-3 -12 -4 -19 -1 -8 3 -5 6 6 6 11 1 17 -2 13 -5z m300 0 c-3 -3 -12 -4 -19
-1 -8 3 -5 6 6 6 11 1 17 -2 13 -5z m-1170 -10 c-3 -3 -12 -4 -19 -1 -8 3 -5
6 6 6 11 1 17 -2 13 -5z m820 0 c-3 -3 -12 -4 -19 -1 -8 3 -5 6 6 6 11 1 17
-2 13 -5z m286 -1 c-13 -2 -33 -2 -45 0 -13 2 -3 4 22 4 25 0 35 -2 23 -4z
m-1155 -10 c-10 -2 -26 -2 -35 0 -10 3 -2 5 17 5 19 0 27 -2 18 -5z m790 0
c-10 -2 -26 -2 -35 0 -10 3 -2 5 17 5 19 0 27 -2 18 -5z m275 0 c-7 -2 -21 -2
-30 0 -10 3 -4 5 12 5 17 0 24 -2 18 -5z m-346 -9 c-3 -3 -12 -4 -19 -1 -8 3
-5 6 6 6 11 1 17 -2 13 -5z m290 0 c-3 -3 -12 -4 -19 -1 -8 3 -5 6 6 6 11 1
17 -2 13 -5z m-340 -10 c-3 -3 -12 -4 -19 -1 -8 3 -5 6 6 6 11 1 17 -2 13 -5z
m291 -1 c-10 -2 -26 -2 -35 0 -10 3 -2 5 17 5 19 0 27 -2 18 -5z m-355 -10
c-7 -2 -21 -2 -30 0 -10 3 -4 5 12 5 17 0 24 -2 18 -5z m270 0 c-7 -2 -21 -2
-30 0 -10 3 -4 5 12 5 17 0 24 -2 18 -5z m-66 -9 c-3 -3 -12 -4 -19 -1 -8 3
-5 6 6 6 11 1 17 -2 13 -5z m-44 -11 c-7 -2 -21 -2 -30 0 -10 3 -4 5 12 5 17
0 24 -2 18 -5z m-310 -10 c-7 -2 -19 -2 -25 0 -7 3 -2 5 12 5 14 0 19 -2 13
-5z m235 0 c-10 -2 -26 -2 -35 0 -10 3 -2 5 17 5 19 0 27 -2 18 -5z m-81 -9
c-3 -3 -12 -4 -19 -1 -8 3 -5 6 6 6 11 1 17 -2 13 -5z m-49 -11 c-10 -2 -28
-2 -40 0 -13 2 -5 4 17 4 22 1 32 -1 23 -4z m-243 -13 c3 -5 -3 -10 -15 -10
-12 0 -18 5 -15 10 3 6 10 10 15 10 5 0 12 -4 15 -10z m143 3 c-10 -2 -26 -2
-35 0 -10 3 -2 5 17 5 19 0 27 -2 18 -5z m-61 -9 c-3 -3 -12 -4 -19 -1 -8 3
-5 6 6 6 11 1 17 -2 13 -5z m-157 -34 c0 -5 -8 -10 -18 -10 -10 0 -24 -6 -32
-12 -8 -7 -6 -3 4 10 20 23 46 30 46 12z m-4947 -137 c-7 -2 -19 -2 -25 0 -7
3 -2 5 12 5 14 0 19 -2 13 -5z m4844 -129 c-3 -3 -12 -4 -19 -1 -8 3 -5 6 6 6
11 1 17 -2 13 -5z m2347 -189 c4 -11 31 -15 131 -17 155 -4 167 -21 19 -29
-75 -3 -108 -9 -114 -19 -6 -10 -37 -15 -104 -18 -53 -3 -96 -8 -96 -13 0 -5
-18 -9 -40 -9 -33 0 -48 -7 -77 -35 -23 -23 -46 -35 -63 -35 -15 0 -41 -7 -56
-15 -22 -11 -65 -15 -179 -15 -179 0 -229 15 -113 34 20 4 39 13 42 21 3 9 18
15 36 15 20 0 30 5 30 15 0 11 12 15 45 15 33 0 45 4 45 15 0 10 10 15 29 15
16 0 34 7 41 15 7 8 27 15 45 15 18 0 38 7 45 15 7 8 25 15 41 15 19 0 29 5
29 15 0 22 255 22 264 0z m-2126 -169 c-7 -8 -15 -12 -17 -11 -5 6 10 25 20
25 5 0 4 -6 -3 -14z m43 -13 c13 -16 12 -17 -3 -4 -10 7 -18 15 -18 17 0 8 8
3 21 -13z m169 10 c-13 -3 -30 -12 -38 -21 -11 -15 -12 -14 -2 6 7 15 19 22
38 21 26 -2 26 -2 2 -6z m57 -19 c3 -8 0 -21 -6 -27 -9 -9 -11 -8 -5 7 4 11 2
21 -7 27 -10 6 -11 9 -1 9 7 0 15 -7 19 -16z m-133 -3 c4 -5 -3 -7 -14 -4 -23
6 -26 13 -6 13 8 0 17 -4 20 -9z m2791 4 c-24 -8 -116 -12 -103 -4 7 5 36 8
63 8 28 0 46 -2 40 -4z m-2838 -11 c-3 -3 -12 -4 -19 -1 -8 3 -5 6 6 6 11 1
17 -2 13 -5z m-41 -49 c-3 -9 4 -15 22 -18 26 -4 26 -4 -2 -3 -25 1 -29 5 -31
35 -2 27 -1 31 7 17 5 -9 7 -23 4 -31z m1302 33 c-7 -19 -38 -22 -38 -4 0 10
9 16 21 16 12 0 19 -5 17 -12z m1352 -4 c0 -2 -14 -4 -31 -4 -16 0 -28 4 -25
9 5 8 56 3 56 -5z m-73 -10 c-3 -3 -12 -4 -19 -1 -8 3 -5 6 6 6 11 1 17 -2 13
-5z m-2424 -11 c-7 -2 -19 -2 -25 0 -7 3 -2 5 12 5 14 0 19 -2 13 -5z m2337
-9 c0 -2 -24 -4 -52 -4 -29 0 -48 4 -41 8 12 7 93 4 93 -4z m-287 -31 c-7 -2
-19 -2 -25 0 -7 3 -2 5 12 5 14 0 19 -2 13 -5z m-153 -29 c-37 -8 -88 -9 -84
-2 3 4 26 7 52 7 26 -1 40 -3 32 -5z m-149 -87 c-10 -9 -11 -8 -5 6 3 10 9 15
12 12 3 -3 0 -11 -7 -18z m539 -53 c0 -3 -11 -22 -25 -42 -14 -20 -25 -33 -25
-28 0 4 9 21 20 36 19 27 19 29 3 33 -14 4 -13 5 5 6 12 0 22 -1 22 -5z
m-6903 -10 c-3 -3 -12 -4 -19 -1 -8 3 -5 6 6 6 11 1 17 -2 13 -5z m6848 -2
c-53 -42 -60 -46 -33 -19 16 15 31 27 35 27 4 0 3 -3 -2 -8z m-6638 -8 c-7 -7
-117 -7 -125 1 -3 3 25 5 63 5 38 0 66 -3 62 -6z m3138 -24 c19 -8 19 -9 -2
-9 -12 -1 -25 4 -28 9 -7 12 2 12 30 0z m-2718 -6 c-7 -7 -179 -6 -186 2 -2 2
40 4 94 4 54 0 95 -3 92 -6z m277 -61 c6 -14 2 -13 -17 5 -13 12 -31 22 -41
22 -9 0 -14 4 -11 10 8 14 61 -14 69 -37z m5844 -18 c-6 -14 -15 -25 -20 -25
-4 0 -8 -6 -8 -13 0 -7 -7 -22 -15 -33 -14 -17 -14 -16 -2 11 12 31 46 85 53
85 2 0 -2 -11 -8 -25z m41 -72 c-82 -144 -156 -233 -194 -233 -20 0 -19 31 1
56 15 18 15 18 5 -3 -26 -53 -6 -56 48 -7 35 30 137 187 157 238 3 9 9 15 11
12 3 -3 -10 -31 -28 -63z m-546 42 c-3 -9 -8 -14 -10 -11 -3 3 -2 9 2 15 9 16
15 13 8 -4z m422 -115 c-14 -27 -28 -50 -30 -50 -3 0 6 23 20 50 14 28 28 50
30 50 3 0 -6 -22 -20 -50z m-485 0 c0 -5 -5 -10 -11 -10 -5 0 -7 5 -4 10 3 6
8 10 11 10 2 0 4 -4 4 -10z m-234 -295 c-11 -8 -29 -15 -40 -14 -15 0 -10 4
14 13 46 18 48 18 26 1z m-136 -39 c0 -8 -51 -13 -56 -5 -3 5 9 9 25 9 17 0
31 -2 31 -4z m-4556 -22 c5 -14 4 -15 -9 -4 -17 14 -19 20 -6 20 5 0 12 -7 15
-16z m2811 -4 c-33 -3 -89 -3 -125 0 l-65 5 85 5 c47 3 103 3 125 0 37 -4 36
-5 -20 -10z m-4418 -6 c238 -4 293 -7 303 -19 9 -10 33 -15 77 -15 54 0 69 -4
89 -22 13 -13 24 -30 24 -37 0 -8 12 -28 27 -43 l27 -28 -181 0 c-148 0 -183
3 -193 15 -10 12 -47 15 -210 15 -163 0 -200 3 -210 15 -9 11 -32 15 -78 15
-57 0 -68 3 -88 26 -13 14 -24 31 -24 38 0 8 -7 19 -15 26 -31 26 -15 31 73
25 48 -3 218 -8 379 -11z m5943 2 c0 -9 -50 -12 -62 -5 -8 6 1 9 25 9 20 0 37
-2 37 -4z m-160 -32 c0 -2 -33 -3 -72 -2 -69 1 -70 1 -23 7 48 6 95 3 95 -5z
m-230 -30 c0 -2 -30 -3 -67 -2 -62 1 -64 2 -23 7 43 6 90 3 90 -5z m-3856 -11
c-5 -5 -12 -12 -16 -18 -4 -6 -8 -2 -8 8 0 9 7 17 17 17 9 0 12 -3 7 -7z
m3666 -17 c8 -2 -9 -4 -37 -5 -29 0 -53 3 -53 7 0 7 52 6 90 -2z m-135 -6 c3
-5 2 -10 -4 -10 -5 0 -13 5 -16 10 -3 6 -2 10 4 10 5 0 13 -4 16 -10z m-180
-30 c-22 -5 -44 -4 -49 1 -6 5 10 9 40 8 l49 -1 -40 -8z m-2860 -20 c4 -6 -9
-10 -32 -9 -38 1 -38 1 -8 9 17 4 31 8 32 9 1 0 5 -3 8 -9z m2629 -12 c-15 -7
-28 -7 -40 1 -16 9 -12 10 21 10 35 0 37 -2 19 -11z m-2500 -14 c5 -13 3 -14
-6 -7 -7 6 -20 13 -28 16 -10 4 -8 6 6 6 12 1 25 -6 28 -15z m1045 -10 c14
-12 -19 -1 -35 12 -18 14 -18 14 6 3 14 -6 27 -13 29 -15z m-626 -1 c-7 -2
-19 -2 -25 0 -7 3 -2 5 12 5 14 0 19 -2 13 -5z m1877 3 c0 -8 -61 -12 -66 -4
-3 4 11 8 30 8 20 0 36 -2 36 -4z m-1747 -13 c-13 -2 -35 -2 -50 0 -16 2 -5 4
22 4 28 0 40 -2 28 -4z m493 -21 c-16 -2 -35 3 -43 11 -13 13 -10 13 28 3 40
-10 41 -11 15 -14z m651 12 c-3 -3 -12 -4 -19 -1 -8 3 -5 6 6 6 11 1 17 -2 13
-5z m356 -11 c-7 -2 -19 -2 -25 0 -7 3 -2 5 12 5 14 0 19 -2 13 -5z m-80 -10
c-7 -2 -19 -2 -25 0 -7 3 -2 5 12 5 14 0 19 -2 13 -5z m-146 -39 c-3 -3 -12
-4 -19 -1 -8 3 -5 6 6 6 11 1 17 -2 13 -5z m80 -10 c3 -8 1 -20 -5 -26 -8 -8
-9 -5 -6 10 4 14 0 22 -13 25 -17 4 -17 5 0 6 10 0 20 -6 24 -15z m-143 -9
c-13 -10 -15 -14 -5 -15 8 0 12 -2 9 -5 -3 -3 -13 -2 -23 1 -17 7 -17 8 1 21
10 7 22 13 28 13 5 0 1 -7 -10 -15z m74 -32 c-10 -2 -28 -2 -40 0 -13 2 -5 4
17 4 22 1 32 -1 23 -4z"/>
<path d="M10938 4103 c7 -3 16 -2 19 1 4 3 -2 6 -13 5 -11 0 -14 -3 -6 -6z"/>
<path d="M10940 3659 c0 -5 5 -7 10 -4 6 3 10 8 10 11 0 2 -4 4 -10 4 -5 0
-10 -5 -10 -11z"/>
</g>
</svg>
