<?xml version="1.0" standalone="no"?>
<!DOCTYPE svg PUBLIC "-//W3C//DTD SVG 20010904//EN"
 "http://www.w3.org/TR/2001/REC-SVG-20010904/DTD/svg10.dtd">
<svg version="1.0" xmlns="http://www.w3.org/2000/svg"
 width="811.000000pt" height="1280.000000pt" viewBox="0 0 811.000000 1280.000000"
 preserveAspectRatio="xMidYMid meet">

<g transform="translate(0.000000,1280.000000) scale(0.100000,-0.100000)"
fill="#000000" stroke="none">
<path d="M4420 12013 c-14 -3 -28 -10 -32 -17 -11 -17 -8 -253 4 -316 6 -30
13 -153 17 -273 4 -151 10 -220 18 -225 6 -4 15 -43 19 -87 7 -81 26 -114 64
-115 9 0 27 -13 40 -30 14 -16 33 -29 43 -30 10 0 31 -13 47 -29 30 -30 101
-71 123 -71 7 0 24 -13 37 -30 14 -16 30 -29 37 -30 20 0 73 -51 73 -70 0 -10
-7 -25 -15 -34 -8 -8 -15 -21 -15 -28 0 -8 -7 -23 -15 -34 -9 -11 -14 -42 -15
-76 0 -45 -3 -58 -15 -58 -12 0 -15 -15 -15 -74 0 -50 -4 -77 -14 -85 -7 -6
-16 -41 -19 -81 -3 -38 -13 -80 -21 -92 -10 -14 -16 -45 -16 -83 -1 -37 -6
-67 -15 -79 -9 -12 -15 -43 -15 -75 -1 -31 -7 -67 -15 -81 -8 -14 -14 -45 -15
-70 0 -25 -7 -67 -15 -94 -8 -27 -15 -70 -15 -96 0 -30 -6 -52 -15 -60 -8 -7
-15 -23 -15 -36 l0 -24 -574 0 -574 0 -6 33 c-4 17 -13 64 -20 102 -7 39 -18
83 -24 98 -7 16 -12 55 -12 88 0 44 -4 61 -15 65 -11 5 -15 23 -15 74 0 48 -5
73 -15 84 -10 10 -15 35 -15 77 0 42 -5 68 -15 80 -10 10 -18 45 -22 90 -4 41
-12 80 -20 87 -8 9 -13 38 -13 83 0 38 -4 69 -9 69 -4 0 -11 34 -13 75 -5 69
-8 78 -37 104 -17 15 -31 36 -31 46 0 19 55 75 74 75 6 1 22 14 36 30 13 17
34 30 45 30 12 0 34 14 50 30 16 17 36 30 44 30 9 0 29 16 45 35 16 19 39 35
50 35 12 0 32 12 46 27 13 14 37 30 52 35 28 10 28 11 28 93 0 54 5 93 15 111
12 23 15 71 15 230 0 167 3 204 15 214 12 10 15 43 15 181 l0 169 -68 0 c-63
0 -71 -2 -97 -30 -16 -16 -34 -30 -41 -30 -7 0 -38 -25 -69 -55 -32 -30 -65
-55 -73 -55 -8 0 -34 -20 -58 -45 -23 -25 -49 -45 -58 -45 -9 0 -32 -16 -52
-35 -19 -19 -41 -35 -47 -35 -15 -1 -87 -67 -87 -80 0 -6 -10 -10 -23 -10 -13
0 -33 -13 -47 -30 -39 -45 -50 -39 -50 29 0 87 -3 91 -66 91 -30 0 -54 -4 -54
-10 0 -5 -7 -10 -15 -10 -8 0 -15 -6 -15 -14 0 -8 -12 -17 -27 -21 -32 -7 -73
-38 -73 -54 0 -6 -8 -11 -17 -11 -20 -1 -73 -44 -73 -60 0 -5 -7 -10 -15 -10
-8 0 -15 -4 -15 -9 0 -5 -12 -12 -27 -16 -16 -3 -40 -20 -55 -36 -15 -16 -33
-29 -40 -29 -16 -1 -68 -46 -68 -60 0 -5 -7 -10 -15 -10 -8 0 -15 -4 -15 -9 0
-5 -13 -14 -30 -20 -16 -5 -30 -15 -30 -20 0 -6 -7 -11 -15 -11 -8 0 -15 -4
-15 -9 0 -18 -47 -61 -66 -61 -19 0 -54 -32 -54 -49 0 -5 -14 -12 -31 -16 -17
-4 -50 -27 -74 -51 -25 -24 -54 -44 -65 -44 -11 0 -20 -5 -20 -10 0 -17 -51
-60 -71 -60 -10 0 -29 -12 -43 -27 -59 -65 -76 -87 -76 -102 0 -9 -7 -25 -15
-35 -12 -16 -15 -62 -15 -242 0 -185 -2 -224 -15 -234 -13 -10 -15 -51 -15
-249 0 -274 11 -242 -127 -379 -51 -51 -93 -97 -93 -102 0 -6 -9 -10 -20 -10
-19 0 -190 -161 -190 -179 0 -5 -12 -17 -28 -27 -15 -10 -44 -36 -65 -58 -34
-36 -37 -45 -37 -96 0 -31 -4 -60 -9 -66 -5 -5 -11 -111 -13 -236 -3 -177 -7
-230 -19 -244 -11 -13 -15 -63 -18 -227 -2 -163 -6 -214 -17 -224 -11 -12 -14
-58 -14 -227 0 -178 -3 -216 -15 -226 -12 -10 -15 -48 -15 -221 0 -161 -3
-211 -14 -221 -9 -10 -14 -62 -18 -196 -4 -128 -9 -187 -19 -198 -9 -11 -14
-83 -16 -287 -3 -150 -8 -281 -13 -292 -5 -11 -11 -45 -12 -75 -3 -52 -4 -55
-31 -58 -16 -2 -31 -11 -33 -20 -3 -9 -11 -28 -17 -41 -8 -15 -12 -85 -12
-190 0 -149 2 -169 20 -196 11 -16 25 -34 32 -38 8 -5 13 -31 13 -71 0 -58 -3
-66 -35 -100 l-35 -37 0 -167 c0 -144 3 -171 18 -192 23 -33 25 -198 2 -225
-13 -16 -15 -89 -15 -523 0 -395 3 -506 13 -510 34 -11 -22 -72 -67 -72 -19 0
-34 -6 -37 -15 -4 -10 -20 -15 -44 -15 -22 0 -42 -5 -45 -10 -11 -19 -88 -50
-122 -50 -21 0 -36 -6 -39 -15 -4 -8 -18 -15 -34 -15 -39 0 -60 -9 -60 -26 0
-10 -13 -14 -44 -14 -30 0 -46 -5 -50 -15 -3 -9 -19 -15 -41 -15 -22 0 -43 -8
-55 -20 -11 -11 -29 -20 -39 -20 -10 0 -21 -7 -25 -15 -3 -9 -18 -15 -39 -15
-53 0 -77 -33 -77 -107 0 -42 5 -64 15 -73 12 -10 15 -38 15 -130 0 -91 3
-120 15 -130 8 -6 17 -38 21 -71 l7 -59 131 0 c112 0 137 -3 169 -20 32 -17
56 -20 183 -20 106 0 149 -4 158 -13 20 -20 -4 -47 -48 -54 -20 -3 -39 -10
-42 -14 -3 -5 -18 -9 -35 -9 -19 0 -29 -5 -29 -14 0 -10 -16 -17 -45 -21 -24
-4 -50 -13 -56 -21 -6 -8 -27 -14 -46 -14 -21 0 -36 -6 -39 -15 -4 -10 -20
-15 -44 -15 -21 0 -43 -7 -50 -15 -7 -8 -30 -18 -51 -21 -21 -4 -40 -13 -43
-20 -3 -8 -19 -14 -36 -14 l-30 0 0 -164 c0 -133 3 -166 15 -176 11 -9 15 -34
15 -95 0 -72 3 -85 24 -108 23 -25 26 -25 198 -28 150 -4 177 -6 192 -22 15
-15 38 -17 170 -17 124 0 156 -3 166 -15 10 -13 9 -15 -9 -15 -12 0 -21 -6
-21 -15 0 -10 -16 -16 -50 -21 -28 -4 -53 -11 -56 -15 -3 -5 -18 -9 -34 -9
-16 0 -35 -7 -43 -15 -8 -7 -26 -17 -40 -20 -14 -4 -28 -13 -31 -21 -3 -9 -20
-14 -45 -14 -25 0 -41 -5 -45 -15 -3 -9 -18 -15 -39 -15 -20 0 -44 -8 -57 -20
-13 -11 -37 -20 -55 -20 -20 0 -35 -6 -39 -15 -3 -9 -19 -15 -41 -15 -57 0
-75 -27 -75 -109 0 -39 5 -73 10 -76 6 -3 10 -53 10 -113 1 -85 5 -115 20
-147 11 -22 19 -59 20 -82 l0 -43 103 0 c83 0 109 -4 140 -20 32 -17 56 -20
185 -20 114 0 152 -3 169 -15 15 -11 57 -15 159 -17 l139 -3 3 -25 c2 -14 10
-29 18 -33 8 -5 14 -24 14 -45 0 -39 37 -92 64 -92 7 0 25 -11 40 -25 15 -14
34 -25 42 -25 8 0 22 -9 31 -20 10 -11 25 -20 35 -20 9 0 33 -16 52 -35 20
-19 43 -35 52 -35 9 0 27 -11 40 -25 12 -13 34 -27 48 -31 14 -3 26 -12 26
-20 0 -9 11 -14 30 -14 l30 0 0 -70 c0 -67 2 -72 35 -104 19 -19 35 -37 35
-41 0 -13 45 -44 63 -45 10 0 20 -7 23 -15 4 -8 12 -15 19 -15 7 0 15 -7 19
-15 3 -8 15 -15 26 -15 11 0 23 -7 26 -15 4 -8 14 -15 25 -15 10 0 33 -16 52
-35 19 -19 43 -35 53 -35 11 0 27 -9 37 -20 9 -11 23 -20 30 -20 8 0 26 -11
41 -25 15 -14 38 -28 51 -31 13 -3 26 -12 29 -20 3 -8 15 -14 26 -14 11 0 23
-7 26 -15 5 -11 24 -15 79 -15 l74 0 3 33 3 32 78 3 77 3 0 44 c0 43 1 44 36
47 35 3 46 12 58 50 4 15 18 18 81 18 58 0 75 3 75 14 0 8 5 16 11 18 14 5 39
75 39 111 0 15 9 35 20 44 11 10 20 23 20 30 0 21 21 15 27 -7 3 -11 12 -20
19 -20 9 0 14 -11 14 -28 0 -15 9 -35 20 -45 11 -9 20 -23 20 -30 0 -6 11 -24
25 -39 14 -15 25 -36 25 -47 0 -11 16 -35 35 -54 19 -19 35 -43 35 -53 1 -10
14 -30 30 -44 20 -16 30 -33 30 -52 0 -18 5 -28 15 -28 8 0 15 -7 15 -15 0 -9
7 -18 15 -21 8 -4 15 -16 15 -28 0 -11 13 -30 28 -41 26 -19 46 -20 507 -24
264 -2 548 0 631 4 l151 7 51 47 c29 27 52 55 52 63 0 8 14 30 30 48 17 18 30
41 30 51 0 9 16 34 35 53 19 20 35 45 35 56 0 12 7 23 15 26 8 4 15 12 15 19
0 7 7 15 15 19 8 3 15 13 15 22 0 9 14 33 30 54 17 21 30 47 30 59 0 12 6 21
15 21 10 0 15 10 15 26 0 22 2 25 15 14 8 -7 15 -20 15 -30 0 -9 9 -27 20 -40
11 -13 20 -31 20 -40 0 -10 7 -23 15 -30 8 -7 15 -23 15 -36 0 -15 6 -24 15
-24 10 0 15 -10 15 -29 0 -21 6 -30 23 -35 41 -11 74 -6 92 14 25 28 33 25 41
-15 6 -33 9 -35 45 -35 l39 0 0 -45 0 -44 78 -3 77 -3 3 -32 3 -33 74 0 c55 0
74 4 79 15 3 8 14 15 25 15 11 0 33 16 48 35 15 19 35 35 44 35 25 0 94 37
120 64 13 14 31 26 39 26 9 0 23 9 33 20 9 11 24 20 32 20 9 0 29 13 45 30 16
16 36 30 43 30 8 0 20 7 27 15 7 8 22 15 33 15 25 0 97 74 97 99 0 10 7 24 15
31 10 8 15 31 15 71 0 46 3 59 15 59 8 0 15 6 15 14 0 8 14 17 31 21 17 4 33
13 36 21 3 8 16 14 29 14 13 0 24 5 24 10 0 6 6 10 13 10 7 0 18 9 25 20 7 11
23 20 37 20 16 0 25 6 25 15 0 9 9 15 25 15 16 0 34 12 52 35 16 20 37 35 49
35 11 0 28 8 37 18 76 79 77 81 77 119 0 32 6 43 30 61 27 20 41 22 163 22
107 0 137 3 147 15 10 12 41 15 161 15 130 0 154 3 186 20 31 16 57 20 139 20
l102 0 7 74 c4 45 12 80 21 87 10 8 14 38 14 113 1 73 5 106 15 120 9 12 15
42 15 72 0 70 -26 104 -81 104 -26 0 -42 5 -45 15 -4 8 -15 15 -25 15 -11 0
-27 9 -36 20 -12 14 -30 20 -56 20 -24 0 -40 5 -43 15 -4 9 -19 15 -39 15 -18
0 -38 6 -44 14 -6 7 -30 16 -53 19 -23 3 -45 13 -50 21 -5 10 -22 16 -43 16
-19 0 -37 5 -40 10 -3 6 -15 10 -26 10 -10 0 -27 9 -36 20 -11 13 -30 20 -51
20 -30 0 -33 2 -22 15 10 12 42 15 166 15 132 0 155 2 170 17 15 15 42 19 180
22 124 2 166 6 175 17 6 8 22 14 35 14 24 0 24 1 24 109 0 84 3 111 15 121 12
10 15 41 15 161 l0 149 -30 0 c-17 0 -33 6 -36 14 -3 7 -22 16 -44 20 -21 3
-40 13 -44 21 -3 8 -16 15 -29 15 -14 0 -30 7 -37 15 -7 8 -28 15 -47 15 -21
0 -36 6 -39 15 -4 9 -19 15 -39 15 -18 0 -44 9 -58 20 -14 11 -37 20 -51 20
-15 0 -34 4 -44 9 -9 6 -33 13 -54 16 -20 3 -39 12 -42 20 -3 8 -13 15 -22 15
-13 0 -14 3 -5 14 10 11 49 15 172 18 129 2 162 6 169 18 7 12 40 16 152 20
176 6 183 10 193 98 4 34 11 65 16 68 5 3 9 59 9 125 0 97 3 121 15 125 11 5
15 24 15 80 l0 74 -40 0 c-22 0 -42 6 -47 13 -4 8 -26 17 -48 20 -22 4 -45 13
-51 22 -7 9 -27 15 -48 15 -23 0 -39 5 -42 15 -4 8 -16 15 -28 15 -12 0 -29 9
-39 20 -10 12 -29 20 -48 20 -17 0 -37 7 -45 15 -9 8 -31 15 -49 15 -19 0 -36
4 -39 9 -3 4 -23 11 -45 15 -21 3 -41 13 -45 21 -4 10 -20 15 -51 15 -33 0
-45 4 -45 15 0 9 -9 15 -23 15 -12 0 -30 9 -40 20 -9 11 -26 20 -37 20 -15 0
-20 7 -20 29 0 16 6 31 13 33 9 4 13 111 15 482 2 436 1 480 -15 514 -24 50
-24 204 0 230 15 16 17 45 17 202 0 168 -2 185 -21 216 -11 19 -25 34 -29 34
-12 0 -24 65 -16 92 3 13 18 36 33 53 l28 29 0 182 c0 194 -3 208 -56 265 -19
21 -29 44 -34 84 -3 30 -11 57 -16 60 -5 4 -9 119 -9 273 0 227 -3 272 -16
297 -13 23 -17 70 -21 205 -3 121 -9 185 -19 207 -10 23 -14 77 -14 210 -1
141 -4 182 -15 197 -12 16 -15 59 -15 217 0 109 -4 209 -9 223 -6 13 -13 127
-17 253 -4 143 -11 233 -18 242 -7 9 -13 91 -16 222 -4 147 -9 212 -17 221 -8
7 -13 37 -13 69 0 69 -15 116 -41 124 -10 4 -19 11 -19 16 0 5 -11 14 -25 19
-14 5 -80 66 -147 135 -67 69 -130 128 -140 131 -21 6 -158 140 -158 153 0 5
-7 11 -15 15 -13 5 -15 42 -15 249 0 205 -2 247 -15 257 -12 10 -15 49 -15
229 0 119 -3 233 -7 255 -5 31 -21 54 -86 117 -43 44 -85 79 -93 79 -7 0 -30
16 -50 35 -19 19 -44 35 -55 35 -10 0 -19 7 -19 15 0 8 -6 15 -12 15 -7 1 -24
14 -38 30 -14 17 -34 30 -47 30 -13 0 -23 5 -23 10 0 18 -54 59 -77 60 -13 0
-23 4 -23 10 0 18 -75 79 -97 80 -13 0 -23 5 -23 10 0 16 -79 90 -96 90 -8 0
-27 14 -41 30 -13 17 -34 30 -45 30 -11 0 -39 22 -65 50 -25 28 -53 50 -63 50
-10 0 -32 16 -49 35 -17 19 -39 35 -50 35 -11 0 -23 5 -26 10 -3 6 -31 10 -61
10 l-54 0 0 -75 c0 -48 -4 -75 -11 -75 -6 0 -32 20 -57 45 -25 25 -51 45 -59
45 -7 0 -36 23 -65 50 -28 28 -58 50 -66 50 -7 0 -28 16 -46 35 -19 19 -40 35
-47 35 -8 0 -34 20 -59 45 -25 24 -53 44 -63 45 -10 0 -31 16 -48 35 -17 19
-40 35 -50 35 -10 0 -19 4 -19 8 0 5 -12 17 -27 29 -30 22 -83 33 -123 26z
m-2775 -3380 c-3 -49 -8 -219 -11 -380 -4 -238 -7 -293 -19 -303 -10 -9 -15
-33 -15 -77 0 -54 -4 -69 -22 -89 -13 -13 -30 -24 -37 -24 -8 0 -28 -12 -43
-27 l-28 -27 0 181 c0 148 3 183 15 193 12 10 15 47 15 210 0 163 3 200 15
210 11 9 15 32 15 78 0 57 3 68 26 88 14 13 31 24 38 24 8 0 19 7 26 15 26 31
31 15 25 -72z m4863 55 c68 -71 72 -79 72 -137 1 -31 7 -67 15 -81 11 -19 14
-69 15 -211 0 -147 3 -189 15 -205 11 -15 14 -53 15 -170 0 -83 -3 -153 -6
-157 -4 -3 -22 8 -41 26 -18 18 -43 34 -56 37 -20 5 -22 12 -25 85 -1 44 -6
89 -12 100 -5 11 -10 142 -12 291 -2 181 -7 276 -14 285 -24 30 -27 169 -4
169 4 0 21 -15 38 -32z m-3461 -130 c-3 -7 -5 -2 -5 12 0 14 2 19 5 13 2 -7 2
-19 0 -25z m-780 -650 c-3 -8 -6 -5 -6 6 -1 11 2 17 5 13 3 -3 4 -12 1 -19z
m3593 -19 c0 -6 -4 -7 -10 -4 -5 3 -10 11 -10 16 0 6 5 7 10 4 6 -3 10 -11 10
-16z m-3601 -136 c-1 -47 -3 -59 -8 -38 -6 29 -3 105 5 105 2 0 3 -30 3 -67z
m3608 15 c-2 -13 -4 -5 -4 17 -1 22 1 32 4 23 2 -10 2 -28 0 -40z m23 -299 c0
-16 -4 -28 -9 -25 -8 5 -3 56 5 56 2 0 4 -14 4 -31z m-3660 -106 c0 -54 -4
-93 -8 -87 -7 12 -4 184 4 184 2 0 4 -44 4 -97z m3690 -299 c0 -8 -5 -12 -10
-9 -6 4 -8 11 -5 16 9 14 15 11 15 -7z m-3725 -33 c-8 -16 -22 -32 -32 -35
-14 -6 -13 -2 5 17 12 13 22 31 22 41 0 9 4 14 10 11 6 -4 5 -17 -5 -34z
m-535 -370 c0 -5 -7 -12 -16 -15 -14 -5 -15 -4 -4 9 14 17 20 19 20 6z m4894
-93 c-4 -6 -10 -5 -15 3 -14 22 -10 33 6 19 8 -7 12 -17 9 -22z m-4984 -5 c0
-10 -4 -14 -8 -8 -4 6 -11 13 -16 18 -5 4 -2 7 7 7 10 0 17 -8 17 -17z m-78
-463 c3 -17 1 -33 -4 -36 -4 -3 -8 11 -8 30 0 44 6 47 12 6z m5138 -17 c0 -21
-3 -24 -9 -14 -5 8 -7 20 -4 28 8 21 13 15 13 -14z m-5150 -122 c0 -10 -6 -21
-14 -24 -11 -4 -11 -1 -2 19 13 29 16 30 16 5z m5164 -6 c3 -8 1 -15 -4 -15
-6 0 -10 7 -10 15 0 8 2 15 4 15 2 0 6 -7 10 -15z m-37 -162 c-3 -10 -5 -4 -5
12 0 17 2 24 5 18 2 -7 2 -21 0 -30z m-2920 -59 c-3 -3 -12 -4 -19 -1 -8 3 -5
6 6 6 11 1 17 -2 13 -5z m46 -1 c-7 -2 -19 -2 -25 0 -7 3 -2 5 12 5 14 0 19
-2 13 -5z m-149 -163 c10 -13 9 -13 -6 -1 -10 7 -18 21 -17 30 0 13 1 14 6 1
3 -8 11 -22 17 -30z m3077 -17 c13 -16 12 -17 -3 -4 -10 7 -18 15 -18 17 0 8
8 3 21 -13z m-5204 -35 c-3 -7 -5 -2 -5 12 0 14 2 19 5 13 2 -7 2 -19 0 -25z
m5212 -143 c-5 -12 -7 6 -7 50 1 69 1 69 8 20 4 -27 3 -59 -1 -70z m-5222 18
c-2 -16 -4 -5 -4 22 0 28 2 40 4 28 2 -13 2 -35 0 -50z m3010 -99 c-3 -3 -12
-4 -19 -1 -8 3 -5 6 6 6 11 1 17 -2 13 -5z m-37 -8 c0 -2 -8 -10 -17 -17 -16
-13 -17 -12 -4 4 13 16 21 21 21 13z m1487 -228 c-3 -8 -6 -5 -6 6 -1 11 2 17
5 13 3 -3 4 -12 1 -19z m-4471 -150 c-10 -39 -11 -40 -14 -15 -3 23 11 57 23
57 1 0 -3 -19 -9 -42z m795 -349 c-9 -22 -10 -22 -10 -3 -1 11 2 24 6 27 12
12 14 0 4 -24z m4136 -91 c-3 -8 -6 -5 -6 6 -1 11 2 17 5 13 3 -3 4 -12 1 -19z
m110 -125 c-2 -16 -4 -5 -4 22 0 28 2 40 4 28 2 -13 2 -35 0 -50z m-5040 -95
c-3 -8 -6 -5 -6 6 -1 11 2 17 5 13 3 -3 4 -12 1 -19z m4920 -35 c-3 -10 -5 -4
-5 12 0 17 2 24 5 18 2 -7 2 -21 0 -30z m-4988 -52 c0 -9 -5 -5 -10 9 -8 20
-12 22 -19 10 -11 -17 -13 -9 -3 16 6 16 7 16 20 -2 7 -10 13 -25 12 -33z
m5385 -16 c-7 -19 -14 -51 -14 -71 0 -32 2 -36 21 -31 16 4 19 3 11 -5 -20
-20 -42 -1 -42 37 0 34 23 105 34 105 3 0 -2 -16 -10 -35z m-5427 -47 c-2 -13
-4 -3 -4 22 0 25 2 35 4 23 2 -13 2 -33 0 -45z m2872 58 c-2 -2 -20 -6 -39
-10 -25 -4 -31 -3 -20 4 14 9 69 15 59 6z m2600 -66 c0 -8 -7 1 -14 20 -18 46
-17 64 0 25 8 -16 14 -37 14 -45z m-5422 18 c-3 -7 -5 -2 -5 12 0 14 2 19 5
13 2 -7 2 -19 0 -25z m2710 -40 c-3 -8 -6 -5 -6 6 -1 11 2 17 5 13 3 -3 4 -12
1 -19z m-2711 -23 c-8 -22 -34 -18 -47 8 -12 21 -11 21 8 5 26 -24 33 -23 34
5 0 12 3 16 6 9 3 -7 2 -19 -1 -27z m3421 3 c-3 -7 -5 -2 -5 12 0 14 2 19 5
13 2 -7 2 -19 0 -25z m1903 -100 c0 -45 -4 -78 -8 -72 -8 9 -4 154 4 154 2 0
4 -37 4 -82z m-5050 -133 c-4 -37 -5 -36 -10 20 -3 33 -3 89 0 125 l5 65 5
-85 c3 -47 3 -103 0 -125z m2263 187 c-24 -15 -51 -116 -52 -202 -3 -113 -11
-117 -11 -4 0 66 5 103 21 144 25 67 27 70 42 70 9 0 9 -2 0 -8z m35 -73 l-3
-64 -5 72 c-3 40 -1 68 3 64 4 -4 7 -37 5 -72z m291 17 c-1 -15 -4 -11 -10 12
-5 18 -13 31 -18 28 -4 -3 -8 2 -8 11 0 12 5 11 19 -7 10 -12 18 -32 17 -44z
m-2822 22 c-3 -7 -5 -2 -5 12 0 14 2 19 5 13 2 -7 2 -19 0 -25z m2750 -190
c-1 -40 -3 -8 -3 72 0 80 2 112 3 73 2 -40 2 -106 0 -145z m2307 100 c-10 -64
-19 -42 -15 34 4 65 5 69 12 38 5 -19 6 -52 3 -72z m-2891 75 c-40 -2 -106 -2
-145 0 -40 1 -8 3 72 3 80 0 112 -2 73 -3z m1105 0 c-43 -2 -113 -2 -155 0
-43 1 -8 3 77 3 85 0 120 -2 78 -3z m-1331 -115 c-2 -24 -4 -7 -4 37 0 44 2
63 4 43 2 -21 2 -57 0 -80z m398 92 c16 -18 17 -25 7 -54 -7 -18 -13 -52 -14
-77 l-1 -44 -4 40 c-3 22 1 57 8 77 14 44 3 64 -39 71 l-27 4 26 2 c15 0 34
-8 44 -19z m658 13 c-7 -2 -19 -2 -25 0 -7 3 -2 5 12 5 14 0 19 -2 13 -5z
m354 -55 c-2 -13 -4 -5 -4 17 -1 22 1 32 4 23 2 -10 2 -28 0 -40z m-3340 0
c-3 -7 -5 -2 -5 12 0 14 2 19 5 13 2 -7 2 -19 0 -25z m2832 -38 c-1 -53 -6
-44 -12 24 -3 30 -1 43 4 35 5 -8 8 -34 8 -59z m98 28 c-3 -7 -5 -2 -5 12 0
14 2 19 5 13 2 -7 2 -19 0 -25z m-1040 -25 c-3 -10 -5 -2 -5 17 0 19 2 27 5
18 2 -10 2 -26 0 -35z m1440 -60 c-3 -10 -5 -2 -5 17 0 19 2 27 5 18 2 -10 2
-26 0 -35z m-1430 15 c-3 -8 -6 -5 -6 6 -1 11 2 17 5 13 3 -3 4 -12 1 -19z
m1040 -370 c-1 -73 -3 -14 -3 132 0 146 2 205 3 133 2 -73 2 -193 0 -265z
m-1000 330 c-3 -8 -6 -5 -6 6 -1 11 2 17 5 13 3 -3 4 -12 1 -19z m903 -235 c0
-135 -2 -244 -5 -241 -3 3 -6 102 -6 219 1 282 0 269 6 269 3 0 5 -111 5 -247z
m474 195 c-5 -30 -4 -39 4 -34 15 9 16 -43 1 -64 -8 -12 -10 -12 -8 5 2 11 -1
34 -5 51 -4 17 -4 43 0 58 10 41 15 31 8 -16z m-1373 -58 c-5 -25 -9 -35 -10
-24 -1 28 11 92 16 79 1 -6 -1 -30 -6 -55z m-1912 3 c-1 -37 -1 -37 -8 -8 -7
28 -5 45 5 45 2 0 3 -17 3 -37z m5214 17 c-6 -22 -23 -38 -23 -21 0 17 12 41
20 41 5 0 6 -9 3 -20z m-3483 -67 c0 -7 -4 -13 -10 -13 -5 0 -10 8 -10 18 0
10 -6 24 -12 32 -7 8 -3 6 10 -4 12 -11 22 -25 22 -33z m558 -75 c-1 -110 -2
-115 -7 -48 -3 41 -4 96 -3 123 7 87 12 48 10 -75z m99 -160 c-1 -51 -3 -12
-3 87 0 99 2 141 3 93 2 -48 2 -129 0 -180z m113 -29 l0 -290 -37 3 c-28 2
-38 8 -39 21 -2 12 -1 13 3 2 3 -10 15 -14 33 -13 l28 2 0 126 c-1 258 2 440
7 440 3 0 5 -131 5 -291z m977 249 c-3 -7 -5 -2 -5 12 0 14 2 19 5 13 2 -7 2
-19 0 -25z m-1560 -35 c-3 -10 -5 -2 -5 17 0 19 2 27 5 18 2 -10 2 -26 0 -35z
m693 16 c0 -5 -6 -9 -14 -9 -8 0 -14 9 -13 19 1 15 4 17 14 9 7 -6 13 -14 13
-19z m839 -56 c0 -27 -4 -56 -7 -66 -4 -9 -7 12 -7 48 0 36 3 65 8 65 4 0 7
-21 6 -47z m-1686 22 c4 -8 2 -17 -3 -20 -6 -4 -10 3 -10 14 0 25 6 27 13 6z
m924 -37 c-3 -7 -5 -2 -5 12 0 14 2 19 5 13 2 -7 2 -19 0 -25z m-760 -10 c-3
-7 -5 -2 -5 12 0 14 2 19 5 13 2 -7 2 -19 0 -25z m679 -114 l0 -129 -5 130
c-4 89 -8 116 -12 85 l-6 -45 -1 48 c-2 35 2 48 11 45 9 -4 12 -40 13 -134z
m664 111 c0 -8 -4 -15 -10 -15 -5 0 -7 7 -4 15 4 8 8 15 10 15 2 0 4 -7 4 -15z
m-2165 -5 c4 -6 -1 -23 -11 -38 -10 -15 -19 -22 -22 -14 -3 9 -9 9 -24 1 -11
-6 -26 -8 -33 -5 -9 3 -15 -5 -18 -27 -4 -31 -5 -31 -3 3 1 24 5 34 15 32 21
-4 51 8 51 22 0 13 20 36 31 36 4 0 11 -5 14 -10z m-1075 -47 c-1 -31 -3 -35
-11 -20 -6 9 -7 26 -4 37 10 30 15 24 15 -17z m5150 12 c0 -14 -4 -25 -9 -25
-4 0 -6 11 -3 25 2 14 6 25 8 25 2 0 4 -11 4 -25z m-3411 -54 c1 -48 -5 -35
-12 24 -4 32 -3 43 3 30 5 -11 9 -35 9 -54z m2417 23 c-9 -8 -17 -25 -17 -37
-1 -16 -2 -18 -6 -5 -5 20 13 58 28 58 6 0 3 -7 -5 -16z m-759 -61 c-2 -16 -4
-5 -4 22 0 28 2 40 4 28 2 -13 2 -35 0 -50z m-2354 -14 c-4 -4 -9 11 -10 34
l-1 42 10 -34 c5 -18 6 -37 1 -42z m874 39 c-3 -7 -5 -2 -5 12 0 14 2 19 5 13
2 -7 2 -19 0 -25z m350 -90 c-2 -18 -4 -6 -4 27 0 33 2 48 4 33 2 -15 2 -42 0
-60z m280 -200 c-1 -51 -3 -12 -3 87 0 99 2 141 3 93 2 -48 2 -129 0 -180z
m1567 221 c-9 -10 -22 -19 -28 -19 -6 0 0 7 12 16 12 8 22 23 23 32 0 11 2 13
6 4 3 -7 -3 -22 -13 -33z m-2367 -31 c-2 -13 -4 -3 -4 22 0 25 2 35 4 23 2
-13 2 -33 0 -45z m-678 -16 l-2 -27 -4 28 c-2 15 -11 27 -19 27 -8 0 -14 5
-14 10 0 7 6 7 20 0 13 -7 19 -20 19 -38z m-72 6 c-3 -7 -5 -2 -5 12 0 14 2
19 5 13 2 -7 2 -19 0 -25z m2390 -5 c-3 -10 -5 -4 -5 12 0 17 2 24 5 18 2 -7
2 -21 0 -30z m758 -3 c-9 -41 -17 -33 -9 9 4 17 9 30 11 27 3 -2 2 -19 -2 -36z
m-30 -21 c22 -41 11 -36 -14 7 -12 19 -16 32 -11 29 6 -3 17 -19 25 -36z
m-1248 -16 c-3 -10 -5 -4 -5 12 0 17 2 24 5 18 2 -7 2 -21 0 -30z m2244 -30
c-9 -38 -9 -38 -10 17 0 40 2 50 9 38 6 -10 7 -31 1 -55z m-4075 17 c7 0 15 6
17 13 4 9 6 9 6 -1 2 -22 -31 -27 -45 -7 -8 10 -14 24 -13 29 0 6 5 1 11 -11
6 -13 17 -23 24 -23z m721 18 c-3 -8 -6 -5 -6 6 -1 11 2 17 5 13 3 -3 4 -12 1
-19z m-1728 -35 l-1 -48 -8 40 c-7 37 -5 55 6 55 2 0 3 -21 3 -47z m3348 15
c-3 -7 -5 -2 -5 12 0 14 2 19 5 13 2 -7 2 -19 0 -25z m-1100 -30 c-2 -13 -4
-5 -4 17 -1 22 1 32 4 23 2 -10 2 -28 0 -40z m490 0 c-2 -13 -4 -5 -4 17 -1
22 1 32 4 23 2 -10 2 -28 0 -40z m-820 10 c-3 -8 -6 -5 -6 6 -1 11 2 17 5 13
3 -3 4 -12 1 -19z m1390 0 c-3 -8 -6 -5 -6 6 -1 11 2 17 5 13 3 -3 4 -12 1
-19z m-1570 -40 c-2 -13 -4 -5 -4 17 -1 22 1 32 4 23 2 -10 2 -28 0 -40z
m1090 5 c-3 -10 -5 -2 -5 17 0 19 2 27 5 18 2 -10 2 -26 0 -35z m-469 -43 c0
-8 -6 1 -13 20 -7 19 -13 42 -13 50 0 8 6 -1 13 -20 7 -19 13 -42 13 -50z
m799 58 c-3 -8 -6 -5 -6 6 -1 11 2 17 5 13 3 -3 4 -12 1 -19z m180 -40 c-2
-13 -4 -5 -4 17 -1 22 1 32 4 23 2 -10 2 -28 0 -40z m-754 -165 c24 -44 14
-42 -12 3 -18 29 -21 50 -19 122 l2 87 5 -90 c4 -58 12 -101 24 -122z m1488
194 c-1 -12 -15 -9 -19 4 -3 6 1 10 8 8 6 -3 11 -8 11 -12z m-1792 -112 c-1
-21 -27 61 -28 85 0 14 6 4 14 -25 8 -27 14 -54 14 -60z m1761 52 c0 -6 -7 -2
-16 9 -15 18 -15 18 -10 -5 3 -17 2 -21 -6 -13 -6 6 -8 18 -4 27 5 14 9 15 21
5 8 -7 15 -17 15 -23z m-1334 -35 c-11 -11 -16 -12 -16 -4 0 7 5 12 10 12 6 0
11 12 11 28 2 25 2 25 6 3 3 -13 -2 -30 -11 -39z m-959 11 c-3 -10 -5 -4 -5
12 0 17 2 24 5 18 2 -7 2 -21 0 -30z m1573 -43 l-11 -25 6 25 c2 14 5 34 6 45
2 19 2 19 6 0 2 -12 -1 -32 -7 -45z m727 28 c-3 -8 -6 -5 -6 6 -1 11 2 17 5
13 3 -3 4 -12 1 -19z m-2250 -20 c-3 -7 -5 -2 -5 12 0 14 2 19 5 13 2 -7 2
-19 0 -25z m1000 10 c-3 -8 -6 -5 -6 6 -1 11 2 17 5 13 3 -3 4 -12 1 -19z
m-1040 -20 c-3 -8 -6 -5 -6 6 -1 11 2 17 5 13 3 -3 4 -12 1 -19z m916 15 c-7
-2 -19 -2 -25 0 -7 3 -2 5 12 5 14 0 19 -2 13 -5z m-2651 -35 c-7 -7 -12 -8
-12 -2 0 14 12 26 19 19 2 -3 -1 -11 -7 -17z m1939 -63 c7 -7 8 -4 3 9 -5 14
-4 17 5 12 7 -5 10 -14 7 -21 -2 -7 1 -18 7 -25 7 -7 0 -5 -15 5 -25 15 -28
23 -26 64 l1 46 4 -40 c3 -22 9 -44 14 -50z m343 48 c9 -18 14 -33 12 -33 -6
0 -36 55 -36 66 0 11 5 3 24 -33z m467 -11 c-11 -23 -25 -43 -30 -46 -5 -3 3
16 18 43 31 59 42 61 12 3z m506 26 c-3 -8 -6 -5 -6 6 -1 11 2 17 5 13 3 -3 4
-12 1 -19z m1793 18 c0 -3 -4 -8 -10 -11 -5 -3 -10 -1 -10 4 0 6 5 11 10 11 6
0 10 -2 10 -4z m-3303 -63 c-3 -10 -5 -2 -5 17 0 19 2 27 5 18 2 -10 2 -26 0
-35z m1359 -19 c-4 -14 -13 -24 -24 -23 -10 0 -12 3 -4 6 6 2 12 9 12 14 0 6
-4 7 -10 4 -6 -3 -7 1 -4 9 3 9 10 13 15 10 5 -3 10 7 10 23 2 25 2 25 6 4 3
-12 2 -34 -1 -47z m181 4 c-2 -13 -4 -5 -4 17 -1 22 1 32 4 23 2 -10 2 -28 0
-40z m-812 8 c-10 -14 -25 -25 -34 -25 -14 1 -14 2 0 6 9 2 22 15 29 28 7 14
15 23 17 21 3 -2 -3 -16 -12 -30z m2552 -13 c-3 -10 -5 -4 -5 12 0 17 2 24 5
18 2 -7 2 -21 0 -30z m-5015 -20 c-6 -65 -10 -70 -11 -15 0 28 3 52 7 52 4 0
6 -17 4 -37z m2303 17 c3 -5 1 -10 -4 -10 -6 0 -11 5 -11 10 0 6 2 10 4 10 3
0 8 -4 11 -10z m-558 -62 c-2 -13 -4 -5 -4 17 -1 22 1 32 4 23 2 -10 2 -28 0
-40z m1212 37 c2 -3 -220 -4 -495 -3 -310 1 -431 4 -319 8 201 6 806 2 814 -5z
m308 -52 c-3 -10 -5 -2 -5 17 0 19 2 27 5 18 2 -10 2 -26 0 -35z m-1470 -25
c-3 -8 -6 -5 -6 6 -1 11 2 17 5 13 3 -3 4 -12 1 -19z m-40 -10 c-3 -8 -6 -5
-6 6 -1 11 2 17 5 13 3 -3 4 -12 1 -19z m1500 -10 c-3 -8 -6 -5 -6 6 -1 11 2
17 5 13 3 -3 4 -12 1 -19z m-40 -20 c-3 -7 -5 -2 -5 12 0 14 2 19 5 13 2 -7 2
-19 0 -25z m-3186 -52 c1 -31 -1 -60 -5 -63 -3 -3 -6 24 -6 62 0 82 9 83 11 1z
m1736 27 c-3 -10 -5 -4 -5 12 0 17 2 24 5 18 2 -7 2 -21 0 -30z m1480 -20 c-3
-10 -5 -2 -5 17 0 19 2 27 5 18 2 -10 2 -26 0 -35z m1750 15 c-3 -7 -5 -2 -5
12 0 14 2 19 5 13 2 -7 2 -19 0 -25z m-3190 -10 c-3 -8 -6 -5 -6 6 -1 11 2 17
5 13 3 -3 4 -12 1 -19z m1400 -20 c-3 -8 -6 -5 -6 6 -1 11 2 17 5 13 3 -3 4
-12 1 -19z m1780 -25 c-3 -10 -5 -4 -5 12 0 17 2 24 5 18 2 -7 2 -21 0 -30z
m-3210 -35 c-2 -13 -4 -3 -4 22 0 25 2 35 4 23 2 -13 2 -33 0 -45z m1460 -10
c-2 -13 -4 -5 -4 17 -1 22 1 32 4 23 2 -10 2 -28 0 -40z m-1374 25 c-7 -2 -19
-2 -25 0 -7 3 -2 5 12 5 14 0 19 -2 13 -5z m3094 -35 c-3 -8 -6 -5 -6 6 -1 11
2 17 5 13 3 -3 4 -12 1 -19z m-3170 -40 c-3 -7 -5 -2 -5 12 0 14 2 19 5 13 2
-7 2 -19 0 -25z m1440 -10 c-3 -7 -5 -2 -5 12 0 14 2 19 5 13 2 -7 2 -19 0
-25z m-1418 -58 c0 -9 -4 -8 -9 5 -5 11 -9 27 -9 35 0 9 4 8 9 -5 5 -11 9 -27
9 -35z m-1748 -29 c1 -34 -1 -65 -5 -68 -3 -3 -6 27 -6 67 0 88 9 89 11 1z
m3149 34 c-10 -12 -46 -15 -204 -13 l-191 3 193 2 c190 3 194 4 200 25 3 13 7
17 10 10 2 -7 -2 -19 -8 -27z m1747 -77 c-2 -13 -4 -5 -4 17 -1 22 1 32 4 23
2 -10 2 -28 0 -40z m-2864 -75 c-7 -2 -21 -2 -30 0 -10 3 -4 5 12 5 17 0 24
-2 18 -5z m-2004 -80 c-1 -33 -2 -35 -8 -13 -4 14 -6 31 -3 38 8 22 12 13 11
-25z m4838 -70 c-3 -10 -5 -4 -5 12 0 17 2 24 5 18 2 -7 2 -21 0 -30z m-857
-107 c0 -26 -6 -48 -15 -56 -12 -10 -15 -44 -15 -183 0 -169 0 -171 -30 -233
-17 -34 -37 -65 -45 -68 -10 -3 -15 -20 -15 -46 0 -27 -5 -43 -15 -46 -12 -5
-15 -26 -15 -103 0 -74 -4 -102 -17 -120 -11 -16 -18 -51 -20 -105 -5 -98 -10
-117 -23 -96 -6 8 -10 74 -10 146 0 105 -3 134 -15 144 -12 10 -15 36 -15 117
0 83 3 105 15 109 10 4 15 20 15 44 0 21 7 45 15 54 8 8 15 21 15 29 0 8 9 26
20 40 11 14 20 39 20 55 0 17 5 34 10 37 6 3 10 19 10 36 0 19 5 29 15 29 11
0 15 11 15 43 0 30 6 48 20 60 11 9 20 25 20 36 0 10 7 24 15 31 9 7 15 29 15
51 0 28 4 39 15 39 11 0 15 -12 15 -44z m-3100 -7 c0 -24 -23 -21 -28 4 -2 10
3 17 12 17 10 0 16 -9 16 -21z m-851 -41 c-1 -31 -1 -31 -8 -8 -5 14 -6 28 -4
33 9 15 13 6 12 -25z m4782 -16 c-4 -54 -11 -53 -11 3 0 27 3 45 7 41 4 -4 6
-24 4 -44z m-3898 -33 c3 -24 13 -46 21 -51 9 -5 16 -22 16 -38 0 -20 5 -30
15 -30 11 0 15 -12 15 -45 0 -33 4 -45 15 -45 10 0 15 -10 15 -29 0 -16 7 -34
15 -41 8 -7 15 -27 15 -45 0 -18 7 -38 15 -45 8 -7 15 -25 15 -41 0 -19 5 -29
15 -29 22 0 22 -255 0 -264 -11 -4 -15 -32 -17 -133 -4 -157 -21 -167 -29 -17
-3 75 -9 108 -19 114 -10 6 -15 37 -18 104 -3 53 -8 96 -13 96 -5 0 -9 18 -9
40 0 33 -7 48 -35 77 -23 23 -35 46 -35 63 0 15 -7 41 -15 56 -11 22 -15 65
-15 176 0 80 3 153 6 162 10 25 21 10 27 -35z m1578 -69 l24 -20 -32 17 c-36
20 -58 9 -28 -14 20 -15 20 -15 0 -11 -12 2 -21 13 -23 26 -4 29 27 30 59 2z
m172 0 c-4 -14 0 -20 12 -20 12 0 16 6 12 20 -3 11 -1 18 4 14 5 -3 9 -14 9
-25 0 -30 -44 -22 -48 9 -2 12 1 22 6 22 6 0 8 -9 5 -20z m-2588 -52 c3 -7 -1
-4 -9 6 -9 11 -16 29 -15 40 1 17 2 16 9 -6 4 -14 11 -32 15 -40z m2755 43 c5
-11 9 -32 9 -48 -1 -20 -3 -22 -6 -8 -2 11 -6 30 -9 43 -2 12 -9 22 -14 22
-13 0 -13 -36 1 -63 10 -21 10 -21 -5 -3 -24 29 -20 76 5 76 5 0 13 -9 19 -19z
m-238 -51 c7 -42 34 -84 48 -75 4 3 4 -10 1 -28 -8 -36 -41 -52 -41 -18 0 11
4 22 9 25 5 4 7 -3 4 -14 -3 -11 0 -20 6 -20 6 0 11 11 11 25 0 14 -4 25 -9
25 -13 0 -41 64 -41 94 0 41 -20 30 -21 -11 -2 -32 -3 -33 -6 -10 -11 69 27
76 39 7z m2185 28 c-3 -8 -6 -5 -6 6 -1 11 2 17 5 13 3 -3 4 -12 1 -19z
m-2920 -125 c-2 -27 -3 -5 -3 47 0 52 1 74 3 48 2 -27 2 -69 0 -95z m271 100
c4 -27 10 -28 34 -6 10 9 21 14 24 10 9 -9 -44 -40 -56 -32 -5 3 -10 15 -10
26 0 30 -36 23 -60 -11 -20 -28 -60 -42 -60 -21 0 5 9 7 19 4 13 -3 23 3 32
19 16 30 29 39 54 36 12 -2 21 -12 23 -25z m230 9 c-11 -2 -18 -13 -18 -27 0
-13 -4 -27 -10 -30 -5 -3 -10 -17 -10 -31 0 -18 -5 -24 -21 -24 -18 0 -20 4
-15 25 5 20 3 25 -12 25 -9 0 -29 14 -44 30 -14 17 -22 30 -17 30 5 0 16 -11
25 -25 10 -16 26 -25 41 -25 22 0 24 -3 19 -25 -4 -14 -2 -25 4 -25 5 0 10 9
10 19 0 11 5 23 10 26 6 3 10 21 10 40 0 30 2 32 23 27 18 -5 19 -7 5 -10z
m152 4 c-7 -7 -13 -7 -20 0 -6 6 -3 10 10 10 13 0 16 -4 10 -10z m-513 -18
c-3 -8 -6 -5 -6 6 -1 11 2 17 5 13 3 -3 4 -12 1 -19z m447 -27 c32 -32 37 -44
32 -66 -9 -35 -29 -21 -24 17 4 23 -2 35 -29 58 -19 17 -30 30 -25 30 4 0 25
-18 46 -39z m2320 14 c-4 -8 -11 -15 -16 -15 -6 0 -5 6 2 15 7 8 14 15 16 15
2 0 1 -7 -2 -15z m-2006 -6 c-2 -6 -8 -10 -13 -10 -5 0 -11 4 -13 10 -2 6 4
11 13 11 9 0 15 -5 13 -11z m-792 -42 c-12 -24 -23 -39 -25 -34 -4 10 30 77
40 77 3 0 -3 -19 -15 -43z m545 21 c16 -20 20 -21 29 -8 7 11 10 11 10 2 0
-23 -31 -26 -46 -3 -9 12 -20 18 -26 15 -7 -4 -8 -2 -4 4 10 17 15 15 37 -10z
m183 -3 c12 -18 14 -36 10 -65 -6 -34 -4 -40 11 -40 10 0 22 15 32 39 18 45
33 55 65 41 21 -9 21 -9 -6 -7 -25 2 -32 -4 -50 -38 -14 -27 -29 -41 -45 -43
-23 -4 -24 -2 -17 47 4 33 3 51 -4 51 -5 0 -10 7 -10 15 0 18 -16 20 -23 3 -3
-8 -6 -6 -6 5 -1 25 24 21 43 -8z m-654 -50 c0 -23 -2 -24 -20 -15 -11 6 -20
17 -20 25 0 8 9 15 20 15 15 0 20 -7 20 -25z m216 -32 c-10 -26 -29 1 -21 28
7 20 8 21 17 5 5 -9 7 -24 4 -33z m614 37 c0 -5 -7 -7 -15 -4 -8 4 -15 8 -15
10 0 2 7 4 15 4 8 0 15 -4 15 -10z m1830 6 c0 -2 -7 -7 -16 -10 -8 -3 -12 -2
-9 4 6 10 25 14 25 6z m-1801 -81 c0 -5 -6 1 -14 15 -8 14 -14 30 -14 35 0 6
6 -1 14 -15 8 -14 14 -29 14 -35z m-955 -9 c-3 -15 -8 -25 -11 -23 -2 3 -1 17
3 31 3 15 8 25 11 23 2 -3 1 -17 -3 -31z m2631 14 c-9 -14 -45 -32 -45 -23 0
7 24 22 48 32 2 0 0 -3 -3 -9z m-1687 -71 c-7 -5 -17 -9 -23 -9 -5 1 -2 5 8
11 9 5 18 18 18 27 1 14 2 14 6 -2 3 -10 -1 -22 -9 -27z m-2523 21 c3 -5 1
-10 -4 -10 -6 0 -11 5 -11 10 0 6 2 10 4 10 3 0 8 -4 11 -10z m1724 -29 c52
-1 97 -4 100 -6 2 -3 -38 -5 -90 -5 -95 0 -169 13 -169 30 0 5 15 3 33 -4 18
-8 73 -14 126 -15z m2401 25 c0 -2 -9 -6 -20 -9 -11 -3 -18 -1 -14 4 5 9 34
13 34 5z m-1640 -32 c0 -2 -35 -3 -77 -2 -70 1 -73 2 -28 7 48 6 105 3 105 -5z
m1569 3 c-2 -1 -13 -9 -24 -17 -19 -14 -19 -14 -6 3 7 9 18 17 24 17 6 0 8 -1
6 -3z m-3934 -37 c3 -6 -1 -7 -9 -4 -18 7 -21 14 -7 14 6 0 13 -4 16 -10z
m3884 7 c-2 -1 -13 -9 -24 -17 -19 -14 -19 -14 -6 3 7 9 18 17 24 17 6 0 8 -1
6 -3z m-169 -97 c0 -5 -5 -10 -11 -10 -5 0 -7 5 -4 10 3 6 8 10 11 10 2 0 4
-4 4 -10z m-3495 -38 c-3 -3 -11 0 -18 7 -9 10 -8 11 6 5 10 -3 15 -9 12 -12z
m73 -113 l-3 -44 -5 52 c-3 29 -1 48 3 44 5 -5 7 -28 5 -52z m3295 41 c-6 -22
-23 -38 -23 -21 0 17 12 41 20 41 5 0 6 -9 3 -20z m-44 -214 c-9 -8 -10 -5 -5
14 3 14 7 36 8 50 1 14 3 8 5 -14 3 -22 -1 -43 -8 -50z m-3759 50 c19 -13 76
-44 125 -70 111 -58 203 -123 223 -156 13 -24 13 -24 -7 2 -12 14 -45 41 -74
59 -28 18 -54 36 -57 39 -3 3 -43 25 -90 49 -47 25 -101 55 -120 68 -64 43
-79 26 -28 -32 38 -44 108 -90 248 -163 58 -30 112 -61 122 -69 14 -13 17 -12
21 4 4 14 5 14 6 -4 0 -13 -1 -23 -4 -23 -2 0 -29 16 -60 35 -30 19 -67 40
-82 46 -61 23 -214 123 -252 164 -64 70 -46 102 29 51z m4360 11 c0 -14 -56
-97 -65 -97 -2 0 10 20 27 45 33 46 32 68 -2 47 -28 -17 -38 -15 -14 3 24 18
54 19 54 2z m-101 -36 c-26 -20 -78 -48 -67 -36 13 14 73 54 82 55 5 0 -2 -8
-15 -19z m-2429 -1 c-12 -8 -10 -10 8 -10 13 0 20 4 17 10 -3 6 -1 10 4 10 19
0 12 -20 -10 -28 -19 -7 -19 -9 -5 -21 14 -12 19 -11 34 3 20 18 67 23 57 6
-4 -6 -16 -8 -28 -5 -12 4 -17 3 -12 -2 12 -10 16 -45 4 -37 -5 3 -9 12 -9 21
0 12 -3 13 -14 4 -16 -13 -56 1 -56 19 0 5 -7 7 -16 3 -14 -5 -13 -3 2 15 10
12 23 22 29 22 5 0 3 -5 -5 -10z m282 -17 c10 -22 21 -29 51 -31 35 -3 38 -1
43 27 7 34 28 40 55 15 13 -12 22 -13 38 -5 24 13 61 14 81 1 10 -6 4 -8 -21
-4 -21 4 -46 1 -58 -6 -19 -9 -26 -9 -40 4 -25 23 -35 20 -48 -14 -9 -25 -17
-30 -44 -30 -35 0 -69 24 -69 48 0 10 -8 13 -29 10 -17 -2 -28 -1 -25 4 12 19
53 7 66 -19z m-1575 -15 c-3 -7 -5 -2 -5 12 0 14 2 19 5 13 2 -7 2 -19 0 -25z
m1478 15 c-25 -6 -35 -21 -35 -50 0 -19 -5 -23 -32 -22 -31 2 -31 2 -5 6 15 3
27 11 27 19 0 29 21 54 43 53 20 -1 20 -2 2 -6z m486 -19 c16 -15 50 -33 76
-40 26 -7 38 -13 26 -13 -32 -1 -74 17 -103 44 -14 13 -36 25 -50 28 l-25 4
24 2 c15 0 36 -10 52 -25z m-741 -41 c-4 -39 -9 -48 -25 -49 -15 -1 -16 0 -2
3 12 3 17 14 17 42 0 31 6 51 15 51 0 0 -2 -21 -5 -47z m2395 12 c-16 -13 -34
-24 -39 -25 -6 0 5 11 24 25 44 32 54 32 15 0z m95 -18 c-19 -13 -91 -54 -160
-90 -69 -37 -135 -75 -147 -83 -22 -16 -23 -15 -23 8 0 26 34 78 50 78 5 0 -2
-11 -15 -25 -14 -13 -25 -31 -25 -40 0 -17 16 -20 25 -5 3 5 65 41 138 79 73
39 141 77 152 85 11 9 24 16 30 16 5 0 -6 -10 -25 -23z m-2570 -18 c0 -5 -4
-9 -10 -9 -5 0 -10 7 -10 16 0 8 5 12 10 9 6 -3 10 -10 10 -16z m2419 7 c-2
-2 -15 -9 -29 -15 -24 -11 -24 -11 -6 3 16 13 49 24 35 12z m-1449 -97 c0 -24
-4 -29 -22 -28 -19 1 -20 2 -5 6 19 5 20 27 2 93 -4 16 0 13 9 -9 9 -18 16
-46 16 -62z m-998 55 c-5 -9 -4 -29 2 -49 l11 -34 140 -4 140 -3 -147 -2
c-147 -2 -148 -2 -148 21 0 12 -4 29 -9 36 -9 14 2 51 15 51 3 0 1 -7 -4 -16z
m2369 -4 c-13 -11 -28 -20 -35 -20 -6 0 3 9 19 20 38 25 47 25 16 0z m-284
-42 c-3 -7 -5 -2 -5 12 0 14 2 19 5 13 2 -7 2 -19 0 -25z m-3166 -90 c-3 -62
-11 -60 -11 2 0 29 3 50 7 46 4 -3 6 -25 4 -48z m1957 45 c-32 -2 -84 -2 -115
0 -32 2 -6 3 57 3 63 0 89 -1 58 -3z m1202 -13 c0 -11 -2 -20 -4 -20 -2 0 -6
9 -9 20 -3 11 -1 20 4 20 5 0 9 -9 9 -20z m-1502 3 c-43 -2 -113 -2 -155 0
-43 1 -8 3 77 3 85 0 120 -2 78 -3z m1479 -160 c-3 -10 -5 -4 -5 12 0 17 2 24
5 18 2 -7 2 -21 0 -30z m-3120 -5 c-3 -8 -6 -5 -6 6 -1 11 2 17 5 13 3 -3 4
-12 1 -19z m15 -53 c-6 -34 -12 -32 -12 6 0 16 4 28 9 25 4 -3 6 -17 3 -31z
m27 -210 c-1 -60 -6 -50 -12 23 -2 32 -1 48 4 40 5 -7 8 -35 8 -63z m3038 -12
c-3 -10 -5 -4 -5 12 0 17 2 24 5 18 2 -7 2 -21 0 -30z"/>
<path d="M2533 3485 c-8 -22 6 -33 17 -15 13 20 12 30 0 30 -6 0 -13 -7 -17
-15z"/>
<path d="M4101 1854 c0 -11 3 -14 6 -6 3 7 2 16 -1 19 -3 4 -6 -2 -5 -13z"/>
<path d="M3655 1850 c3 -5 8 -10 11 -10 2 0 4 5 4 10 0 6 -5 10 -11 10 -5 0
-7 -4 -4 -10z"/>
<path d="M3881 1824 c0 -11 3 -14 6 -6 3 7 2 16 -1 19 -3 4 -6 -2 -5 -13z"/>
</g>
</svg>
