<?xml version="1.0" standalone="no"?>
<!DOCTYPE svg PUBLIC "-//W3C//DTD SVG 20010904//EN"
 "http://www.w3.org/TR/2001/REC-SVG-20010904/DTD/svg10.dtd">
<svg version="1.0" xmlns="http://www.w3.org/2000/svg"
 width="597.000000pt" height="1280.000000pt" viewBox="0 0 597.000000 1280.000000"
 preserveAspectRatio="xMidYMid meet">

<g transform="translate(0.000000,1280.000000) scale(0.100000,-0.100000)"
fill="#000000" stroke="none">
<path d="M1277 12595 c-10 -14 -27 -25 -38 -25 -11 0 -22 -7 -25 -15 -4 -8
-14 -15 -23 -15 -9 0 -31 -14 -50 -30 -18 -17 -40 -30 -47 -30 -8 0 -14 -4
-14 -9 0 -5 -10 -13 -22 -17 -12 -3 -33 -17 -47 -30 -14 -13 -29 -24 -33 -24
-4 0 -19 -11 -34 -25 -15 -14 -33 -25 -41 -25 -27 0 -83 -73 -83 -107 0 -18
-4 -33 -10 -33 -5 0 -10 -9 -10 -20 0 -25 -47 -73 -94 -95 -20 -9 -36 -24 -36
-31 0 -8 -10 -14 -25 -14 -14 0 -28 -7 -31 -15 -4 -8 -14 -15 -24 -15 -9 0
-26 -11 -36 -25 -10 -14 -26 -25 -34 -25 -19 -1 -60 -34 -60 -49 0 -6 -4 -11
-10 -11 -5 0 -10 -15 -10 -34 0 -18 -7 -39 -15 -46 -11 -9 -15 -33 -15 -89 0
-52 -5 -83 -15 -97 -9 -12 -14 -44 -15 -91 0 -42 -4 -73 -10 -73 -6 0 -10 -33
-10 -80 0 -62 -3 -82 -15 -86 -11 -5 -15 -23 -15 -78 0 -40 -5 -77 -11 -83 -5
-5 -13 -51 -16 -102 -3 -50 -10 -94 -15 -97 -4 -3 -8 -38 -8 -78 0 -53 -4 -77
-15 -86 -11 -9 -15 -33 -15 -86 0 -43 -4 -74 -10 -74 -6 0 -10 -31 -10 -74 0
-53 -4 -77 -15 -86 -11 -9 -15 -32 -15 -80 0 -41 -6 -79 -15 -96 -9 -17 -15
-56 -15 -91 0 -35 -4 -63 -10 -63 -6 0 -10 -33 -10 -80 0 -44 -4 -80 -9 -80
-5 0 -12 -36 -16 -80 -4 -44 -11 -83 -16 -86 -5 -3 -9 -23 -9 -45 0 -28 -8
-51 -25 -73 -22 -29 -25 -43 -25 -112 0 -44 5 -85 10 -90 7 -7 11 -111 11
-291 l-1 -281 30 -56 c37 -69 37 -85 0 -122 l-29 -29 -1 -130 c0 -139 5 -157
57 -198 32 -26 31 -80 -2 -111 -14 -13 -25 -30 -25 -37 0 -8 -7 -23 -15 -33
-18 -24 -20 -107 -3 -124 7 -7 14 -47 18 -89 5 -73 7 -79 36 -98 28 -18 32
-27 37 -80 3 -33 10 -61 16 -63 7 -2 11 -61 11 -173 0 -128 4 -178 15 -206 11
-26 15 -74 15 -178 l0 -143 67 -71 c37 -39 73 -71 80 -71 8 0 33 -20 57 -45
25 -25 50 -45 56 -45 7 0 23 -11 36 -25 13 -14 29 -25 36 -25 8 0 32 -18 53
-40 21 -22 44 -40 50 -40 6 0 31 -20 57 -45 26 -25 53 -45 60 -45 7 0 22 -11
32 -25 10 -14 25 -25 33 -25 8 0 33 -18 55 -40 23 -22 46 -40 52 -40 6 0 27
-17 46 -36 19 -20 45 -40 57 -45 l22 -8 3 -710 c2 -552 6 -713 16 -723 17 -17
15 -38 -3 -38 -8 0 -15 -4 -15 -10 0 -6 -27 -10 -60 -10 -45 0 -62 -4 -66 -15
-5 -11 -22 -15 -65 -15 -44 0 -61 -4 -65 -15 -4 -11 -21 -15 -55 -15 -27 0
-49 -4 -49 -8 0 -5 -11 -14 -25 -20 l-25 -12 0 -165 0 -165 38 0 c21 0 47 -6
58 -14 11 -8 41 -17 67 -21 26 -4 47 -11 47 -16 0 -5 26 -9 59 -9 40 0 63 -5
71 -15 11 -13 8 -15 -19 -15 -19 0 -34 -6 -37 -15 -5 -11 -22 -15 -64 -15 -33
0 -61 -4 -65 -9 -3 -6 -27 -13 -52 -17 -26 -4 -53 -13 -61 -20 -7 -8 -20 -14
-28 -14 -12 0 -14 -29 -14 -169 l0 -168 50 -7 c27 -4 52 -11 55 -16 3 -6 26
-10 51 -10 30 0 46 -5 50 -15 4 -10 21 -15 54 -15 27 0 55 -3 64 -6 28 -11 6
-24 -38 -24 -27 0 -48 -6 -56 -15 -8 -10 -31 -15 -66 -15 -29 0 -55 -4 -58 -9
-4 -5 -29 -12 -56 -16 l-50 -7 0 -164 c0 -194 4 -204 82 -204 36 0 48 -4 48
-15 0 -12 13 -15 59 -15 33 0 62 -4 65 -9 3 -4 27 -11 53 -15 27 -4 57 -13 67
-21 11 -8 41 -15 67 -15 26 0 51 -4 54 -10 3 -5 13 -10 21 -10 8 0 38 -25 66
-55 28 -30 57 -55 64 -55 7 0 30 -18 52 -40 21 -22 44 -40 50 -40 6 0 31 -20
56 -45 34 -33 46 -53 46 -74 0 -16 7 -34 15 -41 11 -9 15 -32 15 -81 0 -37 4
-70 9 -73 4 -3 11 -35 14 -72 2 -36 10 -71 16 -77 6 -6 11 -34 11 -62 0 -30 6
-59 15 -71 9 -11 14 -42 15 -76 0 -32 5 -58 10 -58 6 0 10 -24 10 -54 0 -29 7
-70 15 -89 8 -20 15 -56 15 -80 0 -24 5 -48 11 -54 6 -6 13 -38 16 -72 3 -34
10 -64 14 -67 5 -3 9 -23 9 -45 0 -21 4 -47 10 -57 5 -9 12 -43 15 -74 4 -32
11 -60 16 -63 5 -4 9 -25 9 -48 0 -23 7 -51 15 -61 9 -11 15 -42 15 -70 0 -29
7 -59 15 -70 8 -11 15 -39 15 -63 0 -24 5 -43 10 -43 6 0 10 -20 10 -44 0 -24
7 -57 15 -72 8 -16 15 -39 15 -51 0 -12 5 -25 10 -28 5 -3 10 -23 10 -44 0
-20 7 -46 15 -57 8 -10 15 -34 15 -51 0 -18 5 -33 10 -33 6 0 10 -13 10 -28 0
-16 7 -37 15 -48 8 -10 15 -33 15 -50 0 -17 7 -37 15 -44 8 -7 15 -28 15 -46
0 -19 5 -34 10 -34 6 0 10 -8 10 -19 0 -10 7 -24 15 -31 8 -7 15 -23 15 -36 0
-13 5 -24 10 -24 6 0 10 -13 10 -29 0 -15 9 -40 21 -55 20 -25 24 -26 128 -26
135 0 141 -5 141 -108 0 -39 4 -73 9 -76 5 -3 11 -34 13 -68 3 -35 10 -64 16
-66 7 -2 12 -17 12 -33 l0 -29 197 0 196 0 -6 252 c-4 138 -11 256 -17 263
-10 12 -17 216 -25 723 -6 315 -5 333 13 352 16 18 20 43 25 178 4 86 7 214 7
285 0 71 4 127 9 127 5 0 11 10 13 23 3 21 6 22 146 25 l142 3 0 -25 c0 -13 5
-26 12 -28 9 -3 13 -78 16 -284 3 -153 7 -281 11 -284 4 -3 15 -16 24 -30 15
-22 17 -61 17 -358 0 -213 -4 -340 -10 -353 -6 -11 -14 -96 -17 -189 -3 -94
-10 -170 -14 -170 -5 0 -10 -115 -11 -255 l-3 -255 193 0 192 0 0 24 c0 13 7
29 15 36 11 9 15 32 15 80 0 48 4 71 15 80 10 8 15 31 15 69 1 87 7 91 139 91
110 0 111 0 111 24 0 13 7 26 15 30 8 3 15 14 15 24 0 11 7 25 15 32 8 7 15
23 15 36 0 13 5 24 10 24 6 0 10 16 10 35 0 22 6 38 15 41 8 4 15 17 15 29 0
13 4 27 10 30 5 3 10 19 10 34 0 16 7 34 15 41 8 7 15 29 15 50 0 24 5 40 15
44 9 3 15 19 15 41 0 19 5 35 10 35 6 0 10 23 10 50 0 36 4 52 15 56 10 4 15
21 15 54 0 27 5 50 11 52 6 2 14 27 17 56 2 29 9 55 13 58 5 3 9 20 9 37 0 18
7 41 15 51 9 12 15 42 15 72 0 29 4 56 10 59 6 3 10 30 10 58 1 29 7 63 15 77
8 14 14 44 15 67 0 23 5 43 12 45 6 2 13 31 16 66 2 34 8 65 13 68 5 3 9 32 9
64 0 32 5 62 10 65 6 3 10 30 10 59 0 30 6 60 15 72 8 10 15 37 15 60 0 22 7
49 15 60 8 11 14 42 15 76 0 31 4 60 10 63 6 3 10 37 10 74 0 49 4 72 15 81
10 8 15 30 15 65 0 29 7 66 15 81 8 16 15 53 15 82 0 28 5 52 10 52 6 0 10 21
10 48 1 45 2 48 40 65 22 10 40 23 40 29 0 12 41 47 55 48 6 0 29 18 50 40 21
22 44 40 51 40 6 0 28 18 48 40 20 22 45 40 56 40 11 0 20 4 20 9 0 5 25 13
55 16 30 4 55 11 55 16 0 4 27 11 60 15 33 4 63 11 66 15 3 5 27 9 55 9 37 0
49 4 49 15 0 12 13 15 60 15 45 0 62 4 66 15 4 8 12 15 20 15 11 0 14 31 14
169 l0 169 -55 7 c-30 3 -55 11 -55 16 0 5 -20 9 -44 9 -26 0 -48 6 -56 15 -7
8 -34 15 -66 17 -66 4 -76 22 -14 26 26 2 48 10 53 18 5 9 26 14 62 14 30 0
57 4 60 10 3 5 28 12 55 16 38 5 50 11 54 28 3 11 6 87 6 167 l0 147 -27 18
c-15 9 -49 19 -75 22 -27 3 -51 9 -54 13 -3 5 -27 9 -54 9 -33 0 -50 5 -54 15
-3 10 -19 15 -45 15 -32 0 -39 3 -35 15 4 10 21 15 54 15 27 0 51 4 54 9 3 4
31 11 63 14 32 3 59 11 61 17 2 5 21 13 43 16 61 10 64 19 64 185 0 178 -5
189 -92 189 -38 0 -55 4 -59 15 -4 10 -21 15 -53 15 -25 0 -55 7 -65 15 -11 8
-41 15 -67 15 -26 0 -51 4 -54 10 -3 6 -17 10 -31 10 -24 0 -24 1 -9 30 13 25
15 121 15 732 l0 702 27 23 c14 13 31 23 36 23 6 0 28 18 48 40 21 22 44 40
52 40 8 0 30 18 48 40 18 22 41 40 49 40 9 0 27 11 40 25 13 14 29 25 35 25 6
0 30 18 54 40 23 22 47 40 53 40 14 0 78 66 78 80 0 5 10 10 21 10 12 0 32 11
45 25 13 14 29 25 36 25 7 1 31 19 53 40 22 22 45 40 53 40 7 0 15 7 18 15 4
8 10 15 14 15 17 0 70 62 70 81 0 11 7 22 15 25 12 5 15 33 15 164 0 95 4 161
10 165 6 4 10 71 10 169 0 127 3 166 15 182 8 11 14 41 15 72 0 55 12 76 54
97 18 9 21 21 24 90 1 44 6 89 11 100 29 65 22 110 -25 159 -44 45 -48 101 -9
130 14 10 25 27 25 37 0 10 4 20 9 23 14 9 23 130 16 201 -6 50 -13 70 -31 88
-33 31 -33 103 0 134 22 21 23 29 29 240 4 120 7 259 7 310 0 50 5 95 10 98 6
3 10 42 10 86 0 71 -3 83 -25 107 -14 15 -25 39 -25 53 0 15 -7 32 -15 39 -11
9 -15 33 -15 91 0 44 -4 79 -9 79 -5 0 -12 41 -16 90 -4 50 -11 93 -16 96 -5
3 -9 38 -9 78 0 53 -4 77 -15 86 -11 9 -15 33 -15 86 0 40 -4 76 -10 79 -5 3
-10 40 -10 81 0 57 -4 76 -15 80 -12 5 -15 24 -15 85 0 43 -4 79 -9 79 -4 0
-11 37 -14 81 -3 45 -10 86 -16 92 -6 6 -11 41 -11 78 0 47 -4 70 -15 79 -11
9 -15 35 -15 101 0 53 -4 89 -10 89 -6 0 -10 31 -10 73 -1 47 -6 79 -15 91
-10 13 -15 43 -15 87 0 37 -4 70 -9 73 -4 3 -11 40 -15 83 -3 43 -11 80 -16
81 -6 2 -10 21 -10 43 0 21 -4 39 -10 39 -5 0 -10 7 -10 15 0 8 -5 15 -10 15
-6 0 -21 11 -34 25 -13 14 -33 25 -45 25 -12 0 -21 6 -21 15 0 8 -9 15 -20 15
-11 0 -23 7 -26 15 -4 8 -12 15 -19 15 -7 0 -15 7 -19 15 -3 8 -11 15 -18 15
-7 0 -25 11 -40 25 -15 14 -35 25 -44 25 -20 0 -43 28 -44 51 0 9 -7 22 -15
29 -10 8 -15 30 -15 61 0 40 -3 49 -17 49 -10 0 -29 12 -42 25 -13 14 -31 25
-40 25 -9 0 -28 13 -41 30 -14 16 -30 29 -36 30 -22 0 -79 34 -97 57 -10 13
-27 23 -38 23 -11 0 -22 7 -25 15 -4 8 -14 15 -23 15 -10 0 -28 11 -41 25 -13
14 -29 25 -36 25 -6 0 -17 7 -24 15 -8 10 -31 15 -71 15 -56 0 -59 -1 -59 -25
0 -23 -3 -25 -49 -25 -67 0 -81 -7 -81 -41 0 -18 -7 -32 -21 -39 -44 -24 -59
-48 -59 -97 0 -27 7 -57 15 -67 10 -13 15 -43 15 -87 0 -37 5 -71 10 -74 6 -3
10 -37 10 -74 0 -42 6 -80 15 -97 8 -16 15 -48 15 -70 0 -23 7 -55 15 -70 8
-17 15 -56 15 -91 0 -34 5 -65 10 -68 6 -3 10 -33 10 -65 0 -32 5 -62 10 -65
6 -3 10 -19 10 -34 0 -32 38 -81 62 -81 9 0 18 -7 22 -15 3 -8 14 -15 24 -15
11 0 31 -11 46 -25 15 -14 33 -25 40 -25 8 0 16 -7 20 -15 3 -8 12 -15 19 -15
17 0 78 -30 95 -46 7 -8 12 -40 12 -81 0 -64 2 -70 35 -105 18 -21 39 -38 45
-38 14 0 130 -114 130 -128 0 -5 7 -23 15 -38 8 -17 15 -56 15 -91 0 -34 5
-65 10 -68 6 -3 10 -37 10 -75 0 -48 5 -73 15 -84 10 -10 15 -36 15 -85 0 -38
5 -73 10 -76 6 -4 10 -105 11 -268 0 -144 5 -287 11 -317 13 -73 13 -136 0
-185 -6 -22 -12 -100 -12 -172 0 -82 -4 -133 -10 -133 -6 0 -10 -36 -10 -89 0
-66 -4 -92 -15 -101 -11 -10 -15 -36 -15 -111 0 -54 -4 -101 -10 -104 -5 -3
-10 -41 -10 -83 0 -49 -6 -88 -15 -106 -10 -18 -15 -57 -15 -106 0 -57 -4 -81
-15 -90 -10 -8 -15 -31 -15 -71 0 -33 -3 -59 -7 -59 -5 0 -17 -13 -27 -29 -23
-33 -71 -65 -86 -56 -7 4 -10 444 -10 1281 0 950 -3 1281 -12 1297 -16 31 -70
87 -84 87 -6 0 -31 20 -56 45 -25 25 -51 45 -58 45 -7 0 -30 18 -51 40 -22 22
-46 40 -54 40 -8 0 -15 5 -15 10 0 6 -7 10 -15 10 -8 0 -15 5 -15 10 0 16 -38
50 -56 50 -15 0 -44 23 -44 35 0 12 -45 44 -62 45 -10 0 -18 6 -18 13 0 6 -14
21 -30 32 -16 11 -30 23 -30 28 0 4 -6 7 -14 7 -8 0 -30 14 -48 30 -40 37 -85
40 -116 7 -19 -20 -22 -35 -22 -100 0 -42 -4 -77 -9 -77 -6 0 -18 14 -28 30
-9 17 -23 30 -29 30 -7 0 -14 7 -18 15 -3 8 -12 15 -21 15 -9 0 -33 18 -54 40
-21 22 -44 40 -51 40 -7 0 -30 18 -51 40 -21 22 -44 40 -51 40 -7 1 -33 21
-58 45 -25 25 -50 45 -57 45 -6 0 -28 18 -49 40 -21 22 -45 40 -54 40 -8 0
-24 11 -34 25 -16 21 -27 25 -71 25 -76 0 -86 -15 -92 -142 -3 -63 0 -132 8
-178 7 -41 15 -178 18 -304 6 -214 7 -230 26 -240 10 -6 28 -21 38 -33 10 -13
26 -23 36 -23 10 0 28 -13 41 -30 13 -16 30 -30 39 -30 9 0 31 -14 50 -30 18
-17 37 -30 40 -30 4 0 21 -13 39 -30 31 -28 32 -31 18 -52 -9 -12 -16 -38 -16
-58 0 -19 -7 -44 -15 -54 -8 -11 -15 -39 -15 -63 0 -24 -4 -43 -10 -43 -5 0
-10 -22 -10 -50 0 -27 -4 -50 -10 -50 -5 0 -10 -22 -10 -49 0 -31 -5 -53 -15
-61 -9 -7 -15 -29 -15 -55 0 -26 -6 -48 -15 -55 -10 -8 -15 -30 -15 -61 0 -27
-4 -49 -9 -49 -5 0 -12 -13 -16 -30 l-7 -30 -149 0 c-82 0 -150 1 -151 3 -3 3
-18 854 -23 1310 -5 339 -8 407 -19 407 -8 0 -16 6 -18 13 -4 9 -51 12 -191
12 -174 0 -187 -1 -201 -20 -13 -17 -15 -77 -16 -400 0 -295 -3 -397 -15 -458
-12 -62 -15 -164 -15 -473 l0 -394 -155 0 -155 0 0 33 c0 17 -7 41 -15 51 -8
11 -15 39 -15 62 0 24 -4 46 -10 49 -5 3 -10 23 -10 44 0 20 -7 46 -15 57 -8
10 -15 38 -15 61 0 23 -4 45 -10 48 -5 3 -10 26 -10 50 0 25 -6 50 -15 59 -9
8 -15 33 -15 59 0 27 -6 49 -15 57 -8 7 -15 28 -15 46 0 19 -4 34 -10 34 -5 0
-10 6 -10 12 0 17 99 108 117 108 7 0 13 5 13 10 0 6 5 10 11 10 6 0 28 14 49
30 21 17 42 30 47 30 6 0 28 20 51 44 l42 45 0 213 c0 175 3 217 15 235 13 18
15 54 13 200 l-3 178 -65 3 c-64 3 -66 2 -108 -38 -24 -22 -48 -40 -54 -40 -6
0 -30 -20 -55 -45 -24 -25 -49 -45 -54 -45 -6 0 -27 -18 -48 -40 -20 -22 -43
-40 -51 -40 -7 0 -31 -18 -52 -40 -22 -22 -45 -40 -52 -40 -15 0 -76 -55 -76
-69 0 -6 -9 -11 -20 -11 -21 0 -60 -33 -60 -50 0 -5 -4 -10 -9 -10 -5 0 -11
37 -13 82 -4 69 -8 84 -28 100 -12 10 -33 18 -47 18 -27 0 -83 -29 -83 -43 0
-13 -27 -37 -43 -37 -18 0 -57 -34 -57 -49 0 -6 -7 -11 -15 -11 -8 0 -15 -4
-15 -9 0 -5 -10 -13 -21 -16 -12 -4 -39 -25 -59 -46 -20 -22 -43 -39 -51 -39
-8 0 -30 -18 -49 -40 -19 -22 -41 -40 -48 -40 -7 0 -32 -18 -54 -40 -23 -22
-47 -40 -55 -40 -7 0 -16 -7 -19 -15 -4 -8 -12 -15 -18 -15 -7 0 -19 -11 -26
-25 -8 -15 -22 -25 -34 -25 -25 0 -56 -32 -56 -59 0 -10 -7 -21 -15 -25 -13
-5 -15 -155 -15 -1268 0 -695 -4 -1269 -9 -1277 -6 -9 -11 -10 -15 -2 -4 6
-14 11 -23 11 -9 0 -31 16 -49 36 -32 33 -34 40 -34 103 0 38 -5 72 -12 79 -6
6 -14 51 -16 99 -2 49 -8 92 -13 98 -5 5 -9 46 -9 91 0 60 -4 85 -15 94 -11 9
-15 35 -15 101 0 53 -4 89 -10 89 -6 0 -10 37 -10 90 0 58 -5 104 -15 127 -11
26 -15 74 -15 178 0 118 -3 144 -15 149 -20 7 -20 70 0 86 13 11 15 56 15 289
0 172 5 291 12 316 6 22 13 72 15 110 3 39 9 74 14 79 5 6 9 42 9 80 1 47 6
78 15 90 10 13 15 43 15 82 0 35 5 66 10 69 5 3 10 24 10 46 0 33 3 39 21 39
13 0 44 23 76 55 30 30 60 55 67 55 29 0 46 40 46 109 0 65 2 69 35 99 19 18
41 32 49 32 7 0 16 7 20 15 3 8 14 15 24 15 11 0 25 7 32 15 7 8 21 15 31 15
11 0 19 4 19 9 0 5 11 12 25 15 14 4 25 11 25 16 0 6 8 10 18 10 27 0 62 42
62 74 0 15 7 34 15 42 10 10 15 35 15 75 0 33 4 59 10 59 6 0 10 31 10 73 0
40 5 78 11 84 6 6 13 42 16 80 2 37 8 77 13 88 5 11 11 44 14 74 3 30 10 59
16 65 5 5 10 43 10 83 0 42 4 73 10 73 6 0 10 28 10 63 0 65 -21 107 -55 107
-9 0 -15 13 -17 38 l-3 37 -62 3 c-55 3 -62 5 -65 25 -3 20 -10 22 -63 24 -54
3 -62 0 -78 -22z m-107 -736 c0 -5 -4 -7 -10 -4 -5 3 -10 -1 -10 -9 0 -10 -6
-13 -15 -10 -14 6 -13 8 2 20 22 16 33 18 33 3z m3650 7 c0 -3 -4 -8 -10 -11
-5 -3 -10 -1 -10 4 0 6 5 11 10 11 6 0 10 -2 10 -4z m17 -21 c0 -8 -4 -12 -9
-9 -5 3 -6 10 -3 15 9 13 12 11 12 -6z m-3731 -20 c-1 -8 -6 -18 -11 -22 -4
-4 -5 -2 -1 5 4 7 2 12 -6 12 -9 0 -9 3 2 10 19 12 19 13 16 -5z m3813 -19 c9
-11 9 -16 -1 -22 -7 -4 -10 -4 -6 1 4 4 3 14 -3 22 -6 7 -9 13 -6 13 2 0 10
-6 16 -14z m-3874 -34 c-3 -3 -11 0 -18 7 -9 10 -8 11 6 5 10 -3 15 -9 12 -12z
m3910 8 c-3 -5 -11 -10 -16 -10 -6 0 -7 5 -4 10 3 6 11 10 16 10 6 0 7 -4 4
-10z m-3940 -9 c3 -5 2 -12 -3 -15 -5 -3 -9 1 -9 9 0 17 3 19 12 6z m-89 -40
c-4 -5 0 -12 6 -14 8 -3 6 -6 -4 -6 -18 -1 -24 10 -11 22 9 10 15 8 9 -2z
m4134 -12 c0 -5 -8 -9 -17 -8 -11 0 -13 3 -5 6 6 2 9 10 6 15 -4 7 -2 8 4 4 7
-4 12 -11 12 -17z m25 -19 c3 -5 1 -10 -4 -10 -6 0 -11 5 -11 10 0 6 2 10 4
10 3 0 8 -4 11 -10z m-3785 -114 c0 -2 -8 -10 -17 -17 -16 -13 -17 -12 -4 4
13 16 21 21 21 13z m3405 -16 c3 -6 -1 -7 -9 -4 -18 7 -21 14 -7 14 6 0 13 -4
16 -10z m-3445 -14 c0 -7 -93 -57 -97 -52 -3 3 17 16 44 30 53 28 53 28 53 22z
m3556 -53 c-5 -5 -96 46 -96 54 0 2 23 -8 50 -23 28 -15 48 -29 46 -31z
m-3671 -12 c-13 -12 -152 -87 -143 -76 8 8 139 84 148 85 2 0 0 -4 -5 -9z
m3745 -26 c33 -17 40 -28 13 -18 -23 8 -60 33 -50 33 5 0 21 -7 37 -15z m165
-98 c6 -6 -12 2 -40 18 -27 15 -54 32 -60 38 -5 6 13 -2 40 -18 28 -15 55 -32
60 -38z m-4079 28 c-11 -8 -25 -15 -30 -15 -6 1 0 7 14 15 32 19 40 18 16 0z
m-67 -39 c-2 -2 -15 -9 -29 -15 -24 -11 -24 -11 -6 3 16 13 49 24 35 12z
m4199 -15 c15 -10 31 -18 36 -17 5 0 15 -10 23 -24 14 -23 14 -24 -1 -6 -9 11
-22 21 -30 22 -14 2 -66 34 -66 40 0 8 13 3 38 -15z m-4268 -24 c0 -2 -12 -14
-27 -28 l-28 -24 24 28 c23 25 31 32 31 24z m-57 -72 c-3 -9 -8 -14 -10 -11
-3 3 -2 9 2 15 9 16 15 13 8 -4z m2160 -1242 c-7 -2 -21 -2 -30 0 -10 3 -4 5
12 5 17 0 24 -2 18 -5z m137 -3 c0 -5 -2 -10 -4 -10 -3 0 -8 5 -11 10 -3 6 -1
10 4 10 6 0 11 -4 11 -10z m7 -62 c-3 -7 -5 -2 -5 12 0 14 2 19 5 13 2 -7 2
-19 0 -25z m-200 -30 c-3 -7 -5 -2 -5 12 0 14 2 19 5 13 2 -7 2 -19 0 -25z
m210 -75 c-3 -10 -5 -2 -5 17 0 19 2 27 5 18 2 -10 2 -26 0 -35z m-220 -370
c-1 -54 -3 -10 -3 97 0 107 2 151 3 98 2 -54 2 -142 0 -195z m-2148 55 c1 -33
-3 -58 -9 -58 -6 0 -10 30 -9 78 2 89 17 72 18 -20z m-32 10 c-3 -7 -5 -2 -5
12 0 14 2 19 5 13 2 -7 2 -19 0 -25z m-149 -123 c9 -12 2 -6 -15 14 -21 21
-33 44 -32 60 0 22 3 20 15 -14 8 -21 22 -49 32 -60z m4903 22 l-20 -21 17 36
c10 21 18 29 20 20 2 -8 -5 -24 -17 -35z m-1404 -114 c-3 -10 -5 -4 -5 12 0
17 2 24 5 18 2 -7 2 -21 0 -30z m-3540 -235 c-2 -13 -4 -5 -4 17 -1 22 1 32 4
23 2 -10 2 -28 0 -40z m4973 32 c0 -5 -4 -10 -10 -10 -5 0 -10 5 -10 10 0 6 5
10 10 10 6 0 10 -4 10 -10z m-15 -118 c-10 -69 -17 -42 -8 34 5 43 9 58 11 40
2 -17 1 -50 -3 -74z m-4941 -17 c5 -29 4 -36 -3 -25 -6 8 -11 28 -11 44 0 39
6 31 14 -19z m2583 -577 c-1 -84 -3 -16 -3 152 0 168 2 236 3 153 2 -84 2
-222 0 -305z m-2540 310 c-3 -8 -6 -5 -6 6 -1 11 2 17 5 13 3 -3 4 -12 1 -19z
m1111 -208 c0 -74 -4 -189 -10 -255 -5 -66 -14 -496 -19 -955 -16 -1438 -23
-1850 -34 -1853 -6 -1 -12 108 -16 303 -3 168 -12 339 -19 380 -14 87 -8 394
9 450 8 24 11 362 11 1058 0 750 3 1029 11 1045 7 12 21 29 33 38 21 17 21 17
28 -29 3 -26 6 -108 6 -182z m2661 199 c20 -22 30 -45 35 -82 3 -29 6 -503 6
-1054 0 -657 3 -1004 10 -1008 14 -8 14 -542 0 -550 -6 -4 -10 -112 -10 -291
0 -246 -2 -284 -15 -284 -13 0 -15 63 -15 503 0 345 -4 513 -11 537 -8 24 -14
297 -19 865 -5 478 -12 855 -18 890 -14 83 -15 505 -1 505 5 0 23 -14 38 -31z
m1089 -155 l-3 -59 -5 67 c-3 37 -1 63 3 59 4 -4 7 -35 5 -67z m-4869 -31 c-1
-43 -2 -45 -9 -18 -11 44 -11 65 0 65 6 0 9 -21 9 -47z m2308 -380 c-1 -76 -3
-14 -3 137 0 151 2 213 3 138 2 -76 2 -200 0 -275z m-2293 291 c3 -8 2 -12 -4
-9 -6 3 -10 10 -10 16 0 14 7 11 14 -7z m2193 -136 c-2 -24 -4 -5 -4 42 0 47
2 66 4 43 2 -24 2 -62 0 -85z m2650 -60 c-3 -8 -6 -5 -6 6 -1 11 2 17 5 13 3
-3 4 -12 1 -19z m-4780 -30 c-3 -7 -5 -2 -5 12 0 14 2 19 5 13 2 -7 2 -19 0
-25z m2120 -45 c-3 -10 -5 -2 -5 17 0 19 2 27 5 18 2 -10 2 -26 0 -35z m-2130
5 c-3 -8 -6 -5 -6 6 -1 11 2 17 5 13 3 -3 4 -12 1 -19z m-29 -174 c-3 -27 -4
-26 -9 8 -3 22 -1 34 4 29 5 -5 7 -21 5 -37z m4779 -31 c-3 -10 -5 -4 -5 12 0
17 2 24 5 18 2 -7 2 -21 0 -30z m-2260 -25 c-3 -7 -5 -2 -5 12 0 14 2 19 5 13
2 -7 2 -19 0 -25z m-270 -80 c-3 -8 -6 -5 -6 6 -1 11 2 17 5 13 3 -3 4 -12 1
-19z m290 -50 c-3 -7 -5 -2 -5 12 0 14 2 19 5 13 2 -7 2 -19 0 -25z m-580 -20
c-3 -7 -5 -2 -5 12 0 14 2 19 5 13 2 -7 2 -19 0 -25z m280 0 c-3 -8 -6 -5 -6
6 -1 11 2 17 5 13 3 -3 4 -12 1 -19z m2313 -28 c0 -26 -79 -110 -103 -110 -9
0 -20 -7 -23 -15 -4 -8 -14 -15 -25 -15 -10 0 -22 -6 -26 -12 -20 -32 -83 -59
-83 -36 0 16 35 48 52 48 7 0 29 18 49 40 21 22 43 40 51 40 14 1 58 34 58 45
0 11 25 34 38 35 6 0 12 -9 12 -20z m-2003 -12 c-3 -8 -6 -5 -6 6 -1 11 2 17
5 13 3 -3 4 -12 1 -19z m268 12 c-3 -5 -12 -10 -18 -10 -7 0 -6 4 3 10 19 12
23 12 15 0z m-2515 -40 c19 -22 42 -40 51 -40 9 0 26 -13 38 -29 13 -16 38
-37 57 -46 40 -19 44 -35 10 -35 -14 0 -33 11 -44 25 -11 14 -28 25 -37 25 -9
0 -26 11 -37 25 -11 14 -26 25 -35 25 -20 0 -85 68 -78 81 12 19 41 7 75 -31z
m2510 10 c-8 -5 -22 -9 -30 -9 -10 0 -8 3 5 9 27 12 43 12 25 0z m-253 -42
c-3 -8 -6 -5 -6 6 -1 11 2 17 5 13 3 -3 4 -12 1 -19z m-340 -35 c-3 -10 -5 -2
-5 17 0 19 2 27 5 18 2 -10 2 -26 0 -35z m350 -45 c-3 -8 -6 -5 -6 6 -1 11 2
17 5 13 3 -3 4 -12 1 -19z m-360 -30 c-3 -8 -6 -5 -6 6 -1 11 2 17 5 13 3 -3
4 -12 1 -19z m-10 -60 c-3 -8 -6 -5 -6 6 -1 11 2 17 5 13 3 -3 4 -12 1 -19z
m390 -40 c-3 -8 -6 -5 -6 6 -1 11 2 17 5 13 3 -3 4 -12 1 -19z m-400 -30 c-3
-8 -6 -5 -6 6 -1 11 2 17 5 13 3 -3 4 -12 1 -19z m410 -50 c-3 -8 -6 -5 -6 6
-1 11 2 17 5 13 3 -3 4 -12 1 -19z m-420 -20 c-3 -8 -6 -5 -6 6 -1 11 2 17 5
13 3 -3 4 -12 1 -19z m-5 -130 c2 -27 0 -48 -4 -48 -5 0 -7 28 -7 63 1 67 6
60 11 -15z m383 20 c14 -6 25 -16 25 -21 0 -5 -7 -4 -15 3 -9 7 -39 19 -68 26
-48 13 -49 14 -10 9 23 -3 54 -10 68 -17z m55 -44 c0 -8 -5 -12 -10 -9 -6 4
-8 11 -5 16 9 14 15 11 15 -7z m-13 -191 c-2 -27 -3 -5 -3 47 0 52 1 74 3 48
2 -27 2 -69 0 -95z m-306 -15 c-3 -21 -6 -26 -9 -15 -3 17 3 47 11 47 2 0 1
-15 -2 -32z m1156 -60 c-3 -7 -5 -2 -5 12 0 14 2 19 5 13 2 -7 2 -19 0 -25z
m-1059 -5 c-16 -2 -40 -2 -55 0 -16 2 -3 4 27 4 30 0 43 -2 28 -4z m-91 -75
c-2 -13 -4 -5 -4 17 -1 22 1 32 4 23 2 -10 2 -28 0 -40z m190 -746 c-1 -103
-2 -16 -2 193 0 209 1 293 2 187 2 -106 2 -277 0 -380z m-490 -728 c-3 -3 -12
-4 -19 -1 -8 3 -5 6 6 6 11 1 17 -2 13 -5z m-1460 -600 c-3 -3 -12 -4 -19 -1
-8 3 -5 6 6 6 11 1 17 -2 13 -5z m-108 -8 c-2 -2 -15 -9 -29 -16 -23 -12 -24
-12 -11 3 7 10 20 17 29 17 8 0 13 -2 11 -4z m3946 -24 c-3 -3 -11 0 -18 7 -9
10 -8 11 6 5 10 -3 15 -9 12 -12z m-4052 -9 c-13 -2 -33 -2 -45 0 -13 2 -3 4
22 4 25 0 35 -2 23 -4z m4182 -7 c8 -7 11 -16 8 -20 -11 -10 -23 -7 -20 7 1 9
-16 12 -63 11 -44 -1 -57 1 -40 6 41 13 101 11 115 -4z m-4078 -2 c-3 -3 -12
-4 -19 -1 -8 3 -5 6 6 6 11 1 17 -2 13 -5z m4176 -17 c3 -8 -5 -14 -21 -15
-25 -2 -25 -2 -6 13 23 18 21 17 27 2z m-4296 -3 c-3 -3 -12 -4 -19 -1 -8 3
-5 6 6 6 11 1 17 -2 13 -5z m-60 -10 c-3 -3 -12 -4 -19 -1 -8 3 -5 6 6 6 11 1
17 -2 13 -5z m823 -164 l-6 -165 -2 161 c-1 88 1 164 5 167 9 9 9 20 3 -163z
m1217 -367 c-1 -98 -2 -20 -2 172 -1 193 1 273 2 178 2 -94 2 -252 0 -350z
m-640 385 c-3 -8 -6 -5 -6 6 -1 11 2 17 5 13 3 -3 4 -12 1 -19z m2064 -218
l-10 -55 4 70 c3 39 6 104 7 145 l2 75 3 -90 c2 -49 -1 -115 -6 -145z m-1204
-262 c0 -233 -4 -396 -7 -363 -15 144 -10 785 6 785 1 0 2 -190 1 -422z
m-1427 197 c0 -5 -5 -3 -10 5 -5 8 -10 20 -10 25 0 6 5 3 10 -5 5 -8 10 -19
10 -25z m-532 5 c-14 -4 -32 -11 -40 -15 -7 -3 -4 1 6 9 11 9 29 16 40 15 17
-1 16 -2 -6 -9z m3698 -5 c-19 -14 -36 -12 -36 6 0 5 12 9 28 9 26 -1 26 -1 8
-15z m-3786 -20 c0 -2 -16 -5 -35 -7 -40 -5 -45 -1 -12 11 19 7 47 5 47 -4z
m711 -134 c17 -11 39 -17 48 -14 12 5 13 3 5 -6 -17 -19 -60 -3 -87 32 -32 43
-57 92 -57 114 0 10 13 -10 30 -44 19 -41 40 -69 61 -82z m1426 -373 c-1 -95
-3 -18 -3 172 0 190 2 267 3 173 2 -95 2 -251 0 -345z m1089 475 c-23 -65 -37
-89 -57 -101 -10 -7 -19 -8 -19 -3 0 6 5 13 10 16 6 4 24 33 40 66 34 67 45
77 26 22z m-2449 -5 c-3 -7 -5 -2 -5 12 0 14 2 19 5 13 2 -7 2 -19 0 -25z
m-907 7 c0 -2 -18 -5 -40 -7 -45 -4 -50 -1 -18 11 19 7 58 4 58 -4z m4147 -1
c-3 -3 -12 -4 -19 -1 -8 3 -5 6 6 6 11 1 17 -2 13 -5z m-4060 -10 c-3 -3 -12
-4 -19 -1 -8 3 -5 6 6 6 11 1 17 -2 13 -5z m3966 -1 c-7 -2 -19 -2 -25 0 -7 3
-2 5 12 5 14 0 19 -2 13 -5z m-4193 -13 c-8 -5 -19 -10 -25 -10 -5 0 -3 5 5
10 8 5 20 10 25 10 6 0 3 -5 -5 -10z m47 4 c-3 -3 -12 -4 -19 -1 -8 3 -5 6 6
6 11 1 17 -2 13 -5z m4210 0 c-3 -3 -12 -4 -19 -1 -8 3 -5 6 6 6 11 1 17 -2
13 -5z m78 -4 c-3 -5 -16 -10 -28 -9 -21 0 -21 1 -2 9 28 12 37 12 30 0z m80
-10 c4 -6 -6 -10 -22 -9 -25 0 -26 1 -8 9 11 5 21 9 22 9 1 1 5 -3 8 -9z
m-4362 -7 c-7 -2 -19 -2 -25 0 -7 3 -2 5 12 5 14 0 19 -2 13 -5z m3322 -91
c-3 -3 -11 0 -18 7 -9 10 -8 11 6 5 10 -3 15 -9 12 -12z m-1288 -349 c-1 -43
-3 -8 -3 77 0 85 2 120 3 78 2 -43 2 -113 0 -155z m-1685 12 c-6 -30 -6 -30
-12 -5 -8 29 -1 55 11 43 4 -4 5 -21 1 -38z m-49 8 c-7 -2 -19 -2 -25 0 -7 3
-2 5 12 5 14 0 19 -2 13 -5z m3715 0 c-10 -2 -28 -2 -40 0 -13 2 -5 4 17 4 22
1 32 -1 23 -4z m-43 -31 c-3 -3 -11 0 -18 7 -9 10 -8 11 6 5 10 -3 15 -9 12
-12z m-3838 2 c-3 -3 -12 -4 -19 -1 -8 3 -5 6 6 6 11 1 17 -2 13 -5z m4030 0
c-3 -3 -12 -4 -19 -1 -8 3 -5 6 6 6 11 1 17 -2 13 -5z m-3850 -10 c-3 -3 -12
-4 -19 -1 -8 3 -5 6 6 6 11 1 17 -2 13 -5z m3736 -1 c-7 -2 -19 -2 -25 0 -7 3
-2 5 12 5 14 0 19 -2 13 -5z m-3984 -7 c-9 -8 -98 -13 -93 -5 3 5 26 9 51 9
26 0 44 -2 42 -4z m4246 -6 c8 -13 -15 -13 -35 0 -12 8 -11 10 7 10 12 0 25
-4 28 -10z m-158 -6 c-3 -3 -12 -4 -19 -1 -8 3 -5 6 6 6 11 1 17 -2 13 -5z
m-4024 -11 c-7 -2 -19 -2 -25 0 -7 3 -2 5 12 5 14 0 19 -2 13 -5z m4084 1 c-3
-3 -12 -4 -19 -1 -8 3 -5 6 6 6 11 1 17 -2 13 -5z m-4160 -10 c-3 -3 -12 -4
-19 -1 -8 3 -5 6 6 6 11 1 17 -2 13 -5z m4307 -2 c2 -4 -10 -8 -27 -9 -30 -1
-30 -1 -7 7 14 4 26 8 27 9 1 1 4 -3 7 -7z m-4376 -9 c-10 -2 -28 -2 -40 0
-13 2 -5 4 17 4 22 1 32 -1 23 -4z m1940 -118 c-3 -3 -9 2 -12 12 -6 14 -5 15
5 6 7 -7 10 -15 7 -18z m109 -32 c-3 -10 -5 -4 -5 12 0 17 2 24 5 18 2 -7 2
-21 0 -30z m334 6 c-5 -13 -10 -19 -10 -12 -1 15 10 45 15 40 3 -2 0 -15 -5
-28z m-434 -41 c-3 -8 -6 -5 -6 6 -1 11 2 17 5 13 3 -3 4 -12 1 -19z m104 -31
c-10 -9 -11 -8 -5 6 3 10 9 15 12 12 3 -3 0 -11 -7 -18z m356 -14 c-3 -10 -5
-4 -5 12 0 17 2 24 5 18 2 -7 2 -21 0 -30z m-439 -29 c-3 -14 -5 -12 -10 9 -3
19 -2 25 4 19 6 -6 8 -18 6 -28z m384 9 c-3 -16 -7 -22 -10 -15 -4 13 4 42 11
42 2 0 2 -12 -1 -27z m-445 -65 c-3 -8 -6 -5 -6 6 -1 11 2 17 5 13 3 -3 4 -12
1 -19z m206 -55 c-7 -2 -19 -2 -25 0 -7 3 -2 5 12 5 14 0 19 -2 13 -5z m150 0
c-7 -2 -19 -2 -25 0 -7 3 -2 5 12 5 14 0 19 -2 13 -5z m-45 -70 c-15 -2 -42
-2 -60 0 -18 2 -6 4 27 4 33 0 48 -2 33 -4z m1219 -39 c-3 -3 -12 -4 -19 -1
-8 3 -5 6 6 6 11 1 17 -2 13 -5z m-1677 -48 c0 -2 -8 -10 -17 -17 -16 -13 -17
-12 -4 4 13 16 21 21 21 13z m837 -83 c-3 -10 -5 -4 -5 12 0 17 2 24 5 18 2
-7 2 -21 0 -30z m-709 -4 c-3 -8 -7 -3 -11 10 -4 17 -3 21 5 13 5 -5 8 -16 6
-23z m552 16 c-7 -8 -10 -32 -8 -54 2 -22 0 -37 -4 -35 -13 8 -9 79 4 92 17
17 23 15 8 -3z m-743 -77 c-3 -7 -5 -2 -5 12 0 14 2 19 5 13 2 -7 2 -19 0 -25z
m191 -33 c-2 -3 -17 0 -34 4 -23 8 -25 9 -7 10 12 1 25 7 30 14 5 9 9 7 11 -6
2 -10 2 -20 0 -22z m605 8 c-7 -2 -21 -2 -30 0 -10 3 -4 5 12 5 17 0 24 -2 18
-5z m89 -5 c-4 -4 -21 -3 -37 2 -30 9 -30 9 7 7 21 0 34 -5 30 -9z m-819 -195
c-46 -2 -120 -2 -165 0 -46 1 -9 3 82 3 91 0 128 -2 83 -3z m885 0 c-27 -2
-69 -2 -95 0 -27 2 -5 3 47 3 52 0 74 -1 48 -3z m172 -13 c0 -5 -17 -9 -37 -9
-38 1 -38 1 -8 9 43 11 45 11 45 0z m19 -433 c-2 -1 -13 -9 -24 -17 -19 -14
-19 -14 -6 3 7 9 18 17 24 17 6 0 8 -1 6 -3z m-135 -57 c10 -13 9 -13 -6 -1
-10 7 -17 23 -17 35 1 20 2 20 6 1 3 -11 10 -27 17 -35z m173 -47 c-2 -21 -4
-6 -4 32 0 39 2 55 4 38 2 -18 2 -50 0 -70z m-1420 27 c-6 -11 -13 -17 -16
-15 -2 3 1 11 7 18 9 10 8 17 -1 27 -10 12 -9 12 5 1 14 -10 15 -16 5 -31z
m206 23 c-7 -2 -19 -2 -25 0 -7 3 -2 5 12 5 14 0 19 -2 13 -5z m24 -85 c-3 -8
-6 -5 -6 6 -1 11 2 17 5 13 3 -3 4 -12 1 -19z m930 -135 c-2 -21 -4 -6 -4 32
0 39 2 55 4 38 2 -18 2 -50 0 -70z m250 75 c-3 -8 -6 -5 -6 6 -1 11 2 17 5 13
3 -3 4 -12 1 -19z m-1160 -220 c-2 -35 -3 -7 -3 62 0 69 1 97 3 63 2 -35 2
-91 0 -125z m1150 160 c-3 -8 -6 -5 -6 6 -1 11 2 17 5 13 3 -3 4 -12 1 -19z
m-1390 -60 c-3 -7 -5 -2 -5 12 0 14 2 19 5 13 2 -7 2 -19 0 -25z m1380 -30
c-3 -7 -5 -2 -5 12 0 14 2 19 5 13 2 -7 2 -19 0 -25z m-1008 -85 c-1 -63 -4
-76 -8 -48 -6 40 -3 135 5 135 2 0 3 -39 3 -87z m-362 35 c-3 -7 -5 -2 -5 12
0 14 2 19 5 13 2 -7 2 -19 0 -25z m1360 -30 c-3 -8 -6 -5 -6 6 -1 11 2 17 5
13 3 -3 4 -12 1 -19z m-1350 -50 c-3 -7 -5 -2 -5 12 0 14 2 19 5 13 2 -7 2
-19 0 -25z m1340 -20 c-3 -7 -5 -2 -5 12 0 14 2 19 5 13 2 -7 2 -19 0 -25z
m-1330 -50 c-3 -8 -6 -5 -6 6 -1 11 2 17 5 13 3 -3 4 -12 1 -19z m1110 -80
c-2 -18 -4 -6 -4 27 0 33 2 48 4 33 2 -15 2 -42 0 -60z m-1513 64 c3 -5 -1 -9
-9 -9 -8 0 -12 4 -9 9 3 4 7 8 9 8 2 0 6 -4 9 -8z m1723 -14 c-3 -8 -6 -5 -6
6 -1 11 2 17 5 13 3 -3 4 -12 1 -19z m-1300 -100 c-3 -7 -5 -2 -5 12 0 14 2
19 5 13 2 -7 2 -19 0 -25z m200 -70 c-2 -18 -4 -6 -4 27 0 33 2 48 4 33 2 -15
2 -42 0 -60z m1080 35 c-3 -10 -5 -2 -5 17 0 19 2 27 5 18 2 -10 2 -26 0 -35z
m377 9 c2 -4 -4 -8 -14 -8 -10 0 -16 4 -14 8 3 4 9 8 14 8 5 0 11 -4 14 -8z
m-1647 -54 c-3 -8 -6 -5 -6 6 -1 11 2 17 5 13 3 -3 4 -12 1 -19z m1070 -55
c-2 -16 -4 -5 -4 22 0 28 2 40 4 28 2 -13 2 -35 0 -50z m560 5 c-3 -7 -5 -2
-5 12 0 14 2 19 5 13 2 -7 2 -19 0 -25z m-1620 0 c-3 -8 -6 -5 -6 6 -1 11 2
17 5 13 3 -3 4 -12 1 -19z m1240 -20 c-3 -8 -6 -5 -6 6 -1 11 2 17 5 13 3 -3
4 -12 1 -19z m-1650 -30 c-3 -8 -6 -5 -6 6 -1 11 2 17 5 13 3 -3 4 -12 1 -19z
m2060 -30 c-2 -13 -4 -5 -4 17 -1 22 1 32 4 23 2 -10 2 -28 0 -40z m-1980 0
c-3 -7 -5 -2 -5 12 0 14 2 19 5 13 2 -7 2 -19 0 -25z m340 0 c-3 -7 -5 -2 -5
12 0 14 2 19 5 13 2 -7 2 -19 0 -25z m1040 -15 c-3 -10 -5 -2 -5 17 0 19 2 27
5 18 2 -10 2 -26 0 -35z m-861 -29 c-3 -8 -16 -13 -28 -13 l-23 2 23 4 c18 4
22 12 23 41 2 32 3 33 6 9 3 -16 2 -35 -1 -43z m1041 24 c-3 -7 -5 -2 -5 12 0
14 2 19 5 13 2 -7 2 -19 0 -25z m330 0 c-3 -7 -5 -2 -5 12 0 14 2 19 5 13 2
-7 2 -19 0 -25z m-1960 -20 c-3 -8 -6 -5 -6 6 -1 11 2 17 5 13 3 -3 4 -12 1
-19z m84 5 c13 -16 12 -17 -3 -4 -10 7 -18 15 -18 17 0 8 8 3 21 -13z m1534
-13 c-3 -5 -21 -9 -38 -9 l-32 2 35 7 c19 4 36 8 38 9 2 0 0 -3 -3 -9z m-1137
-7 c-10 -2 -26 -2 -35 0 -10 3 -2 5 17 5 19 0 27 -2 18 -5z m1035 0 c-13 -2
-33 -2 -45 0 -13 2 -3 4 22 4 25 0 35 -2 23 -4z m378 -81 c-4 -67 -11 -66 -11
3 0 32 3 55 7 51 4 -4 6 -28 4 -54z m-1874 16 c-3 -8 -6 -5 -6 6 -1 11 2 17 5
13 3 -3 4 -12 1 -19z m2000 -20 c-3 -8 -6 -5 -6 6 -1 11 2 17 5 13 3 -3 4 -12
1 -19z m-1880 -20 c-3 -7 -5 -2 -5 12 0 14 2 19 5 13 2 -7 2 -19 0 -25z m321
15 c-16 -2 -40 -2 -55 0 -16 2 -3 4 27 4 30 0 43 -2 28 -4z m993 -35 l-5 -33
-6 30 c-7 32 -3 48 9 41 4 -3 5 -20 2 -38z m182 35 c-7 -2 -21 -2 -30 0 -10 3
-4 5 12 5 17 0 24 -2 18 -5z m-1029 -99 c1 -44 0 -106 -4 -139 -5 -47 -7 -28
-11 87 -2 81 0 143 4 139 5 -5 10 -44 11 -87z m1049 -15 c-5 -5 -6 11 -3 34 4
41 5 41 8 8 2 -18 0 -37 -5 -42z m-1263 6 c0 -17 -2 -17 -10 -5 -5 8 -10 24
-10 35 0 17 2 17 10 5 5 -8 10 -24 10 -35z m-205 -33 c-3 -3 -11 0 -18 7 -9
10 -8 11 6 5 10 -3 15 -9 12 -12z m1683 -7 c-3 -3 -9 2 -12 12 -6 14 -5 15 5
6 7 -7 10 -15 7 -18z m-1801 -27 c-3 -8 -6 -5 -6 6 -1 11 2 17 5 13 3 -3 4
-12 1 -19z m140 -20 c-3 -8 -6 -5 -6 6 -1 11 2 17 5 13 3 -3 4 -12 1 -19z
m200 -30 c-3 -7 -5 -2 -5 12 0 14 2 19 5 13 2 -7 2 -19 0 -25z m1440 -30 c-2
-13 -4 -5 -4 17 -1 22 1 32 4 23 2 -10 2 -28 0 -40z m-220 0 c-3 -8 -6 -5 -6
6 -1 11 2 17 5 13 3 -3 4 -12 1 -19z m-1424 -8 c3 -11 1 -18 -4 -14 -5 3 -9
12 -9 20 0 20 7 17 13 -6z m-104 -32 c-1 -31 -1 -31 -8 -8 -5 14 -6 28 -4 33
9 15 13 6 12 -25z m151 -24 c0 -3 -7 -1 -15 6 -8 7 -15 17 -15 22 0 5 7 3 15
-6 8 -8 15 -18 15 -22z m1682 4 c-8 -8 -9 -4 -5 13 4 13 8 18 11 10 2 -7 -1
-18 -6 -23z m-495 -105 c-2 -21 -4 -6 -4 32 0 39 2 55 4 38 2 -18 2 -50 0 -70z
m173 37 c0 -27 -3 -50 -7 -50 -5 0 -6 22 -5 50 5 65 12 65 12 0z m307 18 c-3
-8 -6 -5 -6 6 -1 11 2 17 5 13 3 -3 4 -12 1 -19z m-1783 -24 c3 -8 2 -12 -4
-9 -6 3 -10 10 -10 16 0 14 7 11 14 -7z m303 -26 c-3 -7 -5 -2 -5 12 0 14 2
19 5 13 2 -7 2 -19 0 -25z m170 -65 c-3 -10 -5 -4 -5 12 0 17 2 24 5 18 2 -7
2 -21 0 -30z m980 5 c-3 -8 -6 -5 -6 6 -1 11 2 17 5 13 3 -3 4 -12 1 -19z
m-1130 -40 c-3 -8 -6 -5 -6 6 -1 11 2 17 5 13 3 -3 4 -12 1 -19z m966 -41 c-8
-52 -19 -38 -14 19 2 33 6 43 12 32 4 -8 6 -31 2 -51z m433 15 c-14 -15 -15
-13 -3 17 8 23 13 28 15 16 2 -10 -3 -25 -12 -33z m-1672 12 c3 -8 2 -12 -4
-9 -6 3 -10 10 -10 16 0 14 7 11 14 -7z m445 -42 c1 -7 -3 -10 -9 -7 -5 3 -10
18 -9 33 0 24 1 25 9 7 5 -11 9 -26 9 -33z m948 26 c-3 -8 -6 -5 -6 6 -1 11 2
17 5 13 3 -3 4 -12 1 -19z m-830 -84 c-3 -3 -12 -4 -19 -1 -8 3 -5 6 6 6 11 1
17 -2 13 -5z m643 3 c0 -2 -16 -18 -35 -37 -19 -19 -35 -31 -35 -26 0 4 15 20
32 37 31 28 38 33 38 26z m-900 -39 c0 -19 -2 -20 -10 -8 -13 19 -13 30 0 30
6 0 10 -10 10 -22z m1325 3 c-3 -6 -11 -11 -17 -11 -6 0 -6 6 2 15 14 17 26
13 15 -4z m-1468 -7 c-3 -3 -12 -4 -19 -1 -8 3 -5 6 6 6 11 1 17 -2 13 -5z
m1370 0 c-3 -3 -12 -4 -19 -1 -8 3 -5 6 6 6 11 1 17 -2 13 -5z m-1440 -10 c-3
-3 -12 -4 -19 -1 -8 3 -5 6 6 6 11 1 17 -2 13 -5z m456 -40 c-3 -8 -7 -14 -10
-14 -3 0 -3 6 0 14 3 7 0 20 -6 27 -10 11 -9 11 5 0 9 -7 14 -19 11 -27z
m-220 -79 c4 -32 3 -43 -3 -30 -8 19 -14 93 -6 84 2 -2 6 -26 9 -54z m224 13
c-3 -8 -6 -5 -6 6 -1 11 2 17 5 13 3 -3 4 -12 1 -19z m556 -100 c-3 -57 -7
-105 -9 -107 -2 -2 -4 44 -4 102 0 62 4 107 10 107 5 0 7 -40 3 -102z m234 80
c-3 -8 -6 -5 -6 6 -1 11 2 17 5 13 3 -3 4 -12 1 -19z m-780 -120 c-2 -18 -4
-6 -4 27 0 33 2 48 4 33 2 -15 2 -42 0 -60z m760 10 c-3 -7 -5 -2 -5 12 0 14
2 19 5 13 2 -7 2 -19 0 -25z m-964 -60 c3 -21 2 -38 -4 -38 -5 0 -9 13 -9 29
0 16 -3 38 -6 48 -5 12 -4 15 3 8 6 -5 13 -27 16 -47z m208 -65 c-9 -16 -10
-16 -11 -1 0 9 3 25 7 35 7 16 8 17 11 1 2 -10 -1 -25 -7 -35z m-188 -7 c4
-10 1 -13 -8 -9 -8 3 -12 9 -9 14 7 12 11 11 17 -5z m95 -13 c-16 -2 -40 -2
-55 0 -16 2 -3 4 27 4 30 0 43 -2 28 -4z m782 3 c-7 -6 -149 -10 -155 -4 -3 3
32 6 77 7 45 1 80 0 78 -3z"/>
</g>
</svg>
