<?xml version="1.0" standalone="no"?>
<!DOCTYPE svg PUBLIC "-//W3C//DTD SVG 20010904//EN"
 "http://www.w3.org/TR/2001/REC-SVG-20010904/DTD/svg10.dtd">
<svg version="1.0" xmlns="http://www.w3.org/2000/svg"
 width="1280.000000pt" height="597.000000pt" viewBox="0 0 1280.000000 597.000000"
 preserveAspectRatio="xMidYMid meet">

<g transform="translate(0.000000,597.000000) scale(0.100000,-0.100000)"
fill="#000000" stroke="none">
<path d="M9494 5910 c-7 -7 -111 -11 -291 -11 l-281 1 -56 -30 c-69 -37 -85
-37 -122 0 l-29 29 -130 1 c-139 0 -157 -5 -198 -57 -26 -32 -80 -31 -111 2
-13 14 -30 25 -37 25 -8 0 -23 7 -33 15 -24 18 -107 20 -124 3 -7 -7 -47 -14
-89 -18 -73 -5 -79 -7 -98 -36 -18 -28 -27 -32 -80 -37 -33 -3 -61 -10 -63
-16 -2 -7 -61 -11 -173 -11 -128 0 -178 -4 -206 -15 -26 -11 -74 -15 -178 -15
l-143 0 -71 -67 c-39 -37 -71 -73 -71 -80 0 -8 -20 -33 -45 -57 -25 -25 -45
-50 -45 -56 0 -7 -11 -23 -25 -36 -14 -13 -25 -29 -25 -36 0 -8 -18 -32 -40
-53 -22 -21 -40 -44 -40 -50 0 -6 -20 -31 -45 -57 -25 -26 -45 -53 -45 -60 0
-7 -11 -22 -25 -32 -14 -10 -25 -25 -25 -33 0 -8 -18 -33 -40 -55 -22 -23 -40
-46 -40 -52 0 -6 -17 -27 -36 -46 -20 -19 -40 -45 -45 -57 l-8 -22 -710 -3
c-552 -2 -713 -6 -723 -15 -17 -18 -38 -16 -38 2 0 8 -4 15 -10 15 -6 0 -10
27 -10 60 0 45 -4 62 -15 66 -11 5 -15 22 -15 65 0 44 -4 61 -15 65 -11 4 -15
21 -15 55 0 27 -4 49 -8 49 -5 0 -14 11 -20 25 l-12 25 -165 0 -165 0 0 -38
c0 -21 -6 -47 -14 -58 -8 -11 -17 -41 -21 -67 -4 -26 -11 -47 -16 -47 -5 0 -9
-26 -9 -59 0 -40 -5 -63 -15 -71 -13 -11 -15 -8 -15 19 0 19 -6 34 -15 37 -11
5 -15 22 -15 64 0 33 -4 61 -9 65 -6 3 -13 27 -17 52 -4 26 -13 53 -20 61 -8
7 -14 20 -14 28 0 12 -29 14 -169 14 l-168 0 -7 -50 c-4 -27 -11 -52 -16 -55
-6 -3 -10 -26 -10 -51 0 -30 -5 -46 -15 -50 -10 -4 -15 -21 -15 -54 0 -27 -3
-55 -6 -64 -11 -28 -24 -6 -24 38 0 27 -6 48 -15 56 -10 8 -15 31 -15 66 0 29
-4 55 -9 58 -5 4 -12 29 -16 56 l-7 50 -164 0 c-194 0 -204 -4 -204 -82 0 -36
-4 -48 -15 -48 -12 0 -15 -13 -15 -59 0 -33 -4 -62 -9 -65 -4 -3 -11 -27 -15
-53 -4 -27 -13 -57 -21 -67 -8 -11 -15 -41 -15 -67 0 -26 -5 -51 -10 -54 -5
-3 -10 -13 -10 -21 0 -8 -25 -38 -55 -66 -30 -28 -55 -57 -55 -64 0 -7 -18
-30 -40 -52 -22 -21 -40 -44 -40 -50 0 -6 -20 -31 -45 -56 -33 -34 -53 -46
-74 -46 -16 0 -34 -7 -41 -15 -9 -11 -32 -15 -81 -15 -37 0 -70 -4 -73 -9 -3
-4 -35 -11 -72 -14 -36 -2 -71 -10 -77 -16 -6 -6 -34 -11 -62 -11 -30 0 -59
-6 -71 -15 -11 -9 -42 -14 -76 -15 -32 0 -58 -4 -58 -10 0 -5 -24 -10 -54 -10
-29 0 -70 -7 -89 -15 -20 -8 -56 -15 -80 -15 -24 0 -48 -5 -54 -11 -6 -6 -38
-13 -72 -16 -34 -3 -64 -10 -67 -14 -3 -5 -23 -9 -45 -9 -21 0 -47 -4 -57 -10
-9 -5 -43 -12 -74 -15 -32 -4 -60 -11 -63 -16 -4 -5 -25 -9 -48 -9 -23 0 -51
-7 -61 -15 -11 -9 -42 -15 -70 -15 -29 0 -59 -7 -70 -15 -11 -8 -39 -15 -63
-15 -24 0 -43 -4 -43 -10 0 -5 -20 -10 -44 -10 -24 0 -57 -7 -72 -15 -16 -8
-39 -15 -51 -15 -12 0 -25 -4 -28 -10 -3 -6 -23 -10 -44 -10 -20 0 -46 -7 -57
-15 -10 -8 -34 -15 -51 -15 -18 0 -33 -4 -33 -10 0 -5 -13 -10 -28 -10 -16 0
-37 -7 -48 -15 -10 -8 -33 -15 -50 -15 -17 0 -37 -7 -44 -15 -7 -8 -28 -15
-46 -15 -19 0 -34 -4 -34 -10 0 -5 -8 -10 -19 -10 -10 0 -24 -7 -31 -15 -7 -8
-23 -15 -36 -15 -13 0 -24 -4 -24 -10 0 -5 -13 -10 -29 -10 -15 0 -40 -9 -55
-21 -25 -20 -26 -24 -26 -128 0 -135 -5 -141 -108 -141 -39 0 -73 -4 -76 -9
-3 -5 -34 -11 -68 -13 -35 -3 -64 -10 -66 -16 -2 -7 -17 -12 -33 -12 l-29 0 0
-194 0 -194 251 4 c144 2 256 8 263 13 13 11 213 18 724 26 324 6 333 5 354
-15 19 -17 36 -20 122 -21 323 -4 460 -9 465 -17 3 -6 15 -11 26 -13 19 -4 20
-13 23 -147 l3 -142 -25 0 c-13 0 -26 -5 -28 -12 -3 -9 -78 -13 -284 -16 -153
-3 -281 -7 -284 -11 -3 -4 -16 -15 -30 -24 -22 -15 -61 -17 -358 -17 -212 0
-340 4 -353 10 -10 6 -94 12 -185 14 -104 3 -169 8 -173 15 -4 7 -94 11 -259
13 l-252 3 0 -192 0 -193 24 0 c13 0 29 -7 36 -15 9 -11 32 -15 80 -15 48 0
71 -4 80 -15 8 -10 31 -15 69 -15 87 -1 91 -7 91 -139 0 -110 0 -111 24 -111
13 0 26 -7 30 -15 3 -8 14 -15 24 -15 11 0 25 -7 32 -15 7 -8 23 -15 36 -15
13 0 24 -4 24 -10 0 -5 16 -10 35 -10 22 0 38 -6 41 -15 4 -8 17 -15 29 -15
13 0 27 -4 30 -10 3 -5 19 -10 34 -10 16 0 34 -7 41 -15 7 -8 29 -15 50 -15
24 0 40 -5 44 -15 3 -9 19 -15 41 -15 19 0 35 -4 35 -10 0 -5 23 -10 50 -10
36 0 52 -4 56 -15 4 -10 21 -15 54 -15 27 0 50 -5 52 -11 2 -6 27 -14 56 -17
29 -2 55 -9 58 -13 3 -5 20 -9 37 -9 18 0 41 -7 51 -15 12 -9 42 -15 72 -15
29 0 56 -5 59 -10 3 -6 30 -10 58 -10 29 -1 63 -7 77 -15 14 -8 44 -14 67 -15
23 0 43 -5 45 -12 2 -6 31 -13 66 -16 34 -2 65 -8 68 -13 3 -5 32 -9 64 -9 32
0 62 -4 65 -10 3 -5 30 -10 59 -10 30 0 60 -6 72 -15 10 -8 37 -15 60 -15 22
0 49 -7 60 -15 11 -8 42 -14 76 -15 31 0 60 -4 63 -10 3 -5 37 -10 74 -10 49
0 72 -4 81 -15 8 -10 30 -15 65 -15 29 0 66 -7 81 -15 16 -8 53 -15 82 -15 28
0 52 -4 52 -10 0 -5 21 -10 48 -10 45 -1 48 -2 65 -40 10 -22 23 -40 29 -40
12 0 47 -41 48 -55 0 -6 18 -29 40 -50 22 -21 40 -44 40 -51 0 -6 18 -28 40
-48 22 -20 40 -45 40 -56 0 -11 4 -20 9 -20 5 0 13 -25 16 -55 4 -30 11 -55
16 -55 4 0 11 -27 15 -60 4 -33 11 -63 15 -66 5 -3 9 -27 9 -55 0 -37 4 -49
15 -49 12 0 15 -13 15 -60 0 -45 4 -62 15 -66 8 -4 15 -13 15 -20 0 -12 28
-14 167 -12 l168 3 9 53 c5 28 13 52 17 52 5 0 9 20 9 44 0 26 6 48 15 56 8 7
15 34 17 68 4 68 22 76 26 12 2 -26 10 -48 18 -53 9 -5 14 -26 14 -62 0 -30 4
-57 10 -60 5 -3 12 -28 16 -55 5 -38 11 -50 28 -54 11 -3 87 -6 167 -6 l147 0
18 27 c9 15 19 49 22 75 3 27 9 51 13 54 5 3 9 27 9 54 0 33 5 50 15 54 10 3
15 19 15 45 0 32 3 39 15 35 10 -4 15 -21 15 -54 0 -27 4 -51 9 -54 4 -3 11
-31 14 -63 3 -32 11 -59 17 -61 5 -2 13 -21 16 -43 10 -61 19 -64 185 -64 178
0 189 5 189 92 0 38 4 55 15 59 10 4 15 21 15 53 0 25 7 55 15 65 8 11 15 41
15 67 0 26 5 51 10 54 6 3 10 17 10 31 0 24 1 24 30 9 25 -13 121 -15 732 -15
l702 0 23 -27 c13 -14 23 -31 23 -36 0 -6 18 -28 40 -48 22 -21 40 -44 40 -52
0 -8 18 -30 40 -48 22 -18 40 -41 40 -49 0 -9 11 -27 25 -40 14 -13 25 -29 25
-35 0 -6 18 -30 40 -54 22 -23 40 -47 40 -53 0 -14 66 -78 80 -78 5 0 10 -10
10 -21 0 -12 11 -32 25 -45 14 -13 25 -29 25 -36 1 -7 19 -31 40 -53 22 -22
40 -45 40 -53 0 -7 7 -15 15 -18 8 -4 15 -10 15 -14 0 -17 62 -70 81 -70 11 0
22 -7 25 -15 5 -12 33 -15 164 -15 95 0 161 -4 165 -10 4 -6 71 -10 169 -10
127 0 166 -3 182 -15 11 -8 41 -14 72 -15 55 0 76 -12 97 -54 9 -18 21 -21 90
-24 44 -1 89 -6 100 -11 65 -29 110 -22 159 25 45 44 101 48 130 9 10 -14 27
-25 37 -25 10 0 20 -4 23 -9 9 -14 130 -23 201 -16 50 6 70 13 88 31 32 34
103 33 136 -1 22 -24 28 -25 165 -26 301 -3 470 -9 480 -19 5 -5 45 -10 88
-10 70 0 82 3 106 25 15 14 39 25 53 25 15 0 32 7 39 15 9 11 33 15 91 15 44
0 79 4 79 9 0 5 41 12 90 16 50 4 93 11 96 16 3 5 38 9 78 9 53 0 77 4 86 15
9 11 33 15 86 15 40 0 76 5 79 10 3 6 40 10 81 10 57 0 76 4 80 15 5 12 24 15
84 15 43 0 80 4 82 9 2 6 39 12 82 15 44 3 84 10 90 16 5 5 40 10 77 10 47 0
70 4 79 15 9 11 35 15 101 15 53 0 89 4 89 10 0 6 31 10 73 10 47 1 79 6 91
15 13 10 43 15 86 15 36 0 70 4 76 9 5 6 43 13 84 16 41 3 77 10 78 16 2 5 21
9 43 9 21 0 39 5 39 10 0 6 7 10 15 10 8 0 15 5 15 10 0 6 11 21 25 34 14 13
25 33 25 45 0 12 6 21 15 21 8 0 15 9 15 20 0 11 7 23 15 26 8 4 15 12 15 19
0 7 7 15 15 19 8 3 15 11 15 18 0 7 11 25 25 40 14 15 25 35 25 44 0 20 28 43
51 44 9 0 22 7 29 15 8 10 30 15 61 15 40 0 49 3 49 18 0 9 12 28 25 41 14 13
25 31 25 40 0 9 13 28 30 41 16 14 29 30 30 36 0 22 34 79 57 97 13 10 23 27
23 38 0 11 7 22 15 25 8 4 15 14 15 23 0 10 11 28 25 41 14 13 25 29 25 36 0
6 7 17 15 24 10 8 15 31 15 71 0 56 -1 59 -25 59 -23 0 -25 3 -25 49 0 67 -7
81 -41 81 -18 0 -32 7 -39 21 -24 44 -48 59 -97 59 -27 0 -57 -7 -67 -15 -13
-10 -43 -15 -87 -15 -37 0 -71 -5 -74 -10 -3 -6 -37 -10 -74 -10 -42 0 -80 -6
-97 -15 -16 -8 -48 -15 -70 -15 -23 0 -55 -7 -70 -15 -17 -8 -56 -15 -91 -15
-34 0 -65 -5 -68 -10 -3 -6 -33 -10 -65 -10 -32 0 -62 -4 -65 -10 -3 -5 -19
-10 -34 -10 -32 0 -81 -38 -81 -62 0 -9 -7 -18 -15 -22 -8 -3 -15 -14 -15 -24
0 -11 -11 -31 -25 -46 -14 -15 -25 -33 -25 -40 0 -8 -7 -16 -15 -20 -8 -3 -15
-12 -15 -19 0 -17 -30 -78 -46 -95 -8 -7 -40 -12 -81 -12 -64 0 -70 -2 -105
-35 -21 -18 -38 -39 -38 -45 0 -14 -114 -130 -128 -130 -5 0 -23 -7 -38 -15
-17 -8 -56 -15 -91 -15 -34 0 -65 -5 -68 -10 -3 -6 -37 -10 -75 -10 -48 0 -73
-5 -84 -15 -10 -10 -36 -15 -83 -15 -38 0 -73 -4 -79 -10 -5 -5 -117 -10 -269
-11 -143 0 -285 -6 -315 -11 -74 -13 -137 -13 -185 0 -22 6 -100 12 -172 12
-82 0 -133 4 -133 10 0 6 -36 10 -89 10 -66 0 -92 4 -101 15 -10 11 -36 15
-111 15 -54 0 -101 4 -104 10 -3 5 -41 10 -83 10 -49 0 -88 6 -106 15 -18 10
-57 15 -106 15 -57 0 -81 4 -90 15 -8 10 -31 15 -71 15 -33 0 -59 3 -59 8 0 4
-13 16 -29 26 -33 23 -65 71 -56 86 4 7 444 10 1281 10 950 0 1281 3 1297 12
31 16 87 70 87 84 0 6 20 31 45 56 25 25 45 51 45 58 0 7 18 30 40 51 22 22
40 46 40 54 0 8 5 15 10 15 6 0 10 7 10 15 0 8 5 15 10 15 16 0 50 38 50 56 0
15 23 44 35 44 12 0 44 45 45 63 0 9 6 17 13 17 6 0 21 14 32 30 11 16 23 30
28 30 4 0 7 6 7 14 0 8 14 30 30 48 37 40 40 85 7 116 -20 19 -35 22 -100 22
-42 0 -77 4 -77 9 0 6 14 18 30 28 17 9 30 23 30 29 0 7 7 14 15 18 8 3 15 12
15 21 0 9 18 33 40 54 22 21 40 44 40 51 0 7 18 30 40 51 22 21 40 44 40 51 1
7 21 33 45 58 25 25 45 50 45 57 0 6 18 28 40 49 22 21 40 45 40 54 0 8 11 24
25 34 21 16 25 27 25 71 0 76 -15 86 -142 92 -63 3 -132 0 -178 -8 -41 -7
-178 -15 -304 -18 -214 -6 -230 -7 -240 -26 -6 -10 -21 -28 -33 -38 -13 -10
-23 -26 -23 -36 0 -10 -13 -28 -30 -41 -16 -13 -30 -30 -30 -39 0 -9 -14 -31
-30 -50 -17 -18 -30 -37 -30 -40 0 -4 -14 -21 -30 -40 -26 -27 -33 -31 -46
-20 -8 6 -33 14 -56 16 -22 2 -50 10 -62 17 -11 7 -39 14 -61 15 -22 1 -41 6
-43 11 -2 6 -26 10 -53 10 -27 0 -49 5 -49 10 0 6 -22 10 -49 10 -31 0 -53 5
-61 15 -7 9 -29 15 -55 15 -26 0 -48 6 -55 15 -8 10 -30 15 -61 15 -27 0 -49
4 -49 9 0 5 -13 12 -30 16 l-30 7 0 148 c0 142 1 148 21 153 12 3 210 6 441 7
251 0 428 5 439 10 10 6 179 10 418 10 339 0 401 2 401 14 0 8 6 16 13 19 9 3
12 50 12 190 0 174 -1 187 -20 201 -17 13 -77 15 -402 16 -211 0 -404 4 -430
10 -84 17 -121 19 -510 19 l-383 1 0 155 0 155 33 0 c17 0 41 7 51 15 11 8 39
15 62 15 24 0 46 5 49 10 3 6 23 10 44 10 20 0 46 7 57 15 10 8 38 15 61 15
23 0 45 5 48 10 3 6 26 10 50 10 25 0 50 6 59 15 8 9 33 15 59 15 27 0 49 6
57 15 7 8 28 15 46 15 19 0 34 5 34 10 0 6 6 10 12 10 17 0 108 -99 108 -117
0 -7 5 -13 10 -13 6 0 10 -5 10 -11 0 -6 14 -28 30 -49 17 -21 30 -42 30 -47
0 -6 20 -28 44 -51 l45 -42 213 0 c175 0 217 -3 235 -15 18 -13 54 -15 200
-13 l178 3 3 65 c3 64 2 66 -38 108 -22 24 -40 48 -40 54 0 6 -20 30 -45 55
-25 24 -45 49 -45 54 0 6 -18 27 -40 48 -22 20 -40 43 -40 51 0 7 -18 31 -40
52 -22 22 -40 45 -40 52 0 15 -55 76 -69 76 -6 0 -11 9 -11 20 0 21 -33 60
-50 60 -11 0 -14 20 -2 21 4 0 40 2 81 3 63 3 77 7 93 26 10 12 18 33 18 47 0
27 -29 83 -43 83 -13 0 -37 27 -37 43 0 18 -34 57 -49 57 -6 0 -11 7 -11 15 0
8 -4 15 -9 15 -5 0 -13 10 -16 21 -4 12 -25 39 -46 59 -22 20 -39 43 -39 51 0
8 -18 30 -40 49 -22 19 -40 41 -40 48 0 7 -18 32 -40 54 -22 23 -40 47 -40 55
0 7 -7 16 -15 19 -8 4 -15 12 -15 18 0 7 -11 19 -25 26 -15 8 -25 22 -25 34 0
25 -32 56 -59 56 -10 0 -21 7 -25 15 -5 13 -155 15 -1268 15 -695 0 -1269 4
-1277 9 -9 6 -10 11 -2 15 6 4 11 14 11 23 0 9 16 31 36 49 33 32 40 34 103
34 38 0 72 5 79 12 6 6 51 14 99 16 49 2 92 8 97 13 6 5 47 9 92 9 60 0 85 4
94 15 9 11 35 15 101 15 53 0 89 4 89 10 0 6 37 10 90 10 58 0 104 5 127 15
26 11 74 15 178 15 118 0 144 3 149 15 3 9 18 15 39 15 19 0 40 -7 47 -15 11
-13 56 -15 289 -15 172 0 291 -5 316 -12 22 -6 72 -13 110 -15 39 -3 74 -9 80
-14 5 -5 41 -9 80 -9 46 -1 77 -6 89 -15 13 -10 43 -15 82 -15 35 0 66 -4 69
-10 3 -5 24 -10 46 -10 33 0 39 -3 39 -21 0 -13 23 -44 55 -76 30 -30 55 -60
55 -67 0 -29 40 -46 109 -46 65 0 69 -2 99 -35 18 -19 32 -41 32 -49 0 -7 7
-16 15 -20 8 -3 15 -14 15 -24 0 -11 7 -25 15 -32 8 -7 15 -21 15 -31 0 -11 4
-19 9 -19 5 0 12 -11 15 -25 4 -14 11 -25 16 -25 6 0 10 -8 10 -18 0 -27 42
-62 74 -62 15 0 34 -7 42 -15 10 -10 35 -15 75 -15 33 0 59 -4 59 -10 0 -6 31
-10 73 -10 40 0 78 -5 83 -10 6 -6 42 -13 80 -16 38 -3 78 -9 89 -14 11 -5 44
-11 74 -14 30 -3 59 -10 65 -16 5 -5 43 -10 83 -10 42 0 73 -4 73 -10 0 -6 28
-10 63 -10 65 0 107 21 107 55 0 9 13 15 38 17 l37 3 3 62 c3 55 5 62 25 65
19 3 22 10 25 61 3 52 0 60 -22 78 -15 11 -26 29 -26 40 0 11 -7 22 -15 25 -8
4 -15 14 -15 23 0 9 -14 31 -30 50 -17 18 -30 40 -30 47 0 8 -4 14 -9 14 -5 0
-13 10 -17 22 -3 12 -17 33 -30 47 -13 14 -24 29 -24 33 0 4 -11 19 -25 34
-14 15 -25 33 -25 41 0 27 -73 83 -107 83 -18 0 -33 5 -33 10 0 6 -9 10 -20
10 -25 0 -73 47 -95 94 -9 20 -24 36 -31 36 -8 0 -14 10 -14 25 0 14 -7 28
-15 31 -8 4 -15 14 -15 24 0 9 -11 26 -25 36 -14 10 -25 26 -25 34 -1 19 -34
60 -49 60 -6 0 -11 5 -11 10 0 6 -15 10 -34 10 -18 0 -39 7 -46 15 -9 11 -33
15 -89 15 -52 0 -83 5 -97 15 -12 9 -44 14 -91 15 -42 0 -73 4 -73 10 0 6 -33
10 -80 10 -62 0 -82 3 -86 15 -5 11 -23 15 -78 15 -40 0 -76 4 -82 10 -5 5
-50 12 -99 15 -49 3 -94 10 -99 15 -6 6 -42 10 -82 10 -51 0 -75 4 -84 15 -9
11 -33 15 -86 15 -43 0 -74 4 -74 10 0 6 -31 10 -74 10 -53 0 -77 4 -86 15 -9
11 -32 15 -80 15 -41 0 -79 6 -96 15 -17 9 -56 15 -91 15 -35 0 -63 4 -63 10
0 6 -33 10 -79 10 -44 0 -81 4 -83 9 -1 5 -37 12 -78 15 -41 4 -79 11 -84 16
-6 6 -27 10 -49 10 -26 0 -49 8 -71 25 -29 22 -43 25 -112 25 -44 0 -85 -5
-90 -10z m-371 -447 c-7 -2 -19 -2 -25 0 -7 3 -2 5 12 5 14 0 19 -2 13 -5z
m352 -3 c-28 -12 -37 -12 -30 0 3 6 16 10 28 9 21 0 21 -1 2 -9z m-467 -7
c-10 -2 -26 -2 -35 0 -10 3 -2 5 17 5 19 0 27 -2 18 -5z m-448 -27 c0 -2 -9
-6 -20 -9 -11 -3 -20 -1 -20 4 0 5 9 9 20 9 11 0 20 -2 20 -4z m167 -22 c-3
-3 -12 -4 -19 -1 -8 3 -5 6 6 6 11 1 17 -2 13 -5z m826 -131 c-7 -2 -19 -2
-25 0 -7 3 -2 5 12 5 14 0 19 -2 13 -5z m42 -23 c-28 -12 -135 -12 -135 0 0 6
32 10 78 9 52 0 71 -3 57 -9z m-5375 -94 c0 -39 -6 -30 -13 19 -4 27 -3 35 3
25 5 -8 10 -28 10 -44z m-528 4 c-2 -22 -6 -40 -8 -40 -2 0 -4 18 -4 40 0 22
3 40 8 40 4 0 6 -18 4 -40z m38 -57 c0 -26 -2 -44 -4 -42 -8 9 -13 98 -5 93 5
-3 9 -26 9 -51z m467 20 c-3 -10 -5 -4 -5 12 0 17 2 24 5 18 2 -7 2 -21 0 -30z
m520 -5 c-3 -7 -5 -2 -5 12 0 14 2 19 5 13 2 -7 2 -19 0 -25z m3031 8 c2 -10
-13 -33 -37 -55 -23 -21 -41 -45 -41 -53 0 -8 -13 -25 -29 -37 -16 -13 -37
-38 -46 -57 -19 -40 -35 -44 -35 -10 0 14 11 33 25 44 14 11 25 28 25 37 0 9
11 26 25 37 14 11 25 27 25 35 0 19 60 82 75 78 6 -1 12 -9 13 -19z m3593 -18
c15 -28 5 -21 -21 15 -15 20 -17 27 -6 18 9 -8 22 -23 27 -33z m-6584 -46 l-4
-37 -1 42 c-1 23 -6 45 -12 48 -5 3 -10 11 -10 18 0 6 7 1 16 -11 9 -14 14
-36 11 -60z m-515 30 c3 -9 2 -26 -2 -37 -5 -15 -8 -9 -11 22 -4 41 4 50 13
15z m-545 -14 c-3 -8 -6 -5 -6 6 -1 11 2 17 5 13 3 -3 4 -12 1 -19z m1030 -10
c-3 -8 -6 -5 -6 6 -1 11 2 17 5 13 3 -3 4 -12 1 -19z m7009 -20 c4 -6 3 -8 -4
-4 -5 3 -13 0 -15 -6 -3 -8 -6 -6 -6 5 -1 19 14 23 25 5z m-7519 -30 c-3 -8
-6 -5 -6 6 -1 11 2 17 5 13 3 -3 4 -12 1 -19z m-510 -20 c-3 -7 -5 -2 -5 12 0
14 2 19 5 13 2 -7 2 -19 0 -25z m40 0 c-3 -7 -5 -2 -5 12 0 14 2 19 5 13 2 -7
2 -19 0 -25z m990 10 c-3 -8 -6 -5 -6 6 -1 11 2 17 5 13 3 -3 4 -12 1 -19z
m6657 6 c3 -8 2 -12 -4 -9 -6 3 -10 10 -10 16 0 14 7 11 14 -7z m-6606 -64
c-2 -7 -10 1 -17 16 -12 27 -11 28 4 12 10 -9 16 -21 13 -28z m6637 10 c9 -16
13 -30 11 -30 -3 0 -12 14 -21 30 -9 17 -13 30 -11 30 3 0 12 -13 21 -30z
m345 5 c15 9 22 -14 10 -32 -9 -15 -10 -14 -4 7 3 14 3 22 -1 18 -10 -9 -35
10 -35 26 0 6 5 3 11 -7 6 -9 14 -15 19 -12z m-7543 -17 c-3 -7 -5 -2 -5 12 0
14 2 19 5 13 2 -7 2 -19 0 -25z m46 3 c2 -10 1 -24 -3 -31 -5 -7 -9 2 -12 23
-4 37 6 42 15 8z m474 -3 c-3 -8 -6 -5 -6 6 -1 11 2 17 5 13 3 -3 4 -12 1 -19z
m-1030 -10 c-3 -8 -6 -5 -6 6 -1 11 2 17 5 13 3 -3 4 -12 1 -19z m8094 -25
c13 -16 12 -17 -3 -4 -10 7 -18 15 -18 17 0 8 8 3 21 -13z m-8084 -25 c-3 -8
-6 -5 -6 6 -1 11 2 17 5 13 3 -3 4 -12 1 -19z m510 0 c-3 -8 -6 -5 -6 6 -1 11
2 17 5 13 3 -3 4 -12 1 -19z m7233 -13 c14 -19 14 -19 -2 -6 -10 7 -18 18 -18
24 0 6 1 8 3 6 1 -2 9 -13 17 -24z m350 5 c5 9 9 8 13 -3 3 -8 0 -14 -6 -13
-20 3 -37 17 -37 29 0 7 5 4 11 -7 8 -13 13 -15 19 -6z m-7053 -22 c-3 -8 -6
-5 -6 6 -1 11 2 17 5 13 3 -3 4 -12 1 -19z m-990 -25 c-3 -10 -5 -4 -5 12 0
17 2 24 5 18 2 -7 2 -21 0 -30z m470 15 c-3 -8 -6 -5 -6 6 -1 11 2 17 5 13 3
-3 4 -12 1 -19z m52 -32 c-1 -17 -2 -16 -9 6 -4 14 -11 32 -15 40 -3 7 1 4 9
-6 9 -11 16 -29 15 -40z m498 12 c-3 -7 -5 -2 -5 12 0 14 2 19 5 13 2 -7 2
-19 0 -25z m6713 -18 c11 -22 18 -40 15 -40 -2 0 -14 18 -25 40 -11 22 -18 40
-15 40 2 0 14 -18 25 -40z m360 -2 c0 -5 -5 -8 -11 -8 -5 0 -7 5 -4 10 3 6 -1
10 -9 10 -10 0 -13 6 -10 15 6 14 8 13 20 -2 7 -10 14 -21 14 -25z m-8133 10
c-3 -8 -6 -5 -6 6 -1 11 2 17 5 13 3 -3 4 -12 1 -19z m66 -39 c-4 -4 -21 -5
-38 -1 -30 6 -30 6 -5 12 29 8 55 1 43 -11z m7745 -44 c-3 -3 -9 2 -12 12 -6
14 -5 15 5 6 7 -7 10 -15 7 -18z m-4978 -354 c25 -8 322 -11 1057 -11 704 0
1029 -3 1045 -11 13 -6 31 -21 40 -34 l18 -23 -77 -7 c-91 -9 -489 1 -506 12
-7 4 -390 11 -852 16 -1332 12 -1855 21 -1858 32 -1 6 108 12 303 16 168 3
323 11 345 16 53 14 439 9 485 -6z m-1907 -78 c-29 -2 -77 -2 -105 0 -29 2 -6
3 52 3 58 0 81 -1 53 -3z m-450 -39 c-62 -30 -107 -78 -99 -107 3 -13 2 -17
-5 -10 -17 17 1 61 34 86 42 32 89 56 107 56 8 0 -8 -11 -37 -25z m-2433 -203
c0 -5 -8 -15 -17 -22 -16 -13 -17 -12 -5 3 10 13 10 17 0 21 -8 4 -7 6 5 6 9
1 17 -3 17 -8z m-213 -27 c-3 -3 -12 -4 -19 -1 -8 3 -5 6 6 6 11 1 17 -2 13
-5z m-74 -21 c-7 -2 -19 -2 -25 0 -7 3 -2 5 12 5 14 0 19 -2 13 -5z m224 1
c-3 -3 -12 -4 -19 -1 -8 3 -5 6 6 6 11 1 17 -2 13 -5z m-290 -10 c-3 -3 -12
-4 -19 -1 -8 3 -5 6 6 6 11 1 17 -2 13 -5z m-80 -20 c-3 -3 -12 -4 -19 -1 -8
3 -5 6 6 6 11 1 17 -2 13 -5z m-130 -30 c-3 -3 -12 -4 -19 -1 -8 3 -5 6 6 6
11 1 17 -2 13 -5z m-70 -20 c-3 -3 -12 -4 -19 -1 -8 3 -5 6 6 6 11 1 17 -2 13
-5z m283 2 c0 -2 -8 -10 -17 -17 -16 -13 -17 -12 -4 4 13 16 21 21 21 13z m43
-3 c-7 -2 -19 -2 -25 0 -7 3 -2 5 12 5 14 0 19 -2 13 -5z m63 -31 c-15 -15
-15 -15 -4 10 7 15 15 23 17 17 2 -6 -4 -18 -13 -27z m-501 8 c4 -6 -7 -10
-27 -9 -31 1 -32 1 -8 9 14 4 26 8 27 9 1 1 5 -3 8 -9z m-105 -34 c0 -2 -7 -7
-16 -10 -8 -3 -12 -2 -9 4 6 10 25 14 25 6z m383 -13 c-7 -2 -19 -2 -25 0 -7
3 -2 5 12 5 14 0 19 -2 13 -5z m-430 -10 c-7 -2 -19 -2 -25 0 -7 3 -2 5 12 5
14 0 19 -2 13 -5z m300 -20 c-7 -2 -13 -11 -13 -18 0 -8 -5 -17 -12 -21 -6 -4
-9 -3 -6 2 3 5 8 17 11 27 4 9 12 17 19 16 10 0 10 -2 1 -6z m-393 -7 c0 -2
-7 -7 -16 -10 -8 -3 -12 -2 -9 4 6 10 25 14 25 6z m270 -20 c0 -2 -9 -6 -20
-9 -11 -3 -18 -1 -14 4 5 9 34 13 34 5z m80 -10 c0 -2 -15 -6 -34 -8 -19 -2
-32 0 -30 4 5 8 64 12 64 4z m-134 -31 c-8 -8 -23 -15 -33 -15 -14 0 -13 3 7
14 34 19 45 19 26 1z m-379 -52 c-3 -10 -5 -4 -5 12 0 17 2 24 5 18 2 -7 2
-21 0 -30z m1638 -23 c5 -8 11 -7 21 1 8 6 16 10 19 8 2 -3 -4 -10 -13 -16
-14 -8 -23 -7 -37 3 -10 8 -14 14 -8 14 7 0 15 -5 18 -10z m-148 -6 c-3 -3
-12 -4 -19 -1 -8 3 -5 6 6 6 11 1 17 -2 13 -5z m-1480 -26 c-3 -8 -6 -5 -6 6
-1 11 2 17 5 13 3 -3 4 -12 1 -19z m120 16 c-3 -3 -12 -4 -19 -1 -8 3 -5 6 6
6 11 1 17 -2 13 -5z m1286 -1 c-7 -2 -21 -2 -30 0 -10 3 -4 5 12 5 17 0 24 -2
18 -5z m-1343 -13 c-8 -5 -19 -10 -25 -10 -5 0 -3 5 5 10 8 5 20 10 25 10 6 0
3 -5 -5 -10z m1263 3 c-7 -2 -21 -2 -30 0 -10 3 -4 5 12 5 17 0 24 -2 18 -5z
m-80 -10 c-7 -2 -19 -2 -25 0 -7 3 -2 5 12 5 14 0 19 -2 13 -5z m-80 -10 c-7
-2 -19 -2 -25 0 -7 3 -2 5 12 5 14 0 19 -2 13 -5z m524 -25 c-3 -8 -6 -5 -6 6
-1 11 2 17 5 13 3 -3 4 -12 1 -19z m-1097 2 c-8 -5 -24 -10 -35 -10 -17 0 -17
2 -5 10 8 5 24 10 35 10 17 0 17 -2 5 -10z m453 3 c-7 -2 -21 -2 -30 0 -10 3
-4 5 12 5 17 0 24 -2 18 -5z m1104 -310 c-1 -60 -3 -11 -3 107 0 118 2 167 3
108 2 -60 2 -156 0 -215z m-1480 215 c-2 -18 -4 -4 -4 32 0 36 2 50 4 33 2
-18 2 -48 0 -65z m290 86 c-3 -3 -12 -4 -19 -1 -8 3 -5 6 6 6 11 1 17 -2 13
-5z m-50 -10 c-3 -3 -12 -4 -19 -1 -8 3 -5 6 6 6 11 1 17 -2 13 -5z m-444 -11
c-7 -2 -21 -2 -30 0 -10 3 -4 5 12 5 17 0 24 -2 18 -5z m370 0 c-7 -2 -19 -2
-25 0 -7 3 -2 5 12 5 14 0 19 -2 13 -5z m847 3 c0 -2 -8 -10 -17 -17 -16 -13
-17 -12 -4 4 13 16 21 21 21 13z m-1283 -12 c-3 -3 -12 -4 -19 -1 -8 3 -5 6 6
6 11 1 17 -2 13 -5z m-50 -10 c-3 -3 -12 -4 -19 -1 -8 3 -5 6 6 6 11 1 17 -2
13 -5z m-74 -11 c-7 -2 -19 -2 -25 0 -7 3 -2 5 12 5 14 0 19 -2 13 -5z m484
-40 c-3 -10 -5 -2 -5 17 0 19 2 27 5 18 2 -10 2 -26 0 -35z m911 12 c-3 -3 -9
2 -12 12 -6 14 -5 15 5 6 7 -7 10 -15 7 -18z m-1501 9 c-3 -3 -12 -4 -19 -1
-8 3 -5 6 6 6 11 1 17 -2 13 -5z m-147 -24 c0 -5 -10 -10 -22 -10 -19 0 -20 2
-8 10 19 13 30 13 30 0z m1627 -47 c-3 -10 -5 -4 -5 12 0 17 2 24 5 18 2 -7 2
-21 0 -30z m-1728 23 c-2 -2 -26 -6 -54 -9 -32 -4 -43 -3 -30 3 19 8 93 14 84
6z m-184 -25 c-14 -12 -85 -22 -85 -11 0 5 17 11 38 13 20 2 41 4 47 5 6 1 6
-1 0 -7z m72 3 c-3 -3 -12 -4 -19 -1 -8 3 -5 6 6 6 11 1 17 -2 13 -5z m-185
-32 c-8 -2 -13 -31 -14 -80 l-2 -77 -3 65 c-5 76 3 114 19 104 9 -6 9 -9 0
-12z m1179 -25 l39 -4 -42 1 c-36 1 -43 4 -44 21 -1 14 0 15 3 3 3 -11 17 -18
44 -21z m776 37 c-3 -3 -12 -4 -19 -1 -8 3 -5 6 6 6 11 1 17 -2 13 -5z m-50
-10 c-3 -3 -12 -4 -19 -1 -8 3 -5 6 6 6 11 1 17 -2 13 -5z m866 -1 c-7 -2 -19
-2 -25 0 -7 3 -2 5 12 5 14 0 19 -2 13 -5z m-975 -10 c-38 -2 -98 -2 -135 0
-38 2 -7 3 67 3 74 0 105 -1 68 -3z m-401 -10 c-20 -2 -52 -2 -70 0 -17 2 0 4
38 4 39 0 53 -2 32 -4z m-364 -14 c-12 -12 -123 -16 -228 -9 -40 3 -11 6 85
10 80 3 147 7 150 8 2 1 -1 -3 -7 -9z m6515 4 c-10 -2 -26 -2 -35 0 -10 3 -2
5 17 5 19 0 27 -2 18 -5z m-4657 -20 c13 -16 12 -17 -3 -4 -17 13 -22 21 -14
21 2 0 10 -8 17 -17z m2246 -20 c-3 -10 -5 -4 -5 12 0 17 2 24 5 18 2 -7 2
-21 0 -30z m-4529 20 c-10 -2 -28 -2 -40 0 -13 2 -5 4 17 4 22 1 32 -1 23 -4z
m-103 -13 c-28 -12 -47 -12 -40 0 3 6 18 10 33 9 24 0 25 -1 7 -9z m1092 -46
c-3 -3 -12 -4 -19 -1 -8 3 -5 6 6 6 11 1 17 -2 13 -5z m141 -28 c3 -3 -37 -5
-89 -5 -64 1 -81 4 -54 8 46 7 134 5 143 -3z m1004 -43 c8 -10 5 -13 -12 -13
-16 0 -20 4 -16 16 3 9 7 23 7 32 1 13 3 12 6 -3 3 -11 10 -26 15 -32z m111
32 c-3 -9 -8 -14 -10 -11 -3 3 -2 9 2 15 9 16 15 13 8 -4z m-2504 -20 c-9 -10
-19 -11 -29 -5 -12 8 -11 10 8 10 12 0 22 5 22 12 0 6 3 8 7 4 4 -3 0 -13 -8
-21z m68 -17 c-3 -8 -6 -5 -6 6 -1 11 2 17 5 13 3 -3 4 -12 1 -19z m-140 6
c-3 -3 -12 -4 -19 -1 -8 3 -5 6 6 6 11 1 17 -2 13 -5z m2558 -4 c-3 -5 -14
-10 -23 -9 -14 0 -13 2 3 9 27 11 27 11 20 0z m-2795 -10 c12 -8 12 -10 -5
-10 -11 0 -27 5 -35 10 -12 8 -12 10 5 10 11 0 27 -5 35 -10z m138 3 c-15 -2
-42 -2 -60 0 -18 2 -6 4 27 4 33 0 48 -2 33 -4z m2970 -20 c-16 -2 -40 -2 -55
0 -16 2 -3 4 27 4 30 0 43 -2 28 -4z m177 -23 c-3 -5 -12 -10 -18 -10 -7 0 -6
4 3 10 19 12 23 12 15 0z m4603 3 c-10 -2 -26 -2 -35 0 -10 3 -2 5 17 5 19 0
27 -2 18 -5z m-873 -9 c-46 -7 -125 -8 -125 -1 0 4 33 6 73 6 39 -1 63 -3 52
-5z m1058 -1 c-24 -2 -62 -2 -85 0 -24 2 -5 4 42 4 47 0 66 -2 43 -4z m-4856
-9 c-3 -3 -12 -4 -19 -1 -8 3 -5 6 6 6 11 1 17 -2 13 -5z m3870 0 c-3 -3 -12
-4 -19 -1 -8 3 -5 6 6 6 11 1 17 -2 13 -5z m-3927 -14 c-8 -5 -24 -9 -35 -9
-16 1 -16 2 5 9 35 11 48 11 30 0z m4003 3 c-7 -2 -19 -2 -25 0 -7 3 -2 5 12
5 14 0 19 -2 13 -5z m64 -9 c-3 -3 -12 -4 -19 -1 -8 3 -5 6 6 6 11 1 17 -2 13
-5z m-4137 -8 c0 -2 -7 -7 -16 -10 -8 -3 -12 -2 -9 4 6 10 25 14 25 6z m4197
-2 c-3 -3 -12 -4 -19 -1 -8 3 -5 6 6 6 11 1 17 -2 13 -5z m101 -11 c-10 -2
-28 -2 -40 0 -13 2 -5 4 17 4 22 1 32 -1 23 -4z m115 -20 c-7 -2 -19 -2 -25 0
-7 3 -2 5 12 5 14 0 19 -2 13 -5z m70 -10 c-7 -2 -19 -2 -25 0 -7 3 -2 5 12 5
14 0 19 -2 13 -5z m-4626 -255 c-1 -46 -3 -9 -3 82 0 91 2 128 3 83 2 -46 2
-120 0 -165z m86 227 c-3 -9 -8 -14 -10 -11 -3 3 -2 9 2 15 9 16 15 13 8 -4z
m5075 8 c-76 -2 -200 -2 -275 0 -76 1 -14 3 137 3 151 0 213 -2 138 -3z
m-4923 -21 c-3 -3 -11 0 -18 7 -9 10 -8 11 6 5 10 -3 15 -9 12 -12z m73 11
c-10 -2 -26 -2 -35 0 -10 3 -2 5 17 5 19 0 27 -2 18 -5z m422 0 c0 -5 -46 -7
-102 -5 -187 4 -205 8 -50 10 83 1 152 -1 152 -5z m5417 1 c-3 -3 -12 -4 -19
-1 -8 3 -5 6 6 6 11 1 17 -2 13 -5z m40 0 c-3 -3 -12 -4 -19 -1 -8 3 -5 6 6 6
11 1 17 -2 13 -5z m266 -1 c-45 -2 -122 -2 -170 0 -48 1 -11 3 82 3 94 0 133
-2 88 -3z m-4250 -10 c-266 -2 -700 -2 -965 0 -266 1 -49 2 482 2 531 0 748
-1 483 -2z m1581 -1 c3 -5 -8 -6 -25 -4 -16 2 -29 6 -29 8 0 8 49 4 54 -4z
m2909 1 c-7 -2 -21 -2 -30 0 -10 3 -4 5 12 5 17 0 24 -2 18 -5z m-3035 -10
c-10 -2 -28 -2 -40 0 -13 2 -5 4 17 4 22 1 32 -1 23 -4z m3098 -39 c1 -37 1
-38 -3 -4 -3 19 -10 39 -16 43 -8 6 -7 7 3 4 10 -2 15 -17 16 -43z m-6689 -21
c-3 -10 -5 -2 -5 17 0 19 2 27 5 18 2 -10 2 -26 0 -35z m3630 25 c-3 -8 -6 -5
-6 6 -1 11 2 17 5 13 3 -3 4 -12 1 -19z m0 -70 c-2 -13 -4 -5 -4 17 -1 22 1
32 4 23 2 -10 2 -28 0 -40z m-3630 -85 c-3 -10 -5 -4 -5 12 0 17 2 24 5 18 2
-7 2 -21 0 -30z m3959 -3 c-7 -46 -26 -90 -38 -90 -5 0 -2 10 6 23 8 12 18 41
22 65 4 23 9 42 12 42 2 0 2 -18 -2 -40z m2734 25 c0 -8 -4 -15 -10 -15 -5 0
-7 7 -4 15 4 8 8 15 10 15 2 0 4 -7 4 -15z m-3437 -22 c-117 -2 -309 -2 -425
0 -117 1 -22 2 212 2 234 0 329 -1 213 -2z m3390 0 c-7 -2 -19 -2 -25 0 -7 3
-2 5 12 5 14 0 19 -2 13 -5z m-5408 -13 c-38 -4 -254 -7 -480 -7 -225 0 -387
3 -360 7 28 3 244 6 480 7 245 0 400 -3 360 -7z m5323 3 c-10 -2 -28 -2 -40 0
-13 2 -5 4 17 4 22 1 32 -1 23 -4z m-1070 -10 c-104 -2 -272 -2 -375 0 -104 1
-19 2 187 2 206 0 291 -1 188 -2z m-845 -10 c-7 -2 -21 -2 -30 0 -10 3 -4 5
12 5 17 0 24 -2 18 -5z m-4618 -23 c10 -11 16 -20 13 -20 -3 0 -13 9 -23 20
-10 11 -16 20 -13 20 3 0 13 -9 23 -20z m4562 14 c-3 -3 -12 -4 -19 -1 -8 3
-5 6 6 6 11 1 17 -2 13 -5z m-84 -11 c-7 -2 -19 -2 -25 0 -7 3 -2 5 12 5 14 0
19 -2 13 -5z m-66 -9 c-3 -3 -12 -4 -19 -1 -8 3 -5 6 6 6 11 1 17 -2 13 -5z
m-54 -11 c-7 -2 -19 -2 -25 0 -7 3 -2 5 12 5 14 0 19 -2 13 -5z m-80 -10 c-7
-2 -19 -2 -25 0 -7 3 -2 5 12 5 14 0 19 -2 13 -5z m-4169 -11 c2 -4 -11 -6
-30 -4 -19 2 -34 6 -34 8 0 8 59 4 64 -4z m4103 2 c-3 -3 -12 -4 -19 -1 -8 3
-5 6 6 6 11 1 17 -2 13 -5z m-64 -11 c-7 -2 -19 -2 -25 0 -7 3 -2 5 12 5 14 0
19 -2 13 -5z m-4706 -256 c-1 -45 -3 -5 -3 88 0 94 2 130 3 82 2 -48 2 -125 0
-170z m1316 246 c-95 -2 -251 -2 -345 0 -95 1 -18 3 172 3 190 0 267 -2 173
-3z m3015 0 c-27 -2 -69 -2 -95 0 -27 2 -5 3 47 3 52 0 74 -1 48 -3z m107 -3
c3 -5 -1 -10 -10 -10 -9 0 -13 5 -10 10 3 6 8 10 10 10 2 0 7 -4 10 -10z m182
4 c-3 -3 -12 -4 -19 -1 -8 3 -5 6 6 6 11 1 17 -2 13 -5z m-3847 -14 c18 -12 2
-12 -25 0 -13 6 -15 9 -5 9 8 0 22 -4 30 -9z m-72 -27 c-10 -2 -26 -2 -35 0
-10 3 -2 5 17 5 19 0 27 -2 18 -5z m-3240 -105 l-2 -93 -5 85 c-3 47 -5 88 -3
93 9 21 12 -2 10 -85z m282 82 c10 -6 -24 -8 -100 -4 -63 4 -117 8 -119 10
-10 9 205 3 219 -6z m2561 -7 c13 -16 12 -17 -3 -4 -11 8 -34 12 -57 9 -22 -2
-37 0 -35 4 10 16 81 8 95 -9z m-2432 -63 c29 -40 22 -38 -20 6 -18 19 -27 32
-18 29 9 -3 26 -19 38 -35z m2329 -55 c-1 -19 -5 -32 -9 -27 -7 7 -1 62 7 62
3 0 4 -16 2 -35z m-2213 6 c30 -1 36 -4 25 -11 -16 -10 -79 -3 -94 11 -5 4 0
6 10 4 11 -2 37 -4 59 -4z m6954 -36 c0 -5 -4 -3 -9 5 -5 8 -9 22 -9 30 0 16
17 -16 18 -35z m25 9 c3 -8 2 -12 -4 -9 -6 3 -10 10 -10 16 0 14 7 11 14 -7z
m-6781 -1 c-24 -2 -62 -2 -85 0 -24 2 -5 4 42 4 47 0 66 -2 43 -4z m333 -12
c-3 -4 -20 -5 -38 -2 l-33 5 30 6 c32 7 48 3 41 -9z m4129 9 c3 -5 -1 -10 -10
-10 -9 0 -13 5 -10 10 3 6 8 10 10 10 2 0 7 -4 10 -10z m-3967 -7 c-10 -2 -26
-2 -35 0 -10 3 -2 5 17 5 19 0 27 -2 18 -5z m-71 -65 c-2 -13 -4 -3 -4 22 0
25 2 35 4 23 2 -13 2 -33 0 -45z m181 55 c-16 -2 -40 -2 -55 0 -16 2 -3 4 27
4 30 0 43 -2 28 -4z m1525 0 c-7 -2 -21 -2 -30 0 -10 3 -4 5 12 5 17 0 24 -2
18 -5z m-1315 -10 c-21 -2 -55 -2 -75 0 -21 2 -4 4 37 4 41 0 58 -2 38 -4z
m350 -10 c-16 -2 -40 -2 -55 0 -16 2 -3 4 27 4 30 0 43 -2 28 -4z m69 -9 c-3
-3 -12 -4 -19 -1 -8 3 -5 6 6 6 11 1 17 -2 13 -5z m-1870 -10 c-3 -3 -12 -4
-19 -1 -8 3 -5 6 6 6 11 1 17 -2 13 -5z m76 -11 c-7 -2 -19 -2 -25 0 -7 3 -2
5 12 5 14 0 19 -2 13 -5z m100 -20 c-7 -2 -21 -2 -30 0 -10 3 -4 5 12 5 17 0
24 -2 18 -5z m1802 -20 c-11 -3 -27 -10 -35 -17 -13 -10 -13 -9 -1 7 7 9 23
16 35 16 20 -1 20 -2 1 -6z m-1632 -10 c-7 -2 -19 -2 -25 0 -7 3 -2 5 12 5 14
0 19 -2 13 -5z m719 -27 c2 -19 0 -32 -4 -30 -8 5 -12 64 -4 64 2 0 6 -15 8
-34z m-629 7 c-7 -2 -19 -2 -25 0 -7 3 -2 5 12 5 14 0 19 -2 13 -5z m534 -45
c-2 -13 -4 -5 -4 17 -1 22 1 32 4 23 2 -10 2 -28 0 -40z m-464 35 c-7 -2 -19
-2 -25 0 -7 3 -2 5 12 5 14 0 19 -2 13 -5z m122 -18 c6 -2 -13 -4 -42 -4 -28
-1 -54 3 -57 8 -5 8 74 5 99 -4z m1808 -42 c4 -19 2 -33 -3 -33 -6 0 -10 17
-10 37 0 43 5 41 13 -4z m-1710 20 c-7 -2 -19 -2 -25 0 -7 3 -2 5 12 5 14 0
19 -2 13 -5z m390 0 c-7 -2 -19 -2 -25 0 -7 3 -2 5 12 5 14 0 19 -2 13 -5z
m70 -10 c-7 -2 -19 -2 -25 0 -7 3 -2 5 12 5 14 0 19 -2 13 -5z m-264 -19 c10
-9 -65 -3 -78 5 -10 6 1 8 30 4 24 -3 46 -7 48 -9z m399 -1 c-10 -2 -28 -2
-40 0 -13 2 -5 4 17 4 22 1 32 -1 23 -4z m681 -37 c-3 -3 -11 5 -18 17 -13 21
-12 21 5 5 10 -10 16 -20 13 -22z m-562 18 c-3 -3 -12 -4 -19 -1 -8 3 -5 6 6
6 11 1 17 -2 13 -5z m86 -11 c-7 -2 -21 -2 -30 0 -10 3 -4 5 12 5 17 0 24 -2
18 -5z m-1226 -25 c-3 -8 -6 -5 -6 6 -1 11 2 17 5 13 3 -3 4 -12 1 -19z m1286
15 c-7 -2 -19 -2 -25 0 -7 3 -2 5 12 5 14 0 19 -2 13 -5z m90 -10 c-7 -2 -21
-2 -30 0 -10 3 -4 5 12 5 17 0 24 -2 18 -5z m80 -10 c-7 -2 -19 -2 -25 0 -7 3
-2 5 12 5 14 0 19 -2 13 -5z m64 -9 c-3 -3 -12 -4 -19 -1 -8 3 -5 6 6 6 11 1
17 -2 13 -5z m141 -11 c-21 -2 -55 -2 -75 0 -21 2 -4 4 37 4 41 0 58 -2 38 -4z
m-1307 -60 c12 -16 12 -17 -1 -7 -8 6 -22 14 -30 17 -13 5 -12 6 1 6 9 1 23
-7 30 -16z m-335 -20 c-7 -7 -26 7 -26 19 0 6 6 6 15 -2 9 -7 13 -15 11 -17z
m287 -4 c-8 -8 -13 -7 -18 2 -5 8 -4 10 3 5 7 -4 12 -2 12 5 0 7 3 9 7 6 4 -4
2 -12 -4 -18z m-162 -34 c24 -10 28 -14 14 -14 -11 0 -29 6 -39 14 -25 19 -17
19 25 0z m312 8 c-13 -2 -33 -2 -45 0 -13 2 -3 4 22 4 25 0 35 -2 23 -4z m77
-17 c-7 -7 -13 -7 -20 0 -6 6 -3 10 10 10 13 0 16 -4 10 -10z m27 -8 c-3 -8
-6 -5 -6 6 -1 11 2 17 5 13 3 -3 4 -12 1 -19z m168 -19 c-3 -4 -12 -6 -20 -2
-10 3 -15 -1 -16 -13 -1 -16 -2 -17 -6 -2 -2 10 -17 18 -36 21 -18 2 -6 4 25
4 32 1 56 -3 53 -8z m60 -18 c3 -5 2 -12 -3 -15 -5 -3 -9 1 -9 9 0 17 3 19 12
6z m-468 -7 c-3 -3 -12 -4 -19 -1 -8 3 -5 6 6 6 11 1 17 -2 13 -5z m54 -22
c-7 -2 -18 1 -23 6 -8 8 -4 9 13 5 13 -4 18 -8 10 -11z m442 -19 c-7 -2 -19
-2 -25 0 -7 3 -2 5 12 5 14 0 19 -2 13 -5z m-336 -9 c-3 -3 -12 -4 -19 -1 -8
3 -5 6 6 6 11 1 17 -2 13 -5z m390 -26 c-3 -8 -6 -5 -6 6 -1 11 2 17 5 13 3
-3 4 -12 1 -19z m-240 -4 c-3 -3 -12 -4 -19 -1 -8 3 -5 6 6 6 11 1 17 -2 13
-5z m367 -34 c-6 -6 -10 -3 -10 10 0 13 4 16 10 10 7 -7 7 -13 0 -20z m-307
14 c-3 -3 -12 -4 -19 -1 -8 3 -5 6 6 6 11 1 17 -2 13 -5z m226 -1 c-7 -2 -21
-2 -30 0 -10 3 -4 5 12 5 17 0 24 -2 18 -5z m-70 -30 c-13 -2 -33 -2 -45 0
-13 2 -3 4 22 4 25 0 35 -2 23 -4z m230 -10 c-7 -2 -19 -2 -25 0 -7 3 -2 5 12
5 14 0 19 -2 13 -5z m2521 -248 c48 -20 46 -28 -1 -11 -65 23 -87 37 -106 62
-17 22 -15 22 27 -6 24 -17 61 -37 80 -45z m-1027 13 c-3 -8 -6 -5 -6 6 -1 11
2 17 5 13 3 -3 4 -12 1 -19z m5523 -38 c0 -27 -62 -67 -113 -74 -29 -3 -503
-6 -1054 -6 -657 0 -1004 -3 -1008 -10 -8 -14 -542 -14 -550 0 -4 6 -112 10
-291 10 -246 0 -284 2 -284 15 0 13 63 15 503 15 349 0 513 3 537 11 25 8 266
13 810 16 799 3 857 5 925 20 60 14 525 17 525 3z m-4397 -7 c-7 -2 -19 -2
-25 0 -7 3 -2 5 12 5 14 0 19 -2 13 -5z m200 -10 c-29 -2 -78 -2 -110 0 -32 2
-8 3 52 3 61 0 87 -1 58 -3z m7002 -453 c-9 -16 -18 -30 -21 -30 -2 0 2 14 11
30 9 17 18 30 21 30 2 0 -2 -13 -11 -30z m-7782 -35 c-3 -9 -8 -14 -10 -11 -3
3 -2 9 2 15 9 16 15 13 8 -4z m24 -57 c-2 -13 -4 -3 -4 22 0 25 2 35 4 23 2
-13 2 -33 0 -45z m523 24 c-1 -25 -2 -26 -15 -9 -7 11 -11 25 -8 33 8 22 23 6
23 -24z m7570 28 c0 -5 -2 -10 -4 -10 -3 0 -8 5 -11 10 -3 6 -1 10 4 10 6 0
11 -4 11 -10z m-16 -18 c3 -5 -1 -9 -9 -9 -8 0 -12 4 -9 9 3 4 7 8 9 8 2 0 6
-4 9 -8z m-8117 -59 c-3 -10 -5 -4 -5 12 0 17 2 24 5 18 2 -7 2 -21 0 -30z
m8107 25 c-4 -5 -9 -7 -12 -4 -3 3 -12 0 -21 -7 -14 -10 -14 -10 -4 4 13 16
46 23 37 7z m-388 -46 c-17 -16 -18 -16 -5 5 7 12 15 20 18 17 3 -2 -3 -12
-13 -22z m-3863 -2 c9 -11 17 -26 17 -32 0 -7 18 -29 40 -49 22 -21 40 -43 40
-51 1 -14 34 -58 45 -58 10 0 35 -28 35 -39 0 -6 -9 -11 -20 -11 -26 0 -110
79 -110 103 0 9 -7 20 -15 23 -8 4 -15 14 -15 25 0 10 -6 22 -14 26 -14 8 -46
60 -46 76 0 14 26 7 43 -13z m-3326 -12 c-3 -8 -6 -5 -6 6 -1 11 2 17 5 13 3
-3 4 -12 1 -19z m7553 18 c0 -2 -6 -9 -14 -15 -11 -9 -16 -9 -22 0 -4 7 -3 9
4 5 6 -3 13 -2 17 4 6 10 15 14 15 6z m-389 -49 c-10 -9 -11 -8 -5 6 3 10 9
15 12 12 3 -3 0 -11 -7 -18z m359 2 c0 -6 -4 -7 -10 -4 -5 3 -10 11 -10 16 0
6 5 7 10 4 6 -3 10 -11 10 -16z m-7563 -26 c-3 -10 -5 -4 -5 12 0 17 2 24 5
18 2 -7 2 -21 0 -30z m546 12 c-3 -9 -8 -14 -10 -11 -3 3 -2 9 2 15 9 16 15
13 8 -4z m-1056 -27 c-3 -7 -5 -2 -5 12 0 14 2 19 5 13 2 -7 2 -19 0 -25z
m1042 -61 c0 -21 -5 -45 -13 -52 -15 -16 -26 -10 -26 14 0 13 2 13 9 2 16 -24
24 8 18 72 -4 40 -3 51 3 32 4 -16 8 -47 9 -68z m6647 56 c-8 -16 -22 -37 -31
-48 -16 -19 -17 -19 -3 5 8 14 20 35 27 48 6 12 14 22 17 22 2 0 -2 -12 -10
-27z m-7659 -15 c-3 -7 -5 -2 -5 12 0 14 2 19 5 13 2 -7 2 -19 0 -25z m8007
16 c3 -8 2 -12 -4 -9 -6 3 -10 10 -10 16 0 14 7 11 14 -7z m-7507 -16 c-3 -8
-6 -5 -6 6 -1 11 2 17 5 13 3 -3 4 -12 1 -19z m-30 -30 c-3 -8 -6 -5 -6 6 -1
11 2 17 5 13 3 -3 4 -12 1 -19z m-510 -10 c-3 -8 -6 -5 -6 6 -1 11 2 17 5 13
3 -3 4 -12 1 -19z m1030 0 c-3 -8 -6 -5 -6 6 -1 11 2 17 5 13 3 -3 4 -12 1
-19z m6995 8 c7 4 8 2 4 -4 -11 -18 -26 -14 -25 6 0 10 3 12 6 4 2 -6 10 -9
15 -6z m-7495 -28 c-3 -8 -6 -5 -6 6 -1 11 2 17 5 13 3 -3 4 -12 1 -19z m-18
-58 c1 -13 0 -13 -9 0 -5 8 -9 26 -9 40 l1 25 8 -25 c4 -14 8 -32 9 -40z
m7141 51 c0 -5 -9 -19 -20 -32 l-20 -24 17 32 c19 34 23 39 23 24z m350 5 c0
-3 -4 -8 -10 -11 -5 -3 -10 -1 -10 4 0 6 5 11 10 11 6 0 10 -2 10 -4z m-8013
-38 c-3 -8 -6 -5 -6 6 -1 11 2 17 5 13 3 -3 4 -12 1 -19z m24 -41 c-13 -13
-15 1 -4 30 7 17 8 17 11 -1 2 -10 -1 -23 -7 -29z m1010 -33 c6 -8 5 -14 -4
-17 -9 -3 -13 6 -14 32 -1 20 1 27 4 16 3 -11 9 -25 14 -31z m6594 36 c-3 -5
-16 -15 -28 -21 -21 -10 -21 -9 2 10 25 23 36 27 26 11z m-7633 -25 c3 -14 2
-27 -1 -30 -4 -2 -8 10 -9 26 -3 36 4 38 10 4z m517 -27 c1 -5 -3 -8 -9 -8 -5
0 -10 12 -9 28 0 24 1 25 9 7 5 -11 9 -23 9 -27z m3758 -174 c-3 -3 -12 -4
-19 -1 -8 3 -5 6 6 6 11 1 17 -2 13 -5z m286 -41 c-7 -2 -19 -2 -25 0 -7 3 -2
5 12 5 14 0 19 -2 13 -5z m330 -10 c-18 -2 -48 -2 -65 0 -18 2 -4 4 32 4 36 0
50 -2 33 -4z m394 -29 c-3 -3 -12 -4 -19 -1 -8 3 -5 6 6 6 11 1 17 -2 13 -5z
m484 -12 c-7 -2 -18 1 -23 6 -8 8 -4 9 13 5 13 -4 18 -8 10 -11z m-423 1 c-10
-2 -26 -2 -35 0 -10 3 -2 5 17 5 19 0 27 -2 18 -5z m82 -3 c0 -5 -5 -10 -11
-10 -5 0 -7 5 -4 10 3 6 8 10 11 10 2 0 4 -4 4 -10z"/>
</g>
</svg>
