<?xml version="1.0" standalone="no"?>
<!DOCTYPE svg PUBLIC "-//W3C//DTD SVG 20010904//EN"
 "http://www.w3.org/TR/2001/REC-SVG-20010904/DTD/svg10.dtd">
<svg version="1.0" xmlns="http://www.w3.org/2000/svg"
 width="597.000000pt" height="1280.000000pt" viewBox="0 0 597.000000 1280.000000"
 preserveAspectRatio="xMidYMid meet">

<g transform="translate(0.000000,1280.000000) scale(0.100000,-0.100000)"
fill="#000000" stroke="none">
<path d="M2430 12626 c0 -13 -7 -29 -15 -36 -11 -9 -15 -32 -15 -80 0 -48 -4
-71 -15 -80 -10 -8 -15 -31 -15 -69 -1 -87 -7 -91 -139 -91 -110 0 -111 0
-111 -24 0 -13 -7 -26 -15 -30 -8 -3 -15 -14 -15 -24 0 -11 -7 -25 -15 -32 -8
-7 -15 -23 -15 -36 0 -13 -4 -24 -10 -24 -5 0 -10 -16 -10 -35 0 -22 -6 -38
-15 -41 -8 -4 -15 -17 -15 -29 0 -13 -4 -27 -10 -30 -5 -3 -10 -19 -10 -34 0
-16 -7 -34 -15 -41 -8 -7 -15 -29 -15 -50 0 -24 -5 -40 -15 -44 -9 -3 -15 -19
-15 -41 0 -19 -4 -35 -10 -35 -5 0 -10 -23 -10 -50 0 -36 -4 -52 -15 -56 -10
-4 -15 -21 -15 -54 0 -27 -5 -50 -11 -52 -6 -2 -14 -27 -17 -56 -2 -29 -9 -55
-13 -58 -5 -3 -9 -20 -9 -37 0 -18 -7 -41 -15 -51 -9 -12 -15 -42 -15 -72 0
-29 -4 -56 -10 -59 -5 -3 -10 -30 -10 -58 -1 -29 -7 -63 -15 -77 -8 -14 -14
-44 -15 -67 0 -23 -5 -43 -12 -45 -6 -2 -13 -31 -16 -66 -2 -34 -8 -65 -13
-68 -5 -3 -9 -32 -9 -64 0 -32 -4 -62 -10 -65 -5 -3 -10 -30 -10 -59 0 -30 -6
-60 -15 -72 -8 -10 -15 -37 -15 -60 0 -22 -7 -49 -15 -60 -8 -11 -14 -42 -15
-76 0 -31 -4 -60 -10 -63 -5 -3 -10 -37 -10 -74 0 -49 -4 -72 -15 -81 -10 -8
-15 -30 -15 -65 0 -29 -7 -66 -15 -81 -8 -16 -15 -53 -15 -81 0 -29 -4 -53
-10 -53 -5 0 -10 -21 -10 -47 -1 -46 -2 -49 -40 -66 -22 -10 -40 -23 -40 -29
0 -12 -41 -47 -55 -48 -6 0 -29 -18 -50 -40 -21 -22 -44 -40 -51 -40 -6 0 -28
-18 -48 -40 -20 -22 -45 -40 -56 -40 -11 0 -20 -4 -20 -9 0 -5 -25 -13 -55
-16 -30 -4 -55 -11 -55 -16 0 -4 -27 -11 -60 -15 -33 -4 -63 -11 -66 -15 -3
-5 -27 -9 -55 -9 -37 0 -49 -4 -49 -15 0 -12 -13 -15 -60 -15 -45 0 -62 -4
-66 -15 -4 -8 -12 -15 -20 -15 -11 0 -14 -31 -14 -169 l0 -169 55 -7 c30 -3
55 -11 55 -16 0 -5 20 -9 44 -9 26 0 48 -6 56 -15 7 -8 34 -15 68 -17 68 -4
76 -22 12 -26 -26 -2 -48 -10 -53 -18 -5 -9 -26 -14 -62 -14 -30 0 -57 -4 -60
-10 -3 -5 -28 -12 -55 -16 -38 -5 -50 -11 -54 -28 -3 -11 -6 -87 -6 -167 l0
-147 27 -18 c15 -9 49 -19 75 -22 27 -3 51 -9 54 -13 3 -5 27 -9 54 -9 33 0
50 -5 54 -15 3 -10 19 -15 45 -15 32 0 39 -3 35 -15 -4 -10 -21 -15 -54 -15
-27 0 -51 -4 -54 -9 -3 -4 -31 -11 -63 -14 -32 -3 -59 -11 -61 -17 -2 -5 -21
-13 -43 -16 -61 -10 -64 -19 -64 -185 0 -178 5 -189 92 -189 38 0 55 -4 59
-15 4 -10 21 -15 53 -15 25 0 55 -7 65 -15 11 -8 41 -15 67 -15 26 0 51 -4 54
-10 3 -5 17 -10 31 -10 24 0 24 -1 9 -30 -13 -25 -15 -121 -15 -732 l0 -702
-27 -23 c-14 -13 -31 -23 -36 -23 -6 0 -28 -18 -48 -40 -21 -22 -44 -40 -52
-40 -8 0 -30 -18 -48 -40 -18 -22 -41 -40 -49 -40 -9 0 -27 -11 -40 -25 -13
-14 -29 -25 -35 -25 -6 0 -30 -18 -54 -40 -23 -22 -47 -40 -53 -40 -14 0 -78
-66 -78 -80 0 -5 -10 -10 -21 -10 -12 0 -32 -11 -45 -25 -13 -14 -29 -25 -36
-25 -7 -1 -31 -19 -53 -40 -22 -22 -45 -40 -53 -40 -7 0 -15 -7 -18 -15 -4 -8
-10 -15 -14 -15 -17 0 -70 -62 -70 -81 0 -11 -7 -22 -15 -25 -12 -5 -15 -33
-15 -164 0 -95 -4 -161 -10 -165 -6 -4 -10 -71 -10 -169 0 -127 -3 -166 -15
-182 -8 -11 -14 -41 -15 -72 0 -55 -12 -76 -54 -97 -18 -9 -21 -21 -24 -90 -1
-44 -6 -89 -11 -100 -29 -65 -22 -110 25 -159 44 -45 48 -101 9 -130 -14 -10
-25 -27 -25 -37 0 -10 -4 -20 -9 -23 -14 -9 -23 -130 -16 -201 6 -50 13 -70
31 -88 33 -31 33 -103 0 -134 -22 -21 -23 -29 -29 -240 -4 -120 -7 -259 -7
-310 0 -50 -5 -95 -10 -98 -6 -3 -10 -42 -10 -86 0 -71 3 -83 25 -107 14 -15
25 -39 25 -53 0 -15 7 -32 15 -39 11 -9 15 -33 15 -91 0 -44 4 -79 9 -79 5 0
12 -41 16 -90 4 -50 11 -93 16 -96 5 -3 9 -38 9 -78 0 -53 4 -77 15 -86 11 -9
15 -33 15 -86 0 -40 5 -76 10 -79 6 -3 10 -40 10 -81 0 -57 4 -76 15 -80 12
-5 15 -24 15 -85 0 -43 4 -79 9 -79 4 0 11 -37 14 -81 3 -45 10 -86 16 -92 6
-6 11 -41 11 -78 0 -47 4 -70 15 -79 11 -9 15 -35 15 -101 0 -53 4 -89 10 -89
6 0 10 -31 10 -72 1 -48 6 -80 15 -92 10 -13 15 -43 15 -87 0 -37 4 -70 9 -73
4 -3 11 -40 15 -83 3 -43 11 -80 16 -81 6 -2 10 -21 10 -43 0 -21 5 -39 10
-39 6 0 10 -7 10 -15 0 -8 5 -15 10 -15 6 0 21 -11 34 -25 13 -14 33 -25 45
-25 12 0 21 -6 21 -15 0 -8 9 -15 20 -15 11 0 23 -7 26 -15 4 -8 12 -15 19
-15 7 0 15 -7 19 -15 3 -8 11 -15 18 -15 7 0 25 -11 40 -25 15 -14 35 -25 44
-25 20 0 43 -28 44 -51 0 -9 7 -22 15 -29 10 -8 15 -30 15 -61 0 -40 3 -49 18
-49 9 0 28 -12 41 -25 13 -14 31 -25 40 -25 9 0 28 -13 41 -30 14 -16 30 -29
36 -30 22 0 79 -34 97 -57 10 -13 27 -23 38 -23 11 0 22 -7 25 -15 4 -8 14
-15 23 -15 10 0 28 -11 41 -25 13 -14 29 -25 36 -25 6 0 17 -7 24 -15 8 -10
31 -15 71 -15 56 0 59 1 59 25 0 23 3 25 49 25 67 0 81 7 81 41 0 18 7 32 21
39 44 24 59 48 59 98 0 26 -7 56 -15 66 -10 13 -15 43 -15 87 0 37 -4 71 -10
74 -5 3 -10 37 -10 74 0 42 -6 80 -15 97 -8 16 -15 48 -15 70 0 23 -7 55 -15
70 -8 17 -15 56 -15 91 0 34 -4 65 -10 68 -5 3 -10 33 -10 65 0 32 -4 62 -10
65 -5 3 -10 19 -10 34 0 32 -38 81 -62 81 -9 0 -18 7 -22 15 -3 8 -14 15 -24
15 -11 0 -31 11 -46 25 -15 14 -33 25 -40 25 -8 0 -16 7 -20 15 -3 8 -12 15
-19 15 -17 0 -78 30 -95 46 -7 8 -12 40 -12 81 0 64 -2 70 -35 106 -18 20 -39
37 -45 37 -14 0 -130 114 -130 128 0 5 -7 23 -15 38 -8 17 -15 56 -15 91 0 34
-5 65 -10 68 -5 3 -10 37 -10 75 0 48 -5 73 -15 84 -10 10 -15 36 -15 85 0 38
-4 73 -10 76 -6 4 -10 105 -11 268 0 144 -5 287 -11 317 -13 73 -13 136 0 185
6 22 12 100 12 173 0 81 4 132 10 132 6 0 10 36 10 89 0 66 4 92 15 101 11 10
15 36 15 111 0 54 4 101 10 104 5 3 10 41 10 83 0 49 6 88 15 106 10 18 15 57
15 106 0 57 4 81 15 90 10 8 15 31 15 71 0 33 3 59 8 59 4 0 16 13 26 29 23
33 71 65 86 56 7 -4 10 -444 10 -1281 0 -950 3 -1281 12 -1297 16 -31 70 -87
84 -87 6 0 31 -20 56 -45 25 -25 51 -45 58 -45 7 0 30 -18 51 -40 22 -22 46
-40 54 -40 8 0 15 -4 15 -10 0 -5 7 -10 15 -10 8 0 15 -4 15 -10 0 -16 38 -50
56 -50 15 0 44 -23 44 -35 0 -12 45 -44 63 -45 9 0 17 -6 17 -12 0 -7 14 -22
30 -33 16 -11 30 -23 30 -27 0 -5 6 -8 14 -8 8 0 30 -13 48 -30 40 -37 85 -40
116 -7 19 20 22 35 22 100 0 42 4 77 9 77 6 0 18 -14 28 -30 9 -17 23 -30 29
-30 7 0 14 -7 18 -15 3 -8 12 -15 21 -15 9 0 33 -18 54 -40 21 -22 44 -40 51
-40 7 0 30 -18 51 -40 21 -22 44 -40 51 -40 7 -1 33 -21 58 -45 25 -25 50 -45
57 -45 6 0 28 -18 49 -40 21 -22 45 -40 54 -40 8 0 24 -11 34 -25 16 -21 27
-25 71 -25 76 0 86 15 92 142 3 63 0 132 -8 178 -7 41 -15 178 -18 304 -6 214
-7 230 -26 240 -10 6 -28 21 -38 34 -10 12 -26 22 -36 22 -10 0 -28 14 -41 30
-13 17 -30 30 -39 30 -9 0 -31 14 -50 30 -18 17 -37 30 -40 30 -4 0 -21 13
-39 30 -31 28 -32 31 -18 52 9 12 16 38 16 58 0 19 7 44 15 54 8 11 15 39 15
63 0 24 5 43 10 43 6 0 10 23 10 50 0 28 5 50 10 50 6 0 10 22 10 49 0 31 5
53 15 61 9 7 15 29 15 55 0 26 6 48 15 55 10 8 15 30 15 61 0 27 4 49 9 49 5
0 12 13 16 30 l7 30 149 0 c82 0 150 -1 151 -2 3 -4 18 -855 23 -1310 5 -340
8 -408 19 -408 8 0 16 -6 18 -12 4 -10 51 -13 191 -13 174 0 187 1 201 20 13
17 15 77 16 400 0 295 3 397 15 458 12 62 15 164 15 473 l0 394 155 0 155 0 0
-32 c0 -18 7 -42 15 -52 8 -11 15 -39 15 -62 0 -24 5 -46 10 -49 6 -3 10 -23
10 -44 0 -20 7 -46 15 -57 8 -10 15 -38 15 -61 0 -23 5 -45 10 -48 6 -3 10
-26 10 -50 0 -25 6 -50 15 -59 9 -8 15 -33 15 -59 0 -27 6 -49 15 -57 8 -7 15
-28 15 -46 0 -19 5 -34 10 -34 6 0 10 -6 10 -12 0 -17 -99 -108 -117 -108 -7
0 -13 -4 -13 -10 0 -5 -5 -10 -11 -10 -6 0 -28 -14 -49 -30 -21 -17 -42 -30
-47 -30 -6 0 -28 -20 -51 -44 l-42 -45 0 -213 c0 -175 -3 -217 -15 -235 -13
-18 -15 -54 -13 -200 l3 -178 65 -3 c64 -3 66 -2 108 38 24 22 48 40 54 40 6
0 30 20 55 45 24 25 49 45 54 45 6 0 27 18 48 40 20 22 43 40 51 40 7 0 31 18
52 40 22 22 45 40 52 40 15 0 76 55 76 69 0 6 9 11 20 11 21 0 60 33 60 50 0
6 4 10 9 10 5 0 11 -37 13 -82 4 -69 8 -84 28 -100 12 -10 33 -18 47 -18 27 0
83 29 83 43 0 13 27 37 43 37 18 0 57 34 57 49 0 6 7 11 15 11 8 0 15 4 15 9
0 5 10 13 21 16 12 4 39 25 59 46 20 22 43 39 51 39 8 0 30 18 49 40 19 22 41
40 48 40 7 0 32 18 54 40 23 22 47 40 55 40 7 0 16 7 19 15 4 8 12 15 18 15 7
0 19 11 26 25 8 15 22 25 34 25 25 0 56 32 56 59 0 10 7 21 15 25 13 5 15 155
15 1268 0 695 4 1269 9 1277 6 9 11 10 15 2 4 -6 14 -11 23 -11 9 0 31 -16 49
-36 32 -33 34 -40 34 -103 0 -38 5 -72 12 -79 6 -6 14 -51 16 -99 2 -49 8 -92
13 -97 5 -6 9 -47 9 -92 0 -60 4 -85 15 -94 11 -9 15 -35 15 -101 0 -53 4 -89
10 -89 6 0 10 -37 10 -90 0 -58 5 -104 15 -127 11 -26 15 -74 15 -178 0 -118
3 -144 15 -149 20 -7 20 -70 0 -86 -13 -11 -15 -56 -15 -289 0 -172 -5 -291
-12 -316 -6 -22 -13 -71 -15 -110 -3 -38 -9 -74 -14 -79 -5 -6 -9 -42 -9 -80
-1 -47 -6 -78 -15 -90 -10 -13 -15 -43 -15 -82 0 -35 -5 -66 -10 -69 -6 -3
-10 -24 -10 -46 0 -33 -3 -39 -21 -39 -13 0 -44 -23 -76 -55 -30 -30 -60 -55
-67 -55 -29 0 -46 -40 -46 -109 0 -65 -2 -69 -35 -99 -19 -18 -41 -32 -49 -32
-7 0 -16 -7 -20 -15 -3 -8 -14 -15 -24 -15 -11 0 -25 -7 -32 -15 -7 -8 -21
-15 -31 -15 -11 0 -19 -4 -19 -9 0 -5 -11 -12 -25 -15 -14 -4 -25 -11 -25 -16
0 -6 -8 -10 -18 -10 -27 0 -62 -42 -62 -74 0 -15 -7 -34 -15 -42 -10 -10 -15
-35 -15 -75 0 -33 -4 -59 -10 -59 -6 0 -10 -31 -10 -73 0 -40 -5 -78 -11 -84
-6 -6 -13 -42 -16 -80 -2 -37 -8 -77 -13 -88 -5 -11 -11 -44 -14 -74 -3 -30
-10 -59 -16 -65 -5 -5 -10 -43 -10 -83 0 -42 -4 -73 -10 -73 -6 0 -10 -28 -10
-63 0 -65 21 -107 55 -107 9 0 15 -13 17 -37 l3 -38 62 -3 c55 -3 62 -5 65
-25 3 -19 10 -22 61 -25 52 -3 60 0 78 22 11 15 29 26 40 26 11 0 22 7 25 15
4 8 14 15 23 15 9 0 31 14 50 30 18 17 40 30 47 30 8 0 14 4 14 9 0 5 10 13
22 17 12 3 33 17 47 30 14 13 29 24 33 24 4 0 19 11 34 25 15 14 33 25 41 25
27 0 83 73 83 108 0 17 5 32 10 32 6 0 10 9 10 20 0 25 47 73 94 95 20 9 36
24 36 31 0 8 10 14 25 14 14 0 28 7 31 15 4 8 14 15 24 15 9 0 26 11 36 25 10
14 26 25 34 25 19 1 60 34 60 49 0 6 5 11 10 11 6 0 10 15 10 34 0 18 7 39 15
46 11 9 15 33 15 89 0 52 5 83 15 97 9 12 14 44 15 92 0 41 4 72 10 72 6 0 10
33 10 80 0 62 3 82 15 86 11 5 15 23 15 78 0 40 5 77 11 83 5 5 13 51 16 102
3 50 10 94 15 97 4 3 8 38 8 78 0 53 4 77 15 86 11 9 15 33 15 86 0 43 4 74
10 74 6 0 10 31 10 74 0 53 4 77 15 86 11 9 15 32 15 80 0 41 6 79 15 96 9 17
15 56 15 92 0 34 4 62 10 62 6 0 10 33 10 80 0 44 4 80 9 80 5 0 12 36 16 80
4 44 11 83 16 86 5 3 9 23 9 45 0 28 8 51 25 73 22 29 25 43 25 112 0 44 -5
85 -10 90 -7 7 -11 111 -11 291 l1 281 -30 56 c-37 69 -37 85 0 122 l29 29 1
130 c0 139 -5 157 -57 198 -32 26 -31 80 2 111 14 13 25 30 25 37 0 8 7 23 15
33 18 24 20 107 3 124 -7 7 -14 47 -18 89 -5 73 -7 79 -36 98 -28 18 -32 27
-37 80 -3 33 -10 61 -16 63 -7 2 -11 61 -11 173 0 128 -4 178 -15 206 -11 26
-15 74 -15 178 l0 143 -67 71 c-37 39 -73 71 -80 71 -8 0 -33 20 -57 45 -25
25 -50 45 -56 45 -7 0 -23 11 -36 25 -13 14 -29 25 -36 25 -8 0 -32 18 -53 40
-21 22 -44 40 -50 40 -6 0 -31 20 -57 45 -26 25 -53 45 -60 45 -7 0 -22 11
-32 25 -10 14 -25 25 -33 25 -8 0 -33 18 -55 40 -23 22 -46 40 -52 40 -6 0
-27 17 -46 36 -19 20 -45 40 -57 45 l-22 8 -3 710 c-2 552 -6 713 -15 723 -18
17 -16 38 2 38 8 0 15 5 15 10 0 6 27 10 60 10 45 0 62 4 66 15 5 11 22 15 65
15 44 0 61 4 65 15 4 11 21 15 55 15 27 0 49 4 49 8 0 5 11 14 25 20 l25 12 0
165 0 165 -38 0 c-21 0 -47 6 -58 14 -11 8 -41 17 -67 21 -26 4 -47 11 -47 16
0 5 -26 9 -59 9 -40 0 -63 5 -71 15 -11 13 -8 15 19 15 19 0 34 6 37 15 5 11
22 15 64 15 33 0 61 4 65 9 3 6 27 13 52 17 26 4 53 13 61 20 7 8 20 14 28 14
12 0 14 29 14 169 l0 168 -50 7 c-27 4 -52 11 -55 16 -3 6 -26 10 -51 10 -30
0 -46 5 -50 15 -4 10 -21 15 -54 15 -27 0 -55 3 -64 6 -28 11 -6 24 38 24 27
0 48 6 56 15 8 10 31 15 66 15 29 0 55 4 58 9 4 5 29 12 56 16 l50 7 0 164 c0
194 -4 204 -82 204 -36 0 -48 4 -48 15 0 12 -13 15 -59 15 -33 0 -62 4 -65 9
-3 4 -27 11 -53 15 -27 4 -57 13 -67 21 -11 8 -41 15 -67 15 -26 0 -51 5 -54
10 -3 6 -13 10 -21 10 -8 0 -38 25 -66 55 -28 30 -57 55 -64 55 -7 0 -30 18
-52 40 -21 22 -44 40 -50 40 -6 0 -31 20 -56 45 -34 33 -46 53 -46 74 0 16 -7
34 -15 41 -11 9 -15 32 -15 81 0 37 -4 70 -9 73 -4 3 -11 35 -14 72 -2 36 -10
71 -16 77 -6 6 -11 34 -11 62 0 30 -6 59 -15 71 -9 11 -14 42 -15 77 0 31 -4
57 -10 57 -5 0 -10 24 -10 54 0 29 -7 70 -15 89 -8 20 -15 56 -15 80 0 24 -5
48 -11 54 -6 6 -13 38 -16 72 -3 34 -10 64 -14 67 -5 3 -9 23 -9 45 0 21 -4
47 -10 57 -5 9 -12 43 -15 74 -4 32 -11 60 -16 63 -5 4 -9 25 -9 48 0 23 -7
51 -15 61 -9 11 -15 42 -15 70 0 29 -7 59 -15 70 -8 11 -15 39 -15 63 0 24 -4
43 -10 43 -5 0 -10 20 -10 44 0 24 -7 57 -15 72 -8 16 -15 39 -15 51 0 12 -4
25 -10 28 -5 3 -10 23 -10 44 0 20 -7 46 -15 57 -8 10 -15 34 -15 52 0 17 -4
32 -10 32 -5 0 -10 13 -10 28 0 16 -7 37 -15 48 -8 10 -15 33 -15 50 0 17 -7
37 -15 44 -8 7 -15 28 -15 46 0 19 -4 34 -10 34 -5 0 -10 8 -10 19 0 10 -7 24
-15 31 -8 7 -15 23 -15 36 0 13 -4 24 -10 24 -5 0 -10 13 -10 29 0 15 -9 40
-21 55 -20 25 -24 26 -128 26 -135 0 -141 5 -141 108 0 39 -4 73 -9 76 -5 3
-11 34 -13 68 -3 35 -10 64 -16 66 -7 2 -12 17 -12 33 l0 29 -197 0 -196 0 6
-252 c4 -138 11 -256 17 -263 10 -12 17 -216 25 -723 6 -315 5 -333 -13 -352
-16 -18 -20 -43 -25 -178 -4 -86 -7 -214 -7 -284 0 -72 -4 -128 -9 -128 -5 0
-11 -10 -13 -22 -3 -22 -6 -23 -145 -26 l-143 -3 0 25 c0 13 -5 26 -12 28 -9
3 -13 78 -16 284 -3 153 -7 281 -11 284 -4 3 -15 16 -24 30 -15 22 -17 61 -17
358 0 213 4 340 10 353 6 11 14 96 17 189 3 94 10 170 14 170 5 0 10 115 11
255 l3 255 -192 0 -193 0 0 -24z m285 -66 c4 -6 -27 -9 -87 -8 l-93 2 85 6
c47 3 86 7 87 8 1 1 5 -2 8 -8z m734 -9 c9 -6 10 -11 2 -15 -6 -4 -11 -3 -11
3 0 6 -34 12 -77 14 l-78 3 75 2 c41 1 81 -2 89 -7z m-198 -48 c-9 -16 -10
-16 -11 -1 0 9 3 25 7 35 7 16 8 17 11 1 2 -10 -1 -25 -7 -35z m219 -22 c0
-16 3 -38 6 -48 5 -12 4 -15 -3 -8 -14 13 -24 85 -12 85 5 0 9 -13 9 -29z
m-963 -13 c-3 -8 -6 -5 -6 6 -1 11 2 17 5 13 3 -3 4 -12 1 -19z m203 -196 c-8
-13 -10 -4 -6 38 3 30 7 84 8 120 1 45 3 34 5 -38 2 -62 -1 -109 -7 -120z
m547 96 c-2 -18 -4 -6 -4 27 0 33 2 48 4 33 2 -15 2 -42 0 -60z m-760 20 c-3
-7 -5 -2 -5 12 0 14 2 19 5 13 2 -7 2 -19 0 -25z m980 -30 c-3 -8 -6 -5 -6 6
-1 11 2 17 5 13 3 -3 4 -12 1 -19z m22 -87 c1 -48 -5 -35 -12 24 -4 32 -3 43
3 30 5 -11 9 -35 9 -54z m-1022 22 c-3 -10 -5 -4 -5 12 0 17 2 24 5 18 2 -7 2
-21 0 -30z m790 -25 c-3 -8 -6 -5 -6 6 -1 11 2 17 5 13 3 -3 4 -12 1 -19z m15
-63 c4 -20 2 -23 -8 -14 -7 6 -10 17 -7 25 7 20 10 18 15 -11z m-608 -28 c-3
-8 -19 -24 -37 -37 l-32 -23 34 37 c38 40 43 43 35 23z m856 -29 c0 -5 -4 -8
-10 -8 -5 0 -10 10 -10 23 0 18 2 19 10 7 5 -8 10 -18 10 -22z m213 25 c-7 -2
-21 -2 -30 0 -10 3 -4 5 12 5 17 0 24 -2 18 -5z m-1543 -18 c-7 -9 -15 -13
-17 -11 -7 7 7 26 19 26 6 0 6 -6 -2 -15z m107 9 c-3 -3 -12 -4 -19 -1 -8 3
-5 6 6 6 11 1 17 -2 13 -5z m1370 0 c-3 -3 -12 -4 -19 -1 -8 3 -5 6 6 6 11 1
17 -2 13 -5z m-1230 -46 c-3 -7 -5 -2 -5 12 0 14 2 19 5 13 2 -7 2 -19 0 -25z
m830 6 c-3 -3 -12 -4 -19 -1 -8 3 -5 6 6 6 11 1 17 -2 13 -5z m393 -29 c0 -5
-5 -3 -10 5 -5 8 -10 20 -10 25 0 6 5 3 10 -5 5 -8 10 -19 10 -25z m-1075 -12
c-2 -10 -4 -36 -4 -58 -1 -30 -4 -36 -11 -25 -12 18 0 100 15 100 2 0 2 -8 0
-17z m794 -41 c0 -24 -1 -25 -9 -7 -12 28 -12 47 0 40 6 -3 10 -18 9 -33z
m288 6 c-3 -8 -6 -5 -6 6 -1 11 2 17 5 13 3 -3 4 -12 1 -19z m-1531 -29 c-9
-19 -15 -26 -16 -16 0 17 21 59 27 53 2 -2 -3 -18 -11 -37z m281 9 c-3 -7 -5
-2 -5 12 0 14 2 19 5 13 2 -7 2 -19 0 -25z m1401 -13 c-3 -3 -9 2 -12 12 -6
14 -5 15 5 6 7 -7 10 -15 7 -18z m-281 -17 c-3 -8 -6 -5 -6 6 -1 11 2 17 5 13
3 -3 4 -12 1 -19z m-1130 -40 c-3 -7 -5 -2 -5 12 0 14 2 19 5 13 2 -7 2 -19 0
-25z m980 -20 c-2 -13 -4 -5 -4 17 -1 22 1 32 4 23 2 -10 2 -28 0 -40z m-830
-110 c-2 -24 -4 -5 -4 42 0 47 2 66 4 43 2 -24 2 -62 0 -85z m1290 90 c-3 -7
-5 -2 -5 12 0 14 2 19 5 13 2 -7 2 -19 0 -25z m-1457 -38 l-7 -55 -2 51 c0 28
2 54 6 57 10 11 10 6 3 -53z m1167 8 c-3 -7 -5 -2 -5 12 0 14 2 19 5 13 2 -7
2 -19 0 -25z m311 -13 c-3 -3 -9 2 -12 12 -6 14 -5 15 5 6 7 -7 10 -15 7 -18z
m-1693 -5 c-3 -5 -1 -10 6 -10 7 0 10 -3 6 -6 -9 -9 -28 6 -22 17 4 5 8 9 11
9 3 0 2 -4 -1 -10z m-98 -22 c-3 -8 -6 -5 -6 6 -1 11 2 17 5 13 3 -3 4 -12 1
-19z m119 -36 c-15 -15 -15 -15 -4 10 7 15 15 23 17 17 2 -6 -4 -18 -13 -27z
m1371 6 c-3 -8 -6 -5 -6 6 -1 11 2 17 5 13 3 -3 4 -12 1 -19z m203 -35 c0 -2
-7 2 -15 11 -8 8 -15 23 -15 33 0 13 4 10 15 -11 8 -15 15 -30 15 -33z m-1707
17 c-3 -12 -8 -19 -11 -16 -5 6 5 36 12 36 2 0 2 -9 -1 -20z m1839 -5 c3 -14
1 -28 -3 -31 -5 -3 -9 9 -9 25 0 38 6 40 12 6z m-500 -197 c2 -55 -1 -93 -6
-88 -9 9 -12 127 -6 225 l4 60 3 -50 c1 -27 4 -94 5 -147z m175 170 c-3 -8 -6
-5 -6 6 -1 11 2 17 5 13 3 -3 4 -12 1 -19z m221 -19 c-3 -8 -7 -3 -11 10 -4
17 -3 21 5 13 5 -5 8 -16 6 -23z m-1651 -41 c-2 -13 -4 -3 -4 22 0 25 2 35 4
23 2 -13 2 -33 0 -45z m220 30 c-3 -7 -5 -2 -5 12 0 14 2 19 5 13 2 -7 2 -19
0 -25z m1220 -35 c-3 -10 -5 -4 -5 12 0 17 2 24 5 18 2 -7 2 -21 0 -30z m201
-14 c-3 -20 -5 -19 -9 9 -3 20 -2 29 4 23 5 -5 7 -19 5 -32z m-1761 -1 c-3 -8
-6 -5 -6 6 -1 11 2 17 5 13 3 -3 4 -12 1 -19z m1900 -30 c-3 -8 -6 -5 -6 6 -1
11 2 17 5 13 3 -3 4 -12 1 -19z m-1791 -18 c0 -12 -4 -16 -9 -11 -5 5 -6 14
-3 20 10 15 12 14 12 -9z m1690 -19 c1 -6 0 -7 -3 -1 -2 5 -11 10 -18 10 -8 0
-17 4 -20 10 -4 6 2 7 16 1 13 -4 24 -13 25 -20z m-1486 -41 c-6 -37 -8 -40
-9 -13 -1 29 8 68 14 61 1 -2 -1 -23 -5 -48z m1280 -5 c0 -17 -2 -17 -10 -5
-5 8 -10 24 -10 35 0 17 2 17 10 5 5 -8 10 -24 10 -35z m-1483 29 c-3 -3 -12
-4 -19 -1 -8 3 -5 6 6 6 11 1 17 -2 13 -5z m1810 -16 c-3 -8 -6 -5 -6 6 -1 11
2 17 5 13 3 -3 4 -12 1 -19z m-1950 -50 c-3 -8 -6 -5 -6 6 -1 11 2 17 5 13 3
-3 4 -12 1 -19z m556 -41 c-10 -18 -19 5 -14 35 l5 33 6 -30 c4 -16 5 -33 3
-38z m-444 -12 c-1 -30 -5 -53 -10 -50 -4 3 -6 12 -2 20 3 10 -1 15 -13 16
-17 1 -17 2 -1 6 11 3 17 14 17 34 0 16 2 29 5 29 2 0 4 -25 4 -55z m1748 3
c-3 -7 -5 -2 -5 12 0 14 2 19 5 13 2 -7 2 -19 0 -25z m-1880 -10 c-3 -8 -6 -5
-6 6 -1 11 2 17 5 13 3 -3 4 -12 1 -19z m431 15 c-10 -2 -28 -2 -40 0 -13 2
-5 4 17 4 22 1 32 -1 23 -4z m1175 0 c-18 -2 -48 -2 -65 0 -18 2 -4 4 32 4 36
0 50 -2 33 -4z m394 -35 c-3 -8 -6 -5 -6 6 -1 11 2 17 5 13 3 -3 4 -12 1 -19z
m-1537 -52 c0 -2 -15 -6 -34 -8 -19 -2 -32 0 -30 4 5 8 64 12 64 4z m83 -3
c-13 -2 -33 -2 -45 0 -13 2 -3 4 22 4 25 0 35 -2 23 -4z m910 0 c-19 -4 -23
-11 -25 -46 -1 -39 -2 -39 -5 -9 -6 46 2 62 29 61 l23 -2 -22 -4z m115 0 c-10
-2 -26 -2 -35 0 -10 3 -2 5 17 5 19 0 27 -2 18 -5z m373 -20 c13 -16 12 -17
-3 -4 -10 7 -18 15 -18 17 0 8 8 3 21 -13z m76 -5 c-3 -8 -6 -5 -6 6 -1 11 2
17 5 13 3 -3 4 -12 1 -19z m-1907 6 c0 -8 -19 -13 -24 -6 -3 5 1 9 9 9 8 0 15
-2 15 -3z m-143 -66 c-2 -13 -4 -3 -4 22 0 25 2 35 4 23 2 -13 2 -33 0 -45z
m90 30 c-3 -7 -5 -2 -5 12 0 14 2 19 5 13 2 -7 2 -19 0 -25z m330 0 c-3 -7 -5
-2 -5 12 0 14 2 19 5 13 2 -7 2 -19 0 -25z m180 -15 c-3 -10 -5 -2 -5 17 0 19
2 27 5 18 2 -10 2 -26 0 -35z m1040 -5 c-3 -7 -5 -2 -5 12 0 14 2 19 5 13 2
-7 2 -19 0 -25z m340 0 c-3 -7 -5 -2 -5 12 0 14 2 19 5 13 2 -7 2 -19 0 -25z
m80 -20 c-3 -7 -5 -2 -5 12 0 14 2 19 5 13 2 -7 2 -19 0 -25z m-1650 -30 c-3
-7 -5 -2 -5 12 0 14 2 19 5 13 2 -7 2 -19 0 -25z m-340 16 c-3 -3 -12 -4 -19
-1 -8 3 -5 6 6 6 11 1 17 -2 13 -5z m520 -71 c-2 -16 -4 -3 -4 27 0 30 2 43 4
28 2 -16 2 -40 0 -55z m-560 25 c-3 -7 -5 -2 -5 12 0 14 2 19 5 13 2 -7 2 -19
0 -25z m1620 10 c-3 -8 -6 -5 -6 6 -1 11 2 17 5 13 3 -3 4 -12 1 -19z m322 -7
c-6 -2 -18 4 -27 13 -15 15 -15 15 10 4 15 -7 23 -15 17 -17z m108 -13 c-3 -8
-6 -5 -6 6 -1 11 2 17 5 13 3 -3 4 -12 1 -19z m-610 -95 c-2 -21 -4 -6 -4 32
0 39 2 55 4 38 2 -18 2 -50 0 -70z m190 65 c-3 -8 -6 -5 -6 6 -1 11 2 17 5 13
3 -3 4 -12 1 -19z m-1270 -60 c-2 -13 -4 -5 -4 17 -1 22 1 32 4 23 2 -10 2
-28 0 -40z m-357 18 c-7 -7 -13 -7 -20 0 -6 6 -3 10 10 10 13 0 16 -4 10 -10z
m1637 -43 c-3 -10 -5 -4 -5 12 0 17 2 24 5 18 2 -7 2 -21 0 -30z m-1680 -35
c-3 -7 -5 -2 -5 12 0 14 2 19 5 13 2 -7 2 -19 0 -25z m590 -75 c-2 -21 -4 -4
-4 37 0 41 2 58 4 38 2 -21 2 -55 0 -75z m1480 75 c-3 -8 -6 -5 -6 6 -1 11 2
17 5 13 3 -3 4 -12 1 -19z m-1690 -60 c-3 -8 -6 -5 -6 6 -1 11 2 17 5 13 3 -3
4 -12 1 -19z m1736 14 c4 8 6 7 6 -4 1 -10 -3 -18 -8 -18 -5 0 -15 8 -22 18
-13 15 -12 16 3 4 13 -10 17 -10 21 0z m-416 -44 c-3 -7 -5 -2 -5 12 0 14 2
19 5 13 2 -7 2 -19 0 -25z m-1330 -55 c-3 -10 -5 -4 -5 12 0 17 2 24 5 18 2
-7 2 -21 0 -30z m996 -52 c0 -44 -2 -84 -6 -87 -4 -4 -7 35 -7 86 0 51 2 91 6
88 3 -3 6 -42 7 -87z m24 57 c-3 -8 -6 -5 -6 6 -1 11 2 17 5 13 3 -3 4 -12 1
-19z m320 -30 c-3 -7 -5 -2 -5 12 0 14 2 19 5 13 2 -7 2 -19 0 -25z m-220
-175 c-2 -38 -3 -7 -3 67 0 74 1 105 3 68 2 -38 2 -98 0 -135z m-1130 135 c-3
-7 -5 -2 -5 12 0 14 2 19 5 13 2 -7 2 -19 0 -25z m1360 -35 c-3 -10 -5 -4 -5
12 0 17 2 24 5 18 2 -7 2 -21 0 -30z m-1370 -50 c-3 -10 -5 -4 -5 12 0 17 2
24 5 18 2 -7 2 -21 0 -30z m1380 -30 c-3 -10 -5 -4 -5 12 0 17 2 24 5 18 2 -7
2 -21 0 -30z m-1390 -55 c-3 -7 -5 -2 -5 12 0 14 2 19 5 13 2 -7 2 -19 0 -25z
m240 -45 c-2 -16 -4 -3 -4 27 0 30 2 43 4 28 2 -16 2 -40 0 -55z m1160 25 c-3
-8 -6 -5 -6 6 -1 11 2 17 5 13 3 -3 4 -12 1 -19z m-1410 -40 c-3 -8 -6 -5 -6
6 -1 11 2 17 5 13 3 -3 4 -12 1 -19z m1170 -10 c-3 -8 -6 -5 -6 6 -1 11 2 17
5 13 3 -3 4 -12 1 -19z m-930 -40 c-3 -8 -6 -5 -6 6 -1 11 2 17 5 13 3 -3 4
-12 1 -19z m-250 -95 c-2 -21 -4 -4 -4 37 0 41 2 58 4 38 2 -21 2 -55 0 -75z
m1190 85 c-3 -8 -6 -5 -6 6 -1 11 2 17 5 13 3 -3 4 -12 1 -19z m234 -52 c-8
-10 -9 -16 -1 -21 5 -3 10 -11 10 -18 0 -6 -6 -2 -14 8 -10 14 -11 23 -3 37 6
9 13 15 16 13 2 -3 -2 -11 -8 -19z m-1232 -50 c-1 -20 -2 -20 -6 -1 -3 11 -10
27 -17 35 -10 13 -9 13 7 1 9 -7 16 -23 16 -35z m1044 27 c-7 -2 -21 -2 -30 0
-10 3 -4 5 12 5 17 0 24 -2 18 -5z m52 -13 c-3 -5 -12 -10 -18 -10 -7 0 -6 4
3 10 19 12 23 12 15 0z m36 -7 c13 -16 12 -17 -3 -4 -10 7 -18 15 -18 17 0 8
8 3 21 -13z m-1261 -18 c-7 -8 -17 -15 -23 -15 -6 0 -2 7 9 15 25 19 30 19 14
0z m59 -439 c-11 -9 -69 -14 -69 -6 0 6 17 10 37 10 20 0 34 -2 32 -4z m314
-23 c-45 -2 -122 -2 -170 0 -48 1 -11 3 82 3 94 0 133 -2 88 -3z m825 0 c-60
-2 -156 -2 -215 0 -60 1 -11 3 107 3 118 0 167 -2 108 -3z m-908 -200 c2 -2
-12 -3 -32 -1 -20 1 -34 6 -32 10 5 7 53 1 64 -9z m689 1 c2 -2 -5 -4 -15 -4
-11 0 -25 -5 -32 -12 -9 -9 -12 -7 -12 10 0 19 4 21 28 16 15 -4 29 -8 31 -10z
m-589 -53 c0 -25 -6 -43 -17 -52 -16 -13 -17 -12 -4 3 8 11 12 34 9 57 -2 22
0 37 4 35 5 -3 8 -22 8 -43z m727 7 c-3 -7 -5 -2 -5 12 0 14 2 19 5 13 2 -7 2
-19 0 -25z m-900 -65 c-3 -10 -5 -4 -5 12 0 17 2 24 5 18 2 -7 2 -21 0 -30z
m716 17 c3 -11 1 -18 -4 -14 -5 3 -9 12 -9 20 0 20 7 17 13 -6z m42 -30 c3 -6
-1 -7 -9 -4 -18 7 -21 14 -7 14 6 0 13 -4 16 -10z m105 -24 c0 -2 -8 -10 -17
-17 -16 -13 -17 -12 -4 4 13 16 21 21 21 13z m-1683 -72 c-3 -3 -12 -4 -19 -1
-8 3 -5 6 6 6 11 1 17 -2 13 -5z m1306 -41 c-46 -2 -120 -2 -165 0 -46 1 -9 3
82 3 91 0 128 -2 83 -3z m-120 -70 c-7 -2 -21 -2 -30 0 -10 3 -4 5 12 5 17 0
24 -2 18 -5z m135 0 c-10 -2 -26 -2 -35 0 -10 3 -2 5 17 5 19 0 27 -2 18 -5z
m-198 -6 c0 -2 -10 -12 -22 -23 l-23 -19 19 23 c18 21 26 27 26 19z m255 -7
c3 -6 -1 -7 -9 -4 -18 7 -21 14 -7 14 6 0 13 -4 16 -10z m132 -77 c-2 -16 -4
-3 -4 27 0 30 2 43 4 28 2 -16 2 -40 0 -55z m-69 22 c-3 -3 -9 2 -12 12 -6 14
-5 15 5 6 7 -7 10 -15 7 -18z m-375 -66 c-5 -5 -7 7 -4 29 5 34 6 35 9 8 2
-16 0 -32 -5 -37z m391 6 c5 -22 4 -26 -4 -15 -5 8 -10 24 -10 34 0 26 6 18
14 -19z m-447 -42 c-3 -10 -5 -2 -5 17 0 19 2 27 5 18 2 -10 2 -26 0 -35z
m356 12 c-3 -9 -8 -14 -10 -11 -3 3 -2 9 2 15 9 16 15 13 8 -4z m104 -37 c-3
-8 -6 -5 -6 6 -1 11 2 17 5 13 3 -3 4 -12 1 -19z m-100 -45 c-3 -10 -5 -2 -5
17 0 19 2 27 5 18 2 -10 2 -26 0 -35z m-337 0 c-11 -17 -11 -17 -6 0 3 10 6
24 7 30 0 9 2 9 5 0 3 -7 0 -20 -6 -30z m454 -19 c3 -8 2 -12 -4 -9 -6 3 -10
10 -10 16 0 14 7 11 14 -7z m-437 -526 c-1 -95 -3 -18 -3 172 0 190 2 267 3
173 2 -95 2 -251 0 -345z m100 -103 c0 -238 -3 -390 -7 -350 -4 39 -7 255 -7
480 1 226 4 383 7 350 3 -33 6 -249 7 -480z m-2057 521 c0 -7 -50 -13 -55 -7
-2 4 10 8 26 9 16 1 29 1 29 -2z m2277 -223 c-1 -43 -3 -8 -3 77 0 85 2 120 3
78 2 -43 2 -113 0 -155z m2103 219 c0 -4 -18 -6 -40 -4 -22 2 -40 6 -40 8 0 2
18 4 40 4 22 0 40 -3 40 -8z m-4323 -8 c-3 -3 -12 -4 -19 -1 -8 3 -5 6 6 6 11
1 17 -2 13 -5z m4220 0 c-3 -3 -12 -4 -19 -1 -8 3 -5 6 6 6 11 1 17 -2 13 -5z
m-4160 -10 c-3 -3 -12 -4 -19 -1 -8 3 -5 6 6 6 11 1 17 -2 13 -5z m4086 -1
c-7 -2 -19 -2 -25 0 -7 3 -2 5 12 5 14 0 19 -2 13 -5z m-4173 -13 c12 -8 11
-10 -7 -10 -12 0 -25 5 -28 10 -8 13 15 13 35 0z m153 3 c-7 -2 -19 -2 -25 0
-7 3 -2 5 12 5 14 0 19 -2 13 -5z m3954 1 c-3 -3 -12 -4 -19 -1 -8 3 -5 6 6 6
11 1 17 -2 13 -5z m198 -4 c-3 -5 -27 -9 -53 -8 l-47 1 45 7 c25 4 49 8 53 8
5 1 5 -2 2 -8z m-248 -6 c-3 -3 -12 -4 -19 -1 -8 3 -5 6 6 6 11 1 17 -2 13 -5z
m-3794 -11 c-7 -2 -21 -2 -30 0 -10 3 -4 5 12 5 17 0 24 -2 18 -5z m3724 1
c-3 -3 -12 -4 -19 -1 -8 3 -5 6 6 6 11 1 17 -2 13 -5z m-3854 -11 c-7 -2 -19
-2 -25 0 -7 3 -2 5 12 5 14 0 19 -2 13 -5z m192 -3 c3 -6 -1 -7 -9 -4 -18 7
-21 14 -7 14 6 0 13 -4 16 -10z m3617 -48 c-9 -25 -21 3 -14 33 6 30 6 30 12
5 4 -14 5 -31 2 -38z m231 51 c-7 -2 -19 -2 -25 0 -7 3 -2 5 12 5 14 0 19 -2
13 -5z m-3870 -30 c-13 -2 -33 -2 -45 0 -13 2 -3 4 22 4 25 0 35 -2 23 -4z
m3710 0 c-7 -2 -21 -2 -30 0 -10 3 -4 5 12 5 17 0 24 -2 18 -5z m-1776 -1676
c-1 -265 -2 -48 -2 483 0 531 1 748 2 482 2 -265 2 -699 0 -965z m1141 1315
c28 -32 62 -96 62 -114 -1 -7 -12 10 -26 39 -29 60 -79 107 -106 100 -10 -3
-15 -1 -12 5 10 16 57 -1 82 -30z m-2489 -16 c-16 -25 -36 -61 -44 -80 -9 -20
-17 -36 -20 -36 -5 0 20 72 36 102 10 18 47 56 56 58 1 0 -11 -20 -28 -44z
m-944 -46 c-27 -12 -35 -12 -35 0 0 6 12 10 28 9 24 0 25 -1 7 -9z m4358 3
c-7 -2 -21 -2 -30 0 -10 3 -4 5 12 5 17 0 24 -2 18 -5z m-4273 -13 c-14 -4
-32 -8 -40 -9 -13 -1 -13 0 0 9 8 5 26 9 40 9 l25 -1 -25 -8z m4320 0 c-8 -5
-28 -9 -45 -9 -30 2 -30 2 5 9 51 11 57 11 40 0z m-4253 -6 c-3 -3 -12 -4 -19
-1 -8 3 -5 6 6 6 11 1 17 -2 13 -5z m4090 0 c-3 -3 -12 -4 -19 -1 -8 3 -5 6 6
6 11 1 17 -2 13 -5z m-4014 -11 c-7 -2 -21 -2 -30 0 -10 3 -4 5 12 5 17 0 24
-2 18 -5z m3950 0 c-7 -2 -19 -2 -25 0 -7 3 -2 5 12 5 14 0 19 -2 13 -5z m142
-2 c-12 -11 -32 -14 -60 -11 -11 2 -2 6 20 10 22 4 42 8 45 9 2 0 0 -3 -5 -8z
m-4198 -7 c-3 -3 -12 -4 -19 -1 -8 3 -5 6 6 6 11 1 17 -2 13 -5z m3990 0 c-3
-3 -12 -4 -19 -1 -8 3 -5 6 6 6 11 1 17 -2 13 -5z m-3930 -10 c-3 -3 -12 -4
-19 -1 -8 3 -5 6 6 6 11 1 17 -2 13 -5z m3890 0 c-3 -3 -12 -4 -19 -1 -8 3 -5
6 6 6 11 1 17 -2 13 -5z m108 -13 c-11 -10 -32 -15 -55 -11 -8 2 1 6 20 10 19
4 37 8 40 9 2 0 0 -3 -5 -8z m-3908 -7 c-3 -3 -12 -4 -19 -1 -8 3 -5 6 6 6 11
1 17 -2 13 -5z m97 -25 c-3 -5 -17 -9 -32 -9 -25 1 -26 2 -9 15 20 14 51 10
41 -6z m3692 6 c-11 -8 -29 -15 -40 -14 -15 0 -10 4 14 13 46 18 48 18 26 1z
m-3189 -47 c-3 -7 -5 -2 -5 12 0 14 2 19 5 13 2 -7 2 -19 0 -25z m-10 -195
c-2 -32 -3 -8 -3 52 0 61 1 87 3 58 2 -29 2 -78 0 -110z m2650 -135 c-2 -29
-3 -6 -3 52 0 58 1 81 3 53 2 -29 2 -77 0 -105z m-3492 -55 c-11 -3 -25 -9
-31 -14 -8 -6 -14 -5 -17 4 -3 9 6 13 32 14 20 1 27 -1 16 -4z m4328 0 c-7 -2
-19 -2 -25 0 -7 3 -2 5 12 5 14 0 19 -2 13 -5z m-4262 -12 c-24 -16 8 -24 72
-18 40 4 51 3 32 -3 -49 -13 -105 -11 -120 4 -16 15 -10 26 14 26 13 0 13 -2
2 -9z m4206 3 c-3 -3 -12 -4 -19 -1 -8 3 -5 6 6 6 11 1 17 -2 13 -5z m-4150
-10 c-3 -3 -12 -4 -19 -1 -8 3 -5 6 6 6 11 1 17 -2 13 -5z m4090 0 c-3 -3 -12
-4 -19 -1 -8 3 -5 6 6 6 11 1 17 -2 13 -5z m95 -10 c-14 -9 -36 -14 -60 -11
l-37 4 42 1 c23 1 45 7 48 12 3 6 11 10 18 10 6 0 1 -7 -11 -16z m-155 0 c-3
-3 -12 -4 -19 -1 -8 3 -5 6 6 6 11 1 17 -2 13 -5z m-3952 -24 c3 -6 -1 -7 -9
-4 -18 7 -21 14 -7 14 6 0 13 -4 16 -10z m3862 4 c-3 -3 -12 -4 -19 -1 -8 3
-5 6 6 6 11 1 17 -2 13 -5z m103 -9 c-7 -8 -20 -15 -29 -15 -11 1 -8 5 9 15
32 18 35 18 20 0z m-127 -22 c-7 -2 -19 -2 -25 0 -7 3 -2 5 12 5 14 0 19 -2
13 -5z m-1450 -600 c-7 -2 -21 -2 -30 0 -10 3 -4 5 12 5 17 0 24 -2 18 -5z
m-838 -22 c3 -5 1 -12 -5 -16 -5 -3 -10 1 -10 9 0 18 6 21 15 7z m-945 -514
c0 -345 4 -513 11 -537 8 -24 14 -297 19 -865 5 -478 12 -855 18 -890 14 -83
15 -505 1 -505 -26 0 -67 63 -73 113 -3 29 -6 503 -6 1054 0 657 -3 1004 -10
1008 -6 4 -10 107 -10 275 0 168 4 271 10 275 6 4 10 112 10 291 0 246 2 284
15 284 13 0 15 -63 15 -503z m2750 197 c0 -218 3 -301 12 -317 18 -30 18 -456
0 -512 -9 -31 -12 -282 -12 -1063 0 -750 -3 -1029 -11 -1045 -7 -12 -21 -29
-33 -38 -21 -17 -21 -17 -28 29 -10 71 -8 302 4 437 9 107 18 693 33 2290 3
275 7 506 10 513 3 7 9 10 15 7 6 -4 10 -114 10 -301z m-1483 -836 c-1 -117
-2 -22 -2 212 0 234 1 329 2 213 2 -117 2 -309 0 -425z m190 -330 c-2 -13 -4
-5 -4 17 -1 22 1 32 4 23 2 -10 2 -28 0 -40z m-69 -45 c-10 -2 -28 -2 -40 0
-13 2 -5 4 17 4 22 1 32 -1 23 -4z m49 1 c-3 -3 -12 -4 -19 -1 -8 3 -5 6 6 6
11 1 17 -2 13 -5z m-280 -171 c-2 -27 -3 -5 -3 47 0 52 1 74 3 48 2 -27 2 -69
0 -95z m306 86 c-6 -6 -7 3 -4 23 4 28 6 29 9 9 2 -13 0 -27 -5 -32z m126
-231 c-2 -77 -6 -69 -11 20 -2 28 0 52 5 52 4 0 6 -33 6 -72z m-434 53 c3 -5
1 -12 -5 -16 -5 -3 -10 1 -10 9 0 18 6 21 15 7z m98 -57 c48 -13 49 -14 10 -9
-49 6 -93 24 -93 38 0 5 7 4 15 -3 9 -7 39 -19 68 -26z m324 -116 c-3 -8 -6
-5 -6 6 -1 11 2 17 5 13 3 -3 4 -12 1 -19z m-420 -20 c-3 -8 -6 -5 -6 6 -1 11
2 17 5 13 3 -3 4 -12 1 -19z m410 -60 c-3 -7 -5 -2 -5 12 0 14 2 19 5 13 2 -7
2 -19 0 -25z m-400 -30 c-3 -7 -5 -2 -5 12 0 14 2 19 5 13 2 -7 2 -19 0 -25z
m390 -30 c-3 -8 -6 -5 -6 6 -1 11 2 17 5 13 3 -3 4 -12 1 -19z m-380 -30 c-3
-8 -6 -5 -6 6 -1 11 2 17 5 13 3 -3 4 -12 1 -19z m-1717 -11 c0 -15 -35 -47
-52 -47 -7 0 -29 -18 -49 -40 -21 -22 -43 -40 -51 -40 -14 -1 -58 -34 -58 -45
0 -10 -28 -35 -39 -35 -6 0 -11 9 -11 20 0 26 79 110 103 110 9 0 20 7 23 15
4 8 14 15 25 15 10 0 22 6 26 14 8 14 60 46 76 46 4 0 7 -6 7 -13z m2087 -19
c-3 -8 -6 -5 -6 6 -1 11 2 17 5 13 3 -3 4 -12 1 -19z m1791 -3 c11 -14 28 -25
37 -25 9 0 26 -11 37 -25 11 -14 26 -25 35 -25 20 0 85 -68 78 -81 -12 -19
-41 -7 -75 31 -19 22 -42 40 -51 40 -9 0 -26 13 -38 29 -13 16 -38 37 -57 46
-40 19 -44 35 -10 35 14 0 33 -11 44 -25z m-2151 -37 c-3 -7 -5 -2 -5 12 0 14
2 19 5 13 2 -7 2 -19 0 -25z m350 -60 c-2 -13 -4 -5 -4 17 -1 22 1 32 4 23 2
-10 2 -28 0 -40z m-340 -20 c-3 -7 -5 -2 -5 12 0 14 2 19 5 13 2 -7 2 -19 0
-25z m-232 -18 c-27 -12 -43 -12 -25 0 8 5 22 9 30 9 10 0 8 -3 -5 -9z m242
-32 c-3 -8 -6 -5 -6 6 -1 11 2 17 5 13 3 -3 4 -12 1 -19z m-247 8 c0 -2 -7 -7
-16 -10 -8 -3 -12 -2 -9 4 6 10 25 14 25 6z m837 -63 c-3 -10 -5 -2 -5 17 0
19 2 27 5 18 2 -10 2 -26 0 -35z m-280 5 c-3 -7 -5 -2 -5 12 0 14 2 19 5 13 2
-7 2 -19 0 -25z m-300 -20 c-3 -7 -5 -2 -5 12 0 14 2 19 5 13 2 -7 2 -19 0
-25z m290 -50 c-3 -7 -5 -2 -5 12 0 14 2 19 5 13 2 -7 2 -19 0 -25z m-280 -30
c-3 -8 -6 -5 -6 6 -1 11 2 17 5 13 3 -3 4 -12 1 -19z m10 -55 c-3 -10 -5 -4
-5 12 0 17 2 24 5 18 2 -7 2 -21 0 -30z m-2260 -5 c-3 -8 -6 -5 -6 6 -1 11 2
17 5 13 3 -3 4 -12 1 -19z m2510 -445 c-1 -76 -3 -14 -3 137 0 151 2 213 3
138 2 -76 2 -200 0 -275z m110 220 c-3 -10 -5 -2 -5 17 0 19 2 27 5 18 2 -10
2 -26 0 -35z m-2660 -65 c-3 -7 -5 -2 -5 12 0 14 2 19 5 13 2 -7 2 -19 0 -25z
m2310 -555 c-1 -104 -2 -19 -2 187 0 206 1 291 2 188 2 -104 2 -272 0 -375z
m340 435 c-2 -24 -4 -5 -4 42 0 47 2 66 4 43 2 -24 2 -62 0 -85z m-2660 -210
c-2 -18 -4 -4 -4 32 0 36 2 50 4 33 2 -18 2 -48 0 -65z m4883 42 c0 -11 -2
-20 -4 -20 -2 0 -6 9 -9 20 -3 11 -1 20 4 20 5 0 9 -9 9 -20z m-23 -182 c-3
-8 -6 -5 -6 6 -1 11 2 17 5 13 3 -3 4 -12 1 -19z m-4890 -250 c-3 -8 -6 -5 -6
6 -1 11 2 17 5 13 3 -3 4 -12 1 -19z m4940 -35 c-3 -10 -5 -2 -5 17 0 19 2 27
5 18 2 -10 2 -26 0 -35z m-4950 -30 c-3 -10 -5 -2 -5 17 0 19 2 27 5 18 2 -10
2 -26 0 -35z m4960 -85 c-3 -7 -5 -2 -5 12 0 14 2 19 5 13 2 -7 2 -19 0 -25z
m-4962 12 c3 -5 1 -10 -4 -10 -6 0 -11 5 -11 10 0 6 2 10 4 10 3 0 8 -4 11
-10z m2592 -282 c-3 -8 -6 -5 -6 6 -1 11 2 17 5 13 3 -3 4 -12 1 -19z m0 -40
c-3 -8 -6 -5 -6 6 -1 11 2 17 5 13 3 -3 4 -12 1 -19z m-2584 -18 c-3 -12 -8
-19 -11 -16 -5 6 5 36 12 36 2 0 2 -9 -1 -20z m4956 -23 c0 -21 -1 -21 -9 -2
-12 28 -12 37 0 30 6 -3 10 -16 9 -28z m-2372 -230 c-1 -45 -3 -5 -3 88 0 94
2 130 3 82 2 -48 2 -125 0 -170z m2162 166 c0 -53 -3 -72 -9 -58 -12 28 -12
135 0 135 6 0 10 -32 9 -77z m18 -15 c-3 -7 -5 -2 -5 12 0 14 2 19 5 13 2 -7
2 -19 0 -25z m-2400 -320 c-2 -13 -4 -5 -4 17 -1 22 1 32 4 23 2 -10 2 -28 0
-40z m210 -65 c-3 -10 -5 -4 -5 12 0 17 2 24 5 18 2 -7 2 -21 0 -30z m-200
-25 c-3 -7 -5 -2 -5 12 0 14 2 19 5 13 2 -7 2 -19 0 -25z m186 -39 c-6 -6 -26
-9 -44 -6 l-34 4 38 1 c20 1 37 7 37 14 0 6 3 8 7 5 4 -4 2 -12 -4 -18z m-153
-5 c0 -2 -7 -4 -15 -4 -8 0 -15 4 -15 10 0 5 7 7 15 4 8 -4 15 -8 15 -10z
m-2099 -1306 c8 -15 8 -18 0 -14 -6 4 -16 16 -22 28 -8 15 -8 18 0 14 6 -4 16
-16 22 -28z m4319 -4 c-8 -8 -23 -20 -34 -25 -13 -7 -9 -1 9 15 34 29 43 33
25 10z m-4241 -41 c2 -2 0 -3 -6 -3 -6 0 -21 9 -34 21 l-24 20 30 -17 c17 -10
32 -19 34 -21z m96 -56 c16 -15 -48 20 -70 38 -11 9 -2 7 20 -6 22 -12 45 -26
50 -32z m4035 29 c0 -2 -7 -7 -16 -10 -8 -3 -12 -2 -9 4 6 10 25 14 25 6z
m-40 -21 c0 -2 -13 -11 -30 -20 -38 -19 -40 -11 -2 9 31 17 32 18 32 11z
m-3955 -33 c-3 -3 -11 0 -18 7 -9 10 -8 11 6 5 10 -3 15 -9 12 -12z m49 -31
c-2 -3 -12 3 -22 13 -16 17 -16 18 5 5 12 -7 20 -15 17 -18z m3815 16 c-2 -1
-13 -9 -24 -17 -19 -14 -19 -14 -6 3 7 9 18 17 24 17 6 0 8 -1 6 -3z m-49 -32
c0 -2 -18 -14 -40 -25 -22 -11 -40 -18 -40 -15 0 2 17 13 38 24 42 23 42 23
42 16z m-3620 -61 c0 -2 -13 2 -30 11 -16 9 -30 18 -30 21 0 2 14 -2 30 -11
17 -9 30 -18 30 -21z m3525 6 c-3 -5 -12 -10 -18 -10 -7 0 -6 4 3 10 19 12 23
12 15 0z m-3855 -160 c0 -5 -2 -10 -4 -10 -3 0 -8 5 -11 10 -3 6 -1 10 4 10 6
0 11 -4 11 -10z m32 -17 c-6 -2 -9 -10 -6 -15 4 -7 2 -8 -4 -4 -18 11 -14 26
6 25 10 0 12 -3 4 -6z m4128 -2 c0 -6 -5 -13 -12 -17 -6 -4 -8 -3 -4 4 3 5 0
13 -6 15 -8 3 -6 6 5 6 9 1 17 -3 17 -8z m-4070 -25 c0 -2 -7 -7 -16 -10 -8
-3 -12 -2 -9 4 6 10 25 14 25 6z m3987 -7 c-9 -6 -15 -14 -12 -19 9 -15 -14
-22 -32 -10 -15 9 -14 10 7 4 14 -3 22 -3 18 1 -9 10 10 35 26 35 6 0 3 -5 -7
-11z m-3942 -29 c-3 -5 -11 -10 -16 -10 -6 0 -7 5 -4 10 3 6 11 10 16 10 6 0
7 -4 4 -10z m22 -7 c-4 -3 -1 -13 6 -22 11 -14 10 -14 -5 -2 -16 12 -16 31 -1
31 4 0 3 -3 0 -7z m3829 -14 c-13 -8 -15 -13 -6 -19 9 -5 8 -9 -3 -13 -8 -3
-14 0 -13 6 3 20 17 37 29 37 7 0 4 -5 -7 -11z m44 7 c0 -2 -8 -10 -17 -17
-16 -13 -17 -12 -4 4 13 16 21 21 21 13z m-3814 -42 c1 -9 -1 -13 -4 -9 -4 4
-7 10 -7 13 0 4 -4 14 -9 22 -7 12 -6 13 4 3 8 -7 15 -20 16 -29z m29 -3 c3
-5 2 -12 -3 -15 -5 -3 -9 1 -9 9 0 17 3 19 12 6z m3688 -17 c-22 -16 -33 -18
-33 -3 0 5 5 7 10 4 6 -3 10 1 10 9 0 10 6 13 15 10 14 -6 13 -8 -2 -20z
m-3663 -4 c0 -5 -5 -10 -11 -10 -5 0 -7 5 -4 10 3 6 8 10 11 10 2 0 4 -4 4
-10z"/>
</g>
</svg>
